<svg width="68" height="134" viewBox="0 0 68 134" fill="none" xmlns="http://www.w3.org/2000/svg">
<mask id="mask0_62_117" style="mask-type:luminance" maskUnits="userSpaceOnUse" x="0" y="0" width="68" height="134">
<path d="M0.152344 0.499023H67.8476V133.331H0.152344V0.499023Z" fill="white"/>
</mask>
<g mask="url(#mask0_62_117)">
<path d="M67.7018 61.4372C67.143 62.1814 66.3047 63.2051 63.7913 63.3918C61.2779 63.5772 58.0203 63.4845 57.6481 62.6462C57.276 61.8093 57.1833 60.3195 57.1833 60.3195C57.1833 60.3195 57.1833 64.7875 56.9039 65.2537C56.851 65.3411 56.6894 65.4563 56.4457 65.5887C56.0511 73.8784 55.487 83.7851 54.8249 89.9203C53.4596 102.58 46.3841 130.506 46.3841 130.506C45.877 131.389 45.2334 132.005 44.5236 132.492C40.8117 132.746 37.3277 132.029 33.9733 130.755C33.9733 130.755 32.7325 112.881 35.7108 99.3529L36.2855 77.773L26.0305 131.251C24.4454 132.376 22.2962 132.924 19.8357 133.153C19.8 133.215 19.7179 133.222 19.6782 133.166C19.359 133.194 19.0359 133.219 18.7075 133.236C16.7423 132.176 15.1651 130.732 13.9905 128.893C13.9905 128.893 13.7429 85.7013 13.9905 74.0347C14.0501 71.2498 14.1309 68.4822 14.2183 65.8774C13.4251 65.6893 12.8782 65.5357 12.6875 65.4404C12.3723 65.2828 12.2492 64.1466 12.22 62.7667C12.1697 60.3407 12.4081 57.1546 12.4081 57.1546C12.4081 57.1546 11.7671 60.489 11.2374 62.8992C10.9858 64.0459 10.7594 64.9835 10.6402 65.2537C10.2668 66.0906 5.98549 65.8125 4.2163 65.3464C2.44844 64.8815 0.493857 64.23 0.214442 63.2991C0.161472 63.1256 0.203848 62.1986 0.320381 60.7459C0.830214 54.4002 2.77155 38.014 4.58974 30.4393C6.82373 21.1312 9.89465 13.1262 9.89465 13.1262C9.89465 13.1262 9.42984 12.1025 10.1741 10.7995C10.917 9.49905 21.9598 4.28021 30.6071 2.77455C31.2097 2.01046 32.1181 0.924582 32.5339 0.74581C33.1854 0.466395 40.2357 5.40052 40.2357 5.40052C40.2357 5.40052 44.4494 0.651788 45.101 1.0239C45.4029 1.19738 46.0849 2.1707 46.7298 3.16388C46.7324 3.14534 46.7337 3.13474 46.7337 3.13474C53.7151 6.5791 60.8131 10.1466 61.0925 11.5437C61.3719 12.9394 61.0925 14.4292 61.0925 14.4292C61.0925 14.4292 64.1647 29.7878 64.8149 34.8146C65.3539 38.9661 67.3522 53.9155 67.7177 59.4111C67.7945 60.5685 67.7985 61.3074 67.7018 61.4372Z" fill="white"/>
</g>
<mask id="mask1_62_117" style="mask-type:luminance" maskUnits="userSpaceOnUse" x="0" y="2" width="68" height="132">
<path d="M0.21582 2.53271H67.8475V133.331H0.21582V2.53271Z" fill="white"/>
</mask>
<g mask="url(#mask1_62_117)">
<path d="M25.4995 69.2584C25.3631 71.6606 25.1896 74.0588 24.9764 76.4557C24.5963 80.7092 24.2242 84.964 23.8521 89.2188C23.6654 91.3481 23.4694 93.4762 23.2827 95.6042C23.0986 97.6966 22.9238 99.7809 22.5596 101.851C22.5411 101.954 22.3862 101.924 22.3848 101.828C22.3504 99.4167 22.5729 97.0225 22.7649 94.6217C23.1065 90.3642 23.4667 86.1068 23.8786 81.8546C24.2864 77.6382 24.6917 73.4245 25.2796 69.2293C25.2968 69.1022 25.5061 69.134 25.4995 69.2584ZM20.6673 115.783C20.3336 117.171 20.2475 118.621 20.1151 120.039C19.98 121.477 19.8966 122.923 19.8118 124.365C19.641 127.272 19.5046 130.2 19.6542 133.111C19.6556 133.135 19.6675 133.149 19.6781 133.165C19.7191 133.219 19.7999 133.214 19.8357 133.152C19.8423 133.139 19.8529 133.129 19.8555 133.111C20.1138 130.231 20.1985 127.334 20.3561 124.446C20.4342 123.031 20.5402 121.618 20.6223 120.202C20.707 118.741 20.8725 117.264 20.8037 115.8C20.7997 115.726 20.6858 115.704 20.6673 115.783ZM49.7397 103.472C49.206 105.249 48.9465 107.12 48.6115 108.943C48.2804 110.752 47.9745 112.566 47.6606 114.378C47.0303 118.032 46.4159 121.688 45.8041 125.345C45.4664 127.364 45.0929 129.387 44.9433 131.429C44.934 131.548 45.1168 131.568 45.1472 131.457C45.6346 129.66 45.9352 127.812 46.253 125.98C46.5681 124.167 46.882 122.355 47.1972 120.542C47.8301 116.89 48.4658 113.234 49.0418 109.572C49.3583 107.562 49.7821 105.525 49.8761 103.49C49.8801 103.411 49.7622 103.399 49.7397 103.472ZM42.6338 56.7814C42.3557 59.2286 41.9439 61.6626 41.5572 64.0952C41.4036 65.0606 41.2434 66.026 41.0619 66.9874C41.0037 67.2972 40.9428 67.6084 40.8766 67.917C40.858 68.0044 40.7693 68.2136 40.7468 68.3513C40.7243 68.354 40.7004 68.3579 40.6726 68.3593C40.4263 68.3818 40.1707 68.3566 39.9244 68.3368C39.408 68.297 38.8955 68.2255 38.379 68.1752C38.2426 68.1633 38.085 68.2878 38.0572 68.4215C37.7553 69.8411 37.456 71.262 37.1554 72.6829C36.8535 74.1091 36.4655 75.5301 36.3092 76.9801C36.2828 77.233 36.6403 77.237 36.7198 77.0357C37.2495 75.6784 37.4931 74.2111 37.807 72.7915C38.0943 71.4871 38.3684 70.1788 38.6439 68.8718C39.0372 68.9141 39.4305 68.9618 39.8238 68.9949C40.2078 69.0267 40.6938 69.1022 41.0633 68.9592C41.4857 68.795 41.491 68.1553 41.5599 67.7793C41.9492 65.6287 42.2246 63.4556 42.4577 61.2825C42.6179 59.7875 42.7106 58.2831 42.7821 56.7814C42.7861 56.6847 42.6444 56.69 42.6338 56.7814ZM67.7176 59.41C66.6357 59.945 65.1605 60.4641 63.2324 60.6906C59.0981 61.1766 57.1819 60.3185 57.1819 60.3185C57.1819 60.3185 57.1819 64.7865 56.9039 65.2513C56.8509 65.3387 56.688 65.4552 56.4457 65.5876C55.6803 66.0087 54.1057 66.6047 52.6054 67.0562C52.6914 69.1075 52.4875 71.1879 52.3829 73.2351C52.1856 77.094 51.9326 80.9515 51.681 84.8077C51.5552 86.7252 51.4294 88.644 51.301 90.5629C51.1792 92.3996 51.0613 94.2456 50.7713 96.0638C50.7514 96.1843 50.5687 96.1485 50.566 96.0359C50.5104 93.9026 50.6799 91.7639 50.8084 89.6359C51.0428 85.7784 51.2732 81.9208 51.5221 78.0633C51.6453 76.1445 51.7658 74.2257 51.9115 72.3082C52.0439 70.5814 52.118 68.8241 52.4107 67.1132C50.7276 67.6071 49.1875 67.8971 49.0604 67.5171C48.7108 66.4696 46.7019 61.4295 44.7274 55.2969C42.7437 55.3168 40.7587 55.3181 38.7763 55.2903C38.6836 55.289 38.5909 55.2877 38.4995 55.2864C35.7928 62.5843 33.6952 67.4919 33.0503 68.1368C31.9339 69.2531 18.8425 66.9728 14.2196 65.875C13.425 65.687 12.8794 65.5333 12.6874 65.438C12.3722 65.2804 12.2504 64.1455 12.2213 62.7643C12.1696 60.3397 12.4093 57.1535 12.4093 57.1535C12.4093 57.1535 11.7671 60.488 11.2387 62.8981C10.0416 63.0186 8.30682 63.057 6.07944 62.7379C3.23232 62.3313 1.34792 61.3977 0.320312 60.7436C0.830146 54.3978 2.77148 38.0116 4.58967 30.4383C6.82367 21.1288 9.89591 13.1238 9.89591 13.1238C9.89591 13.1238 9.42977 12.1001 10.1753 10.7971C10.9169 9.49668 21.9598 4.27784 30.6071 2.7735C30.6296 2.76952 30.6534 2.76423 30.6759 2.76025C30.6759 2.76025 31.2387 4.14276 32.1405 6.44695C32.2849 6.81509 32.4372 7.20574 32.5987 7.6189C32.8477 8.25851 33.1138 8.94712 33.3972 9.68472L31.5261 11.4301C31.3367 11.242 31.0282 11.1785 30.7845 11.1003C30.3475 10.9586 29.9092 10.8262 29.4722 10.6858C28.7385 10.4501 27.8156 10.2488 27.1958 9.76682C27.1137 9.70326 27.0621 9.6397 27.0779 9.6781C27.0541 9.61983 27.0488 9.54567 27.0382 9.48476C26.9919 9.23448 26.9574 8.9842 26.9084 8.73391C26.7628 7.98704 26.6449 7.23487 26.4966 6.488C26.335 5.67491 26.1761 4.85785 26.0848 4.03285C26.0689 3.89645 25.8636 3.88851 25.8649 4.03285C25.8914 5.61135 26.0609 7.19117 26.3099 8.7498C26.3668 9.10603 26.3986 9.69929 26.6542 9.98797C26.8475 10.2078 27.2263 10.3402 27.4858 10.4581C27.8818 10.6369 28.2896 10.7852 28.6988 10.9269C29.2087 11.103 29.7238 11.2632 30.2349 11.434C30.4998 11.5214 30.8494 11.7055 31.1738 11.7585L31.1407 11.7889H26.5337C26.5337 11.7889 31.9061 21.8969 35.4233 27.2879C37.3117 30.184 39.8198 33.8972 41.7267 36.6993C41.6274 37.2197 41.5281 37.7388 41.4274 38.2592C41.2063 38.8551 41.0077 39.4709 40.9706 40.1013C40.9242 40.8918 41.0818 41.7182 41.2142 42.4942C41.3599 43.339 41.4261 44.2514 41.7307 45.0552C41.7572 45.1268 41.8313 45.1387 41.883 45.1082C41.9081 45.0923 41.9306 45.0685 41.932 45.0274C42.022 43.4026 41.344 41.8003 41.3586 40.1794C41.3665 39.3742 41.6883 38.6102 41.8922 37.8421C41.9691 37.5534 42.0512 37.2647 42.1293 36.976C43.5396 33.8998 45.3843 29.8384 46.7575 26.6787C46.8489 26.4682 46.9429 26.2497 47.0369 26.0272C47.1058 26.0457 47.1866 26.0537 47.2793 26.0643C47.6937 26.108 48.1082 26.1384 48.524 26.1662C50.3687 26.2934 52.224 26.3689 54.0739 26.3636C54.3335 26.3636 54.9559 26.4761 55.0446 26.1464C55.1214 25.8551 55.0724 25.4723 55.0751 25.1731C55.0777 24.9969 55.1254 24.7387 54.9559 24.6248C54.9082 24.593 54.8447 24.5758 54.7784 24.5639C53.9375 23.3231 53.0583 21.8545 52.8146 21.8519C52.6491 21.8492 52.3802 22.0637 52.0849 22.3657C51.4824 21.6175 51.0017 21.0613 50.7647 21.0454C50.2999 21.0136 48.5042 23.1708 47.8977 23.9177C50.276 17.9175 52.9377 9.91514 52.9377 9.91514L48.3943 10.6845L48.2817 10.6104C48.4751 10.5309 48.6631 10.4236 48.8114 10.3588C49.169 10.2025 49.5252 10.0436 49.8708 9.86217C50.1304 9.72445 50.3846 9.57481 50.6283 9.40928C50.864 9.25037 51.1222 9.12059 51.3354 8.9299C51.6678 8.63327 51.4347 7.98837 51.3513 7.6242C51.1447 6.72769 50.7753 5.86958 50.3965 5.03265C50.3449 4.91877 50.1608 4.99955 50.1952 5.11741C50.4442 5.94373 50.6111 6.78463 50.7779 7.63082C50.8269 7.87845 50.8746 8.13138 50.8918 8.38431C50.8944 8.43199 50.8891 8.4876 50.8918 8.54057C50.86 8.56971 50.8216 8.62268 50.807 8.63592C50.4217 9.01333 49.99 9.27818 49.508 9.51919C49.1928 9.6781 48.871 9.82112 48.5439 9.95354C48.3228 10.0423 47.9891 10.1125 47.7706 10.2727L46.0199 9.11662C46.053 8.85707 46.0848 8.60679 46.1153 8.3618C46.1576 8.02677 46.196 7.70763 46.2344 7.4004C46.5377 4.92407 46.7059 3.38795 46.731 3.16282C46.7323 3.14428 46.7337 3.13369 46.7337 3.13369C53.7151 6.57805 60.813 10.1456 61.0924 11.5426C61.3718 12.9384 61.0924 14.4282 61.0924 14.4282C61.0924 14.4282 64.1647 29.7867 64.8149 34.8136C65.3538 38.9651 67.3534 53.9144 67.7176 59.41ZM16.9859 28.6068C17.0044 28.4665 16.7979 28.4002 16.7674 28.5459C16.6866 28.9339 16.5131 29.3113 16.4125 29.702C16.3013 30.139 16.2205 30.5839 16.1291 31.0249C15.9517 31.8764 15.8245 32.7385 15.6842 33.5952C15.4034 35.3048 15.1055 37.0118 14.8102 38.7187C14.1772 42.3697 13.5548 46.0325 13.1218 49.7126C12.8609 51.9387 12.6583 54.1674 12.5801 56.4093C12.5762 56.5272 12.7748 56.5603 12.792 56.4371C13.3495 52.5995 13.8157 48.7486 14.3891 44.9136C14.9201 41.3672 15.5094 37.8262 16.1755 34.3037C16.3489 33.382 16.5568 32.4617 16.6946 31.5334C16.7634 31.0606 16.8349 30.5892 16.8998 30.1151C16.9263 29.9125 16.9422 29.7099 16.9607 29.506C16.9859 29.2027 16.9462 28.9021 16.9859 28.6068ZM16.8336 24.1322C16.4708 22.759 15.9464 21.4466 15.3346 20.1661C14.2209 17.8354 12.845 15.62 11.0453 13.7568C10.9897 13.6998 10.8851 13.7753 10.9315 13.8442C12.3179 15.9047 13.6078 18.0751 14.6473 20.333C15.222 21.5804 15.716 22.8768 16.1251 24.1878C16.5105 25.4247 16.6482 26.7304 17.0614 27.9513C17.0905 28.0361 17.2296 28.052 17.2507 27.9513C17.5116 26.7012 17.1541 25.3452 16.8336 24.1322ZM44.5434 54.7196C44.154 53.4946 43.7674 52.23 43.3979 50.9481C42.8788 49.1511 42.3941 47.3237 41.9757 45.5227C41.3281 47.4111 40.6925 49.2253 40.078 50.9481C39.604 52.275 39.1418 53.5436 38.6955 54.754C40.2859 54.7394 41.8764 54.7275 43.4681 54.7183C43.8256 54.7156 44.1845 54.7183 44.5434 54.7196ZM44.7274 40.533C44.7274 39.5676 44.2388 38.785 43.6363 38.785C43.0337 38.785 42.5451 39.5676 42.5451 40.533C42.5451 41.4983 43.0337 42.2823 43.6363 42.2823C44.2388 42.2823 44.7274 41.4983 44.7274 40.533ZM60.1615 15.5458C60.1628 15.4465 60.0158 15.428 59.9893 15.522C59.4424 17.4686 58.9776 19.4378 58.3089 21.3487C58.0043 22.2174 57.656 23.0688 57.3501 23.9375C56.974 25.0049 56.6734 26.0391 56.4947 27.1594C56.488 27.2031 56.5172 27.2389 56.5516 27.2521C56.5423 28.1407 56.5039 29.0253 56.5225 29.9178C56.545 30.9282 56.5609 31.9399 56.5741 32.9517C56.6006 35.0956 56.6655 37.2396 56.6959 39.3835C56.7582 43.8581 56.8297 48.3327 56.8655 52.8087C56.884 55.1605 56.9462 57.5045 57.0667 59.8537C57.0747 60.002 57.2905 60.002 57.2985 59.8537C57.5183 55.5578 57.4759 51.2607 57.4508 46.9608C57.4243 42.5418 57.3435 38.1255 57.1939 33.7091C57.1555 32.5623 57.0853 31.4155 57.0191 30.2701C56.9568 29.2094 56.8257 28.1712 56.7092 27.1184C56.7079 27.1104 56.7026 27.1078 56.6999 27.1012C57.6679 25.3333 58.3724 23.4515 59.012 21.542C59.6649 19.5887 60.1204 17.6116 60.1615 15.5458ZM54.7109 24.9268C54.6884 24.9201 54.6672 24.9135 54.6619 24.9122C54.4871 24.8817 54.3123 24.8592 54.1362 24.8394C52.8371 24.6884 51.5301 24.6129 50.227 24.499C49.4153 24.4275 48.577 24.2845 47.7573 24.2713C47.5547 24.7784 47.3561 25.2671 47.1601 25.7359C47.3057 25.7716 47.5229 25.7597 47.6474 25.7716C48.5558 25.8564 49.4682 25.9027 50.3806 25.9398C51.7817 25.9967 53.2052 26.0788 54.6076 26.0087C54.6262 26.0087 54.6659 26.0047 54.7016 26.002C54.703 25.9928 54.703 25.9848 54.703 25.9822C54.6725 25.6657 54.7202 25.3267 54.7162 25.0062C54.7149 24.9996 54.7122 24.9638 54.7109 24.9268Z" fill="#F3EDE2"/>
</g>
<mask id="mask2_62_117" style="mask-type:luminance" maskUnits="userSpaceOnUse" x="0" y="0" width="68" height="66">
<path d="M0.152344 0.499023H67.8476V65.9272H0.152344V0.499023Z" fill="white"/>
</mask>
<g mask="url(#mask2_62_117)">
<path d="M44.2719 11.9621C43.5621 12.4031 41.2089 10.9173 41.2089 10.9173C40.3574 11.6986 38.6333 10.9372 38.6333 10.9372C38.6333 10.9372 36.8853 12.378 35.8219 12.276C35.2591 12.2217 34.6777 10.6273 34.4023 9.05146C33.8077 8.59063 33.1906 8.12185 32.5987 7.62128C32.8476 8.26089 33.1138 8.9495 33.3972 9.68578C35.8484 16.0686 39.4609 25.8521 42.1107 34.6345C43.9541 24.5716 45.2743 15.0119 46.0199 9.11768C46.053 8.85812 46.0848 8.60784 46.1152 8.36286C45.8649 8.64095 45.6094 8.91242 45.3485 9.17992C45.1777 10.43 44.8069 11.6311 44.2719 11.9621ZM39.7522 14.751C39.7258 14.1657 40.0701 13.6744 40.5203 13.6545C40.9705 13.6333 41.3572 14.0915 41.3837 14.6768C41.4102 15.2622 41.0672 15.7535 40.617 15.7746C40.1654 15.7945 39.7787 15.3363 39.7522 14.751ZM40.425 21.6026C40.3985 21.0173 40.7428 20.526 41.193 20.5048C41.6433 20.485 42.0299 20.9418 42.0564 21.5285C42.0829 22.1138 41.7399 22.6051 41.2897 22.625C40.8394 22.6461 40.4514 22.188 40.425 21.6026ZM41.7545 29.0952C41.3043 29.1151 40.9176 28.6569 40.8911 28.0716C40.8646 27.4862 41.2076 26.995 41.6578 26.9738C42.1081 26.9539 42.4961 27.4121 42.5226 27.9974C42.549 28.5827 42.2047 29.074 41.7545 29.0952ZM41.977 45.5238C42.3941 47.3247 42.8788 49.1522 43.3979 50.9492H40.078C40.6938 49.2263 41.3294 47.4121 41.977 45.5238ZM46.7297 3.16388C46.7058 3.389 46.5377 4.92512 46.2344 7.40146C45.9682 7.68749 45.7047 7.97485 45.4359 8.25957C45.5034 7.03994 45.3604 5.97127 44.9671 5.86136C44.3063 5.67862 42.4656 6.6281 41.5651 7.12601C41.144 6.60426 40.7216 6.08384 40.3071 5.55811C40.2502 5.48528 40.1548 5.51838 40.1111 5.58327C40.0926 5.59254 40.0754 5.60711 40.0608 5.62962C39.7244 6.1805 39.3536 6.7102 38.9643 7.22666C38.228 6.84263 35.4604 5.46277 34.6142 5.98717C34.2447 6.21626 34.1745 7.15118 34.2871 8.23441C33.8077 7.8464 33.3336 7.4531 32.8662 7.05583C32.6252 6.8519 32.3828 6.65061 32.1418 6.44933C31.2387 4.14514 30.6759 2.76131 30.6759 2.76131C30.6534 2.76528 30.6295 2.77058 30.607 2.77455C31.2109 2.01046 32.118 0.923261 32.5338 0.745813C33.1853 0.466398 40.2356 5.3992 40.2356 5.3992C40.2356 5.3992 44.4493 0.651791 45.1009 1.0239C45.4028 1.19738 46.0848 2.1707 46.7297 3.16388ZM41.0553 7.41602C41.0553 7.41602 40.3535 6.983 39.4305 7.22931C39.7125 6.79231 39.9747 6.34206 40.2171 5.87725C40.5349 6.36987 40.8606 6.85455 41.1957 7.33392C41.1069 7.38557 41.0553 7.41602 41.0553 7.41602ZM11.2387 62.8991C10.9871 64.0446 10.7606 64.9835 10.6401 65.2537C10.268 66.0906 5.9854 65.8112 4.21753 65.3464C2.44835 64.8802 0.493765 64.2287 0.214351 63.2977C0.162705 63.1243 0.203757 62.1973 0.32029 60.7446C1.3479 61.4001 3.2323 62.3337 6.07942 62.7402C8.30679 63.0581 10.0416 63.0197 11.2387 62.8991ZM67.7017 61.4372C67.1429 62.1814 66.3046 63.205 63.7912 63.3918C61.2778 63.5772 58.0202 63.4845 57.6481 62.6462C57.2759 61.8093 57.1832 60.3195 57.1832 60.3195C57.1832 60.3195 59.0994 61.179 63.2337 60.6916C65.1605 60.4652 66.6357 59.9461 67.7176 59.4111C67.7944 60.5685 67.7984 61.3074 67.7017 61.4372ZM54.7784 24.5663C54.6963 24.5517 54.6102 24.5464 54.5427 24.5372C54.2884 24.5014 54.0329 24.4762 53.776 24.4524C53.7521 24.4498 53.7296 24.4484 53.7058 24.4458C53.6263 24.2922 53.5085 24.1531 53.4065 24.022C53.3284 23.9214 53.2502 23.8221 53.1721 23.7227C53.041 23.5532 52.9099 23.3851 52.7788 23.2156C52.608 22.9944 52.4305 22.7812 52.2504 22.5693C52.2041 22.515 52.1154 22.5852 52.1524 22.6435C52.4782 23.1454 52.8291 23.6287 53.1787 24.1134C53.2489 24.2114 53.3218 24.32 53.4025 24.4206C52.7801 24.3663 52.1577 24.32 51.5354 24.2776C51.2162 24.2551 50.8957 24.2405 50.5766 24.2246C50.0191 24.1968 49.4629 24.173 48.9054 24.1597C48.5187 24.1505 48.1162 24.116 47.7255 24.1319C47.7599 24.0909 47.8182 24.0167 47.8977 23.9201C48.5042 23.1732 50.2998 21.016 50.7633 21.0465C51.0017 21.0637 51.4824 21.6185 52.0849 22.3667C52.3802 22.0661 52.6477 21.8516 52.8146 21.8529C53.0582 21.8556 53.9375 23.3242 54.7784 24.5663Z" fill="#E3D6BF"/>
</g>
<path d="M45.4361 8.25909C45.4202 8.56102 45.3911 8.87222 45.3487 9.17944C45.1779 10.4295 44.8071 11.6306 44.2721 11.9617C43.5623 12.4027 41.2091 10.9169 41.2091 10.9169C40.3577 11.6982 38.6335 10.9367 38.6335 10.9367C38.6335 10.9367 36.8855 12.3775 35.8221 12.2755C35.2593 12.2212 34.678 10.6268 34.4025 9.05099C34.3535 8.77555 34.3151 8.50011 34.2873 8.23393C34.1748 7.15203 34.245 6.21579 34.6131 5.98669C35.4606 5.46229 38.2283 6.84215 38.9645 7.22618C39.0798 7.28578 39.1473 7.32285 39.1473 7.32285C39.244 7.28313 39.338 7.25399 39.4294 7.22883C40.3537 6.98252 41.0555 7.41555 41.0555 7.41555C41.0555 7.41555 41.1072 7.38509 41.1959 7.33345C41.2846 7.28313 41.4104 7.21029 41.5654 7.12554C42.4658 6.62763 44.3065 5.67815 44.9673 5.86221C45.3606 5.9708 45.5037 7.03947 45.4361 8.25909ZM41.3839 14.6764C41.3575 14.0911 40.9708 13.6329 40.5205 13.6541C40.0703 13.6739 39.726 14.1652 39.7525 14.7505C39.779 15.3372 40.1656 15.794 40.6159 15.7742C41.0674 15.753 41.4104 15.2617 41.3839 14.6764ZM42.0567 21.528C42.0302 20.9414 41.6435 20.4845 41.1932 20.5044C40.743 20.5256 40.3987 21.0169 40.4252 21.6022C40.4517 22.1875 40.8384 22.6457 41.2899 22.6245C41.7402 22.6046 42.0831 22.1133 42.0567 21.528ZM41.6581 26.9746C41.2078 26.9945 40.8648 27.4858 40.8913 28.0711C40.9178 28.6564 41.3045 29.1146 41.7547 29.0947C42.205 29.0735 42.5493 28.5823 42.5228 27.9969C42.4963 27.4116 42.1083 26.9534 41.6581 26.9746Z" fill="white"/>
</svg>
