<svg width="70" height="134" viewBox="0 0 70 134" fill="none" xmlns="http://www.w3.org/2000/svg">
<mask id="mask0_62_75" style="mask-type:luminance" maskUnits="userSpaceOnUse" x="7" y="0" width="46" height="25">
<path d="M7.64258 0.668945H52.4642V24.2922H7.64258V0.668945Z" fill="white"/>
</mask>
<g mask="url(#mask0_62_75)">
<path d="M51.8794 22.2263C51.538 21.5544 51.0083 21.0401 50.4087 20.598C49.8002 20.0159 49.0671 19.565 48.3208 19.1755C47.6445 18.8165 46.9376 18.5167 46.2198 18.2563C46.06 18.184 45.9002 18.1118 45.7383 18.044C44.2676 17.3743 42.7465 16.8052 41.1861 16.3763C40.5229 16.2034 39.8532 16.0546 39.1814 15.9189C38.6036 15.7504 38.0214 15.5928 37.4393 15.4462C35.2179 14.9778 32.944 14.7414 30.6744 14.7458C30.4468 14.748 30.217 14.7524 29.9894 14.7611C30.0179 14.5094 30.0485 14.26 30.0901 14.0105C30.0923 13.9995 30.0945 13.9908 30.0967 13.982C30.3746 12.6864 30.5606 12.3515 31.4186 11.2507C31.9219 10.6335 33.9748 8.48216 34.3096 6.88671C34.8458 4.85354 34.2659 2.32576 32.3334 1.24023C31.7687 0.938211 31.1515 0.747806 30.5125 0.693092C29.9369 0.673396 29.3504 0.732487 28.7988 0.898817C27.8468 1.21397 26.9845 1.85522 26.4243 2.68906C26.1004 3.20118 25.8968 3.77677 25.7546 4.3633C25.7042 4.63031 25.562 4.89512 25.5992 5.17088C25.6605 6.03974 26.8992 6.16667 27.1662 5.34378C27.3019 4.84697 27.4047 4.33704 27.6127 3.86431C27.7002 3.68923 27.8052 3.52071 27.9234 3.36313C27.93 3.35657 27.9344 3.35219 27.9387 3.34562C27.9584 3.32374 27.9803 3.29966 28.0022 3.27559C28.1554 3.11145 28.3305 2.967 28.51 2.83131C28.6653 2.72626 28.8273 2.62778 28.9958 2.5468C29.3832 2.3936 29.1425 2.45926 29.7662 2.33451C29.834 2.32576 29.9019 2.317 29.9675 2.31044C30.0551 2.30606 30.2105 2.2973 30.298 2.30168C30.8014 2.34326 30.6635 2.29949 31.3989 2.57087C31.5214 2.6431 31.8519 2.7569 32.3027 3.3303L32.3071 3.33468C32.4187 3.51195 32.5216 3.6936 32.6026 3.88838C32.6179 3.9234 32.631 3.96061 32.6463 3.99562C32.6638 4.04815 32.6813 4.10068 32.6945 4.15539C32.9418 5.11617 32.9287 5.09209 32.828 6.13166C32.7973 6.29361 32.7601 6.45337 32.712 6.61095C32.6551 6.7926 32.5872 6.96768 32.5085 7.14277C32.1824 7.77964 31.7315 8.34647 31.2916 8.90893C30.8451 9.51735 30.2499 10.0579 29.5605 11.0406C28.9827 11.8876 28.6281 12.8637 28.4881 13.877C28.4377 14.1658 28.4005 14.4547 28.3677 14.7436C28.3655 14.783 28.3611 14.8246 28.3568 14.864C27.7834 14.9209 27.2143 14.9975 26.6497 15.1025C26.5446 15.1222 26.4418 15.1441 26.3367 15.166C25.2993 15.2886 24.2685 15.4702 23.253 15.7263C19.0532 16.7659 14.9322 18.1315 10.9315 19.7795C10.3712 20.0224 9.73871 20.2675 9.22221 20.633C9.16312 20.6593 9.10841 20.6877 9.06026 20.7293C8.95958 20.7972 8.88299 20.8781 8.82827 20.9679C8.66851 21.1276 8.53282 21.3093 8.42777 21.5172C8.31615 21.666 8.22423 21.8302 8.16295 22.0096C7.96379 22.5699 8.27894 23.0492 8.84359 23.1739C9.43669 23.2724 9.97507 23.0995 10.4872 22.8303C10.5222 22.8172 10.5572 22.8041 10.5922 22.7844C10.7739 22.6771 10.9643 22.5787 11.1569 22.4911C11.6756 22.2701 12.1855 22.0315 12.6998 21.8061C13.4242 21.4866 13.7394 21.41 14.7943 21.1014C15.7529 20.83 16.7049 20.5345 17.6744 20.3135C18.9219 20.0356 20.1869 19.8583 21.4475 19.6591C23.4938 19.333 24.5115 19.2455 26.3696 19.112C28.1948 18.9763 30.0288 18.9063 31.8541 19.066C35.3164 19.3286 37.796 19.6963 40.9366 20.4404C44.2479 21.1561 46.8938 22.2416 49.4938 23.7058C49.9994 23.9531 50.5137 24.2354 51.0893 24.266C51.6474 24.2835 52.1595 23.8874 52.1704 23.3009C52.1704 22.9244 52.0216 22.5677 51.8794 22.2263Z" fill="#BBA065"/>
</g>
<mask id="mask1_62_75" style="mask-type:luminance" maskUnits="userSpaceOnUse" x="0" y="107" width="69" height="27">
<path d="M0.382812 107.772H68.7117V133.499H0.382812V107.772Z" fill="white"/>
</mask>
<g mask="url(#mask1_62_75)">
<path d="M2.05692 110.863C1.08739 110.985 0.503048 112.104 0.614665 113.075C0.728469 114.045 1.3347 114.879 1.93874 115.645C5.30912 119.928 9.2332 123.769 13.5862 127.047C15.8142 128.726 18.1756 130.266 20.7866 131.251C23.8112 132.394 27.0678 132.748 30.2915 132.982C37.1876 133.481 44.2195 133.449 50.8858 131.612C57.5522 129.778 63.8727 125.979 67.6655 120.199C68.0704 119.58 68.4599 118.877 68.3571 118.146C68.2236 117.183 67.3109 116.551 66.4727 116.058C47.1653 104.711 23.9119 108.125 2.05692 110.863Z" fill="#E3D6BF"/>
</g>
<path d="M32.6807 31.5094C32.6699 31.4986 32.6592 31.49 32.6484 31.4814C32.6721 31.5029 32.6807 31.5094 32.6807 31.5094Z" fill="white"/>
<path d="M38.5576 26.3975C38.5576 26.4017 38.5576 26.4081 38.5597 26.4145C38.5597 26.4124 38.5597 26.4102 38.5597 26.4102C38.5597 26.406 38.5576 26.4017 38.5576 26.3975Z" fill="white"/>
<mask id="mask2_62_75" style="mask-type:luminance" maskUnits="userSpaceOnUse" x="0" y="15" width="70" height="106">
<path d="M0.382812 15.3276H69.9417V120.098H0.382812V15.3276Z" fill="white"/>
</mask>
<g mask="url(#mask2_62_75)">
<path d="M55.7069 93.5426C50.3318 81.2144 46.8979 68.1575 43.7004 55.0787C43.7048 55.0787 43.7092 55.0787 43.7136 55.0787C43.7092 55.0612 43.7026 55.0415 43.6983 55.024C43.661 54.8992 43.6326 54.7723 43.6041 54.6453C43.602 54.6453 43.5998 54.6453 43.5954 54.6453C43.2277 53.1418 42.8644 51.6361 42.5011 50.1325C41.6979 46.8169 41.0413 47.1495 39.923 41.619C38.6361 35.2657 43.1402 29.8468 43.0986 24.6665C43.4356 24.0012 43.7749 23.338 44.0703 22.6552C44.3658 21.9614 44.5759 21.237 44.8035 20.5214C45.0617 19.6153 45.3856 18.7224 45.5301 17.79C45.6001 17.3545 45.6986 16.9168 45.6811 16.4725C45.6898 16.1464 45.4841 15.7963 45.1208 15.9779C44.8888 16.1158 44.7378 16.3543 44.6043 16.582C44.5518 16.6761 44.5015 16.7702 44.4533 16.8665C44.4467 16.6979 44.4249 16.5316 44.3833 16.3675C44.3132 16.0808 44.0484 15.8269 43.7508 15.9998C43.5319 16.1333 43.3831 16.3565 43.2496 16.5688C43.1861 16.6979 43.0592 16.8271 43.0833 16.9781C43.1117 17.1138 43.2737 17.186 43.394 17.1203C43.4969 17.0656 43.5188 16.9387 43.5823 16.849C43.7158 16.6301 43.7836 16.5338 43.8908 16.4288C43.904 16.4178 43.9171 16.4069 43.9324 16.3959C43.9434 16.4156 43.9521 16.4353 43.9609 16.4572C43.9631 16.466 43.9653 16.4747 43.9696 16.4878C44.055 16.8139 44.0331 17.0503 43.9981 17.4771C43.9412 18.219 43.7004 18.9675 43.3919 19.7816C43.0176 20.7315 42.6762 21.6944 42.3501 22.664C42.1706 23.1805 41.9912 23.6401 41.7898 24.0668C41.6607 23.9486 41.5228 23.8392 41.3543 23.7779C40.9626 23.6225 40.5227 23.7911 40.3498 24.1784C40.1703 24.452 40.3169 25.0845 40.3191 25.1742C40.3191 25.183 40.3191 25.1917 40.3191 25.2027C40.2972 25.218 40.2775 25.2355 40.2557 25.2508C40.2206 25.2158 40.1747 25.1611 40.0784 25.067C39.7807 24.7869 39.3627 24.6205 38.9535 24.6752C38.2115 24.765 38.2684 25.4609 38.4567 26.0081C38.4895 26.1372 38.5398 26.2641 38.5573 26.3976C38.5573 26.3801 38.5617 26.3779 38.5595 26.4108C38.5595 26.4151 38.5617 26.4195 38.5617 26.4239C38.5617 26.4261 38.5617 26.4261 38.5617 26.4261C38.5617 26.4217 38.5595 26.4173 38.5595 26.4151C38.5595 26.4195 38.5595 26.4217 38.5595 26.4261C38.5551 26.4436 38.5551 26.4523 38.5551 26.4567C38.5486 26.4786 38.5398 26.5005 38.5354 26.5158C38.5311 26.5224 38.5267 26.5268 38.5223 26.5333C38.4917 26.5574 38.461 26.5793 38.4282 26.6012C38.4282 26.6012 38.4282 26.6012 38.426 26.6012C38.2794 26.5114 38.1546 26.3517 37.8986 26.2182C37.3164 25.9074 36.7277 26.1525 36.6533 26.8332C36.6051 27.1023 36.7802 27.6779 36.7737 27.7392C36.7758 27.7545 36.7758 27.7808 36.7737 27.8093C36.7124 27.8552 36.6511 27.9012 36.5898 27.9471C36.2725 27.8093 35.524 27.3759 35.0753 27.8355C34.5545 28.3279 34.8521 28.8729 34.9418 29.3106C34.8937 29.3522 34.8477 29.396 34.8018 29.4397C34.4078 29.2887 33.7469 29.037 33.3267 29.431C33.0838 29.6673 32.9809 30.035 33.0356 30.3655C33.075 30.6128 33.1932 30.8404 33.2326 31.0877C33.18 31.1534 33.1253 31.2168 33.0706 31.2847C33.0028 31.2212 32.9196 31.1446 32.8386 31.0877C32.6723 30.9717 32.4841 30.8732 32.2806 30.8557C31.7225 30.8316 31.3504 31.4094 31.4686 31.9281C31.5167 32.2039 31.7597 32.7051 31.7772 32.786C31.8078 32.8692 31.8341 32.9524 31.856 33.0311C31.7137 33.2653 31.5758 33.5083 31.4423 33.7599C31.3548 33.7293 31.2738 33.6658 31.206 33.5849C31.171 33.528 31.1381 33.4732 31.1009 33.4163C31.0637 33.3288 31.0418 33.2347 31.0484 33.1428C31.0396 32.8407 31.2738 32.4162 31.2366 31.9653C31.2038 31.5473 30.7508 31.2584 30.3787 31.497C30.2014 31.602 30.0329 31.8471 30.0023 31.8734C29.9782 31.8997 29.9541 31.9237 29.93 31.9456C29.8819 31.8953 29.8337 31.8471 29.7856 31.7968C29.7878 31.764 29.7922 31.7355 29.7965 31.7136C29.8447 31.5298 29.941 31.3591 29.9629 31.1665C29.9891 30.8098 29.6959 30.4793 29.3523 30.4158C29.0962 30.3502 28.8489 30.453 28.6191 30.5581C28.5863 30.5712 28.5534 30.58 28.5228 30.5843C28.4309 30.5034 28.3412 30.4202 28.2492 30.3392C28.2514 30.2692 28.2667 30.1816 28.2952 30.0525C28.3477 29.8074 28.4199 29.5557 28.374 29.3018C28.2339 28.6628 27.527 28.8313 27.1396 29.1421C27.0871 29.1793 27.0521 29.2077 27.0236 29.2296C26.9011 29.1136 26.7807 28.9998 26.6647 28.886C26.6538 28.7613 26.6757 28.6694 26.6954 28.5818C26.7588 28.3061 26.9098 28.0303 26.8464 27.7392C26.7917 27.4525 26.4984 27.214 26.2007 27.2643C25.9775 27.3103 25.8002 27.4656 25.6383 27.6167C25.6055 27.6473 25.5726 27.6736 25.5398 27.6976C25.3975 27.5685 25.2246 27.4328 25.0255 27.2971C25.0539 27.1505 25.0824 26.982 25.0933 26.8047C25.113 26.3976 24.7738 25.9862 24.347 26.0365C24.0472 26.0475 23.8196 26.2598 23.5679 26.3911C23.5504 26.3976 23.5351 26.402 23.5176 26.4064C23.3162 26.3013 23.1105 26.1941 22.9048 26.0912C22.9048 26.0715 22.9048 26.054 22.9048 26.0321C22.9048 25.7761 22.9485 25.5156 22.8851 25.264C22.7866 24.8678 22.3839 24.6774 22.0053 24.8066C21.6989 24.8744 21.4735 25.2486 21.329 25.3187C21.2086 25.2618 21.0948 25.2071 20.9876 25.1545C20.992 25.113 21.0029 25.0648 21.0095 24.9948C21.0511 24.7847 21.1211 24.5724 21.0751 24.3579C21.0248 24.104 20.8169 23.8611 20.5455 23.8545C20.1428 23.8699 19.8911 24.2047 19.6723 24.5111C19.4578 24.4345 19.2805 24.4017 19.1054 24.4017C18.8253 22.9966 18.624 21.5741 18.2891 20.1799C17.9368 18.7836 17.3196 17.0481 17.5231 15.9407C17.5297 15.9188 17.5384 15.8991 17.545 15.8772C17.5494 15.886 17.5538 15.8926 17.5603 15.9013C17.7026 16.1771 17.742 16.3894 17.8514 16.7745C17.8842 16.884 17.9171 16.9934 17.9411 17.105C17.9455 17.1554 17.9586 17.2057 17.9958 17.2451C18.0878 17.348 18.2628 17.3304 18.3373 17.2144C18.4139 17.0897 18.3373 16.9387 18.3088 16.8074C18.1753 16.385 18.1118 15.9166 17.8405 15.5555C17.6238 15.2929 17.2561 15.3936 17.1511 15.7022C17.0832 15.9101 17.0548 16.1486 17.0526 16.4091C16.9716 16.258 16.8775 16.118 16.7746 16.0283C16.5229 15.7788 16.1947 15.9407 16.1596 16.2756C15.9058 17.9257 16.3741 19.5803 16.7418 21.1779C17.0176 22.3532 17.4224 23.4934 17.8361 24.6271C17.766 24.6402 17.6916 24.6534 17.6128 24.6665C18.4423 30.8273 19.8583 35.7493 20.6659 41.9758C17.6413 59.7797 14.4219 78.9055 7.89128 95.7442C5.6108 101.629 2.91231 107.352 0.386719 112.165C4.91265 117.299 12.6273 117.73 19.4709 117.785C22.9179 117.814 26.3649 117.842 29.8119 117.868C33.8038 117.901 37.5375 118.33 41.3171 118.197C42.3392 118.162 41.4572 116.831 41.3259 115.818C44.0419 117.593 47.3466 118.451 50.5835 118.225C52.0257 118.124 53.4548 117.814 54.9015 117.836C57.5124 117.875 59.9724 118.98 62.5045 119.613C65.0367 120.247 67.9956 120.313 69.9587 118.591C64.3757 110.753 59.5543 102.365 55.7069 93.5426ZM43.3065 21.2108C43.6676 20.2106 44.1272 19.2323 44.3286 18.184C44.3614 17.9958 44.392 17.8054 44.4161 17.6128C44.4752 17.6193 44.5365 17.604 44.5824 17.5581C44.7685 17.2495 45.0026 16.641 45.2478 16.42C45.2478 16.4244 45.2478 16.4266 45.2499 16.4309C45.2499 16.4506 45.2521 16.4703 45.2521 16.49C45.2018 18.0198 44.6744 19.4161 44.2104 20.97C43.9018 21.9921 43.5582 22.8237 43.1139 23.6816C42.9848 23.9486 42.8491 24.2113 42.7156 24.4739C42.5296 24.4104 42.3742 24.2857 42.2035 24.1938C42.6456 23.2308 42.952 22.2087 43.3065 21.2108ZM40.7962 24.2725C40.9122 24.115 41.1245 24.0975 41.4068 24.301C41.177 24.5023 40.9472 24.6971 40.7131 24.8875C40.7065 24.8438 40.6999 24.7978 40.6956 24.754C40.6737 24.6424 40.6737 24.4104 40.7962 24.2725ZM18.2563 24.5417C17.9849 23.7976 17.7201 22.99 17.4575 22.1912C17.2408 21.5062 17.1051 20.7993 16.9278 20.1033C16.7703 19.4555 16.5842 18.3634 16.547 17.9192C16.5076 17.4442 16.4945 16.838 16.5667 16.4441C16.6324 16.536 16.7134 16.6739 16.7856 16.8336C16.9081 17.1028 16.9059 17.1838 17.0548 17.4924C17.081 17.5427 17.1248 17.5799 17.1795 17.5974H17.1817C17.3721 18.5889 17.7201 19.6437 17.8908 20.3572C18.1731 21.5281 18.3394 22.7252 18.5714 23.9071C18.6065 24.0887 18.6415 24.2704 18.6765 24.452C18.5517 24.4761 18.4139 24.5067 18.2563 24.5417ZM20.6287 24.7343C20.6134 24.8066 20.5958 24.881 20.5827 24.9532C20.4645 24.8941 20.3573 24.8394 20.2654 24.789C20.1997 24.7518 20.1363 24.719 20.0772 24.6906C20.1253 24.6205 20.1735 24.5549 20.2172 24.498C20.2566 24.4608 20.3267 24.3907 20.3507 24.3732C20.3748 24.3557 20.3792 24.3513 20.3748 24.3535C20.4011 24.336 20.4536 24.3119 20.4799 24.301C20.4974 24.2944 20.5149 24.2901 20.5324 24.2879C20.5368 24.2879 20.5411 24.2879 20.5455 24.2879C20.5477 24.2901 20.5521 24.2901 20.5565 24.2922C20.563 24.2966 20.5696 24.2988 20.574 24.3032C20.5762 24.3054 20.5805 24.3076 20.5849 24.3119C20.5958 24.3229 20.6046 24.3338 20.6134 24.347C20.6177 24.3513 20.6199 24.3557 20.6221 24.3601C20.6746 24.4783 20.6724 24.5177 20.6287 24.7343ZM22.478 25.8789C22.2329 25.7564 21.99 25.6404 21.7602 25.5288C21.8258 25.4697 21.8871 25.4062 21.9374 25.3406C22.0753 25.2202 21.9987 25.2661 22.1629 25.2114C22.1847 25.2092 22.211 25.2049 22.2307 25.2005C22.4277 25.1939 22.4933 25.3055 22.489 25.6207C22.4868 25.7039 22.4802 25.7914 22.478 25.8789ZM24.6359 27.0411C24.4302 26.9141 24.207 26.785 23.975 26.6559C24.0209 26.6252 24.0669 26.5946 24.1085 26.564C24.4783 26.3539 24.66 26.5005 24.6622 26.8288C24.6644 26.8857 24.6512 26.9601 24.6359 27.0411ZM26.4305 27.9384C26.3955 28.0894 26.3233 28.2842 26.2773 28.4986C26.122 28.3367 25.9731 28.1747 25.8331 28.0128C26.0607 27.8289 26.1504 27.7108 26.2861 27.6889C26.2905 27.6889 26.2949 27.6889 26.297 27.6889C26.3058 27.6911 26.3145 27.6954 26.3233 27.6976C26.3277 27.6998 26.3321 27.702 26.3364 27.7064C26.3496 27.7151 26.3627 27.7239 26.3736 27.7327C26.3802 27.7414 26.3868 27.748 26.3911 27.7523C26.4459 27.8465 26.4305 27.8333 26.4305 27.9384ZM27.9494 29.6126C27.9472 29.6608 27.9034 29.8183 27.8684 29.9956C27.6912 29.838 27.5183 29.6805 27.3454 29.5251C27.643 29.2997 27.875 29.2449 27.9363 29.3325C27.9385 29.3412 27.9538 29.3872 27.9582 29.42C27.9582 29.4682 27.956 29.5798 27.9494 29.6126ZM29.4311 31.4379C29.2516 31.2606 29.0656 31.0855 28.8795 30.9126C29.024 30.8557 29.1247 30.8185 29.1487 30.8251C29.4332 30.8185 29.5186 31.0199 29.5339 31.0943C29.558 31.1446 29.488 31.2781 29.4311 31.4379ZM30.8142 32.0594C30.8142 32.1032 30.8055 32.1776 30.8033 32.2083C30.7661 32.4052 30.7048 32.6022 30.6632 32.7992C30.5231 32.6175 30.3743 32.4402 30.2189 32.263C30.3502 32.1426 30.4444 32.0047 30.4947 31.9588C30.6348 31.8296 30.6282 31.845 30.6917 31.845C30.7004 31.8471 30.7092 31.8493 30.7179 31.8515C30.7245 31.8581 30.7354 31.8646 30.7464 31.8712C30.7508 31.8756 30.7573 31.8822 30.7639 31.8909C30.7726 31.9084 30.7901 31.9391 30.7989 31.9609C30.8077 31.985 30.8098 32.0135 30.8142 32.0397C30.8142 31.9981 30.8142 32.02 30.8142 32.0397V32.0419C30.8164 32.0594 30.8142 32.0616 30.8142 32.0594ZM32.1492 32.5606C32.1077 32.4556 32.0661 32.3527 32.0267 32.252C31.7444 31.6414 31.9216 31.3875 32.1777 31.2869C32.204 31.2825 32.2499 31.2847 32.2762 31.2869C32.2981 31.2934 32.3178 31.3 32.3396 31.3044C32.4206 31.3328 32.4797 31.3591 32.6395 31.4751C32.6657 31.4904 32.6832 31.5079 32.6811 31.5101C32.7226 31.5451 32.7642 31.5845 32.808 31.6239C32.5826 31.9216 32.3615 32.2323 32.1492 32.5606ZM33.574 30.6894C33.5412 30.5887 33.5061 30.488 33.4799 30.3852C33.4033 30.105 33.4864 29.8993 33.6199 29.7483C33.7447 29.6104 34.0555 29.6236 34.456 29.768C34.1561 30.0591 33.8607 30.3655 33.574 30.6894ZM35.3073 28.9867C35.2789 28.8904 35.2504 28.7919 35.2264 28.6978C35.1322 28.3695 35.3205 28.1244 35.5393 28.0566C35.6597 28.0281 35.9333 28.1266 36.209 28.2448C35.9048 28.4833 35.6028 28.7306 35.3073 28.9867ZM37.172 27.5116C37.1391 27.3453 37.0954 27.1811 37.0757 27.0104C37.0757 26.9688 37.0801 26.9054 37.0822 26.8791C37.161 26.5355 37.2201 26.5158 37.4784 26.5202C37.6228 26.5399 37.8329 26.6646 38.0627 26.866C37.7651 27.0783 37.4674 27.2928 37.172 27.5116ZM38.8068 25.6579C38.6514 25.0933 38.8966 25.0823 39.2336 25.102C39.5181 25.1545 39.6626 25.2771 39.7654 25.3624C39.8136 25.4106 39.8617 25.4631 39.9121 25.5156C39.5991 25.7542 39.2817 25.9862 38.9644 26.216C38.925 26.0278 38.844 25.8439 38.8068 25.6579Z" fill="white"/>
</g>
<path d="M34.2791 10.8698C33.988 10.8457 33.7035 10.9332 33.4299 11.023C33.0382 11.1521 32.6705 11.3359 32.3181 11.5482C31.4493 12.056 30.703 12.7366 30.0048 13.4545C29.8122 13.658 29.6284 13.8681 29.4489 14.0826C29.4314 14.0672 29.4117 14.0541 29.3899 14.0432C29.2936 13.9841 29.1973 13.9753 29.1141 13.9994C28.4138 12.6534 27.0678 11.5329 25.5577 11.3425C25.1703 11.3053 24.7501 11.325 24.4021 11.5198C23.9994 11.7386 23.7784 12.231 23.8834 12.6775C24.0257 13.2706 24.5159 13.7149 24.9996 14.0541C25.9035 14.6538 26.9846 14.9383 28.0505 15.0652C28.1774 15.0827 28.3065 15.0937 28.4335 15.0959C28.057 15.5336 27.8754 16.107 27.7462 16.6651C27.569 17.3457 27.3961 18.3809 27.1772 18.8383C26.8643 19.3614 26.571 19.6349 26.0654 20.0508C25.8225 20.2762 25.3826 20.4403 24.9996 20.7117C24.8333 20.8343 24.5181 20.9721 24.7085 21.2107C24.7873 21.2961 24.9296 21.3048 25.0127 21.2238C25.0456 21.2041 25.0631 21.191 25.0653 21.1888C25.2097 21.0859 25.3563 20.9831 25.5095 20.8955C26.0523 20.6307 26.5382 20.2674 26.954 19.8319C27.2845 19.4795 27.5996 19.0922 27.7156 18.6129C27.9914 17.7418 28.0811 16.8183 28.405 15.9625C28.5254 15.6736 28.753 15.2972 29.1404 15.039C29.1819 15.0105 29.1819 15.0061 29.2213 14.9821C29.2388 14.9908 29.2563 14.9952 29.2739 14.9996C29.3461 15.5401 29.484 16.072 29.5212 16.6191C29.5824 17.1619 29.5562 18.3503 29.5255 19.1119C29.4883 20.5016 29.2563 21.9657 29.8232 23.2833C29.9173 23.4955 30.0245 23.7013 30.1558 23.8917C30.204 23.9573 30.2412 24.0383 30.3266 24.0602C30.5498 24.128 30.7008 23.8501 30.5367 23.6881C29.8516 22.6727 29.8516 21.6615 29.8954 20.3812C29.9501 19.4423 29.9873 18.5035 29.9917 17.5624C29.9917 17.0109 29.9479 16.4615 29.867 15.9166C29.8166 15.5752 29.7028 15.0587 29.6809 14.8289C30.7533 14.726 31.8542 14.6538 32.8675 14.2664C33.8917 13.8593 35.0823 12.9795 35.0976 11.778C35.0954 11.2965 34.7584 10.9245 34.2791 10.8698ZM28.7136 14.6538C28.2737 14.7041 27.5449 14.5772 27.0218 14.4459C25.8794 14.1417 24.9099 13.6908 24.3912 12.8285C24.1898 12.4696 24.3058 12.0778 24.5882 11.9093C25.074 11.592 26.0873 11.8284 26.5973 12.091C27.5821 12.6075 28.243 13.2903 28.7289 14.1767C28.8252 14.3496 28.869 14.4984 28.9215 14.6122C28.8515 14.6275 28.7836 14.6428 28.7136 14.6538ZM33.8085 13.2334C33.0601 13.8615 32.0533 14.1395 30.9175 14.2686C30.4622 14.3167 30.1121 14.3715 29.7488 14.3999C30.6723 13.2859 31.8607 12.172 33.2505 11.5482C33.4956 11.4344 34.185 11.2221 34.3294 11.3162C34.986 11.5066 34.6249 12.6184 33.8085 13.2334Z" fill="#E8C4B9"/>
<path d="M24.8483 69.7748C24.8549 69.5756 24.9206 69.3655 24.8352 69.1795C24.728 68.8687 24.2749 68.7811 24.0495 69.0241C23.8701 69.2035 23.9116 69.4596 23.8854 69.6916C23.8525 70.1578 23.8153 70.6217 23.7738 71.0879C23.5987 72.6855 23.5111 74.2941 23.4827 75.9027C23.4761 75.9574 23.4695 76.01 23.463 76.0559C23.1719 78.1219 22.8239 80.9145 22.314 83.3504C22.2724 83.5364 22.233 83.7224 22.1914 83.9085C21.9879 84.5234 21.7887 85.1406 21.6202 85.7665C21.4867 86.2568 21.351 86.7492 21.2131 87.2372C21.1431 87.4014 21.0687 87.559 20.9921 87.71C19.8497 90.0824 18.6679 92.4526 17.8668 94.9672C17.2037 97.0901 16.9258 99.3225 16.1051 101.397C15.6892 102.413 14.8072 104.161 14.4746 105.639C14.3827 105.995 14.3039 106.356 14.2623 106.722C14.2273 107.002 14.2076 107.3 14.3258 107.562C14.4987 107.976 14.7919 108.326 15.0633 108.679C15.269 108.932 15.501 109.167 15.7549 109.372C15.8884 109.473 16.0088 109.604 16.1751 109.652C16.4946 109.766 16.8404 109.501 16.836 109.167C16.8295 108.95 16.7222 108.755 16.65 108.554C16.4859 108.153 16.3874 107.821 16.3217 107.505C16.3239 107.497 16.3239 107.486 16.3261 107.475C16.3961 106.735 16.4618 105.995 16.5143 105.253C16.5843 103.529 17.033 101.907 17.6611 100.034C18.1535 98.4711 18.7488 97.1251 19.2697 95.8864C19.8278 94.4967 20.3749 93.1004 20.8695 91.6844C21.2328 90.5551 21.594 89.4258 21.9266 88.2878C22.0032 88.0186 22.0798 87.7472 22.1542 87.478C22.2221 87.3204 22.2877 87.1628 22.3512 87.0031C22.5744 86.3903 22.7386 85.76 22.8961 85.1297C22.9727 84.8189 23.0472 84.5037 23.1172 84.1908C23.4958 83.0462 23.8919 81.9037 24.1371 80.7241C24.3975 79.4679 24.4435 78.1832 24.4413 76.9029C24.4413 76.5615 24.4435 76.2222 24.45 75.8808C24.496 75.5394 24.5419 75.2002 24.5879 74.8697C24.798 73.399 24.9468 71.3615 25.0956 70.3306C25.1635 70.0724 25.0322 69.8689 24.8483 69.7748Z" fill="#E3D6BF"/>
<path d="M32.1671 113.246C31.887 112.038 31.8082 111.438 31.6878 110.327C31.4033 107.536 31.1538 104.735 31.1648 101.925C31.1888 100.108 31.4186 98.3005 31.5259 96.4861C31.5937 95.2693 31.6506 94.0459 31.5784 92.8291C31.5084 91.7501 31.318 90.6843 31.1801 89.6141C31.0925 89.0057 31.0488 88.5592 30.9153 87.7078C30.8978 87.6006 30.8802 87.4999 30.8627 87.4036C30.8452 87.1388 30.9131 86.8521 30.8233 86.6004C30.7971 86.5348 30.7599 86.4801 30.7139 86.4363C30.6833 86.143 30.6483 85.8498 30.6111 85.5565C30.6111 85.5434 30.6089 85.5302 30.6089 85.5171C30.6045 85.4689 30.6001 85.4186 30.6001 85.3705L30.587 85.3814C30.5782 85.3158 30.5695 85.2501 30.5607 85.1822C30.4272 84.8233 29.8866 84.7796 29.6962 85.1253C29.6218 85.2457 29.6262 85.3902 29.6393 85.528C29.659 85.7732 29.6831 86.0183 29.7159 86.2634C29.7225 86.3137 29.7313 86.3619 29.7378 86.4122C29.8035 87.0119 29.8538 87.6115 29.8932 88.2134C29.8954 90.925 29.937 93.6366 29.7947 96.3439C29.5999 99.7887 29.1929 103.22 29.0681 106.669C29.0068 108.239 29.0331 109.81 29.1513 111.377C29.1863 111.863 29.2257 112.347 29.2957 112.826C29.3461 113.24 29.4489 113.69 29.81 113.942C30.1821 114.22 30.6745 114.259 31.1166 114.356C32.0336 114.588 32.351 114.117 32.1671 113.246ZM30.4972 113.224C30.4841 113.22 30.4732 113.215 30.4622 113.213C30.4447 113.205 30.425 113.196 30.4097 113.185C30.4053 113.183 30.4031 113.18 30.401 113.178C30.3878 113.167 30.3769 113.159 30.3659 113.148C30.355 113.132 30.3462 113.119 30.3397 113.104C30.3331 113.084 30.3265 113.058 30.3178 113.025C30.3265 113.038 30.3353 113.051 30.3462 113.064C30.4382 113.2 30.6286 113.279 30.7905 113.246C30.9306 113.237 31.0488 113.15 31.1297 113.036C31.1582 113.165 31.1845 113.288 31.2063 113.388C31.1866 113.384 31.1626 113.38 31.1385 113.375C30.924 113.334 30.7073 113.288 30.4972 113.224Z" fill="#E3D6BF"/>
<path d="M52.0785 92.1289C51.875 91.5292 51.6211 90.947 51.365 90.3671C50.7544 89.0452 50.1548 87.7189 49.5879 86.3751C48.7738 84.4667 47.6401 81.5078 46.8041 79.1332C46.2701 77.5356 45.8586 75.8985 45.3071 74.3031C44.0553 70.4928 42.8231 66.6716 41.4312 62.9094C41.2955 62.5833 41.1576 62.2572 41.0088 61.9377C40.9366 61.7955 40.8797 61.6335 40.7593 61.5219C40.5142 61.2636 40.0327 61.384 39.9495 61.7364C39.8992 61.8633 39.943 62.0012 39.9649 62.1281C40.0108 62.3338 40.0568 62.5396 40.1027 62.7453C40.512 64.6012 41.0154 66.4396 41.6457 68.2342C42.1184 69.5036 42.6787 70.7401 43.182 71.9985C43.541 72.9133 43.8758 73.8413 44.2413 74.7561C44.5324 75.4499 44.8103 76.1502 45.0007 76.879C45.3049 77.9164 45.4494 78.991 45.7098 80.0393C46.0469 81.3568 46.4911 82.6437 46.9945 83.9065C47.4344 85.0401 47.9334 86.1497 48.428 87.2615C48.8745 88.312 49.3187 89.3647 49.7959 90.4043C49.8287 90.4787 49.8615 90.5509 49.8965 90.6253C49.9491 90.8201 50.0016 91.0171 50.0541 91.214C50.3014 92.0172 50.7479 93.3938 51.713 93.4836C51.9713 93.5142 52.2383 93.3194 52.2908 93.0656C52.3608 92.7395 52.1595 92.4353 52.0785 92.1289Z" fill="#E3D6BF"/>
<path d="M40.2036 66.7963C39.6784 65.0016 39.3151 63.1654 38.7898 61.3708C38.6454 60.8478 38.5031 60.3225 38.3237 59.8104C38.1989 59.4624 38.0501 58.9765 37.6036 58.9875C36.7413 59.0882 37.1703 60.2765 37.2929 60.8215C37.492 61.5612 37.7393 62.2878 37.9757 63.0166C38.2296 63.8351 38.3937 64.6777 38.5863 65.5116C38.687 65.958 38.7723 66.4067 38.8336 66.8597C38.8927 67.1027 38.8577 67.4222 39.0109 67.6213C39.0962 67.7373 39.2078 67.7942 39.326 67.8074C39.3632 67.8993 39.4311 67.9781 39.5208 68.0306C39.8622 68.232 40.2343 67.9474 40.3021 67.5973C40.3634 67.3259 40.2715 67.0567 40.2036 66.7963Z" fill="#E3D6BF"/>
<path d="M27.0853 39.2269C26.7833 39.1787 26.4769 39.1656 26.1727 39.1284C25.7328 39.0759 25.1331 38.9949 24.3955 38.8505C23.704 38.7082 23.0168 38.5353 22.3602 38.2683C22.3558 38.2661 22.3536 38.2661 22.3492 38.2639C22.1326 38.1654 21.9181 38.0582 21.708 37.9444C21.4716 37.8372 21.2593 37.6468 21.0033 37.5986C20.4912 37.5111 20.2439 38.2355 20.6947 38.4937C21.6358 39.0759 22.6644 39.4457 23.7258 39.6952C23.577 39.7412 23.4282 39.7893 23.2816 39.8397C23.1284 39.9075 22.9467 39.9294 22.8154 40.0345C22.5375 40.2183 22.5769 40.6779 22.8657 40.8333C23.054 40.9471 23.2575 40.888 23.4457 40.8092C23.6865 40.7217 23.9272 40.6407 24.1745 40.575C24.5925 40.4656 25.0193 40.4 25.4461 40.3409C25.8137 40.2927 26.1836 40.2489 26.5535 40.2183C26.8993 40.1964 27.4004 40.2227 27.4464 39.7653C27.4989 39.5245 27.3129 39.2904 27.0853 39.2269Z" fill="#E3D6BF"/>
<path d="M38.9887 39.7104C38.8487 39.5594 38.6298 39.5682 38.4416 39.531C38.1811 39.4938 37.9229 39.4565 37.6603 39.4347C37.1306 39.3953 36.5966 39.3931 36.0648 39.3953C36.4412 39.253 36.8155 39.1064 37.1875 38.9488C37.4283 38.8481 37.669 38.7409 37.9054 38.6271C38.0192 38.568 38.1527 38.5264 38.2227 38.4126C38.481 38.1193 38.2271 37.6225 37.8419 37.6335C37.6537 37.6335 37.5027 37.7626 37.3342 37.8304C36.7498 38.0975 36.7586 38.0887 36.2093 38.3119C35.4564 38.5986 34.6926 38.8547 33.9419 39.1523C33.6771 39.2836 33.3138 39.299 33.1453 39.566C32.9396 39.8986 33.235 40.3276 33.6027 40.2948C33.6858 40.3911 33.8062 40.4545 33.9572 40.4523C34.4978 40.3692 35.0449 40.3757 35.5899 40.3648C36.2421 40.367 36.8921 40.3539 37.5421 40.3954C38.0761 40.4392 37.971 40.4348 38.3912 40.4983C38.5576 40.5333 38.737 40.5705 38.8902 40.472C39.1616 40.321 39.2098 39.9249 38.9887 39.7104Z" fill="#E3D6BF"/>
</svg>
