<svg width="62" height="134" viewBox="0 0 62 134" fill="none" xmlns="http://www.w3.org/2000/svg">
<mask id="mask0_62_100" style="mask-type:luminance" maskUnits="userSpaceOnUse" x="10" y="0" width="52" height="29">
<path d="M10.2388 0.668945H61.7508V28.2141H10.2388V0.668945Z" fill="white"/>
</mask>
<g mask="url(#mask0_62_100)">
<path d="M61.4223 24.5351C60.9978 23.7756 60.3587 23.2066 59.6452 22.7273C58.9142 22.0839 58.0454 21.598 57.1656 21.1844C56.3646 20.8014 55.5351 20.4928 54.6925 20.2258C54.5043 20.1492 54.3161 20.0748 54.1279 20.0026C52.3945 19.3 50.6109 18.7179 48.7878 18.2999C48.0131 18.1313 47.2339 17.9935 46.4504 17.8687C45.7742 17.7024 45.0957 17.5492 44.4151 17.4069C41.826 16.9758 39.191 16.8116 36.5691 16.9254C36.3065 16.9408 36.0416 16.9583 35.779 16.978C35.7987 16.6869 35.8228 16.3958 35.8578 16.1069C35.8578 16.1069 35.8578 16.1069 35.8578 16.1047C35.86 16.0938 35.8622 16.0829 35.8622 16.0719C36.1226 14.564 36.3196 14.1679 37.2585 12.8547C37.8078 12.1172 40.0773 9.53469 40.3859 7.67442C40.9046 5.29765 40.1124 2.40875 37.8275 1.24663C37.16 0.927099 36.4378 0.736694 35.698 0.706055C35.0327 0.710432 34.3586 0.806728 33.7283 1.02558C32.645 1.43484 31.6799 2.21835 31.0736 3.20976C30.7235 3.81599 30.5177 4.49226 30.382 5.17509C30.3383 5.48586 30.1829 5.80102 30.242 6.11398C30.3536 7.11634 31.7915 7.20169 32.0585 6.23873C32.192 5.65876 32.2861 5.06566 32.5027 4.50758C32.5969 4.30185 32.7085 4.10269 32.8376 3.91667C32.8442 3.90791 32.8485 3.90135 32.8529 3.89478C32.877 3.86633 32.8989 3.83788 32.923 3.81162C33.0915 3.61246 33.2884 3.43737 33.4898 3.27104C33.6627 3.14192 33.8443 3.02155 34.0369 2.91869C34.4768 2.7239 34.2011 2.81145 34.9167 2.63636C34.9933 2.62323 35.0721 2.6101 35.1487 2.59916C35.2494 2.5904 35.4267 2.57289 35.5295 2.57289C36.1117 2.59697 35.9519 2.55101 36.8142 2.82895C36.9586 2.90774 37.3438 3.02374 37.8954 3.66498L37.8975 3.66936C38.0376 3.86633 38.1645 4.07424 38.2674 4.2931C38.2871 4.33249 38.3046 4.37408 38.3221 4.41566C38.344 4.47475 38.3681 4.53603 38.3878 4.59731C38.7182 5.69378 38.7029 5.66751 38.6373 6.87341C38.6088 7.06162 38.5738 7.24765 38.5257 7.43149C38.4688 7.64378 38.3987 7.85169 38.3177 8.05523C37.972 8.81028 37.4773 9.48436 36.998 10.1562C36.5122 10.8807 35.8491 11.535 35.1006 12.7015C34.4746 13.7083 34.1135 14.8529 33.9997 16.0303C33.9581 16.3652 33.9275 16.7 33.9056 17.0371C33.9034 17.083 33.899 17.1312 33.8969 17.1771C33.2381 17.2691 32.5837 17.385 31.9381 17.5339C31.8177 17.5645 31.6974 17.5951 31.5792 17.6236C30.3864 17.8162 29.2046 18.0766 28.0447 18.4202C24.3613 19.4992 20.7436 20.797 17.2091 22.2896C17.0384 22.2765 16.8699 22.329 16.7079 22.3793C15.8829 22.6354 15.1147 23.0293 14.3574 23.4386C14.2961 23.4452 14.2327 23.4649 14.1692 23.5043C13.1231 24.0295 11.985 24.5022 11.1928 25.3952C10.8492 25.8 10.4596 26.2925 10.5844 26.8593C10.6719 27.3014 11.0658 27.6406 11.497 27.7347C12.1732 27.8485 12.8101 27.6166 13.412 27.3058C13.5367 27.2926 13.6571 27.2532 13.7643 27.1898C13.9722 27.0563 14.1845 26.9337 14.4034 26.8221C14.9921 26.542 15.5699 26.2421 16.152 25.9554C16.9728 25.5506 17.3339 25.4499 18.5376 25.0406C19.6297 24.6795 20.7152 24.2921 21.8248 23.9901C23.2517 23.6093 24.7049 23.3423 26.1516 23.0512C28.4977 22.5763 29.6708 22.4231 31.809 22.1802C33.91 21.9351 36.0241 21.7643 38.1405 21.8606C42.1521 21.9941 45.0344 22.2984 48.6959 23.0053C52.5565 23.6706 55.6642 24.7955 58.7392 26.3603C59.3366 26.6208 59.9451 26.9228 60.6082 26.9315C61.256 26.9206 61.825 26.4391 61.8119 25.7628C61.7944 25.3251 61.604 24.9246 61.4223 24.5351Z" fill="#BBA065"/>
</g>
<mask id="mask1_62_100" style="mask-type:luminance" maskUnits="userSpaceOnUse" x="0" y="17" width="53" height="117">
<path d="M0.153809 17.0088H52.259V133.499H0.153809V17.0088Z" fill="white"/>
</mask>
<g mask="url(#mask1_62_100)">
<path d="M51.4139 75.522C52.0224 68.2188 52.436 60.1846 48.0611 54.3039C46.5203 52.2336 45.634 49.4256 45.1109 46.9C44.7388 45.101 44.0188 44.2497 44.5397 42.4879C45.8441 38.0823 47.1462 33.679 48.4484 29.2734C48.8161 28.5862 49.1335 27.8705 49.4005 27.1352C49.9191 25.833 50.3218 24.4827 50.5407 23.0973C50.8208 21.3749 51.0638 19.4927 50.2606 17.871C50.1205 17.5559 49.9104 17.2429 49.5537 17.1576C48.9759 16.9847 48.3653 17.4596 48.3718 18.057C48.3609 18.3613 48.5513 18.6042 48.6739 18.8668C48.7833 19.1404 48.8555 19.4271 48.8949 19.7182C49.0481 20.6286 48.8183 22.7712 48.3237 24.5155C48.1377 25.2136 47.886 25.8921 47.6277 26.5662C47.2601 27.5466 47.0828 27.9362 46.3737 29.1399C46.3255 29.2274 46.2927 29.315 46.273 29.3982C41.7711 31.0833 38.4752 33.7643 35.5753 36.8239C32.7806 34.4056 27.0422 31.4707 22.6979 29.779C22.6278 29.6498 22.5622 29.5207 22.5009 29.3872C22.0916 28.4965 21.341 26.564 20.6822 25.0079C20.1964 23.8699 19.8002 22.6946 19.3034 21.5609C19.1743 21.2611 19.0408 20.9635 18.9051 20.668C18.8132 20.4688 18.7344 20.2412 18.5331 20.123C17.7452 19.4884 16.6531 20.4513 17.163 21.3268C17.7539 22.6027 17.8721 22.9266 18.428 24.3864C18.8679 25.4916 19.3341 26.5859 19.7805 27.6889C19.96 28.096 20.1241 28.5118 20.2883 28.9276C20.2292 28.9101 20.1679 28.8904 20.111 28.8729C21.6605 32.4227 22.908 36.0404 23.941 39.8595C24.8186 41.6935 25.7137 43.5406 26.1952 45.5191C26.7314 47.7251 26.773 50.08 25.8822 52.1985C25.8822 52.2007 25.8822 52.2029 25.88 52.2029C25.8713 52.2226 25.8647 52.2423 25.856 52.262C25.8341 52.3123 25.7925 52.3452 25.7443 52.3627C25.7312 52.4458 25.7181 52.5268 25.7028 52.61C25.2541 53.5664 24.7464 54.6519 24.3984 55.547C23.1662 58.5388 22.1179 61.6093 21.3782 64.7609C20.7807 67.0742 20.3517 69.4225 20.1066 71.7993C19.7805 74.6488 19.6908 77.5201 19.6799 80.3871C19.6208 82.7617 19.5814 85.1407 19.7565 87.5109C19.8024 88.2244 19.8703 88.9357 19.949 89.6469C20.2817 96.8495 21.6583 104.004 24.0592 110.802C24.6063 112.355 25.1644 114.227 24.1489 115.522C23.3194 116.579 21.8093 116.743 20.4677 116.824L5.99262 117.685C4.59632 117.768 3.13437 117.871 1.94598 118.608C1.29379 119.013 0.761973 119.676 0.52342 120.401C0.157931 120.74 0.17544 121.241 0.416181 121.591C0.451198 121.795 0.516855 121.994 0.613151 122.184C0.659111 122.084 0.718202 121.994 0.78167 121.908C0.965509 121.998 1.18436 122.027 1.42292 121.961C2.28521 121.858 2.02258 121.801 3.01837 121.834C3.03369 121.836 3.05339 121.841 3.07747 121.845C3.9704 122.057 3.66181 121.963 4.37309 122.305C5.72124 123.04 6.09549 123.456 7.10441 124.22C11.3677 127.885 16.7472 130.137 22.2405 131.407C28.1912 132.779 34.3279 133.077 40.4274 133.368C41.9878 133.442 43.8393 133.374 44.6973 132.072C44.6994 132.07 44.6994 132.068 44.7016 132.068C44.7432 132.072 44.7848 132.074 44.8264 132.074C45.3823 132.044 45.9491 131.873 46.3518 131.479C46.8705 130.954 46.9405 130.175 46.9186 129.472C46.7983 127.723 46.168 126.054 45.4698 124.458C45.4501 124.307 45.4282 124.156 45.4063 124.005C45.3494 123.697 45.286 123.322 45.2006 122.935C45.1787 122.252 45.1503 121.571 45.0978 120.889C45.0168 119.654 44.8636 118.424 44.7738 117.188C44.6754 115.868 44.6294 114.542 44.6053 113.218C45.2685 110.832 46.0673 108.46 46.7523 106.14C49.6806 96.2192 50.5538 85.8301 51.4139 75.522Z" fill="white"/>
</g>
<path d="M31.505 127.566C31.1482 127.268 30.7083 127.102 30.2859 126.922C29.6885 126.677 29.0866 126.45 28.4716 126.261C25.8213 125.485 23.1863 124.546 20.4221 124.279C19.5533 124.224 17.2181 123.541 16.3995 123.121C15.1433 122.473 14.3883 121.821 13.4625 121.142C12.0925 120.14 11.2761 119.963 9.59751 120.009C8.65205 120.02 7.69565 119.869 6.76114 120.083C6.45255 120.166 6.06518 120.193 5.88571 120.49C5.83538 120.569 5.80911 120.657 5.80474 120.746C5.36703 121.112 5.75221 121.862 6.32124 121.701C7.15508 121.506 8.20121 121.379 9.14229 121.377C9.19043 121.39 9.23858 121.403 9.29111 121.418C10.3197 121.681 11.449 122.58 12.6571 123.32C12.8891 123.465 13.1276 123.6 13.3684 123.732C14.8085 125.176 15.3906 125.557 17.9884 125.826C19.0368 125.927 20.2711 126.187 21.5711 126.402C22.2299 126.671 22.7485 126.94 23.6699 127.233C24.6395 127.52 25.6484 127.616 26.642 127.791C27.5984 127.969 28.5395 128.229 29.5046 128.36C29.7191 128.373 29.9533 128.474 30.1546 128.369C30.2247 128.345 30.2859 128.306 30.3341 128.257C30.3932 128.286 30.4523 128.317 30.507 128.345C30.7674 128.461 31.0607 128.651 31.343 128.511C31.726 128.373 31.7938 127.835 31.505 127.566Z" fill="#E3D6BF"/>
<path d="M38.029 118.945C37.7292 118.962 37.4688 119.133 37.1952 119.238C37.0464 119.304 36.8976 119.367 36.7465 119.433C35.3678 119.971 34.5711 120.35 33.3521 120.79C32.2666 121.14 31.5662 121.092 30.2509 121.199C28.4213 121.363 26.5522 120.991 24.7445 121.378C24.1864 121.591 24.3593 122.457 24.9612 122.451C25.0815 122.431 25.2041 122.416 25.3267 122.401C25.3704 122.517 25.4514 122.619 25.563 122.683C25.8563 122.829 26.2065 122.733 26.5216 122.784C27.2548 122.847 27.4561 122.889 28.3359 123.048C28.9137 123.156 29.498 123.261 30.089 123.272C30.5901 123.278 31.0891 123.204 31.5837 123.121C32.8181 122.915 34.0152 122.552 35.1489 122.018C36.09 121.619 37.0354 121.206 37.8189 120.532C38.1341 120.249 38.6003 119.995 38.6309 119.531C38.644 119.212 38.3486 118.925 38.029 118.945Z" fill="#E3D6BF"/>
<path d="M47.8033 81.7246C47.9149 80.9367 48.0397 80.1247 48.1841 79.1858C48.1951 78.7678 47.6917 78.468 47.3328 78.6956C47.0045 78.9035 47.0001 79.3522 46.8907 79.6914C46.7944 80.0919 46.7003 80.4924 46.6062 80.8951C45.4047 85.7909 44.9451 90.8202 44.3651 95.8189C44.3082 96.2653 44.074 97.7141 43.8595 98.6312C43.7501 99.1126 43.6363 99.5941 43.5444 100.08C43.494 100.378 43.4306 100.682 43.4831 100.986C43.5006 101.487 44.004 101.914 44.4898 101.654C44.9144 101.371 45.0632 100.824 45.2558 100.375C45.5075 99.6488 45.6804 98.9003 45.8292 98.1475C46.2188 96.6155 46.534 95.0638 46.7244 93.4924C46.8097 92.7527 46.8754 92.0086 46.9279 91.2667C47.1074 89.785 47.2606 88.3034 47.4247 86.8195C47.5735 85.4845 47.8383 84.0466 48.1447 82.3877C48.2279 82.0572 48.0441 81.8143 47.8033 81.7246Z" fill="#E3D6BF"/>
<path d="M32.0148 42.3829C30.8373 42.2734 30.1873 42.2231 29.2681 42.0414C28.1585 41.8248 27.6355 41.4155 26.5193 40.783C25.8737 40.4285 25.3287 41.3608 25.9547 41.7504C26.8235 42.245 27.6727 42.8184 28.6597 43.0504C29.3754 43.2298 30.1107 43.3042 30.8417 43.3918C31.1831 43.4312 31.5267 43.4596 31.8703 43.4903C31.9907 43.5034 32.122 43.5187 32.2314 43.4553C32.7917 43.2408 32.6123 42.3763 32.0148 42.3829Z" fill="#E3D6BF"/>
<path d="M42.6424 41.6301C42.4805 41.5797 42.3251 41.6323 42.1741 41.6913C41.9618 41.7614 41.7473 41.8227 41.5306 41.8818C40.5261 42.1291 40.0928 42.2078 39.2764 42.2582C38.7796 42.2866 38.2806 42.2954 37.7838 42.3195C37.4271 42.3698 36.9762 42.2451 36.6939 42.5121C36.3438 42.8469 36.6042 43.4794 37.0901 43.4685C38.4776 43.4006 39.8805 43.4247 41.2396 43.103C41.6269 43.0198 42.0099 42.9169 42.3864 42.7988C42.5352 42.7397 42.7103 42.7178 42.8328 42.6105C43.2049 42.3589 43.0714 41.7351 42.6424 41.6301Z" fill="#E3D6BF"/>
</svg>
