<svg width="390" height="637" viewBox="0 0 390 637" fill="none" xmlns="http://www.w3.org/2000/svg">
<path d="M-794.65 0.700195L-768.61 26.4802L-742.58 0.700195L-716.55 26.4802L-690.52 0.700195L-664.48 26.4802L-638.45 0.700195L-612.42 26.4802L-586.38 0.700195L-560.35 26.4802L-534.31 0.700195L-508.28 26.4802L-482.25 0.700195L-456.21 26.4802L-430.18 0.700195L-404.15 26.4802L-378.11 0.700195L-352.08 26.4802L-326.04 0.700195L-300.01 26.4802L-273.98 0.700195L-247.95 26.4802L-221.92 0.700195L-195.88 26.4802L-169.85 0.700195L-143.81 26.4802L-117.78 0.700195L-91.7499 26.4802L-65.7099 0.700195L-39.6799 26.4802L-13.6399 0.700195L12.4001 26.4802L38.4301 0.700195L64.4601 26.4802L90.5001 0.700195L116.54 26.4802L142.57 0.700195L168.61 26.4802L194.65 0.700195L220.68 26.4802L246.72 0.700195L272.75 26.4802L298.78 0.700195L324.81 26.4802L350.85 0.700195L376.88 26.4802L402.91 0.700195L428.94 26.4802L454.98 0.700195L481.01 26.4802L507.04 0.700195L533.07 26.4802L559.1 0.700195L585.14 26.4802L611.17 0.700195L637.2 26.4802L663.24 0.700195L689.27 26.4802L715.3 0.700195L741.34 26.4802L767.37 0.700195L793.4 26.4802L819.44 0.700195L845.47 26.4802L871.51 0.700195L897.54 26.4802L923.57 0.700195L949.61 26.4802L975.64 0.700195L1001.67 26.4802L1027.71 0.700195L1053.74 26.4802L1079.77 0.700195L1105.8 26.4802L1131.84 0.700195L1157.87 26.4802L1183.9 0.700195M1183.9 27.6902L1157.87 53.4602L1131.84 27.6902L1105.8 53.4602L1079.77 27.6902L1053.74 53.4602L1027.71 27.6902L1001.67 53.4602L975.64 27.6902L949.61 53.4602L923.57 27.6902L897.54 53.4602L871.51 27.6902L845.47 53.4602L819.44 27.6902L793.4 53.4602L767.37 27.6902L741.34 53.4602L715.3 27.6902L689.27 53.4602L663.24 27.6902L637.2 53.4602L611.17 27.6902L585.14 53.4602L559.1 27.6902L533.07 53.4602L507.04 27.6902L481.01 53.4602L454.98 27.6902L428.94 53.4602L402.91 27.6902L376.88 53.4602L350.85 27.6902L324.81 53.4602L298.78 27.6902L272.75 53.4602L246.72 27.6902L220.68 53.4602L194.65 27.6902L168.61 53.4602L142.57 27.6902L116.54 53.4602L90.5001 27.6902L64.4601 53.4602L38.4301 27.6902L12.4001 53.4602L-13.6399 27.6902L-39.6799 53.4602L-65.7099 27.6902L-91.7499 53.4602L-117.78 27.6902L-143.81 53.4602L-169.85 27.6902L-195.88 53.4602L-221.92 27.6902L-247.95 53.4602L-273.98 27.6902L-300.01 53.4602L-326.04 27.6902L-352.08 53.4602L-378.11 27.6902L-404.15 53.4602L-430.18 27.6902L-456.21 53.4602L-482.25 27.6902L-508.28 53.4602L-534.31 27.6902L-560.35 53.4602L-586.38 27.6902L-612.42 53.4602L-638.45 27.6902L-664.48 53.4602L-690.52 27.6902L-716.55 53.4602L-742.58 27.6902L-768.61 53.4602L-794.65 27.6902M-794.65 54.6702L-768.61 80.4402L-742.58 54.6702L-716.55 80.4402L-690.52 54.6702L-664.48 80.4402L-638.45 54.6702L-612.42 80.4402L-586.38 54.6702L-560.35 80.4402L-534.31 54.6702L-508.28 80.4402L-482.25 54.6702L-456.21 80.4402L-430.18 54.6702L-404.15 80.4402L-378.11 54.6702L-352.08 80.4402L-326.04 54.6702L-300.01 80.4402L-273.98 54.6702L-247.95 80.4402L-221.92 54.6702L-195.88 80.4402L-169.85 54.6702L-143.81 80.4402L-117.78 54.6702L-91.7499 80.4402L-65.7099 54.6702L-39.6799 80.4402L-13.6399 54.6702L12.4001 80.4402L38.4301 54.6702L64.4601 80.4402L90.5001 54.6702L116.54 80.4402L142.57 54.6702L168.61 80.4402L194.65 54.6702L220.68 80.4402L246.72 54.6702L272.75 80.4402L298.78 54.6702L324.81 80.4402L350.85 54.6702L376.88 80.4402L402.91 54.6702L428.94 80.4402L454.98 54.6702L481.01 80.4402L507.04 54.6702L533.07 80.4402L559.1 54.6702L585.14 80.4402L611.17 54.6702L637.2 80.4402L663.24 54.6702L689.27 80.4402L715.3 54.6702L741.34 80.4402L767.37 54.6702L793.4 80.4402L819.44 54.6702L845.47 80.4402L871.51 54.6702L897.54 80.4402L923.57 54.6702L949.61 80.4402L975.64 54.6702L1001.67 80.4402L1027.71 54.6702L1053.74 80.4402L1079.77 54.6702L1105.8 80.4402L1131.84 54.6702L1157.87 80.4402L1183.9 54.6702M1183.9 81.6502L1157.87 107.43L1131.84 81.6502L1105.8 107.43L1079.77 81.6502L1053.74 107.43L1027.71 81.6502L1001.67 107.43L975.64 81.6502L949.61 107.43L923.57 81.6502L897.54 107.43L871.51 81.6502L845.47 107.43L819.44 81.6502L793.4 107.43L767.37 81.6502L741.34 107.43L715.3 81.6502L689.27 107.43L663.24 81.6502L637.2 107.43L611.17 81.6502L585.14 107.43L559.1 81.6502L533.07 107.43L507.04 81.6502L481.01 107.43L454.98 81.6502L428.94 107.43L402.91 81.6502L376.88 107.43L350.85 81.6502L324.81 107.43L298.78 81.6502L272.75 107.43L246.72 81.6502L220.68 107.43L194.65 81.6502L168.61 107.43L142.57 81.6502L116.54 107.43L90.5001 81.6502L64.4601 107.43L38.4301 81.6502L12.4001 107.43L-13.6399 81.6502L-39.6799 107.43L-65.7099 81.6502L-91.7499 107.43L-117.78 81.6502L-143.81 107.43L-169.85 81.6502L-195.88 107.43L-221.92 81.6502L-247.95 107.43L-273.98 81.6502L-300.01 107.43L-326.04 81.6502L-352.08 107.43L-378.11 81.6502L-404.15 107.43L-430.18 81.6502L-456.21 107.43L-482.25 81.6502L-508.28 107.43L-534.31 81.6502L-560.35 107.43L-586.38 81.6502L-612.42 107.43L-638.45 81.6502L-664.48 107.43L-690.52 81.6502L-716.55 107.43L-742.58 81.6502L-768.61 107.43L-794.65 81.6502M-794.65 108.63L-768.61 134.41L-742.58 108.63L-716.55 134.41L-690.52 108.63L-664.48 134.41L-638.45 108.63L-612.42 134.41L-586.38 108.63L-560.35 134.41L-534.31 108.63L-508.28 134.41L-482.25 108.63L-456.21 134.41L-430.18 108.63L-404.15 134.41L-378.11 108.63L-352.08 134.41L-326.04 108.63L-300.01 134.41L-273.98 108.63L-247.95 134.41L-221.92 108.63L-195.88 134.41L-169.85 108.63L-143.81 134.41L-117.78 108.63L-91.7499 134.41L-65.7099 108.63L-39.6799 134.41L-13.6399 108.63L12.4001 134.41L38.4301 108.63L64.4601 134.41L90.5001 108.63L116.54 134.41L142.57 108.63L168.61 134.41L194.65 108.63L220.68 134.41L246.72 108.63L272.75 134.41L298.78 108.63L324.81 134.41L350.85 108.63L376.88 134.41L402.91 108.63L428.94 134.41L454.98 108.63L481.01 134.41L507.04 108.63L533.07 134.41L559.1 108.63L585.14 134.41L611.17 108.63L637.2 134.41L663.24 108.63L689.27 134.41L715.3 108.63L741.34 134.41L767.37 108.63L793.4 134.41L819.44 108.63L845.47 134.41L871.51 108.63L897.54 134.41L923.57 108.63L949.61 134.41L975.64 108.63L1001.67 134.41L1027.71 108.63L1053.74 134.41L1079.77 108.63L1105.8 134.41L1131.84 108.63L1157.87 134.41L1183.9 108.63M1183.9 135.62L1157.87 161.39L1131.84 135.62L1105.8 161.39L1079.77 135.62L1053.74 161.39L1027.71 135.62L1001.67 161.39L975.64 135.62L949.61 161.39L923.57 135.62L897.54 161.39L871.51 135.62L845.47 161.39L819.44 135.62L793.4 161.39L767.37 135.62L741.34 161.39L715.3 135.62L689.27 161.39L663.24 135.62L637.2 161.39L611.17 135.62L585.14 161.39L559.1 135.62L533.07 161.39L507.04 135.62L481.01 161.39L454.98 135.62L428.94 161.39L402.91 135.62L376.88 161.39L350.85 135.62L324.81 161.39L298.78 135.62L272.75 161.39L246.72 135.62L220.68 161.39L194.65 135.62L168.61 161.39L142.57 135.62L116.54 161.39L90.5001 135.62L64.4601 161.39L38.4301 135.62L12.4001 161.39L-13.6399 135.62L-39.6799 161.39L-65.7099 135.62L-91.7499 161.39L-117.78 135.62L-143.81 161.39L-169.85 135.62L-195.88 161.39L-221.92 135.62L-247.95 161.39L-273.98 135.62L-300.01 161.39L-326.04 135.62L-352.08 161.39L-378.11 135.62L-404.15 161.39L-430.18 135.62L-456.21 161.39L-482.25 135.62L-508.28 161.39L-534.31 135.62L-560.35 161.39L-586.38 135.62L-612.42 161.39L-638.45 135.62L-664.48 161.39L-690.52 135.62L-716.55 161.39L-742.58 135.62L-768.61 161.39L-794.65 135.62M-794.65 162.6L-768.61 188.37L-742.58 162.6L-716.55 188.37L-690.52 162.6L-664.48 188.37L-638.45 162.6L-612.42 188.37L-586.38 162.6L-560.35 188.37L-534.31 162.6L-508.28 188.37L-482.25 162.6L-456.21 188.37L-430.18 162.6L-404.15 188.37L-378.11 162.6L-352.08 188.37L-326.04 162.6L-300.01 188.37L-273.98 162.6L-247.95 188.37L-221.92 162.6L-195.88 188.37L-169.85 162.6L-143.81 188.37L-117.78 162.6L-91.7499 188.37L-65.7099 162.6L-39.6799 188.37L-13.6399 162.6L12.4001 188.37L38.4301 162.6L64.4601 188.37L90.5001 162.6L116.54 188.37L142.57 162.6L168.61 188.37L194.65 162.6L220.68 188.37L246.72 162.6L272.75 188.37L298.78 162.6L324.81 188.37L350.85 162.6L376.88 188.37L402.91 162.6L428.94 188.37L454.98 162.6L481.01 188.37L507.04 162.6L533.07 188.37L559.1 162.6L585.14 188.37L611.17 162.6L637.2 188.37L663.24 162.6L689.27 188.37L715.3 162.6L741.34 188.37L767.37 162.6L793.4 188.37L819.44 162.6L845.47 188.37L871.51 162.6L897.54 188.37L923.57 162.6L949.61 188.37L975.64 162.6L1001.67 188.37L1027.71 162.6L1053.74 188.37L1079.77 162.6L1105.8 188.37L1131.84 162.6L1157.87 188.37L1183.9 162.6M1183.9 189.58L1157.87 215.36L1131.84 189.58L1105.8 215.36L1079.77 189.58L1053.74 215.36L1027.71 189.58L1001.67 215.36L975.64 189.58L949.61 215.36L923.57 189.58L897.54 215.36L871.51 189.58L845.47 215.36L819.44 189.58L793.4 215.36L767.37 189.58L741.34 215.36L715.3 189.58L689.27 215.36L663.24 189.58L637.2 215.36L611.17 189.58L585.14 215.36L559.1 189.58L533.07 215.36L507.04 189.58L481.01 215.36L454.98 189.58L428.94 215.36L402.91 189.58L376.88 215.36L350.85 189.58L324.81 215.36L298.78 189.58L272.75 215.36L246.72 189.58L220.68 215.36L194.65 189.58L168.61 215.36L142.57 189.58L116.54 215.36L90.5001 189.58L64.4601 215.36L38.4301 189.58L12.4001 215.36L-13.6399 189.58L-39.6799 215.36L-65.7099 189.58L-91.7499 215.36L-117.78 189.58L-143.81 215.36L-169.85 189.58L-195.88 215.36L-221.92 189.58L-247.95 215.36L-273.98 189.58L-300.01 215.36L-326.04 189.58L-352.08 215.36L-378.11 189.58L-404.15 215.36L-430.18 189.58L-456.21 215.36L-482.25 189.58L-508.28 215.36L-534.31 189.58L-560.35 215.36L-586.38 189.58L-612.42 215.36L-638.45 189.58L-664.48 215.36L-690.52 189.58L-716.55 215.36L-742.58 189.58L-768.61 215.36L-794.65 189.58M-794.65 216.56L-768.61 242.34L-742.58 216.56L-716.55 242.34L-690.52 216.56L-664.48 242.34L-638.45 216.56L-612.42 242.34L-586.38 216.56L-560.35 242.34L-534.31 216.56L-508.28 242.34L-482.25 216.56L-456.21 242.34L-430.18 216.56L-404.15 242.34L-378.11 216.56L-352.08 242.34L-326.04 216.56L-300.01 242.34L-273.98 216.56L-247.95 242.34L-221.92 216.56L-195.88 242.34L-169.85 216.56L-143.81 242.34L-117.78 216.56L-91.7499 242.34L-65.7099 216.56L-39.6799 242.34L-13.6399 216.56L12.4001 242.34L38.4301 216.56L64.4601 242.34L90.5001 216.56L116.54 242.34L142.57 216.56L168.61 242.34L194.65 216.56L220.68 242.34L246.72 216.56L272.75 242.34L298.78 216.56L324.81 242.34L350.85 216.56L376.88 242.34L402.91 216.56L428.94 242.34L454.98 216.56L481.01 242.34L507.04 216.56L533.07 242.34L559.1 216.56L585.14 242.34L611.17 216.56L637.2 242.34L663.24 216.56L689.27 242.34L715.3 216.56L741.34 242.34L767.37 216.56L793.4 242.34L819.44 216.56L845.47 242.34L871.51 216.56L897.54 242.34L923.57 216.56L949.61 242.34L975.64 216.56L1001.67 242.34L1027.71 216.56L1053.74 242.34L1079.77 216.56L1105.8 242.34L1131.84 216.56L1157.87 242.34L1183.9 216.56M1183.9 243.55L1157.87 269.32L1131.84 243.55L1105.8 269.32L1079.77 243.55L1053.74 269.32L1027.71 243.55L1001.67 269.32L975.64 243.55L949.61 269.32L923.57 243.55L897.54 269.32L871.51 243.55L845.47 269.32L819.44 243.55L793.4 269.32L767.37 243.55L741.34 269.32L715.3 243.55L689.27 269.32L663.24 243.55L637.2 269.32L611.17 243.55L585.14 269.32L559.1 243.55L533.07 269.32L507.04 243.55L481.01 269.32L454.98 243.55L428.94 269.32L402.91 243.55L376.88 269.32L350.85 243.55L324.81 269.32L298.78 243.55L272.75 269.32L246.72 243.55L220.68 269.32L194.65 243.55L168.61 269.32L142.57 243.55L116.54 269.32L90.5001 243.55L64.4601 269.32L38.4301 243.55L12.4001 269.32L-13.6399 243.55L-39.6799 269.32L-65.7099 243.55L-91.7499 269.32L-117.78 243.55L-143.81 269.32L-169.85 243.55L-195.88 269.32L-221.92 243.55L-247.95 269.32L-273.98 243.55L-300.01 269.32L-326.04 243.55L-352.08 269.32L-378.11 243.55L-404.15 269.32L-430.18 243.55L-456.21 269.32L-482.25 243.55L-508.28 269.32L-534.31 243.55L-560.35 269.32L-586.38 243.55L-612.42 269.32L-638.45 243.55L-664.48 269.32L-690.52 243.55L-716.55 269.32L-742.58 243.55L-768.61 269.32L-794.65 243.55M-794.65 378.46L-768.61 404.23L-742.58 378.46L-716.55 404.23L-690.52 378.46L-664.48 404.23L-638.45 378.46L-612.42 404.23L-586.38 378.46L-560.35 404.23L-534.31 378.46L-508.28 404.23L-482.25 378.46L-456.21 404.23L-430.18 378.46L-404.15 404.23L-378.11 378.46L-352.08 404.23L-326.04 378.46L-300.01 404.23L-273.98 378.46L-247.95 404.23L-221.92 378.46L-195.88 404.23L-169.85 378.46L-143.81 404.23L-117.78 378.46L-91.7499 404.23L-65.7099 378.46L-39.6799 404.23L-13.6399 378.46L12.4001 404.23L38.4301 378.46L64.4601 404.23L90.5001 378.46L116.54 404.23L142.57 378.46L168.61 404.23L194.65 378.46L220.68 404.23L246.72 378.46L272.75 404.23L298.78 378.46L324.81 404.23L350.85 378.46L376.88 404.23L402.91 378.46L428.94 404.23L454.98 378.46L481.01 404.23L507.04 378.46L533.07 404.23L559.1 378.46L585.14 404.23L611.17 378.46L637.2 404.23L663.24 378.46L689.27 404.23L715.3 378.46L741.34 404.23L767.37 378.46L793.4 404.23L819.44 378.46L845.47 404.23L871.51 378.46L897.54 404.23L923.57 378.46L949.61 404.23L975.64 378.46L1001.67 404.23L1027.71 378.46L1053.74 404.23L1079.77 378.46L1105.8 404.23L1131.84 378.46L1157.87 404.23L1183.9 378.46M1183.9 351.48L1157.87 377.25L1131.84 351.48L1105.8 377.25L1079.77 351.48L1053.74 377.25L1027.71 351.48L1001.67 377.25L975.64 351.48L949.61 377.25L923.57 351.48L897.54 377.25L871.51 351.48L845.47 377.25L819.44 351.48L793.4 377.25L767.37 351.48L741.34 377.25L715.3 351.48L689.27 377.25L663.24 351.48L637.2 377.25L611.17 351.48L585.14 377.25L559.1 351.48L533.07 377.25L507.04 351.48L481.01 377.25L454.98 351.48L428.94 377.25L402.91 351.48L376.88 377.25L350.85 351.48L324.81 377.25L298.78 351.48L272.75 377.25L246.72 351.48L220.68 377.25L194.65 351.48L168.61 377.25L142.57 351.48L116.54 377.25L90.5001 351.48L64.4601 377.25L38.4301 351.48L12.4001 377.25L-13.6399 351.48L-39.6799 377.25L-65.7099 351.48L-91.7499 377.25L-117.78 351.48L-143.81 377.25L-169.85 351.48L-195.88 377.25L-221.92 351.48L-247.95 377.25L-273.98 351.48L-300.01 377.25L-326.04 351.48L-352.08 377.25L-378.11 351.48L-404.15 377.25L-430.18 351.48L-456.21 377.25L-482.25 351.48L-508.28 377.25L-534.31 351.48L-560.35 377.25L-586.38 351.48L-612.42 377.25L-638.45 351.48L-664.48 377.25L-690.52 351.48L-716.55 377.25L-742.58 351.48L-768.61 377.25L-794.65 351.48M-794.65 324.5L-768.61 350.27L-742.58 324.5L-716.55 350.27L-690.52 324.5L-664.48 350.27L-638.45 324.5L-612.42 350.27L-586.38 324.5L-560.35 350.27L-534.31 324.5L-508.28 350.27L-482.25 324.5L-456.21 350.27L-430.18 324.5L-404.15 350.27L-378.11 324.5L-352.08 350.27L-326.04 324.5L-300.01 350.27L-273.98 324.5L-247.95 350.27L-221.92 324.5L-195.88 350.27L-169.85 324.5L-143.81 350.27L-117.78 324.5L-91.7499 350.27L-65.7099 324.5L-39.6799 350.27L-13.6399 324.5L12.4001 350.27L38.4301 324.5L64.4601 350.27L90.5001 324.5L116.54 350.27L142.57 324.5L168.61 350.27L194.65 324.5L220.68 350.27L246.72 324.5L272.75 350.27L298.78 324.5L324.81 350.27L350.85 324.5L376.88 350.27L402.91 324.5L428.94 350.27L454.98 324.5L481.01 350.27L507.04 324.5L533.07 350.27L559.1 324.5L585.14 350.27L611.17 324.5L637.2 350.27L663.24 324.5L689.27 350.27L715.3 324.5L741.34 350.27L767.37 324.5L793.4 350.27L819.44 324.5L845.47 350.27L871.51 324.5L897.54 350.27L923.57 324.5L949.61 350.27L975.64 324.5L1001.67 350.27L1027.71 324.5L1053.74 350.27L1079.77 324.5L1105.8 350.27L1131.84 324.5L1157.87 350.27L1183.9 324.5M1183.9 297.51L1157.87 323.29L1131.84 297.51L1105.8 323.29L1079.77 297.51L1053.74 323.29L1027.71 297.51L1001.67 323.29L975.64 297.51L949.61 323.29L923.57 297.51L897.54 323.29L871.51 297.51L845.47 323.29L819.44 297.51L793.4 323.29L767.37 297.51L741.34 323.29L715.3 297.51L689.27 323.29L663.24 297.51L637.2 323.29L611.17 297.51L585.14 323.29L559.1 297.51L533.07 323.29L507.04 297.51L481.01 323.29L454.98 297.51L428.94 323.29L402.91 297.51L376.88 323.29L350.85 297.51L324.81 323.29L298.78 297.51L272.75 323.29L246.72 297.51L220.68 323.29L194.65 297.51L168.61 323.29L142.57 297.51L116.54 323.29L90.5001 297.51L64.4601 323.29L38.4301 297.51L12.4001 323.29L-13.6399 297.51L-39.6799 323.29L-65.7099 297.51L-91.7499 323.29L-117.78 297.51L-143.81 323.29L-169.85 297.51L-195.88 323.29L-221.92 297.51L-247.95 323.29L-273.98 297.51L-300.01 323.29L-326.04 297.51L-352.08 323.29L-378.11 297.51L-404.15 323.29L-430.18 297.51L-456.21 323.29L-482.25 297.51L-508.28 323.29L-534.31 297.51L-560.35 323.29L-586.38 297.51L-612.42 323.29L-638.45 297.51L-664.48 323.29L-690.52 297.51L-716.55 323.29L-742.58 297.51L-768.61 323.29L-794.65 297.51M-794.65 270.53L-768.61 296.3L-742.58 270.53L-716.55 296.3L-690.52 270.53L-664.48 296.3L-638.45 270.53L-612.42 296.3L-586.38 270.53L-560.35 296.3L-534.31 270.53L-508.28 296.3L-482.25 270.53L-456.21 296.3L-430.18 270.53L-404.15 296.3L-378.11 270.53L-352.08 296.3L-326.04 270.53L-300.01 296.3L-273.98 270.53L-247.95 296.3L-221.92 270.53L-195.88 296.3L-169.85 270.53L-143.81 296.3L-117.78 270.53L-91.7499 296.3L-65.7099 270.53L-39.6799 296.3L-13.6399 270.53L12.4001 296.3L38.4301 270.53L64.4601 296.3L90.5001 270.53L116.54 296.3L142.57 270.53L168.61 296.3L194.65 270.53L220.68 296.3L246.72 270.53L272.75 296.3L298.78 270.53L324.81 296.3L350.85 270.53L376.88 296.3L402.91 270.53L428.94 296.3L454.98 270.53L481.01 296.3L507.04 270.53L533.07 296.3L559.1 270.53L585.14 296.3L611.17 270.53L637.2 296.3L663.24 270.53L689.27 296.3L715.3 270.53L741.34 296.3L767.37 270.53L793.4 296.3L819.44 270.53L845.47 296.3L871.51 270.53L897.54 296.3L923.57 270.53L949.61 296.3L975.64 270.53L1001.67 296.3L1027.71 270.53L1053.74 296.3L1079.77 270.53L1105.8 296.3L1131.84 270.53L1157.87 296.3L1183.9 270.53M1183.9 405.44L1157.87 431.22L1131.84 405.44L1105.8 431.22L1079.77 405.44L1053.74 431.22L1027.71 405.44L1001.67 431.22L975.64 405.44L949.61 431.22L923.57 405.44L897.54 431.22L871.51 405.44L845.47 431.22L819.44 405.44L793.4 431.22L767.37 405.44L741.34 431.22L715.3 405.44L689.27 431.22L663.24 405.44L637.2 431.22L611.17 405.44L585.14 431.22L559.1 405.44L533.07 431.22L507.04 405.44L481.01 431.22L454.98 405.44L428.94 431.22L402.91 405.44L376.88 431.22L350.85 405.44L324.81 431.22L298.78 405.44L272.75 431.22L246.72 405.44L220.68 431.22L194.65 405.44L168.61 431.22L142.57 405.44L116.54 431.22L90.5001 405.44L64.4601 431.22L38.4301 405.44L12.4001 431.22L-13.6399 405.44L-39.6799 431.22L-65.7099 405.44L-91.7499 431.22L-117.78 405.44L-143.81 431.22L-169.85 405.44L-195.88 431.22L-221.92 405.44L-247.95 431.22L-273.98 405.44L-300.01 431.22L-326.04 405.44L-352.08 431.22L-378.11 405.44L-404.15 431.22L-430.18 405.44L-456.21 431.22L-482.25 405.44L-508.28 431.22L-534.31 405.44L-560.35 431.22L-586.38 405.44L-612.42 431.22L-638.45 405.44L-664.48 431.22L-690.52 405.44L-716.55 431.22L-742.58 405.44L-768.61 431.22L-794.65 405.44M-794.65 432.43L-768.61 458.2L-742.58 432.43L-716.55 458.2L-690.52 432.43L-664.48 458.2L-638.45 432.43L-612.42 458.2L-586.38 432.43L-560.35 458.2L-534.31 432.43L-508.28 458.2L-482.25 432.43L-456.21 458.2L-430.18 432.43L-404.15 458.2L-378.11 432.43L-352.08 458.2L-326.04 432.43L-300.01 458.2L-273.98 432.43L-247.95 458.2L-221.92 432.43L-195.88 458.2L-169.85 432.43L-143.81 458.2L-117.78 432.43L-91.7499 458.2L-65.7099 432.43L-39.6799 458.2L-13.6399 432.43L12.4001 458.2L38.4301 432.43L64.4601 458.2L90.5001 432.43L116.54 458.2L142.57 432.43L168.61 458.2L194.65 432.43L220.68 458.2L246.72 432.43L272.75 458.2L298.78 432.43L324.81 458.2L350.85 432.43L376.88 458.2L402.91 432.43L428.94 458.2L454.98 432.43L481.01 458.2L507.04 432.43L533.07 458.2L559.1 432.43L585.14 458.2L611.17 432.43L637.2 458.2L663.24 432.43L689.27 458.2L715.3 432.43L741.34 458.2L767.37 432.43L793.4 458.2L819.44 432.43L845.47 458.2L871.51 432.43L897.54 458.2L923.57 432.43L949.61 458.2L975.64 432.43L1001.67 458.2L1027.71 432.43L1053.74 458.2L1079.77 432.43L1105.8 458.2L1131.84 432.43L1157.87 458.2L1183.9 432.43M1183.9 459.41L1157.87 485.18L1131.84 459.41L1105.8 485.18L1079.77 459.41L1053.74 485.18L1027.71 459.41L1001.67 485.18L975.64 459.41L949.61 485.18L923.57 459.41L897.54 485.18L871.51 459.41L845.47 485.18L819.44 459.41L793.4 485.18L767.37 459.41L741.34 485.18L715.3 459.41L689.27 485.18L663.24 459.41L637.2 485.18L611.17 459.41L585.14 485.18L559.1 459.41L533.07 485.18L507.04 459.41L481.01 485.18L454.98 459.41L428.94 485.18L402.91 459.41L376.88 485.18L350.85 459.41L324.81 485.18L298.78 459.41L272.75 485.18L246.72 459.41L220.68 485.18L194.65 459.41L168.61 485.18L142.57 459.41L116.54 485.18L90.5001 459.41L64.4601 485.18L38.4301 459.41L12.4001 485.18L-13.6399 459.41L-39.6799 485.18L-65.7099 459.41L-91.7499 485.18L-117.78 459.41L-143.81 485.18L-169.85 459.41L-195.88 485.18L-221.92 459.41L-247.95 485.18L-273.98 459.41L-300.01 485.18L-326.04 459.41L-352.08 485.18L-378.11 459.41L-404.15 485.18L-430.18 459.41L-456.21 485.18L-482.25 459.41L-508.28 485.18L-534.31 459.41L-560.35 485.18L-586.38 459.41L-612.42 485.18L-638.45 459.41L-664.48 485.18L-690.52 459.41L-716.55 485.18L-742.58 459.41L-768.61 485.18L-794.65 459.41M-794.65 486.39L-768.61 512.17L-742.58 486.39L-716.55 512.17L-690.52 486.39L-664.48 512.17L-638.45 486.39L-612.42 512.17L-586.38 486.39L-560.35 512.17L-534.31 486.39L-508.28 512.17L-482.25 486.39L-456.21 512.17L-430.18 486.39L-404.15 512.17L-378.11 486.39L-352.08 512.17L-326.04 486.39L-300.01 512.17L-273.98 486.39L-247.95 512.17L-221.92 486.39L-195.88 512.17L-169.85 486.39L-143.81 512.17L-117.78 486.39L-91.7499 512.17L-65.7099 486.39L-39.6799 512.17L-13.6399 486.39L12.4001 512.17L38.4301 486.39L64.4601 512.17L90.5001 486.39L116.54 512.17L142.57 486.39L168.61 512.17L194.65 486.39L220.68 512.17L246.72 486.39L272.75 512.17L298.78 486.39L324.81 512.17L350.85 486.39L376.88 512.17L402.91 486.39L428.94 512.17L454.98 486.39L481.01 512.17L507.04 486.39L533.07 512.17L559.1 486.39L585.14 512.17L611.17 486.39L637.2 512.17L663.24 486.39L689.27 512.17L715.3 486.39L741.34 512.17L767.37 486.39L793.4 512.17L819.44 486.39L845.47 512.17L871.51 486.39L897.54 512.17L923.57 486.39L949.61 512.17L975.64 486.39L1001.67 512.17L1027.71 486.39L1053.74 512.17L1079.77 486.39L1105.8 512.17L1131.84 486.39L1157.87 512.17L1183.9 486.39M1183.9 513.37L1157.87 539.15L1131.84 513.37L1105.8 539.15L1079.77 513.37L1053.74 539.15L1027.71 513.37L1001.67 539.15L975.64 513.37L949.61 539.15L923.57 513.37L897.54 539.15L871.51 513.37L845.47 539.15L819.44 513.37L793.4 539.15L767.37 513.37L741.34 539.15L715.3 513.37L689.27 539.15L663.24 513.37L637.2 539.15L611.17 513.37L585.14 539.15L559.1 513.37L533.07 539.15L507.04 513.37L481.01 539.15L454.98 513.37L428.94 539.15L402.91 513.37L376.88 539.15L350.85 513.37L324.81 539.15L298.78 513.37L272.75 539.15L246.72 513.37L220.68 539.15L194.65 513.37L168.61 539.15L142.57 513.37L116.54 539.15L90.5001 513.37L64.4601 539.15L38.4301 513.37L12.4001 539.15L-13.6399 513.37L-39.6799 539.15L-65.7099 513.37L-91.7499 539.15L-117.78 513.37L-143.81 539.15L-169.85 513.37L-195.88 539.15L-221.92 513.37L-247.95 539.15L-273.98 513.37L-300.01 539.15L-326.04 513.37L-352.08 539.15L-378.11 513.37L-404.15 539.15L-430.18 513.37L-456.21 539.15L-482.25 513.37L-508.28 539.15L-534.31 513.37L-560.35 539.15L-586.38 513.37L-612.42 539.15L-638.45 513.37L-664.48 539.15L-690.52 513.37L-716.55 539.15L-742.58 513.37L-768.61 539.15L-794.65 513.37M-794.65 540.36L-768.61 566.13L-742.58 540.36L-716.55 566.13L-690.52 540.36L-664.48 566.13L-638.45 540.36L-612.42 566.13L-586.38 540.36L-560.35 566.13L-534.31 540.36L-508.28 566.13L-482.25 540.36L-456.21 566.13L-430.18 540.36L-404.15 566.13L-378.11 540.36L-352.08 566.13L-326.04 540.36L-300.01 566.13L-273.98 540.36L-247.95 566.13L-221.92 540.36L-195.88 566.13L-169.85 540.36L-143.81 566.13L-117.78 540.36L-91.7499 566.13L-65.7099 540.36L-39.6799 566.13L-13.6399 540.36L12.4001 566.13L38.4301 540.36L64.4601 566.13L90.5001 540.36L116.54 566.13L142.57 540.36L168.61 566.13L194.65 540.36L220.68 566.13L246.72 540.36L272.75 566.13L298.78 540.36L324.81 566.13L350.85 540.36L376.88 566.13L402.91 540.36L428.94 566.13L454.98 540.36L481.01 566.13L507.04 540.36L533.07 566.13L559.1 540.36L585.14 566.13L611.17 540.36L637.2 566.13L663.24 540.36L689.27 566.13L715.3 540.36L741.34 566.13L767.37 540.36L793.4 566.13L819.44 540.36L845.47 566.13L871.51 540.36L897.54 566.13L923.57 540.36L949.61 566.13L975.64 540.36L1001.67 566.13L1027.71 540.36L1053.74 566.13L1079.77 540.36L1105.8 566.13L1131.84 540.36L1157.87 566.13L1183.9 540.36M1183.9 567.34L1157.87 593.11L1131.84 567.34L1105.8 593.11L1079.77 567.34L1053.74 593.11L1027.71 567.34L1001.67 593.11L975.64 567.34L949.61 593.11L923.57 567.34L897.54 593.11L871.51 567.34L845.47 593.11L819.44 567.34L793.4 593.11L767.37 567.34L741.34 593.11L715.3 567.34L689.27 593.11L663.24 567.34L637.2 593.11L611.17 567.34L585.14 593.11L559.1 567.34L533.07 593.11L507.04 567.34L481.01 593.11L454.98 567.34L428.94 593.11L402.91 567.34L376.88 593.11L350.85 567.34L324.81 593.11L298.78 567.34L272.75 593.11L246.72 567.34L220.68 593.11L194.65 567.34L168.61 593.11L142.57 567.34L116.54 593.11L90.5001 567.34L64.4601 593.11L38.4301 567.34L12.4001 593.11L-13.6399 567.34L-39.6799 593.11L-65.7099 567.34L-91.7499 593.11L-117.78 567.34L-143.81 593.11L-169.85 567.34L-195.88 593.11L-221.92 567.34L-247.95 593.11L-273.98 567.34L-300.01 593.11L-326.04 567.34L-352.08 593.11L-378.11 567.34L-404.15 593.11L-430.18 567.34L-456.21 593.11L-482.25 567.34L-508.28 593.11L-534.31 567.34L-560.35 593.11L-586.38 567.34L-612.42 593.11L-638.45 567.34L-664.48 593.11L-690.52 567.34L-716.55 593.11L-742.58 567.34L-768.61 593.11L-794.65 567.34M-794.65 594.32L-768.61 620.1L-742.58 594.32L-716.55 620.1L-690.52 594.32L-664.48 620.1L-638.45 594.32L-612.42 620.1L-586.38 594.32L-560.35 620.1L-534.31 594.32L-508.28 620.1L-482.25 594.32L-456.21 620.1L-430.18 594.32L-404.15 620.1L-378.11 594.32L-352.08 620.1L-326.04 594.32L-300.01 620.1L-273.98 594.32L-247.95 620.1L-221.92 594.32L-195.88 620.1L-169.85 594.32L-143.81 620.1L-117.78 594.32L-91.7499 620.1L-65.7099 594.32L-39.6799 620.1L-13.6399 594.32L12.4001 620.1L38.4301 594.32L64.4601 620.1L90.5001 594.32L116.54 620.1L142.57 594.32L168.61 620.1L194.65 594.32L220.68 620.1L246.72 594.32L272.75 620.1L298.78 594.32L324.81 620.1L350.85 594.32L376.88 620.1L402.91 594.32L428.94 620.1L454.98 594.32L481.01 620.1L507.04 594.32L533.07 620.1L559.1 594.32L585.14 620.1L611.17 594.32L637.2 620.1L663.24 594.32L689.27 620.1L715.3 594.32L741.34 620.1L767.37 594.32L793.4 620.1L819.44 594.32L845.47 620.1L871.51 594.32L897.54 620.1L923.57 594.32L949.61 620.1L975.64 594.32L1001.67 620.1L1027.71 594.32L1053.74 620.1L1079.77 594.32L1105.8 620.1L1131.84 594.32L1157.87 620.1L1183.9 594.32M1183.9 621.3L1157.87 647.08L1131.84 621.3L1105.8 647.08L1079.77 621.3L1053.74 647.08L1027.71 621.3L1001.67 647.08L975.64 621.3L949.61 647.08L923.57 621.3L897.54 647.08L871.51 621.3L845.47 647.08L819.44 621.3L793.4 647.08L767.37 621.3L741.34 647.08L715.3 621.3L689.27 647.08L663.24 621.3L637.2 647.08L611.17 621.3L585.14 647.08L559.1 621.3L533.07 647.08L507.04 621.3L481.01 647.08L454.98 621.3L428.94 647.08L402.91 621.3L376.88 647.08L350.85 621.3L324.81 647.08L298.78 621.3L272.75 647.08L246.72 621.3L220.68 647.08L194.65 621.3L168.61 647.08L142.57 621.3L116.54 647.08L90.5001 621.3L64.4601 647.08L38.4301 621.3L12.4001 647.08L-13.6399 621.3L-39.6799 647.08L-65.7099 621.3L-91.7499 647.08L-117.78 621.3L-143.81 647.08L-169.85 621.3L-195.88 647.08L-221.92 621.3L-247.95 647.08L-273.98 621.3L-300.01 647.08L-326.04 621.3L-352.08 647.08L-378.11 621.3L-404.15 647.08L-430.18 621.3L-456.21 647.08L-482.25 621.3L-508.28 647.08L-534.31 621.3L-560.35 647.08L-586.38 621.3L-612.42 647.08L-638.45 621.3L-664.48 647.08L-690.52 621.3L-716.55 647.08L-742.58 621.3L-768.61 647.08L-794.65 621.3M-794.65 648.29L-768.61 674.06L-742.58 648.29L-716.55 674.06L-690.52 648.29L-664.48 674.06L-638.45 648.29L-612.42 674.06L-586.38 648.29L-560.35 674.06L-534.31 648.29L-508.28 674.06L-482.25 648.29L-456.21 674.06L-430.18 648.29L-404.15 674.06L-378.11 648.29L-352.08 674.06L-326.04 648.29L-300.01 674.06L-273.98 648.29L-247.95 674.06L-221.92 648.29L-195.88 674.06L-169.85 648.29L-143.81 674.06L-117.78 648.29L-91.7499 674.06L-65.7099 648.29L-39.6799 674.06L-13.6399 648.29L12.4001 674.06L38.4301 648.29L64.4601 674.06L90.5001 648.29L116.54 674.06L142.57 648.29L168.61 674.06L194.65 648.29L220.68 674.06L246.72 648.29L272.75 674.06L298.78 648.29L324.81 674.06L350.85 648.29L376.88 674.06L402.91 648.29L428.94 674.06L454.98 648.29L481.01 674.06L507.04 648.29L533.07 674.06L559.1 648.29L585.14 674.06L611.17 648.29L637.2 674.06L663.24 648.29L689.27 674.06L715.3 648.29L741.34 674.06L767.37 648.29L793.4 674.06L819.44 648.29L845.47 674.06L871.51 648.29L897.54 674.06L923.57 648.29L949.61 674.06L975.64 648.29L1001.67 674.06L1027.71 648.29L1053.74 674.06L1079.77 648.29L1105.8 674.06L1131.84 648.29L1157.87 674.06L1183.9 648.29M1183.9 675.27L1157.87 701.04L1131.84 675.27L1105.8 701.04L1079.77 675.27L1053.74 701.04L1027.71 675.27L1001.67 701.04L975.64 675.27L949.61 701.04L923.57 675.27L897.54 701.04L871.51 675.27L845.47 701.04L819.44 675.27L793.4 701.04L767.37 675.27L741.34 701.04L715.3 675.27L689.27 701.04L663.24 675.27L637.2 701.04L611.17 675.27L585.14 701.04L559.1 675.27L533.07 701.04L507.04 675.27L481.01 701.04L454.98 675.27L428.94 701.04L402.91 675.27L376.88 701.04L350.85 675.27L324.81 701.04L298.78 675.27L272.75 701.04L246.72 675.27L220.68 701.04L194.65 675.27L168.61 701.04L142.57 675.27L116.54 701.04L90.5001 675.27L64.4601 701.04L38.4301 675.27L12.4001 701.04L-13.6399 675.27L-39.6799 701.04L-65.7099 675.27L-91.7499 701.04L-117.78 675.27L-143.81 701.04L-169.85 675.27L-195.88 701.04L-221.92 675.27L-247.95 701.04L-273.98 675.27L-300.01 701.04L-326.04 675.27L-352.08 701.04L-378.11 675.27L-404.15 701.04L-430.18 675.27L-456.21 701.04L-482.25 675.27L-508.28 701.04L-534.31 675.27L-560.35 701.04L-586.38 675.27L-612.42 701.04L-638.45 675.27L-664.48 701.04L-690.52 675.27L-716.55 701.04L-742.58 675.27L-768.61 701.04L-794.65 675.27M-794.65 702.25L-768.61 728.03L-742.58 702.25L-716.55 728.03L-690.52 702.25L-664.48 728.03L-638.45 702.25L-612.42 728.03L-586.38 702.25L-560.35 728.03L-534.31 702.25L-508.28 728.03L-482.25 702.25L-456.21 728.03L-430.18 702.25L-404.15 728.03L-378.11 702.25L-352.08 728.03L-326.04 702.25L-300.01 728.03L-273.98 702.25L-247.95 728.03L-221.92 702.25L-195.88 728.03L-169.85 702.25L-143.81 728.03L-117.78 702.25L-91.7499 728.03L-65.7099 702.25L-39.6799 728.03L-13.6399 702.25L12.4001 728.03L38.4301 702.25L64.4601 728.03L90.5001 702.25L116.54 728.03L142.57 702.25L168.61 728.03L194.65 702.25L220.68 728.03L246.72 702.25L272.75 728.03L298.78 702.25L324.81 728.03L350.85 702.25L376.88 728.03L402.91 702.25L428.94 728.03L454.98 702.25L481.01 728.03L507.04 702.25L533.07 728.03L559.1 702.25L585.14 728.03L611.17 702.25L637.2 728.03L663.24 702.25L689.27 728.03L715.3 702.25L741.34 728.03L767.37 702.25L793.4 728.03L819.44 702.25L845.47 728.03L871.51 702.25L897.54 728.03L923.57 702.25L949.61 728.03L975.64 702.25L1001.67 728.03L1027.71 702.25L1053.74 728.03L1079.77 702.25L1105.8 728.03L1131.84 702.25L1157.87 728.03L1183.9 702.25M1183.9 729.24L1157.87 755.01L1131.84 729.24L1105.8 755.01L1079.77 729.24L1053.74 755.01L1027.71 729.24L1001.67 755.01L975.64 729.24L949.61 755.01L923.57 729.24L897.54 755.01L871.51 729.24L845.47 755.01L819.44 729.24L793.4 755.01L767.37 729.24L741.34 755.01L715.3 729.24L689.27 755.01L663.24 729.24L637.2 755.01L611.17 729.24L585.14 755.01L559.1 729.24L533.07 755.01L507.04 729.24L481.01 755.01L454.98 729.24L428.94 755.01L402.91 729.24L376.88 755.01L350.85 729.24L324.81 755.01L298.78 729.24L272.75 755.01L246.72 729.24L220.68 755.01L194.65 729.24L168.61 755.01L142.57 729.24L116.54 755.01L90.5001 729.24L64.4601 755.01L38.4301 729.24L12.4001 755.01L-13.6399 729.24L-39.6799 755.01L-65.7099 729.24L-91.7499 755.01L-117.78 729.24L-143.81 755.01L-169.85 729.24L-195.88 755.01L-221.92 729.24L-247.95 755.01L-273.98 729.24L-300.01 755.01L-326.04 729.24L-352.08 755.01L-378.11 729.24L-404.15 755.01L-430.18 729.24L-456.21 755.01L-482.25 729.24L-508.28 755.01L-534.31 729.24L-560.35 755.01L-586.38 729.24L-612.42 755.01L-638.45 729.24L-664.48 755.01L-690.52 729.24L-716.55 755.01L-742.58 729.24L-768.61 755.01L-794.65 729.24M-794.65 756.22L-768.61 781.99L-742.58 756.22L-716.55 781.99L-690.52 756.22L-664.48 781.99L-638.45 756.22L-612.42 781.99L-586.38 756.22L-560.35 781.99L-534.31 756.22L-508.28 781.99L-482.25 756.22L-456.21 781.99L-430.18 756.22L-404.15 781.99L-378.11 756.22L-352.08 781.99L-326.04 756.22L-300.01 781.99L-273.98 756.22L-247.95 781.99L-221.92 756.22L-195.88 781.99L-169.85 756.22L-143.81 781.99L-117.78 756.22L-91.7499 781.99L-65.7099 756.22L-39.6799 781.99L-13.6399 756.22L12.4001 781.99L38.4301 756.22L64.4601 781.99L90.5001 756.22L116.54 781.99L142.57 756.22L168.61 781.99L194.65 756.22L220.68 781.99L246.72 756.22L272.75 781.99L298.78 756.22L324.81 781.99L350.85 756.22L376.88 781.99L402.91 756.22L428.94 781.99L454.98 756.22L481.01 781.99L507.04 756.22L533.07 781.99L559.1 756.22L585.14 781.99L611.17 756.22L637.2 781.99L663.24 756.22L689.27 781.99L715.3 756.22L741.34 781.99L767.37 756.22L793.4 781.99L819.44 756.22L845.47 781.99L871.51 756.22L897.54 781.99L923.57 756.22L949.61 781.99L975.64 756.22L1001.67 781.99L1027.71 756.22L1053.74 781.99L1079.77 756.22L1105.8 781.99L1131.84 756.22L1157.87 781.99L1183.9 756.22M1183.9 783.2L1157.87 808.97L1131.84 783.2L1105.8 808.97L1079.77 783.2L1053.74 808.97L1027.71 783.2L1001.67 808.97L975.64 783.2L949.61 808.97L923.57 783.2L897.54 808.97L871.51 783.2L845.47 808.97L819.44 783.2L793.4 808.97L767.37 783.2L741.34 808.97L715.3 783.2L689.27 808.97L663.24 783.2L637.2 808.97L611.17 783.2L585.14 808.97L559.1 783.2L533.07 808.97L507.04 783.2L481.01 808.97L454.98 783.2L428.94 808.97L402.91 783.2L376.88 808.97L350.85 783.2L324.81 808.97L298.78 783.2L272.75 808.97L246.72 783.2L220.68 808.97L194.65 783.2L168.61 808.97L142.57 783.2L116.54 808.97L90.5001 783.2L64.4601 808.97L38.4301 783.2L12.4001 808.97L-13.6399 783.2L-39.6799 808.97L-65.7099 783.2L-91.7499 808.97L-117.78 783.2L-143.81 808.97L-169.85 783.2L-195.88 808.97L-221.92 783.2L-247.95 808.97L-273.98 783.2L-300.01 808.97L-326.04 783.2L-352.08 808.97L-378.11 783.2L-404.15 808.97L-430.18 783.2L-456.21 808.97L-482.25 783.2L-508.28 808.97L-534.31 783.2L-560.35 808.97L-586.38 783.2L-612.42 808.97L-638.45 783.2L-664.48 808.97L-690.52 783.2L-716.55 808.97L-742.58 783.2L-768.61 808.97L-794.65 783.2M-794.65 810.18L-768.61 835.96L-742.58 810.18L-716.55 835.96L-690.52 810.18L-664.48 835.96L-638.45 810.18L-612.42 835.96L-586.38 810.18L-560.35 835.96L-534.31 810.18L-508.28 835.96L-482.25 810.18L-456.21 835.96L-430.18 810.18L-404.15 835.96L-378.11 810.18L-352.08 835.96L-326.04 810.18L-300.01 835.96L-273.98 810.18L-247.95 835.96L-221.92 810.18L-195.88 835.96L-169.85 810.18L-143.81 835.96L-117.78 810.18L-91.7499 835.96L-65.7099 810.18L-39.6799 835.96L-13.6399 810.18L12.4001 835.96L38.4301 810.18L64.4601 835.96L90.5001 810.18L116.54 835.96L142.57 810.18L168.61 835.96L194.65 810.18L220.68 835.96L246.72 810.18L272.75 835.96L298.78 810.18L324.81 835.96L350.85 810.18L376.88 835.96L402.91 810.18L428.94 835.96L454.98 810.18L481.01 835.96L507.04 810.18L533.07 835.96L559.1 810.18L585.14 835.96L611.17 810.18L637.2 835.96L663.24 810.18L689.27 835.96L715.3 810.18L741.34 835.96L767.37 810.18L793.4 835.96L819.44 810.18L845.47 835.96L871.51 810.18L897.54 835.96L923.57 810.18L949.61 835.96L975.64 810.18L1001.67 835.96L1027.71 810.18L1053.74 835.96L1079.77 810.18L1105.8 835.96L1131.84 810.18L1157.87 835.96L1183.9 810.18M1183.9 837.17L1157.87 862.94L1131.84 837.17L1105.8 862.94L1079.77 837.17L1053.74 862.94L1027.71 837.17L1001.67 862.94L975.64 837.17L949.61 862.94L923.57 837.17L897.54 862.94L871.51 837.17L845.47 862.94L819.44 837.17L793.4 862.94L767.37 837.17L741.34 862.94L715.3 837.17L689.27 862.94L663.24 837.17L637.2 862.94L611.17 837.17L585.14 862.94L559.1 837.17L533.07 862.94L507.04 837.17L481.01 862.94L454.98 837.17L428.94 862.94L402.91 837.17L376.88 862.94L350.85 837.17L324.81 862.94L298.78 837.17L272.75 862.94L246.72 837.17L220.68 862.94L194.65 837.17L168.61 862.94L142.57 837.17L116.54 862.94L90.5001 837.17L64.4601 862.94L38.4301 837.17L12.4001 862.94L-13.6399 837.17L-39.6799 862.94L-65.7099 837.17L-91.7499 862.94L-117.78 837.17L-143.81 862.94L-169.85 837.17L-195.88 862.94L-221.92 837.17L-247.95 862.94L-273.98 837.17L-300.01 862.94L-326.04 837.17L-352.08 862.94L-378.11 837.17L-404.15 862.94L-430.18 837.17L-456.21 862.94L-482.25 837.17L-508.28 862.94L-534.31 837.17L-560.35 862.94L-586.38 837.17L-612.42 862.94L-638.45 837.17L-664.48 862.94L-690.52 837.17L-716.55 862.94L-742.58 837.17L-768.61 862.94L-794.65 837.17M-794.65 864.15L-768.61 889.92L-742.58 864.15L-716.55 889.92L-690.52 864.15L-664.48 889.92L-638.45 864.15L-612.42 889.92L-586.38 864.15L-560.35 889.92L-534.31 864.15L-508.28 889.92L-482.25 864.15L-456.21 889.92L-430.18 864.15L-404.15 889.92L-378.11 864.15L-352.08 889.92L-326.04 864.15L-300.01 889.92L-273.98 864.15L-247.95 889.92L-221.92 864.15L-195.88 889.92L-169.85 864.15L-143.81 889.92L-117.78 864.15L-91.7499 889.92L-65.7099 864.15L-39.6799 889.92L-13.6399 864.15L12.4001 889.92L38.4301 864.15L64.4601 889.92L90.5001 864.15L116.54 889.92L142.57 864.15L168.61 889.92L194.65 864.15L220.68 889.92L246.72 864.15L272.75 889.92L298.78 864.15L324.81 889.92L350.85 864.15L376.88 889.92L402.91 864.15L428.94 889.92L454.98 864.15L481.01 889.92L507.04 864.15L533.07 889.92L559.1 864.15L585.14 889.92L611.17 864.15L637.2 889.92L663.24 864.15L689.27 889.92L715.3 864.15L741.34 889.92L767.37 864.15L793.4 889.92L819.44 864.15L845.47 889.92L871.51 864.15L897.54 889.92L923.57 864.15L949.61 889.92L975.64 864.15L1001.67 889.92L1027.71 864.15L1053.74 889.92L1079.77 864.15L1105.8 889.92L1131.84 864.15L1157.87 889.92L1183.9 864.15M1183.9 891.13L1157.87 916.91L1131.84 891.13L1105.8 916.91L1079.77 891.13L1053.74 916.91L1027.71 891.13L1001.67 916.91L975.64 891.13L949.61 916.91L923.57 891.13L897.54 916.91L871.51 891.13L845.47 916.91L819.44 891.13L793.4 916.91L767.37 891.13L741.34 916.91L715.3 891.13L689.27 916.91L663.24 891.13L637.2 916.91L611.17 891.13L585.14 916.91L559.1 891.13L533.07 916.91L507.04 891.13L481.01 916.91L454.98 891.13L428.94 916.91L402.91 891.13L376.88 916.91L350.85 891.13L324.81 916.91L298.78 891.13L272.75 916.91L246.72 891.13L220.68 916.91L194.65 891.13L168.61 916.91L142.57 891.13L116.54 916.91L90.5001 891.13L64.4601 916.91L38.4301 891.13L12.4001 916.91L-13.6399 891.13L-39.6799 916.91L-65.7099 891.13L-91.7499 916.91L-117.78 891.13L-143.81 916.91L-169.85 891.13L-195.88 916.91L-221.92 891.13L-247.95 916.91L-273.98 891.13L-300.01 916.91L-326.04 891.13L-352.08 916.91L-378.11 891.13L-404.15 916.91L-430.18 891.13L-456.21 916.91L-482.25 891.13L-508.28 916.91L-534.31 891.13L-560.35 916.91L-586.38 891.13L-612.42 916.91L-638.45 891.13L-664.48 916.91L-690.52 891.13L-716.55 916.91L-742.58 891.13L-768.61 916.91L-794.65 891.13M-794.65 918.11L-768.61 943.89L-742.58 918.11L-716.55 943.89L-690.52 918.11L-664.48 943.89L-638.45 918.11L-612.42 943.89L-586.38 918.11L-560.35 943.89L-534.31 918.11L-508.28 943.89L-482.25 918.11L-456.21 943.89L-430.18 918.11L-404.15 943.89L-378.11 918.11L-352.08 943.89L-326.04 918.11L-300.01 943.89L-273.98 918.11L-247.95 943.89L-221.92 918.11L-195.88 943.89L-169.85 918.11L-143.81 943.89L-117.78 918.11L-91.7499 943.89L-65.7099 918.11L-39.6799 943.89L-13.6399 918.11L12.4001 943.89L38.4301 918.11L64.4601 943.89L90.5001 918.11L116.54 943.89L142.57 918.11L168.61 943.89L194.65 918.11L220.68 943.89L246.72 918.11L272.75 943.89L298.78 918.11L324.81 943.89L350.85 918.11L376.88 943.89L402.91 918.11L428.94 943.89L454.98 918.11L481.01 943.89L507.04 918.11L533.07 943.89L559.1 918.11L585.14 943.89L611.17 918.11L637.2 943.89L663.24 918.11L689.27 943.89L715.3 918.11L741.34 943.89L767.37 918.11L793.4 943.89L819.44 918.11L845.47 943.89L871.51 918.11L897.54 943.89L923.57 918.11L949.61 943.89L975.64 918.11L1001.67 943.89L1027.71 918.11L1053.74 943.89L1079.77 918.11L1105.8 943.89L1131.84 918.11L1157.87 943.89L1183.9 918.11M1183.9 945.1L1157.87 970.87L1131.84 945.1L1105.8 970.87L1079.77 945.1L1053.74 970.87L1027.71 945.1L1001.67 970.87L975.64 945.1L949.61 970.87L923.57 945.1L897.54 970.87L871.51 945.1L845.47 970.87L819.44 945.1L793.4 970.87L767.37 945.1L741.34 970.87L715.3 945.1L689.27 970.87L663.24 945.1L637.2 970.87L611.17 945.1L585.14 970.87L559.1 945.1L533.07 970.87L507.04 945.1L481.01 970.87L454.98 945.1L428.94 970.87L402.91 945.1L376.88 970.87L350.85 945.1L324.81 970.87L298.78 945.1L272.75 970.87L246.72 945.1L220.68 970.87L201.91 940.06L168.61 970.87L142.57 945.1L116.54 970.87L90.5001 945.1L64.4601 970.87L38.4301 945.1L12.4001 970.87L-13.6399 945.1L-39.6799 970.87L-65.7099 945.1L-91.7499 970.87L-117.78 945.1L-143.81 970.87L-169.85 945.1L-195.88 970.87L-221.92 945.1L-247.95 970.87L-273.98 945.1L-300.01 970.87L-326.04 945.1L-352.08 970.87L-378.11 945.1L-404.15 970.87L-430.18 945.1L-456.21 970.87L-482.25 945.1L-508.28 970.87L-534.31 945.1L-560.35 970.87L-586.38 945.1L-612.42 970.87L-638.45 945.1L-664.48 970.87L-690.52 945.1L-716.55 970.87L-742.58 945.1L-768.61 970.87L-794.65 945.1M-794.65 972.08L-768.61 997.85L-742.58 972.08L-716.55 997.85L-690.52 972.08L-664.48 997.85L-638.45 972.08L-612.42 997.85L-586.38 972.08L-560.35 997.85L-534.31 972.08L-508.28 997.85L-482.25 972.08L-456.21 997.85L-430.18 972.08L-404.15 997.85L-378.11 972.08L-352.08 997.85L-326.04 972.08L-300.01 997.85L-273.98 972.08L-247.95 997.85L-221.92 972.08L-195.88 997.85L-169.85 972.08L-143.81 997.85L-117.78 972.08L-91.7499 997.85L-65.7099 972.08L-39.6799 997.85L-13.6399 972.08L12.4001 997.85L38.4301 972.08L64.4601 997.85L90.5001 972.08L116.54 997.85L142.57 972.08L168.61 997.85L194.65 972.08L220.68 997.85L246.72 972.08L272.75 997.85L298.78 972.08L324.81 997.85L350.85 972.08L376.88 997.85L402.91 972.08L428.94 997.85L454.98 972.08L481.01 997.85L507.04 972.08L533.07 997.85L559.1 972.08L585.14 997.85L611.17 972.08L637.2 997.85L663.24 972.08L689.27 997.85L715.3 972.08L741.34 997.85L767.37 972.08L793.4 997.85L819.44 972.08L845.47 997.85L871.51 972.08L897.54 997.85L923.57 972.08L949.61 997.85L975.64 972.08L1001.67 997.85L1027.71 972.08L1053.74 997.85L1079.77 972.08L1105.8 997.85L1131.84 972.08L1157.87 997.85L1183.9 972.08M1183.9 999.06L1157.87 1024.84L1131.84 999.06L1105.8 1024.84L1079.77 999.06L1053.74 1024.84L1027.71 999.06L1001.67 1024.84L975.64 999.06L949.61 1024.84L923.57 999.06L897.54 1024.84L871.51 999.06L845.47 1024.84L819.44 999.06L793.4 1024.84L767.37 999.06L741.34 1024.84L715.3 999.06L689.27 1024.84L663.24 999.06L637.2 1024.84L611.17 999.06L585.14 1024.84L559.1 999.06L533.07 1024.84L507.04 999.06L481.01 1024.84L454.98 999.06L428.94 1024.84L402.91 999.06L376.88 1024.84L350.85 999.06L324.81 1024.84L298.78 999.06L272.75 1024.84L246.72 999.06L220.68 1024.84L194.65 999.06L168.61 1024.84L142.57 999.06L116.54 1024.84L90.5001 999.06L64.4601 1024.84L38.4301 999.06L12.4001 1024.84L-13.6399 999.06L-39.6799 1024.84L-65.7099 999.06L-91.7499 1024.84L-117.78 999.06L-143.81 1024.84L-169.85 999.06L-195.88 1024.84L-221.92 999.06L-247.95 1024.84L-273.98 999.06L-300.01 1024.84L-326.04 999.06L-352.08 1024.84L-378.11 999.06L-404.15 1024.84L-430.18 999.06L-456.21 1024.84L-482.25 999.06L-508.28 1024.84L-534.31 999.06L-560.35 1024.84L-586.38 999.06L-612.42 1024.84L-638.45 999.06L-664.48 1024.84L-690.52 999.06L-716.55 1024.84L-742.58 999.06L-768.61 1024.84L-794.65 999.06M-794.65 1026.05L-768.61 1051.82L-742.58 1026.05L-716.55 1051.82L-690.52 1026.05L-664.48 1051.82L-638.45 1026.05L-612.42 1051.82L-586.38 1026.05L-560.35 1051.82L-534.31 1026.05L-508.28 1051.82L-482.25 1026.05L-456.21 1051.82L-430.18 1026.05L-404.15 1051.82L-378.11 1026.05L-352.08 1051.82L-326.04 1026.05L-300.01 1051.82L-273.98 1026.05L-247.95 1051.82L-221.92 1026.05L-195.88 1051.82L-169.85 1026.05L-143.81 1051.82L-117.78 1026.05L-91.7499 1051.82L-65.7099 1026.05L-39.6799 1051.82L-13.6399 1026.05L12.4001 1051.82L38.4301 1026.05L64.4601 1051.82L90.5001 1026.05L116.54 1051.82L142.57 1026.05L168.61 1051.82L199.88 1020.87L220.68 1051.82L246.72 1026.05L272.75 1051.82L298.78 1026.05L324.81 1051.82L350.85 1026.05L376.88 1051.82L402.91 1026.05L428.94 1051.82L454.98 1026.05L481.01 1051.82L507.04 1026.05L533.07 1051.82L559.1 1026.05L585.14 1051.82L611.17 1026.05L637.2 1051.82L663.24 1026.05L689.27 1051.82L715.3 1026.05L741.34 1051.82L767.37 1026.05L793.4 1051.82L819.44 1026.05L845.47 1051.82L871.51 1026.05L897.54 1051.82L923.57 1026.05L949.61 1051.82L975.64 1026.05L1001.67 1051.82L1027.71 1026.05L1053.74 1051.82L1079.77 1026.05L1105.8 1051.82L1131.84 1026.05L1157.87 1051.82L1183.9 1026.05M1183.9 1053.03L1157.87 1078.8L1131.84 1053.03L1105.8 1078.8L1079.77 1053.03L1053.74 1078.8L1027.71 1053.03L1001.67 1078.8L975.64 1053.03L949.61 1078.8L923.57 1053.03L897.54 1078.8L871.51 1053.03L845.47 1078.8L819.44 1053.03L793.4 1078.8L767.37 1053.03L741.34 1078.8L715.3 1053.03L689.27 1078.8L663.24 1053.03L637.2 1078.8L611.17 1053.03L585.14 1078.8L559.1 1053.03L533.07 1078.8L507.04 1053.03L481.01 1078.8L454.98 1053.03L428.94 1078.8L402.91 1053.03L376.88 1078.8L350.85 1053.03L324.81 1078.8L298.78 1053.03L272.75 1078.8L246.72 1053.03L220.68 1078.8L194.65 1053.03L168.61 1078.8L142.57 1053.03L116.54 1078.8L90.5001 1053.03L64.4601 1078.8L38.4301 1053.03L12.4001 1078.8L-13.6399 1053.03L-39.6799 1078.8L-65.7099 1053.03L-91.7499 1078.8L-117.78 1053.03L-143.81 1078.8L-169.85 1053.03L-195.88 1078.8L-221.92 1053.03L-247.95 1078.8L-273.98 1053.03L-300.01 1078.8L-326.04 1053.03L-352.08 1078.8L-378.11 1053.03L-404.15 1078.8L-430.18 1053.03L-456.21 1078.8L-482.25 1053.03L-508.28 1078.8L-534.31 1053.03L-560.35 1078.8L-586.38 1053.03L-612.42 1078.8L-638.45 1053.03L-664.48 1078.8L-690.52 1053.03L-716.55 1078.8L-742.58 1053.03L-768.61 1078.8L-794.65 1053.03" stroke="url(#paint0_linear_53_6)" stroke-width="2" stroke-miterlimit="10"/>
<defs>
<linearGradient id="paint0_linear_53_6" x1="194.625" y1="0.700195" x2="194.625" y2="1078.8" gradientUnits="userSpaceOnUse">
<stop stop-color="#121212"/>
<stop offset="1" stop-color="#C09371"/>
</linearGradient>
</defs>
</svg>
