<svg width="373" height="913" viewBox="0 0 373 913" fill="none" xmlns="http://www.w3.org/2000/svg">
<path fill-rule="evenodd" clip-rule="evenodd" d="M1 546.826C1 553.123 4.39495 559.146 9.15884 562.706C10.9111 564.02 13.5942 565.279 15.6202 565.827C18.8509 566.703 22.6839 566.703 25.9693 565.827C27.3383 565.443 29.8024 564.403 31.007 563.636C36.5923 560.241 40.6443 553.725 40.6443 546.826V318.488H38.454V547.647C38.454 550.987 36.9756 554.601 35.1138 557.12L33.0878 559.475C31.3356 560.844 30.1309 561.939 27.8858 562.925C26.0241 563.746 22.8482 564.458 20.8222 564.458C18.8509 564.458 15.5654 563.691 13.7585 562.925C7.78991 560.351 3.19029 554.109 3.19029 547.428V318.488H1L1 546.826Z" fill="white"/>
<path fill-rule="evenodd" clip-rule="evenodd" d="M42.8898 4.83671C42.8898 6.80797 42.5613 6.42467 46.1205 6.42467H265.259C271.775 6.42467 274.678 5.93185 278.839 8.66972C281.577 10.4767 284.698 14.4192 284.698 18.8546C284.698 22.14 284.534 24.0565 282.727 26.9039C281.741 28.4919 280.318 29.9156 278.784 30.956C274.951 33.5843 271.228 33.0915 265.095 33.0915H46.3395C42.4518 33.0915 42.9446 32.5439 42.9446 35.2818H271.502C284.096 35.2818 291.379 20.6068 283.877 10.6957C280.537 6.2604 276.101 4.23438 270.297 4.23438H43.5469C43.1088 4.23438 42.9446 4.39865 42.9446 4.83671H42.8898Z" fill="white"/>
<path fill-rule="evenodd" clip-rule="evenodd" d="M43.2729 2.04444H270.406C273.199 2.04444 275.882 2.4825 277.963 3.30386C278.949 3.68716 280.044 4.28949 280.865 4.83706C282.836 6.04172 284.15 7.3559 285.574 9.16289C292.145 17.486 289.407 30.7373 279.277 35.7202C277.525 36.5963 274.623 37.5272 272.049 37.5272H43.3277V39.7175H269.256C276.923 39.7175 280.427 37.9653 284.698 34.5155C290.557 29.8064 293.35 19.4025 289.407 11.5175C288.476 9.60095 286.998 7.30114 285.519 5.82269C285.136 5.43939 284.808 5.27512 284.315 4.83706C283.877 4.399 283.493 4.17997 283.001 3.79667C280.044 1.66114 276.265 0.12793 272.268 0.12793H43.3277V2.15395L43.2729 2.04444Z" fill="white"/>
<path fill-rule="evenodd" clip-rule="evenodd" d="M13.5947 545.019C13.5947 547.374 14.0875 549.564 15.2374 550.769C18.6324 554.383 22.9582 554.383 26.3532 550.769C27.5031 549.564 27.9959 547.319 27.9959 545.019V318.269H25.8056V546.607C25.8056 549.181 23.3963 551.426 20.8227 551.426C18.2491 551.426 15.8398 549.181 15.8398 546.607V318.269H13.6495V545.019H13.5947Z" fill="white"/>
<path fill-rule="evenodd" clip-rule="evenodd" d="M42.8896 17.2669C42.8896 19.5119 43.0539 18.8548 49.2962 18.8548C122.507 18.8548 195.882 19.0739 269.037 18.8548C270.571 18.8548 271.83 18.4715 271.83 19.8405C271.83 20.9356 270.352 20.6618 269.202 20.6618C232.131 20.4428 194.513 20.6618 157.442 20.6618H45.9013C42.7254 20.6618 42.8896 20.1143 42.8896 22.8521H270.844C271.83 22.8521 272.487 22.5236 273.035 22.0308C275.17 20.0595 273.747 16.6646 270.68 16.6646H43.5467C43.1087 16.6646 42.9444 16.8288 42.9444 17.2669H42.8896Z" fill="white"/>
<path fill-rule="evenodd" clip-rule="evenodd" d="M42.89 9.05399C42.89 11.08 42.5614 10.642 46.2849 10.642H267.997C272.323 10.642 274.733 10.3682 277.744 13.4893C280.153 15.9534 280.811 19.4579 279.77 22.7981C279.332 24.167 278.346 25.6455 277.306 26.5216C275.006 28.4928 273.09 29.0404 269.202 29.0404H42.89V31.0664H271.447C272.926 31.0664 274.842 30.5189 275.828 30.0808C282.344 27.1787 285.191 17.9794 279.004 11.6823C277.197 9.87535 274.349 8.45166 270.845 8.45166H43.4923C43.0542 8.45166 42.89 8.61593 42.89 9.05399Z" fill="white"/>
<path fill-rule="evenodd" clip-rule="evenodd" d="M5.38062 547.648C5.38062 550.276 6.80431 553.671 8.228 555.587C8.50178 555.971 8.72081 556.244 9.04936 556.573L9.92547 557.504C16.0035 563.637 25.9146 563.582 31.8284 557.394L32.4855 556.682C34.4568 554.602 36.2638 550.604 36.2638 547.593V318.269H34.2377V546.224C34.2377 549.619 33.1973 552.576 31.1713 554.985C29.8024 556.682 28.4335 557.778 26.3527 558.763C21.534 561.008 16.3868 560.077 12.2253 556.792C11.842 556.518 11.5682 556.354 11.2396 555.971C10.8563 555.587 10.8563 555.478 10.5278 555.095C8.44703 552.521 7.40664 549.838 7.40664 546.224V318.269H5.38062V547.593V547.648Z" fill="white"/>
<path fill-rule="evenodd" clip-rule="evenodd" d="M42.8896 14.2563C42.8896 15.1872 44.4229 14.8587 46.1203 14.8587C77.2225 14.8587 271.009 14.6397 272.378 14.9134C274.294 15.2967 275.773 16.9942 276.101 19.0202C276.594 22.1414 274.349 24.8793 270.461 24.8793H42.9444V26.9053H271.885C273.418 26.9053 275.554 25.5911 276.32 24.7698C280.591 20.1701 277.58 12.7231 270.844 12.7231H42.8896V14.3111V14.2563Z" fill="white"/>
<path fill-rule="evenodd" clip-rule="evenodd" d="M9.59651 547.428C9.59651 552.247 14.6889 557.668 20.2194 557.668C23.8334 557.668 26.407 556.792 28.7068 554.492C30.1305 553.068 32.047 550.166 32.047 547.428V318.269H30.021V545.621C30.021 555.368 19.6171 558.38 14.1414 552.685C12.5534 550.988 11.5678 548.852 11.5678 545.621V318.269H9.54175V547.428H9.59651Z" fill="white"/>
<path fill-rule="evenodd" clip-rule="evenodd" d="M17.8109 546.224C17.8109 547.1 18.1394 547.812 18.5775 548.25C20.2749 550.112 23.8342 549.126 23.8342 546.224V318.269H21.8081V545.786C21.8081 547.428 19.7821 547.428 19.7821 545.786V318.269H17.7561V546.224H17.8109Z" fill="white"/>
<path fill-rule="evenodd" clip-rule="evenodd" d="M5.2168 160.677C5.2168 163.524 5.6001 165.222 6.3667 167.357C7.1333 169.602 8.22845 170.698 9.43311 172.286C10.4187 173.545 12.609 174.969 14.0327 175.681C24.2176 180.773 36.2642 173.052 36.2642 161.882V0.019043H34.0739V162.648C34.0739 168.945 27.9411 175.078 21.644 175.078C17.2634 175.078 14.2518 174.202 11.2949 171.245C9.48787 169.438 7.46185 165.934 7.46185 162.484V0.019043H5.27155V160.677H5.2168Z" fill="white"/>
<path fill-rule="evenodd" clip-rule="evenodd" d="M1 0.019043V151.04V163.47C1.32854 166.7 2.20466 169.712 4.3402 172.943C12.061 184.387 28.8715 184.88 37.1398 172.997C41.3014 166.974 40.6443 161.006 40.6443 151.259V0.019043H38.454V160.075C38.454 163.963 38.235 166.974 36.3185 170.369C30.1309 181.485 15.3464 182.197 7.84467 174.038L5.27107 170.424C3.68311 167.522 2.97126 164.839 3.02602 160.458V0.019043H1Z" fill="white"/>
<path fill-rule="evenodd" clip-rule="evenodd" d="M9.43311 161.279C9.43311 171.574 21.5345 176.721 28.5982 169.657C30.6242 167.631 32.0479 165.058 32.0479 161.882V0.019043H30.0219V159.637C30.0219 164.072 28.872 167.467 25.4222 169.438C19.0156 173.107 11.6234 168.179 11.6234 162.046V0.019043H9.43311V161.279Z" fill="white"/>
<path fill-rule="evenodd" clip-rule="evenodd" d="M17.6467 160.677C17.6467 165.824 23.8343 165.386 23.8343 161.279V0.019043H21.644V161.444C21.644 162.539 19.837 162.539 19.837 161.444V0.019043H17.6467V160.677Z" fill="white"/>
<path fill-rule="evenodd" clip-rule="evenodd" d="M13.5946 161.279C13.5946 167.85 20.9868 171.026 25.6412 166.755C26.5173 165.988 27.7767 163.853 27.7767 162.32V0.0737305H25.7507V160.896C25.7507 164.127 24.108 166.153 21.2058 166.591C18.687 166.919 15.7301 164.839 15.7301 162.101V0.0737305H13.5398V161.334L13.5946 161.279Z" fill="white"/>
<path fill-rule="evenodd" clip-rule="evenodd" d="M38.4543 176.665V271.998C38.4543 272.929 40.6446 272.929 40.6446 271.998V176.665C40.6446 175.735 38.4543 175.735 38.4543 176.665Z" fill="white"/>
<path fill-rule="evenodd" clip-rule="evenodd" d="M284.424 39.6629H371.434C371.872 39.6629 372.036 39.4987 372.036 39.0606V37.4727H284.424V39.6629Z" fill="white"/>
<path fill-rule="evenodd" clip-rule="evenodd" d="M1 656.176H2.58796C3.02602 656.176 3.19029 656.012 3.19029 655.574V559.803H1V656.121L1 656.176Z" fill="white"/>
<path fill-rule="evenodd" clip-rule="evenodd" d="M34.074 181.266V271.999C34.074 272.765 34.5668 272.601 35.6619 272.601C36.5381 272.601 36.2643 271.342 36.2643 270.411V225.948C36.2643 210.178 36.2643 194.408 36.2643 178.692C35.6619 178.857 34.074 180.171 34.074 181.321V181.266Z" fill="white"/>
<path fill-rule="evenodd" clip-rule="evenodd" d="M286.834 35.2826H372.036V33.6946C372.036 33.2566 371.872 33.0923 371.434 33.0923H289.243C288.641 33.0923 287.162 34.8445 286.834 35.2826Z" fill="white"/>
<path fill-rule="evenodd" clip-rule="evenodd" d="M13.5947 656.175H15.785V572.834C15.785 572.287 15.1827 571.903 14.8541 571.575C14.3613 571.082 14.2518 570.808 13.5947 570.644V656.175Z" fill="white"/>
<path fill-rule="evenodd" clip-rule="evenodd" d="M5.38062 656.175H7.40664V564.457C7.40664 563.855 5.81867 562.54 5.38062 562.267V656.23V656.175Z" fill="white"/>
<path fill-rule="evenodd" clip-rule="evenodd" d="M30.022 184.88V272.602C32.3765 272.602 32.048 272.821 32.048 270.411V227.92C32.048 212.807 32.048 197.748 32.048 182.635C31.6099 182.909 30.022 184.278 30.022 184.826V184.88Z" fill="white"/>
<path fill-rule="evenodd" clip-rule="evenodd" d="M291.05 31.067H372.036V29.041H293.24C292.638 29.041 291.324 30.629 291.05 31.067Z" fill="white"/>
<path fill-rule="evenodd" clip-rule="evenodd" d="M9.59741 656.176H11.6234V568.619C11.6234 568.017 10.0355 566.702 9.59741 566.429V656.176Z" fill="white"/>
<path fill-rule="evenodd" clip-rule="evenodd" d="M299.264 22.8534H372.036V21.2654C372.036 20.8274 371.872 20.6631 371.434 20.6631H301.618C301.016 20.6631 299.537 22.4153 299.209 22.8534H299.264Z" fill="white"/>
<path fill-rule="evenodd" clip-rule="evenodd" d="M21.644 193.696V271.999C21.644 272.765 22.1369 272.601 23.232 272.601C24.0534 272.601 23.8343 271.725 23.8343 270.794C23.6153 258.474 23.8343 244.511 23.8343 232.135C23.8343 218.446 23.8343 204.757 23.8343 191.067C23.1772 191.232 22.9582 191.67 22.4654 192.108C22.0273 192.546 21.644 192.82 21.644 193.641V193.696Z" fill="white"/>
<path fill-rule="evenodd" clip-rule="evenodd" d="M25.8601 189.096V272.601H27.8861V186.851C27.4481 187.124 25.8601 188.493 25.8601 189.041V189.096Z" fill="white"/>
<path fill-rule="evenodd" clip-rule="evenodd" d="M295.267 26.8498H372.091V24.8237H297.512C296.91 24.8237 295.595 26.4117 295.322 26.8498H295.267Z" fill="white"/>
<path fill-rule="evenodd" clip-rule="evenodd" d="M17.6467 197.31V271.999C17.6467 272.765 18.1395 272.601 19.2347 272.601C20.2203 272.601 19.837 270.301 19.837 268.385V195.064C19.1799 195.229 17.6467 196.762 17.6467 197.255V197.31Z" fill="white"/>
<path fill-rule="evenodd" clip-rule="evenodd" d="M303.261 18.8548H372.036V16.6646H305.67C305.068 16.6646 303.589 18.4168 303.261 18.8548Z" fill="white"/>
<path fill-rule="evenodd" clip-rule="evenodd" d="M17.8108 656.176H19.8368V576.833C19.8368 576.231 18.2488 574.916 17.8108 574.643V656.176Z" fill="white"/>
<path fill-rule="evenodd" clip-rule="evenodd" d="M25.8601 656.175H28.0504V585.045C28.0504 584.443 26.2982 582.964 25.8601 582.636V656.12V656.175Z" fill="white"/>
<path fill-rule="evenodd" clip-rule="evenodd" d="M307.477 14.8588H367.874C372.693 14.8588 372.091 15.4063 372.091 12.6685H309.722C309.175 12.6685 307.696 14.2564 307.532 14.8588H307.477Z" fill="white"/>
<path fill-rule="evenodd" clip-rule="evenodd" d="M13.5947 201.307V271.999C13.5947 272.765 14.0875 272.601 15.1827 272.601C16.004 272.601 15.785 271.835 15.785 271.013C15.6207 259.843 15.785 247.358 15.785 236.133C15.785 223.758 15.785 211.437 15.785 199.062C15.1279 199.226 13.5947 200.759 13.5947 201.252V201.307Z" fill="white"/>
<path fill-rule="evenodd" clip-rule="evenodd" d="M21.8081 656.176H23.8341V580.885C23.8341 580.282 22.2462 578.968 21.8081 578.694V656.231V656.176Z" fill="white"/>
<path fill-rule="evenodd" clip-rule="evenodd" d="M311.475 10.642H372.037V8.45166H313.884C313.282 8.45166 311.804 10.2039 311.475 10.642Z" fill="white"/>
<path fill-rule="evenodd" clip-rule="evenodd" d="M9.43311 205.523V271.998C9.43311 272.765 9.92592 272.601 11.0211 272.601C11.7877 272.601 11.6234 271.943 11.6234 271.232C11.4591 248.781 11.6234 225.783 11.6234 203.333C10.9663 203.497 10.8568 203.825 10.364 204.263C10.0354 204.592 9.43311 204.975 9.43311 205.523Z" fill="white"/>
<path fill-rule="evenodd" clip-rule="evenodd" d="M5.2168 209.739V272.053C5.2168 272.82 5.70961 272.655 6.80476 272.655C7.73563 272.655 7.40709 271.013 7.40709 269.26V207.549C6.75 207.713 6.64049 208.042 6.14767 208.48C5.81913 208.808 5.2168 209.192 5.2168 209.739Z" fill="white"/>
<path fill-rule="evenodd" clip-rule="evenodd" d="M315.691 6.42467H372.036V4.23438H318.046C317.443 4.23438 315.965 5.98661 315.636 6.42467H315.691Z" fill="white"/>
<path fill-rule="evenodd" clip-rule="evenodd" d="M30.022 656.175H32.048V589.098C32.048 588.495 30.46 587.181 30.022 586.907V656.23V656.175Z" fill="white"/>
<path fill-rule="evenodd" clip-rule="evenodd" d="M39.0565 656.176H40.6445V597.695C40.6445 597.147 39.0565 595.669 38.4542 595.504V652.781C38.4542 654.588 38.1257 656.176 39.0565 656.176Z" fill="white"/>
<path fill-rule="evenodd" clip-rule="evenodd" d="M34.2378 656.176H36.2638V593.26C36.2638 592.657 34.6759 591.343 34.2378 591.069V656.176Z" fill="white"/>
<path fill-rule="evenodd" clip-rule="evenodd" d="M1 213.955V272.655H3.02602V211.765C2.58796 212.038 1 213.407 1 213.955Z" fill="white"/>
<path fill-rule="evenodd" clip-rule="evenodd" d="M320.071 2.04506H372.036V0.019043H322.261C321.659 0.019043 320.345 1.60701 320.071 2.04506Z" fill="white"/>
<path fill-rule="evenodd" clip-rule="evenodd" d="M1 299.486H40.8633V297.241H1V299.486Z" fill="white"/>
<path fill-rule="evenodd" clip-rule="evenodd" d="M1 311.862H40.8633V309.671H1V311.862Z" fill="white"/>
<path fill-rule="evenodd" clip-rule="evenodd" d="M1 287.275H40.8633V285.03H1V287.275Z" fill="white"/>
<path fill-rule="evenodd" clip-rule="evenodd" d="M1 307.7H40.8633V305.455H1V307.7Z" fill="white"/>
<path fill-rule="evenodd" clip-rule="evenodd" d="M1 295.435H40.8633V293.245H1V295.435Z" fill="white"/>
<path fill-rule="evenodd" clip-rule="evenodd" d="M1 283.06H40.8633V280.814H1V283.06Z" fill="white"/>
<path fill-rule="evenodd" clip-rule="evenodd" d="M1 303.485H40.8633V301.458H1V303.485Z" fill="white"/>
<path fill-rule="evenodd" clip-rule="evenodd" d="M1 291.273H40.8633V289.247H1V291.273Z" fill="white"/>
<path fill-rule="evenodd" clip-rule="evenodd" d="M1 316.077H40.6443V314.106H1V316.077Z" fill="white"/>
<path fill-rule="evenodd" clip-rule="evenodd" d="M1 278.624H40.6443V276.653H1V278.624Z" fill="white"/>
<path fill-rule="evenodd" clip-rule="evenodd" d="M336.608 373.846C336.608 376.475 336.991 378.556 337.703 380.582C338.251 382.224 339.62 384.36 340.66 385.4C346.3 391.095 353.638 392.354 360.537 388.138C361.468 387.591 361.961 387.043 362.782 386.386C363.987 385.455 365.41 383.21 366.068 381.841C366.889 380.198 367.656 377.844 367.656 375.434V146.713C364.918 146.713 365.465 146.275 365.465 149.944V369.083C365.465 375.708 366.013 378.61 363.165 382.772C361.961 384.524 360.866 385.565 359.004 386.66C350.188 391.971 338.853 385.4 338.853 375.489V146.768H336.663V373.901L336.608 373.846Z" fill="white"/>
<path fill-rule="evenodd" clip-rule="evenodd" d="M332.392 376.257C332.392 379.214 333.487 382.116 334.527 384.142C339.456 394.054 351.667 397.777 361.413 392.685C362.454 392.137 363.549 391.425 364.425 390.713C366.177 389.29 365.849 389.399 366.944 388.249C370.832 384.252 371.981 378.94 371.981 373.081V147.536C371.981 146.715 371.379 146.934 369.791 146.934V375.874C369.791 378.557 368.97 380.693 368.148 382.664C367.82 383.485 367.163 384.581 366.615 385.347C360.373 393.78 349.476 395.258 341.701 389.563C339.127 387.702 336.882 384.854 335.732 381.897C334.911 379.817 334.363 377.243 334.363 374.231V146.879H332.337V376.203L332.392 376.257Z" fill="white"/>
<path fill-rule="evenodd" clip-rule="evenodd" d="M340.769 374.231C340.769 385.565 353.309 389.672 359.934 382.992C361.686 381.24 363.384 378.611 363.384 375.216V146.659H361.358V372.971C361.358 376.53 360.756 378.776 359.113 380.747C355.444 385.073 348.764 384.963 345.478 381.24C344.164 379.761 342.905 377.68 342.905 374.997V146.659H340.714V374.176L340.769 374.231Z" fill="white"/>
<path fill-rule="evenodd" clip-rule="evenodd" d="M336.608 552.082V851.5H338.798V550.494C338.798 538.886 353.364 533.246 361.413 541.131C363.275 542.938 365.465 546.333 365.465 549.892V851.555H367.656V550.494C367.656 546.771 366.068 543.321 363.823 540.748C362.289 538.941 360.537 537.517 358.183 536.586C356.814 536.038 353.364 535.108 351.557 535.381C346.245 536.148 344.438 536.86 340.824 540.474C337.868 543.376 336.663 547.757 336.663 552.137L336.608 552.082Z" fill="white"/>
<path fill-rule="evenodd" clip-rule="evenodd" d="M348.983 374.011C348.983 379.049 355.17 378.501 355.17 374.613V146.658C352.323 146.658 352.98 145.947 352.98 153.065V372.587C352.98 375.873 353.035 375.763 351.392 375.38C351.283 374.942 351.173 374.942 351.173 374.394V146.658H348.983V374.011Z" fill="white"/>
<path fill-rule="evenodd" clip-rule="evenodd" d="M332.391 549.673V851.445H334.417V551.645C334.417 543.814 338.305 537.9 344.274 534.889C349.914 532.041 357.087 532.425 362.125 536.093C362.946 536.696 363.877 537.408 364.589 538.065C367.491 540.912 369.845 545.785 369.845 550.057V851.5H372.036V552.849C372.036 549.564 371.707 546.497 370.831 544.088C369.955 541.843 368.695 539.434 367.108 537.791C363.274 533.794 359.88 531.549 353.637 531.001C345.643 530.289 338.031 534.725 334.582 541.624C333.541 543.705 332.391 546.552 332.391 549.619V549.673Z" fill="white"/>
<path fill-rule="evenodd" clip-rule="evenodd" d="M344.986 374.614C344.986 377.79 346.628 380.09 349.093 381.294C354.294 383.813 359.168 379.104 359.168 375.6V146.659H357.142V374.176C357.142 380.856 349.147 381.568 347.34 376.585C346.793 375.107 347.121 356.982 347.121 354.573V149.89C347.121 149.288 347.121 148.685 347.121 148.083C347.121 146.495 347.286 146.714 344.876 146.714V374.669L344.986 374.614Z" fill="white"/>
<path fill-rule="evenodd" clip-rule="evenodd" d="M340.77 551.699V851.5H342.96V550.878C342.96 542.554 353.638 538.612 359.114 545.128C360.756 547.099 361.359 549.344 361.359 552.904V851.5H363.385V550.713C363.385 546.168 360.318 542.445 356.704 540.747C353.747 539.378 350.352 539.378 347.396 540.747C346.41 541.24 344.712 542.335 343.946 543.157C343.617 543.485 342.96 544.361 342.686 544.745C341.318 546.88 340.66 548.906 340.66 551.754L340.77 551.699Z" fill="white"/>
<path fill-rule="evenodd" clip-rule="evenodd" d="M348.983 551.919L348.983 851.5H351.173L351.173 551.481C351.173 550.934 351.283 550.934 351.392 550.495C351.502 550.495 352.98 549.838 352.98 551.098L352.98 851.5H355.17L355.171 551.317C355.171 547.374 348.983 546.991 348.983 551.919Z" fill="white"/>
<path fill-rule="evenodd" clip-rule="evenodd" d="M344.985 551.316L344.985 851.5H347.176L347.176 550.494C347.176 548.413 349.311 546.114 351.994 546.114C355.335 546.114 357.196 548.468 357.196 551.699L357.196 851.5H359.222L359.222 550.275C359.222 545.785 352.213 541.021 347.176 546.004C345.807 547.373 345.04 549.07 345.04 551.261L344.985 551.316Z" fill="white"/>
<path fill-rule="evenodd" clip-rule="evenodd" d="M336.608 533.849C337.265 533.684 337.375 533.356 337.868 532.918C338.196 532.589 338.798 532.206 338.798 531.658V440.104H336.608V533.849Z" fill="white"/>
<path fill-rule="evenodd" clip-rule="evenodd" d="M340.77 529.686C341.427 529.522 341.537 529.248 342.029 528.755C342.358 528.427 342.96 528.043 342.96 527.496V440.158H340.77V529.686Z" fill="white"/>
<path fill-rule="evenodd" clip-rule="evenodd" d="M332.391 536.477H334.363V440.104H332.391V536.477Z" fill="white"/>
<path fill-rule="evenodd" clip-rule="evenodd" d="M344.985 525.635C345.423 525.306 347.176 523.828 347.176 523.226V440.104H344.985V525.635Z" fill="white"/>
<path fill-rule="evenodd" clip-rule="evenodd" d="M348.983 521.472C349.64 521.308 349.75 520.98 350.242 520.541C350.571 520.213 351.173 519.83 351.173 519.282V440.158H348.983V521.472Z" fill="white"/>
<path fill-rule="evenodd" clip-rule="evenodd" d="M353.199 517.421C353.638 517.148 355.225 515.779 355.225 515.231V440.104H353.199V517.421Z" fill="white"/>
<path fill-rule="evenodd" clip-rule="evenodd" d="M357.197 513.424C357.635 513.15 359.223 511.781 359.223 511.234V440.104H357.197V513.424Z" fill="white"/>
<path fill-rule="evenodd" clip-rule="evenodd" d="M361.413 509.261C361.851 508.988 363.439 507.619 363.439 507.071V440.158H361.413V509.261Z" fill="white"/>
<path fill-rule="evenodd" clip-rule="evenodd" d="M369.846 500.829C370.284 500.5 372.036 499.022 372.036 498.42V440.158H369.846V500.829Z" fill="white"/>
<path fill-rule="evenodd" clip-rule="evenodd" d="M365.629 505.045C366.067 504.771 367.655 503.402 367.655 502.855V440.158H365.629V505.045Z" fill="white"/>
<path fill-rule="evenodd" clip-rule="evenodd" d="M332.391 412.067H372.036V409.877H332.391V412.067Z" fill="white"/>
<path fill-rule="evenodd" clip-rule="evenodd" d="M332.391 407.907H372.036V405.662H332.391V407.907Z" fill="white"/>
<path fill-rule="evenodd" clip-rule="evenodd" d="M332.391 403.689H372.036V401.499H332.391V403.689Z" fill="white"/>
<path fill-rule="evenodd" clip-rule="evenodd" d="M332.391 416.121H372.036V413.876H332.391V416.121Z" fill="white"/>
<path fill-rule="evenodd" clip-rule="evenodd" d="M332.391 436.928H371.817V434.737H332.391V436.928Z" fill="white"/>
<path fill-rule="evenodd" clip-rule="evenodd" d="M332.391 428.331H372.036V426.305H332.391V428.331Z" fill="white"/>
<path fill-rule="evenodd" clip-rule="evenodd" d="M332.391 420.117H372.036V418.091H332.391V420.117Z" fill="white"/>
<path fill-rule="evenodd" clip-rule="evenodd" d="M332.391 424.114H372.036V422.088H332.391V424.114Z" fill="white"/>
<path fill-rule="evenodd" clip-rule="evenodd" d="M332.391 432.547H372.036V430.521H332.391V432.547Z" fill="white"/>
<path fill-rule="evenodd" clip-rule="evenodd" d="M332.391 399.255H371.817V397.284H332.391V399.255Z" fill="white"/>
<path fill-rule="evenodd" clip-rule="evenodd" d="M248.558 872.337C248.558 877.758 249.763 880.879 253.596 884.712C256.498 887.56 260.824 888.764 265.15 888.764H372.2V886.574H263.562C254.801 886.574 247.682 877.101 251.679 867.902C252.446 866.149 253.103 865.438 254.198 864.014C255.731 862.043 259.948 859.907 262.905 859.907H372.146V857.717H263.507C261.317 857.717 259.017 858.429 257.484 859.141C255.677 859.962 254.472 860.838 253.103 862.207C250.42 864.89 248.449 868.285 248.449 872.392L248.558 872.337Z" fill="white"/>
<path fill-rule="evenodd" clip-rule="evenodd" d="M262.795 892.98H372.036V890.954H264.767C261.7 890.954 259.893 890.571 257.265 889.64C248.449 886.519 243.247 874.856 247.792 865.766C248.339 864.671 248.668 864.014 249.325 863.083C252.556 858.538 257.703 855.472 263.562 855.472H371.981C371.981 853.884 372.2 853.281 371.379 853.281H266.136C262.85 853.281 259.729 853.61 257.32 854.486C252.282 856.348 249.216 859.14 246.478 863.685C242.426 870.42 243.575 880.715 249.051 886.409C250.749 888.216 252.391 889.64 254.691 890.735C256.717 891.721 259.729 892.926 262.686 892.926L262.795 892.98Z" fill="white"/>
<path fill-rule="evenodd" clip-rule="evenodd" d="M264.821 884.603H372.255V882.413H264C255.512 882.413 251.789 871.352 258.25 866.259C260.605 864.452 262.357 863.96 266.354 863.96H372.2V861.934H264.164C260.714 861.934 257.867 863.522 256.115 865.274C254.472 866.917 252.665 870.257 252.884 873.487C252.993 875.568 253.377 876.554 253.979 877.977C254.965 880.387 257.538 882.741 259.893 883.672C261.262 884.22 262.959 884.548 264.821 884.548V884.603Z" fill="white"/>
<path fill-rule="evenodd" clip-rule="evenodd" d="M261.372 873.158C261.372 875.239 262.905 876.389 264.986 876.389H372.255V874.199H264.603C264.055 874.199 264.055 874.089 263.617 873.979C263.453 873.377 263.234 872.392 264.219 872.392H372.255V870.201H264.603C262.85 870.201 261.372 871.406 261.372 873.213V873.158Z" fill="white"/>
<path fill-rule="evenodd" clip-rule="evenodd" d="M264.383 880.387H372.255V878.197H263.617C259.729 878.197 257.429 872.283 260.933 869.491C261.974 868.614 263.233 868.176 265.04 868.176H372.31V866.15H263.671C261.81 866.15 260.167 867.355 259.017 868.505C255.129 872.393 257.593 880.387 264.493 880.387H264.383Z" fill="white"/>
<path fill-rule="evenodd" clip-rule="evenodd" d="M89.5432 892.98C100.987 892.98 109.968 883.014 109.146 872.336C109.037 870.913 109.037 869.927 108.708 868.777C107.777 865.492 107.23 863.794 104.766 860.728C98.1948 852.624 89.817 853.336 79.6869 853.336H6.96911C2.36949 853.336 1.21959 853.117 0.945801 853.719V855.526C26.7365 855.526 52.4725 855.526 78.2632 855.526C82.589 855.526 89.7622 855.088 93.2667 855.964C95.9498 856.621 98.9067 857.935 100.878 859.797L102.904 861.823C110.844 870.146 107.504 887.176 93.5952 890.461C89.5432 891.392 83.6841 891.009 78.756 891.009C52.8558 891.009 26.9555 891.009 1.05532 891.009V893.035H89.5979L89.5432 892.98Z" fill="white"/>
<path fill-rule="evenodd" clip-rule="evenodd" d="M1 859.36C1 860.345 3.08078 859.962 4.01165 859.962H87.1333C89.8711 859.962 91.6234 859.852 93.7042 860.564C94.6898 860.893 95.2921 861.221 96.1682 861.714C107.996 868.833 102.52 886.574 89.7616 886.574H1.05476V888.764H88.1737C90.583 888.764 93.1018 888.381 94.9088 887.669C96.7158 886.902 98.4681 885.972 99.7275 884.712C105.587 878.908 106.572 870.421 101.918 864.178C99.1251 860.455 94.635 857.717 89.7616 857.717H1.05476V859.305L1 859.36Z" fill="white"/>
<path fill-rule="evenodd" clip-rule="evenodd" d="M1.00056 863.96H86.9148C90.9121 863.96 92.6643 864.398 94.9094 866.15C101.316 871.078 98.0306 882.358 89.2694 882.358H0.945801V884.548H88.5028C92.6096 884.548 94.4713 883.289 96.8259 881.482C97.483 880.934 98.8519 879.127 99.2352 878.306C99.9471 876.882 100.221 875.623 100.385 873.652C100.659 870.476 98.9614 867.136 97.3735 865.493C95.7855 863.795 92.7191 861.934 89.4884 861.934H0.945801V863.96H1.00056Z" fill="white"/>
<path fill-rule="evenodd" clip-rule="evenodd" d="M1 868.176H88.3379C94.3613 868.176 95.9492 874.419 92.0067 877.43C90.6378 878.471 88.8308 878.197 86.5857 878.197H3.68311C1.43806 878.197 1.10951 877.923 1.05476 879.073V880.442H88.995C95.8945 880.442 98.3585 872.447 94.4708 868.56C93.2661 867.355 91.8972 866.205 89.5974 866.205H1.05476V868.231L1 868.176Z" fill="white"/>
<path fill-rule="evenodd" clip-rule="evenodd" d="M1 871.734C1 872.72 4.12117 872.337 5.98292 872.337H85.9286C87.5714 872.337 89.3236 872.008 89.7616 872.72C90.0902 873.268 89.7069 873.377 89.7069 873.925C89.2688 874.034 89.2688 874.144 88.7213 874.144H1V876.334H88.338C93.4851 876.334 92.5543 870.146 89.1593 870.146H1.05476V871.734H1Z" fill="white"/>
<path fill-rule="evenodd" clip-rule="evenodd" d="M154.649 888.764H248.613C248.284 888.326 246.806 886.574 246.204 886.574H154.649V888.764Z" fill="white"/>
<path fill-rule="evenodd" clip-rule="evenodd" d="M154.649 884.602H244.397C244.068 884.164 242.59 882.412 241.987 882.412H154.649V884.602Z" fill="white"/>
<path fill-rule="evenodd" clip-rule="evenodd" d="M154.649 892.98H250.968V891.009H154.649V892.98Z" fill="white"/>
<path fill-rule="evenodd" clip-rule="evenodd" d="M154.649 880.388H240.18C239.852 879.949 238.373 878.197 237.771 878.197H154.649V880.388Z" fill="white"/>
<path fill-rule="evenodd" clip-rule="evenodd" d="M154.649 876.389H236.183C235.855 875.951 234.376 874.199 233.774 874.199H154.649V876.389Z" fill="white"/>
<path fill-rule="evenodd" clip-rule="evenodd" d="M154.649 872.337H231.967C231.802 871.68 231.474 871.57 231.036 871.077C230.707 870.749 230.324 870.146 229.776 870.146H154.649V872.337Z" fill="white"/>
<path fill-rule="evenodd" clip-rule="evenodd" d="M154.649 868.176H227.969C227.696 867.738 226.327 866.15 225.779 866.15H154.649V868.176Z" fill="white"/>
<path fill-rule="evenodd" clip-rule="evenodd" d="M154.649 859.961H219.537C219.373 859.304 219.044 859.194 218.606 858.701C218.277 858.373 217.894 857.771 217.347 857.771H154.649V859.961Z" fill="white"/>
<path fill-rule="evenodd" clip-rule="evenodd" d="M154.649 863.96H223.753C223.479 863.522 222.11 861.934 221.563 861.934H154.649V863.96Z" fill="white"/>
<path fill-rule="evenodd" clip-rule="evenodd" d="M154.649 855.526H215.321C214.992 855.088 213.514 853.336 212.911 853.336H154.649V855.526Z" fill="white"/>
<path fill-rule="evenodd" clip-rule="evenodd" d="M128.804 853.938V892.98H130.994V853.938C130.994 853.008 128.804 853.008 128.804 853.938Z" fill="white"/>
<path fill-rule="evenodd" clip-rule="evenodd" d="M116.374 853.938V892.98H118.564V853.938C118.564 853.008 116.374 853.008 116.374 853.938Z" fill="white"/>
<path fill-rule="evenodd" clip-rule="evenodd" d="M120.591 853.938V892.98H122.781V853.938C122.781 853.008 120.591 853.008 120.591 853.938Z" fill="white"/>
<path fill-rule="evenodd" clip-rule="evenodd" d="M124.807 853.938V892.98H126.997V853.938C126.997 853.008 124.807 853.008 124.807 853.938Z" fill="white"/>
<path fill-rule="evenodd" clip-rule="evenodd" d="M149.612 892.98H151.802V853.719H149.612V892.98Z" fill="white"/>
<path fill-rule="evenodd" clip-rule="evenodd" d="M133.02 892.98H134.992V853.336H133.02V892.98Z" fill="white"/>
<path fill-rule="evenodd" clip-rule="evenodd" d="M145.396 892.98H147.422V853.336H145.396V892.98Z" fill="white"/>
<path fill-rule="evenodd" clip-rule="evenodd" d="M137.017 892.98H138.988V853.336H137.017V892.98Z" fill="white"/>
<path fill-rule="evenodd" clip-rule="evenodd" d="M141.234 892.98H143.205V853.336H141.234V892.98Z" fill="white"/>
<path fill-rule="evenodd" clip-rule="evenodd" d="M112.158 892.98H114.184V853.719H112.158V892.98Z" fill="white"/>
<path fill-rule="evenodd" clip-rule="evenodd" d="M367.82 141.622C367.163 141.458 367.053 141.129 366.56 140.691C366.232 140.362 365.629 139.979 365.629 139.432V42.2373H367.82V141.622Z" fill="white"/>
<path fill-rule="evenodd" clip-rule="evenodd" d="M363.603 137.406C362.946 137.241 362.837 136.967 362.344 136.475C362.015 136.146 361.413 135.763 361.413 135.215V42.2373H363.603V137.406Z" fill="white"/>
<path fill-rule="evenodd" clip-rule="evenodd" d="M372.036 144.195H370.064V42.2373H372.036V144.195Z" fill="white"/>
<path fill-rule="evenodd" clip-rule="evenodd" d="M359.442 133.408C359.004 133.08 357.251 131.601 357.251 130.999V42.2373H359.442V133.408Z" fill="white"/>
<path fill-rule="evenodd" clip-rule="evenodd" d="M355.39 129.192C354.733 129.028 354.623 128.699 354.13 128.261C353.802 127.933 353.199 127.549 353.199 127.002V42.2373H355.39V129.192Z" fill="white"/>
<path fill-rule="evenodd" clip-rule="evenodd" d="M351.228 125.195C350.79 124.921 349.202 123.552 349.202 123.004V42.2373H351.228V125.195Z" fill="white"/>
<path fill-rule="evenodd" clip-rule="evenodd" d="M347.231 121.197C346.793 120.924 345.205 119.555 345.205 119.007V42.2373H347.231V121.197Z" fill="white"/>
<path fill-rule="evenodd" clip-rule="evenodd" d="M343.015 116.981C342.577 116.707 340.989 115.338 340.989 114.791V42.2373H343.015V116.981Z" fill="white"/>
<path fill-rule="evenodd" clip-rule="evenodd" d="M334.582 108.548C334.144 108.219 332.391 106.741 332.391 106.139V42.1821H334.582V108.493V108.548Z" fill="white"/>
<path fill-rule="evenodd" clip-rule="evenodd" d="M338.798 112.765C338.36 112.491 336.772 111.122 336.772 110.574V42.2373H338.798V112.765Z" fill="white"/>
<path fill-rule="evenodd" clip-rule="evenodd" d="M1 678.133C1 671.836 4.39496 665.813 9.15884 662.254C10.9111 660.94 13.5942 659.68 15.6202 659.133C18.8509 658.257 22.6839 658.257 25.9693 659.133C27.3383 659.516 29.8023 660.556 31.007 661.323C36.5923 664.718 40.6443 671.234 40.6443 678.133L40.3764 851H38.1861L38.454 677.367C38.454 674.027 36.9756 670.413 35.1138 667.894L33.0878 665.539C31.3356 664.17 30.1309 663.075 27.8858 662.09C26.0241 661.268 22.8482 660.556 20.8222 660.556C18.8509 660.556 15.5654 661.323 13.7585 662.09C7.78991 664.663 3.19029 670.905 3.19029 677.586L3.69029 851H1.5L1 678.188V678.133Z" fill="white"/>
<path fill-rule="evenodd" clip-rule="evenodd" d="M13.5154 680.461C13.5154 678.107 14.0082 675.917 15.1581 674.712C18.5531 671.098 22.8789 671.098 26.2738 674.712C27.4237 675.917 27.9166 678.162 27.9166 680.461L28.0507 851H25.8604L25.7263 678.819C25.7263 676.245 23.3169 674 20.7433 674C18.1698 674 15.7604 676.245 15.7604 678.819V851H13.5701V680.461H13.5154Z" fill="white"/>
<path fill-rule="evenodd" clip-rule="evenodd" d="M5.38062 677.313C5.38062 674.685 6.80431 671.29 8.228 669.373C8.50178 668.99 8.72081 668.716 9.04936 668.388L9.92547 667.457C16.0035 661.324 25.9146 661.379 31.8284 667.566L32.4855 668.278C34.4568 670.359 36.2638 674.356 36.2638 677.368V851H34.2377V678.791C34.2377 675.397 33.1973 672.44 31.1713 670.03C29.8024 668.333 28.4335 667.238 26.3527 666.252C21.534 664.007 16.3868 664.938 12.2253 668.223C11.842 668.497 11.5682 668.661 11.2396 669.045C10.8563 669.428 10.8563 669.537 10.5278 669.921C8.44703 672.494 7.40664 675.177 7.40664 678.791V851H5.38062V677.368V677.313Z" fill="white"/>
<path fill-rule="evenodd" clip-rule="evenodd" d="M9.59673 677.532C9.59673 672.713 14.6892 667.292 20.2197 667.292C23.8336 667.292 26.4072 668.169 28.707 670.468C30.1307 671.892 32.0472 674.794 32.0472 677.532V851H30.0212V679.339C30.0212 669.592 19.6173 666.581 14.1416 672.275C12.5536 673.973 11.568 676.108 11.568 679.339L11.5678 851H9.54175L9.54197 677.532H9.59673Z" fill="white"/>
<path fill-rule="evenodd" clip-rule="evenodd" d="M17.8109 678.737C17.8109 677.861 18.1394 677.149 18.5775 676.711C20.2749 674.849 23.8342 675.835 23.8342 678.737V851H21.8081V679.12C21.8081 677.478 19.7821 677.478 19.7821 679.12V851H17.7561V678.737H17.8109Z" fill="white"/>
</svg>
