<svg width="373" height="955" viewBox="0 0 373 955" fill="none" xmlns="http://www.w3.org/2000/svg">
<path fill-rule="evenodd" clip-rule="evenodd" d="M1 546.825C1 553.122 4.39495 559.146 9.15884 562.705C10.9111 564.019 13.5942 565.279 15.6202 565.826C18.8509 566.702 22.6839 566.702 25.9693 565.826C27.3383 565.443 29.8024 564.402 31.007 563.636C36.5923 560.241 40.6443 553.725 40.6443 546.825V318.487H38.454V547.647C38.454 550.987 36.9756 554.601 35.1138 557.12L33.0878 559.474C31.3356 560.843 30.1309 561.938 27.8858 562.924C26.0241 563.745 22.8482 564.457 20.8222 564.457C18.8509 564.457 15.5655 563.691 13.7585 562.924C7.78991 560.35 3.19029 554.108 3.19029 547.428V318.487H1L1 546.825Z" fill="white"/>
<path fill-rule="evenodd" clip-rule="evenodd" d="M42.8898 4.83671C42.8898 6.80797 42.5613 6.42467 46.1205 6.42467H265.259C271.775 6.42467 274.678 5.93185 278.839 8.66972C281.577 10.4767 284.698 14.4192 284.698 18.8546C284.698 22.14 284.534 24.0565 282.727 26.9039C281.741 28.4919 280.318 29.9156 278.784 30.956C274.951 33.5843 271.228 33.0915 265.095 33.0915H46.3395C42.4518 33.0915 42.9446 32.5439 42.9446 35.2818H271.502C284.096 35.2818 291.379 20.6068 283.877 10.6957C280.537 6.2604 276.101 4.23438 270.297 4.23438H43.5469C43.1088 4.23438 42.9446 4.39865 42.9446 4.83671H42.8898Z" fill="white"/>
<path fill-rule="evenodd" clip-rule="evenodd" d="M43.2729 2.04346H270.406C273.199 2.04346 275.882 2.48152 277.963 3.30288C278.949 3.68618 280.044 4.28851 280.865 4.83608C282.836 6.04075 284.15 7.35492 285.574 9.16191C292.145 17.485 289.407 30.7363 279.277 35.7192C277.525 36.5953 274.623 37.5262 272.049 37.5262H43.3277V39.7165H269.256C276.923 39.7165 280.427 37.9643 284.698 34.5146C290.557 29.8054 293.35 19.4015 289.407 11.5165C288.476 9.59997 286.998 7.30016 285.519 5.82172C285.136 5.43841 284.808 5.27414 284.315 4.83608C283.877 4.39803 283.493 4.179 283.001 3.79569C280.044 1.66016 276.265 0.126953 272.268 0.126953H43.3277V2.15297L43.2729 2.04346Z" fill="white"/>
<path fill-rule="evenodd" clip-rule="evenodd" d="M13.5947 545.019C13.5947 547.373 14.0875 549.564 15.2374 550.768C18.6324 554.382 22.9582 554.382 26.3532 550.768C27.5031 549.564 27.9959 547.318 27.9959 545.019V318.269H25.8056V546.607C25.8056 549.18 23.3963 551.425 20.8227 551.425C18.2491 551.425 15.8398 549.18 15.8398 546.607V318.269H13.6495V545.019H13.5947Z" fill="white"/>
<path fill-rule="evenodd" clip-rule="evenodd" d="M42.8896 17.2664C42.8896 19.5114 43.0539 18.8544 49.2962 18.8544C122.507 18.8544 195.882 19.0734 269.037 18.8544C270.571 18.8544 271.83 18.4711 271.83 19.84C271.83 20.9351 270.352 20.6613 269.202 20.6613C232.131 20.4423 194.513 20.6613 157.442 20.6613H45.9013C42.7254 20.6613 42.8896 20.1138 42.8896 22.8516H270.844C271.83 22.8516 272.487 22.5231 273.035 22.0303C275.17 20.059 273.747 16.6641 270.68 16.6641H43.5467C43.1087 16.6641 42.9444 16.8283 42.9444 17.2664H42.8896Z" fill="white"/>
<path fill-rule="evenodd" clip-rule="evenodd" d="M42.89 9.0535C42.89 11.0795 42.5614 10.6415 46.2849 10.6415H267.997C272.323 10.6415 274.733 10.3677 277.744 13.4888C280.153 15.9529 280.811 19.4574 279.77 22.7976C279.332 24.1665 278.346 25.645 277.306 26.5211C275.006 28.4924 273.09 29.0399 269.202 29.0399H42.89V31.066H271.447C272.926 31.066 274.842 30.5184 275.828 30.0803C282.344 27.1782 285.191 17.9789 279.004 11.6819C277.197 9.87486 274.349 8.45117 270.845 8.45117H43.4923C43.0542 8.45117 42.89 8.61544 42.89 9.0535Z" fill="white"/>
<path fill-rule="evenodd" clip-rule="evenodd" d="M5.38062 547.647C5.38062 550.275 6.80431 553.67 8.228 555.587C8.50178 555.97 8.72081 556.244 9.04936 556.572L9.92547 557.503C16.0035 563.636 25.9146 563.581 31.8284 557.394L32.4855 556.682C34.4568 554.601 36.2638 550.604 36.2638 547.592V318.269H34.2377V546.223C34.2377 549.618 33.1973 552.575 31.1713 554.984C29.8024 556.682 28.4335 557.777 26.3527 558.763C21.534 561.008 16.3868 560.077 12.2253 556.791C11.842 556.518 11.5682 556.353 11.2396 555.97C10.8563 555.587 10.8563 555.477 10.5278 555.094C8.44703 552.52 7.40664 549.837 7.40664 546.223V318.269H5.38062V547.592V547.647Z" fill="white"/>
<path fill-rule="evenodd" clip-rule="evenodd" d="M42.8896 14.2559C42.8896 15.1867 44.4229 14.8582 46.1203 14.8582C77.2225 14.8582 271.009 14.6392 272.378 14.913C274.294 15.2963 275.773 16.9937 276.101 19.0198C276.594 22.1409 274.349 24.8788 270.461 24.8788H42.9444V26.9048H271.885C273.418 26.9048 275.554 25.5906 276.32 24.7693C280.591 20.1697 277.58 12.7227 270.844 12.7227H42.8896V14.3106V14.2559Z" fill="white"/>
<path fill-rule="evenodd" clip-rule="evenodd" d="M9.59651 547.428C9.59651 552.247 14.6889 557.668 20.2194 557.668C23.8334 557.668 26.407 556.791 28.7068 554.492C30.1305 553.068 32.047 550.166 32.047 547.428V318.269H30.021V545.621C30.021 555.368 19.6171 558.379 14.1414 552.685C12.5534 550.987 11.5678 548.852 11.5678 545.621V318.269H9.54175V547.428H9.59651Z" fill="white"/>
<path fill-rule="evenodd" clip-rule="evenodd" d="M17.8109 546.223C17.8109 547.099 18.1394 547.811 18.5775 548.249C20.2749 550.111 23.8342 549.125 23.8342 546.223V318.269H21.8081V545.785C21.8081 547.428 19.7821 547.428 19.7821 545.785V318.269H17.7561V546.223H17.8109Z" fill="white"/>
<path fill-rule="evenodd" clip-rule="evenodd" d="M5.2168 160.677C5.2168 163.524 5.6001 165.221 6.3667 167.357C7.1333 169.602 8.22845 170.697 9.43311 172.285C10.4187 173.545 12.609 174.968 14.0327 175.68C24.2176 180.773 36.2642 173.052 36.2642 161.881V0.0185547H34.0739V162.648C34.0739 168.945 27.9411 175.078 21.644 175.078C17.2634 175.078 14.2518 174.202 11.2949 171.245C9.48787 169.438 7.46185 165.933 7.46185 162.484V0.0185547H5.27155V160.677H5.2168Z" fill="white"/>
<path fill-rule="evenodd" clip-rule="evenodd" d="M1 0.0185547V151.039V163.469C1.32854 166.7 2.20466 169.712 4.3402 172.942C12.061 184.387 28.8715 184.879 37.1398 172.997C41.3014 166.974 40.6443 161.005 40.6443 151.258V0.0185547H38.454V160.074C38.454 163.962 38.235 166.974 36.3185 170.369C30.1309 181.484 15.3464 182.196 7.84467 174.037L5.27107 170.423C3.68311 167.521 2.97126 164.838 3.02602 160.458V0.0185547H1Z" fill="white"/>
<path fill-rule="evenodd" clip-rule="evenodd" d="M9.43311 161.279C9.43311 171.573 21.5345 176.72 28.5982 169.657C30.6242 167.631 32.0479 165.057 32.0479 161.881V0.0185547H30.0219V159.636C30.0219 164.072 28.872 167.466 25.4222 169.438C19.0156 173.106 11.6234 168.178 11.6234 162.046V0.0185547H9.43311V161.279Z" fill="white"/>
<path fill-rule="evenodd" clip-rule="evenodd" d="M17.6467 160.677C17.6467 165.824 23.8343 165.386 23.8343 161.279V0.0185547H21.644V161.443C21.644 162.538 19.837 162.538 19.837 161.443V0.0185547H17.6467V160.677Z" fill="white"/>
<path fill-rule="evenodd" clip-rule="evenodd" d="M13.5946 161.279C13.5946 167.85 20.9868 171.026 25.6412 166.755C26.5173 165.988 27.7767 163.852 27.7767 162.319V0.0732422H25.7507V160.896C25.7507 164.126 24.108 166.152 21.2058 166.59C18.687 166.919 15.7301 164.838 15.7301 162.1V0.0732422H13.5398V161.334L13.5946 161.279Z" fill="white"/>
<path fill-rule="evenodd" clip-rule="evenodd" d="M38.4543 176.665V271.997C38.4543 272.928 40.6446 272.928 40.6446 271.997V176.665C40.6446 175.734 38.4543 175.734 38.4543 176.665Z" fill="white"/>
<path fill-rule="evenodd" clip-rule="evenodd" d="M284.424 39.6629H371.434C371.872 39.6629 372.036 39.4987 372.036 39.0606V37.4727H284.424V39.6629Z" fill="white"/>
<path fill-rule="evenodd" clip-rule="evenodd" d="M1 656.176H2.58796C3.02602 656.176 3.19029 656.011 3.19029 655.573V559.803H1V656.121L1 656.176Z" fill="white"/>
<path fill-rule="evenodd" clip-rule="evenodd" d="M34.074 181.265V271.998C34.074 272.764 34.5668 272.6 35.6619 272.6C36.5381 272.6 36.2643 271.341 36.2643 270.41V225.947C36.2643 210.177 36.2643 194.407 36.2643 178.691C35.6619 178.856 34.074 180.17 34.074 181.32V181.265Z" fill="white"/>
<path fill-rule="evenodd" clip-rule="evenodd" d="M286.834 35.2821H372.036V33.6941C372.036 33.2561 371.872 33.0918 371.434 33.0918H289.243C288.641 33.0918 287.162 34.844 286.834 35.2821Z" fill="white"/>
<path fill-rule="evenodd" clip-rule="evenodd" d="M13.5947 656.175H15.785V572.834C15.785 572.286 15.1827 571.903 14.8541 571.574C14.3613 571.082 14.2518 570.808 13.5947 570.644V656.175Z" fill="white"/>
<path fill-rule="evenodd" clip-rule="evenodd" d="M5.38062 656.174H7.40664V564.456C7.40664 563.854 5.81867 562.539 5.38062 562.266V656.229V656.174Z" fill="white"/>
<path fill-rule="evenodd" clip-rule="evenodd" d="M30.022 184.88V272.601C32.3765 272.601 32.048 272.82 32.048 270.411V227.919C32.048 212.806 32.048 197.748 32.048 182.635C31.6099 182.909 30.022 184.277 30.022 184.825V184.88Z" fill="white"/>
<path fill-rule="evenodd" clip-rule="evenodd" d="M291.05 31.0661H372.036V29.04H293.24C292.638 29.04 291.324 30.628 291.05 31.0661Z" fill="white"/>
<path fill-rule="evenodd" clip-rule="evenodd" d="M9.59741 656.175H11.6234V568.618C11.6234 568.016 10.0355 566.702 9.59741 566.428V656.175Z" fill="white"/>
<path fill-rule="evenodd" clip-rule="evenodd" d="M299.264 22.8524H372.036V21.2644C372.036 20.8264 371.872 20.6621 371.434 20.6621H301.618C301.016 20.6621 299.537 22.4143 299.209 22.8524H299.264Z" fill="white"/>
<path fill-rule="evenodd" clip-rule="evenodd" d="M21.644 193.695V271.998C21.644 272.764 22.1369 272.6 23.232 272.6C24.0534 272.6 23.8343 271.724 23.8343 270.793C23.6153 258.473 23.8343 244.51 23.8343 232.134C23.8343 218.445 23.8343 204.756 23.8343 191.066C23.1772 191.231 22.9582 191.669 22.4654 192.107C22.0273 192.545 21.644 192.819 21.644 193.64V193.695Z" fill="white"/>
<path fill-rule="evenodd" clip-rule="evenodd" d="M25.8601 189.096V272.601H27.8861V186.851C27.4481 187.124 25.8601 188.493 25.8601 189.041V189.096Z" fill="white"/>
<path fill-rule="evenodd" clip-rule="evenodd" d="M295.267 26.8493H372.091V24.8232H297.512C296.91 24.8232 295.595 26.4112 295.322 26.8493H295.267Z" fill="white"/>
<path fill-rule="evenodd" clip-rule="evenodd" d="M17.6467 197.309V271.998C17.6467 272.764 18.1395 272.6 19.2347 272.6C20.2203 272.6 19.837 270.3 19.837 268.384V195.063C19.1799 195.228 17.6467 196.761 17.6467 197.254V197.309Z" fill="white"/>
<path fill-rule="evenodd" clip-rule="evenodd" d="M303.261 18.8544H372.036V16.6641H305.67C305.068 16.6641 303.589 18.4163 303.261 18.8544Z" fill="white"/>
<path fill-rule="evenodd" clip-rule="evenodd" d="M17.8108 656.176H19.8368V576.833C19.8368 576.231 18.2488 574.916 17.8108 574.643V656.176Z" fill="white"/>
<path fill-rule="evenodd" clip-rule="evenodd" d="M25.8601 656.175H28.0504V585.045C28.0504 584.443 26.2982 582.964 25.8601 582.636V656.12V656.175Z" fill="white"/>
<path fill-rule="evenodd" clip-rule="evenodd" d="M307.477 14.8583H367.874C372.693 14.8583 372.091 15.4058 372.091 12.668H309.722C309.175 12.668 307.696 14.2559 307.532 14.8583H307.477Z" fill="white"/>
<path fill-rule="evenodd" clip-rule="evenodd" d="M13.5947 201.307V271.998C13.5947 272.765 14.0875 272.601 15.1827 272.601C16.004 272.601 15.785 271.834 15.785 271.013C15.6207 259.842 15.785 247.357 15.785 236.132C15.785 223.757 15.785 211.437 15.785 199.062C15.1279 199.226 13.5947 200.759 13.5947 201.252V201.307Z" fill="white"/>
<path fill-rule="evenodd" clip-rule="evenodd" d="M21.8081 656.176H23.8341V580.885C23.8341 580.282 22.2462 578.968 21.8081 578.694V656.231V656.176Z" fill="white"/>
<path fill-rule="evenodd" clip-rule="evenodd" d="M311.475 10.6415H372.037V8.45117H313.884C313.282 8.45117 311.804 10.2034 311.475 10.6415Z" fill="white"/>
<path fill-rule="evenodd" clip-rule="evenodd" d="M9.43311 205.522V271.998C9.43311 272.764 9.92592 272.6 11.0211 272.6C11.7877 272.6 11.6234 271.943 11.6234 271.231C11.4591 248.781 11.6234 225.783 11.6234 203.332C10.9663 203.496 10.8568 203.825 10.364 204.263C10.0354 204.591 9.43311 204.975 9.43311 205.522Z" fill="white"/>
<path fill-rule="evenodd" clip-rule="evenodd" d="M5.2168 209.739V272.053C5.2168 272.82 5.70961 272.655 6.80476 272.655C7.73563 272.655 7.40709 271.013 7.40709 269.26V207.549C6.75 207.713 6.64049 208.042 6.14767 208.48C5.81913 208.808 5.2168 209.192 5.2168 209.739Z" fill="white"/>
<path fill-rule="evenodd" clip-rule="evenodd" d="M315.691 6.42467H372.036V4.23438H318.046C317.443 4.23438 315.965 5.98661 315.636 6.42467H315.691Z" fill="white"/>
<path fill-rule="evenodd" clip-rule="evenodd" d="M30.022 656.175H32.048V589.098C32.048 588.495 30.46 587.181 30.022 586.907V656.23V656.175Z" fill="white"/>
<path fill-rule="evenodd" clip-rule="evenodd" d="M39.0565 656.175H40.6445V597.694C40.6445 597.147 39.0565 595.668 38.4542 595.504V652.78C38.4542 654.587 38.1257 656.175 39.0565 656.175Z" fill="white"/>
<path fill-rule="evenodd" clip-rule="evenodd" d="M34.2378 656.175H36.2638V593.259C36.2638 592.656 34.6759 591.342 34.2378 591.068V656.175Z" fill="white"/>
<path fill-rule="evenodd" clip-rule="evenodd" d="M1 213.955V272.655H3.02602V211.765C2.58796 212.038 1 213.407 1 213.955Z" fill="white"/>
<path fill-rule="evenodd" clip-rule="evenodd" d="M320.071 2.04458H372.036V0.0185547H322.261C321.659 0.0185547 320.345 1.60652 320.071 2.04458Z" fill="white"/>
<path fill-rule="evenodd" clip-rule="evenodd" d="M1 299.486H40.8633V297.241H1V299.486Z" fill="white"/>
<path fill-rule="evenodd" clip-rule="evenodd" d="M1 311.861H40.8633V309.671H1V311.861Z" fill="white"/>
<path fill-rule="evenodd" clip-rule="evenodd" d="M1 287.274H40.8633V285.029H1V287.274Z" fill="white"/>
<path fill-rule="evenodd" clip-rule="evenodd" d="M1 307.7H40.8633V305.455H1V307.7Z" fill="white"/>
<path fill-rule="evenodd" clip-rule="evenodd" d="M1 295.434H40.8633V293.244H1V295.434Z" fill="white"/>
<path fill-rule="evenodd" clip-rule="evenodd" d="M1 283.06H40.8633V280.814H1V283.06Z" fill="white"/>
<path fill-rule="evenodd" clip-rule="evenodd" d="M1 303.484H40.8633V301.458H1V303.484Z" fill="white"/>
<path fill-rule="evenodd" clip-rule="evenodd" d="M1 291.272H40.8633V289.246H1V291.272Z" fill="white"/>
<path fill-rule="evenodd" clip-rule="evenodd" d="M1 316.077H40.6443V314.105H1V316.077Z" fill="white"/>
<path fill-rule="evenodd" clip-rule="evenodd" d="M1 278.624H40.6443V276.652H1V278.624Z" fill="white"/>
<path fill-rule="evenodd" clip-rule="evenodd" d="M336.608 373.846C336.608 376.474 336.991 378.555 337.703 380.581C338.251 382.224 339.62 384.359 340.66 385.4C346.3 391.095 353.638 392.354 360.537 388.138C361.468 387.59 361.961 387.042 362.782 386.385C363.987 385.455 365.41 383.209 366.068 381.841C366.889 380.198 367.656 377.843 367.656 375.434V146.713C364.918 146.713 365.465 146.275 365.465 149.943V369.082C365.465 375.708 366.013 378.61 363.165 382.771C361.961 384.524 360.866 385.564 359.004 386.659C350.188 391.971 338.853 385.4 338.853 375.489V146.767H336.663V373.901L336.608 373.846Z" fill="white"/>
<path fill-rule="evenodd" clip-rule="evenodd" d="M332.392 376.256C332.392 379.213 333.487 382.115 334.527 384.141C339.456 394.053 351.667 397.776 361.413 392.684C362.454 392.136 363.549 391.424 364.425 390.712C366.177 389.289 365.849 389.398 366.944 388.248C370.832 384.251 371.981 378.94 371.981 373.08V147.535C371.981 146.714 371.379 146.933 369.791 146.933V375.873C369.791 378.556 368.97 380.692 368.148 382.663C367.82 383.484 367.163 384.58 366.615 385.346C360.373 393.779 349.476 395.257 341.701 389.562C339.127 387.701 336.882 384.853 335.732 381.896C334.911 379.816 334.363 377.242 334.363 374.23V146.878H332.337V376.202L332.392 376.256Z" fill="white"/>
<path fill-rule="evenodd" clip-rule="evenodd" d="M340.769 374.231C340.769 385.565 353.309 389.672 359.934 382.992C361.686 381.24 363.384 378.611 363.384 375.216V146.659H361.358V372.971C361.358 376.53 360.756 378.776 359.113 380.747C355.444 385.073 348.764 384.963 345.478 381.24C344.164 379.761 342.905 377.68 342.905 374.997V146.659H340.714V374.176L340.769 374.231Z" fill="white"/>
<path fill-rule="evenodd" clip-rule="evenodd" d="M336.608 552.082V912.945H338.798V550.494C338.798 538.886 353.364 533.246 361.413 541.131C363.275 542.938 365.465 546.333 365.465 549.892V913H367.656V550.494C367.656 546.771 366.068 543.321 363.823 540.748C362.289 538.941 360.537 537.517 358.183 536.586C356.814 536.038 353.364 535.108 351.557 535.381C346.245 536.148 344.438 536.86 340.824 540.474C337.868 543.376 336.663 547.757 336.663 552.137L336.608 552.082Z" fill="white"/>
<path fill-rule="evenodd" clip-rule="evenodd" d="M348.983 374.011C348.983 379.049 355.17 378.501 355.17 374.613V146.658C352.323 146.658 352.98 145.947 352.98 153.065V372.587C352.98 375.873 353.035 375.763 351.392 375.38C351.283 374.942 351.173 374.942 351.173 374.394V146.658H348.983V374.011Z" fill="white"/>
<path fill-rule="evenodd" clip-rule="evenodd" d="M332.391 549.673V912.89H334.417V551.644C334.417 543.814 338.305 537.9 344.274 534.888C349.914 532.041 357.087 532.424 362.125 536.093C362.946 536.695 363.877 537.407 364.589 538.064C367.491 540.912 369.845 545.785 369.845 550.056V912.945H372.036V552.849C372.036 549.563 371.707 546.497 370.831 544.088C369.955 541.842 368.695 539.433 367.108 537.79C363.274 533.793 359.88 531.548 353.637 531.001C345.643 530.289 338.031 534.724 334.582 541.623C333.541 543.704 332.391 546.552 332.391 549.618V549.673Z" fill="white"/>
<path fill-rule="evenodd" clip-rule="evenodd" d="M344.986 374.614C344.986 377.79 346.628 380.09 349.093 381.294C354.294 383.813 359.168 379.104 359.168 375.6V146.659H357.142V374.176C357.142 380.856 349.147 381.568 347.34 376.585C346.793 375.107 347.121 356.982 347.121 354.573V149.89C347.121 149.288 347.121 148.685 347.121 148.083C347.121 146.495 347.286 146.714 344.876 146.714V374.669L344.986 374.614Z" fill="white"/>
<path fill-rule="evenodd" clip-rule="evenodd" d="M340.769 551.699L340.77 912.945H342.96L342.959 550.878C342.959 542.554 353.637 538.612 359.112 545.128C360.755 547.099 361.357 549.344 361.357 552.904L361.359 912.945H363.385L363.383 550.713C363.383 546.168 360.317 542.445 356.703 540.747C353.746 539.378 350.351 539.378 347.394 540.747C346.409 541.24 344.711 542.335 343.945 543.157C343.616 543.485 342.959 544.361 342.685 544.745C341.316 546.88 340.659 548.906 340.659 551.754L340.769 551.699Z" fill="white"/>
<path fill-rule="evenodd" clip-rule="evenodd" d="M348.983 551.919L348.983 912.945H351.173L351.173 551.481C351.173 550.934 351.283 550.934 351.392 550.495C351.502 550.495 352.98 549.838 352.98 551.098L352.98 912.945H355.17L355.171 551.317C355.171 547.374 348.983 546.991 348.983 551.919Z" fill="white"/>
<path fill-rule="evenodd" clip-rule="evenodd" d="M344.985 551.315L344.985 912.945H347.176L347.176 550.494C347.176 548.413 349.311 546.113 351.994 546.113C355.335 546.113 357.196 548.468 357.196 551.698L357.196 912.945H359.222L359.222 550.275C359.222 545.785 352.213 541.021 347.176 546.004C345.807 547.373 345.04 549.07 345.04 551.26L344.985 551.315Z" fill="white"/>
<path fill-rule="evenodd" clip-rule="evenodd" d="M336.608 533.848C337.265 533.684 337.375 533.355 337.868 532.917C338.196 532.589 338.798 532.205 338.798 531.658V440.104H336.608V533.848Z" fill="white"/>
<path fill-rule="evenodd" clip-rule="evenodd" d="M340.77 529.685C341.427 529.521 341.537 529.247 342.029 528.755C342.358 528.426 342.96 528.043 342.96 527.495V440.157H340.77V529.685Z" fill="white"/>
<path fill-rule="evenodd" clip-rule="evenodd" d="M332.391 536.476H334.363V440.104H332.391V536.476Z" fill="white"/>
<path fill-rule="evenodd" clip-rule="evenodd" d="M344.985 525.634C345.423 525.306 347.176 523.827 347.176 523.225V440.104H344.985V525.634Z" fill="white"/>
<path fill-rule="evenodd" clip-rule="evenodd" d="M348.983 521.472C349.64 521.308 349.75 520.979 350.242 520.541C350.571 520.212 351.173 519.829 351.173 519.282V440.157H348.983V521.472Z" fill="white"/>
<path fill-rule="evenodd" clip-rule="evenodd" d="M353.199 517.421C353.638 517.147 355.225 515.778 355.225 515.231V440.104H353.199V517.421Z" fill="white"/>
<path fill-rule="evenodd" clip-rule="evenodd" d="M357.197 513.424C357.635 513.15 359.223 511.781 359.223 511.233V440.104H357.197V513.424Z" fill="white"/>
<path fill-rule="evenodd" clip-rule="evenodd" d="M361.413 509.261C361.851 508.987 363.439 507.618 363.439 507.071V440.157H361.413V509.261Z" fill="white"/>
<path fill-rule="evenodd" clip-rule="evenodd" d="M369.846 500.828C370.284 500.5 372.036 499.021 372.036 498.419V440.157H369.846V500.828Z" fill="white"/>
<path fill-rule="evenodd" clip-rule="evenodd" d="M365.629 505.045C366.067 504.771 367.655 503.402 367.655 502.854V440.157H365.629V505.045Z" fill="white"/>
<path fill-rule="evenodd" clip-rule="evenodd" d="M332.391 412.067H372.036V409.877H332.391V412.067Z" fill="white"/>
<path fill-rule="evenodd" clip-rule="evenodd" d="M332.391 407.906H372.036V405.661H332.391V407.906Z" fill="white"/>
<path fill-rule="evenodd" clip-rule="evenodd" d="M332.391 403.688H372.036V401.498H332.391V403.688Z" fill="white"/>
<path fill-rule="evenodd" clip-rule="evenodd" d="M332.391 416.12H372.036V413.875H332.391V416.12Z" fill="white"/>
<path fill-rule="evenodd" clip-rule="evenodd" d="M332.391 436.927H371.817V434.736H332.391V436.927Z" fill="white"/>
<path fill-rule="evenodd" clip-rule="evenodd" d="M332.391 428.331H372.036V426.305H332.391V428.331Z" fill="white"/>
<path fill-rule="evenodd" clip-rule="evenodd" d="M332.391 420.117H372.036V418.091H332.391V420.117Z" fill="white"/>
<path fill-rule="evenodd" clip-rule="evenodd" d="M332.391 424.113H372.036V422.087H332.391V424.113Z" fill="white"/>
<path fill-rule="evenodd" clip-rule="evenodd" d="M332.391 432.547H372.036V430.521H332.391V432.547Z" fill="white"/>
<path fill-rule="evenodd" clip-rule="evenodd" d="M332.391 399.254H371.817V397.283H332.391V399.254Z" fill="white"/>
<path fill-rule="evenodd" clip-rule="evenodd" d="M367.82 141.622C367.163 141.458 367.053 141.129 366.56 140.691C366.232 140.362 365.629 139.979 365.629 139.432V42.2373H367.82V141.622Z" fill="white"/>
<path fill-rule="evenodd" clip-rule="evenodd" d="M363.603 137.406C362.946 137.241 362.837 136.967 362.344 136.475C362.015 136.146 361.413 135.763 361.413 135.215V42.2373H363.603V137.406Z" fill="white"/>
<path fill-rule="evenodd" clip-rule="evenodd" d="M372.036 144.195H370.064V42.2373H372.036V144.195Z" fill="white"/>
<path fill-rule="evenodd" clip-rule="evenodd" d="M359.442 133.408C359.004 133.08 357.251 131.601 357.251 130.999V42.2373H359.442V133.408Z" fill="white"/>
<path fill-rule="evenodd" clip-rule="evenodd" d="M355.39 129.192C354.733 129.028 354.623 128.699 354.13 128.261C353.802 127.933 353.199 127.549 353.199 127.002V42.2373H355.39V129.192Z" fill="white"/>
<path fill-rule="evenodd" clip-rule="evenodd" d="M351.228 125.195C350.79 124.921 349.202 123.552 349.202 123.004V42.2373H351.228V125.195Z" fill="white"/>
<path fill-rule="evenodd" clip-rule="evenodd" d="M347.231 121.197C346.793 120.924 345.205 119.555 345.205 119.007V42.2373H347.231V121.197Z" fill="white"/>
<path fill-rule="evenodd" clip-rule="evenodd" d="M343.015 116.981C342.577 116.707 340.989 115.338 340.989 114.791V42.2373H343.015V116.981Z" fill="white"/>
<path fill-rule="evenodd" clip-rule="evenodd" d="M334.582 108.548C334.144 108.219 332.391 106.741 332.391 106.138V42.1816H334.582V108.493V108.548Z" fill="white"/>
<path fill-rule="evenodd" clip-rule="evenodd" d="M338.798 112.765C338.36 112.491 336.772 111.122 336.772 110.574V42.2373H338.798V112.765Z" fill="white"/>
<path fill-rule="evenodd" clip-rule="evenodd" d="M1 678.133C1 671.836 4.39496 665.813 9.15884 662.254C10.9111 660.94 13.5942 659.68 15.6202 659.133C18.8509 658.257 22.6839 658.257 25.9693 659.133C27.3383 659.516 29.8023 660.556 31.007 661.323C36.5923 664.718 40.6443 671.234 40.6443 678.133L40.3764 913H38.1861L38.454 677.367C38.454 674.027 36.9756 670.413 35.1138 667.894L33.0878 665.539C31.3356 664.17 30.1309 663.075 27.8858 662.09C26.0241 661.268 22.8482 660.556 20.8222 660.556C18.8509 660.556 15.5654 661.323 13.7585 662.09C7.78991 664.663 3.19029 670.905 3.19029 677.586L3.69029 913H1.5L1 678.188V678.133Z" fill="white"/>
<path fill-rule="evenodd" clip-rule="evenodd" d="M13.5154 680.461C13.5154 678.106 14.0082 675.916 15.1581 674.711C18.5531 671.097 22.8789 671.097 26.2738 674.711C27.4237 675.916 27.9166 678.161 27.9166 680.461L28.0507 913H25.8604L25.7263 678.818C25.7263 676.245 23.3169 674 20.7433 674C18.1698 674 15.7604 676.245 15.7604 678.818V913H13.5701V680.461H13.5154Z" fill="white"/>
<path fill-rule="evenodd" clip-rule="evenodd" d="M5.38062 677.313C5.38062 674.684 6.80431 671.289 8.228 669.373C8.50178 668.989 8.72081 668.716 9.04936 668.387L9.92547 667.456C16.0035 661.323 25.9146 661.378 31.8284 667.566L32.4855 668.278C34.4568 670.358 36.2638 674.356 36.2638 677.367V913H34.2377V678.791C34.2377 675.396 33.1973 672.439 31.1713 670.03C29.8024 668.332 28.4335 667.237 26.3527 666.251C21.534 664.006 16.3868 664.937 12.2253 668.223C11.842 668.497 11.5682 668.661 11.2396 669.044C10.8563 669.427 10.8563 669.537 10.5278 669.92C8.44703 672.494 7.40664 675.177 7.40664 678.791V913H5.38062V677.367V677.313Z" fill="white"/>
<path fill-rule="evenodd" clip-rule="evenodd" d="M9.59651 677.532C9.59651 672.713 14.6889 667.292 20.2194 667.292C23.8334 667.292 26.407 668.168 28.7068 670.468C30.1305 671.892 32.047 674.794 32.047 677.532L32.0472 913H30.0212L30.021 679.339C30.021 669.592 19.6171 666.58 14.1414 672.275C12.5534 673.972 11.5678 676.108 11.5678 679.339V913H9.54175V677.532H9.59651Z" fill="white"/>
<path fill-rule="evenodd" clip-rule="evenodd" d="M17.8109 678.736C17.8109 677.86 18.1394 677.148 18.5775 676.71C20.2749 674.848 23.8342 675.834 23.8342 678.736V912.999H21.8081V679.119C21.8081 677.477 19.7821 677.477 19.7821 679.119V912.999H17.7561V678.736H17.8109Z" fill="white"/>
<path fill-rule="evenodd" clip-rule="evenodd" d="M248.558 934.097C248.558 939.518 249.763 942.639 253.596 946.472C256.498 949.319 260.824 950.524 265.15 950.524H372.2V948.334H263.562C254.801 948.334 247.682 938.861 251.679 929.661C252.446 927.909 253.103 927.197 254.198 925.774C255.731 923.802 259.948 921.667 262.905 921.667H372.146V919.477H263.507C261.317 919.477 259.017 920.188 257.484 920.9C255.677 921.722 254.472 922.598 253.103 923.967C250.42 926.65 248.449 930.045 248.449 934.152L248.558 934.097Z" fill="white"/>
<path fill-rule="evenodd" clip-rule="evenodd" d="M262.795 954.74H372.036V952.714H264.767C261.7 952.714 259.893 952.331 257.265 951.4C248.449 948.279 243.247 936.615 247.792 927.526C248.339 926.431 248.668 925.773 249.325 924.843C252.556 920.298 257.703 917.231 263.562 917.231H371.981C371.981 915.643 372.2 915.041 371.379 915.041H266.136C262.85 915.041 259.729 915.37 257.32 916.246C252.282 918.107 249.216 920.9 246.478 925.445C242.426 932.18 243.575 942.474 249.051 948.169C250.749 949.976 252.391 951.4 254.691 952.495C256.717 953.481 259.729 954.685 262.686 954.685L262.795 954.74Z" fill="white"/>
<path fill-rule="evenodd" clip-rule="evenodd" d="M264.821 946.363H372.255V944.173H264C255.512 944.173 251.789 933.112 258.25 928.019C260.605 926.212 262.357 925.719 266.354 925.719H372.2V923.693H264.164C260.714 923.693 257.867 925.281 256.115 927.034C254.472 928.676 252.665 932.016 252.884 935.247C252.993 937.328 253.377 938.314 253.979 939.737C254.965 942.147 257.538 944.501 259.893 945.432C261.262 945.98 262.959 946.308 264.821 946.308V946.363Z" fill="white"/>
<path fill-rule="evenodd" clip-rule="evenodd" d="M261.372 934.918C261.372 936.999 262.905 938.149 264.986 938.149H372.255V935.958H264.603C264.055 935.958 264.055 935.849 263.617 935.739C263.453 935.137 263.234 934.151 264.219 934.151H372.255V931.961H264.603C262.85 931.961 261.372 933.166 261.372 934.973V934.918Z" fill="white"/>
<path fill-rule="evenodd" clip-rule="evenodd" d="M264.383 942.147H372.255V939.957H263.617C259.729 939.957 257.429 934.043 260.933 931.25C261.974 930.374 263.233 929.936 265.04 929.936H372.31V927.91H263.671C261.81 927.91 260.167 929.115 259.017 930.265C255.129 934.152 257.593 942.147 264.493 942.147H264.383Z" fill="white"/>
<path fill-rule="evenodd" clip-rule="evenodd" d="M89.5432 954.74C100.987 954.74 109.968 944.774 109.146 934.096C109.037 932.673 109.037 931.687 108.708 930.537C107.777 927.252 107.23 925.554 104.766 922.488C98.1948 914.384 89.817 915.095 79.6869 915.095H6.96911C2.36949 915.095 1.21959 914.876 0.945801 915.479V917.286C26.7365 917.286 52.4725 917.286 78.2632 917.286C82.589 917.286 89.7622 916.848 93.2667 917.724C95.9498 918.381 98.9067 919.695 100.878 921.557L102.904 923.583C110.844 931.906 107.504 948.935 93.5952 952.221C89.5432 953.152 83.6841 952.769 78.756 952.769C52.8558 952.769 26.9555 952.769 1.05532 952.769V954.795H89.5979L89.5432 954.74Z" fill="white"/>
<path fill-rule="evenodd" clip-rule="evenodd" d="M1 921.119C1 922.105 3.08078 921.722 4.01165 921.722H87.1333C89.8711 921.722 91.6234 921.612 93.7042 922.324C94.6898 922.653 95.2921 922.981 96.1682 923.474C107.996 930.592 102.52 948.334 89.7616 948.334H1.05476V950.524H88.1737C90.583 950.524 93.1018 950.141 94.9088 949.429C96.7158 948.662 98.4681 947.731 99.7275 946.472C105.587 940.668 106.572 932.18 101.918 925.938C99.1251 922.214 94.635 919.477 89.7616 919.477H1.05476V921.065L1 921.119Z" fill="white"/>
<path fill-rule="evenodd" clip-rule="evenodd" d="M1.00056 925.719H86.9148C90.9121 925.719 92.6643 926.157 94.9094 927.91C101.316 932.838 98.0306 944.118 89.2694 944.118H0.945801V946.308H88.5028C92.6096 946.308 94.4713 945.049 96.8259 943.242C97.483 942.694 98.8519 940.887 99.2352 940.066C99.9471 938.642 100.221 937.383 100.385 935.411C100.659 932.236 98.9614 928.895 97.3735 927.253C95.7855 925.555 92.7191 923.693 89.4884 923.693H0.945801V925.719H1.00056Z" fill="white"/>
<path fill-rule="evenodd" clip-rule="evenodd" d="M1 929.936H88.3379C94.3613 929.936 95.9492 936.178 92.0067 939.19C90.6378 940.231 88.8308 939.957 86.5857 939.957H3.68311C1.43806 939.957 1.10951 939.683 1.05476 940.833V942.202H88.995C95.8945 942.202 98.3585 934.207 94.4708 930.319C93.2661 929.115 91.8972 927.965 89.5974 927.965H1.05476V929.991L1 929.936Z" fill="white"/>
<path fill-rule="evenodd" clip-rule="evenodd" d="M1 933.494C1 934.48 4.12117 934.097 5.98292 934.097H85.9286C87.5714 934.097 89.3236 933.768 89.7616 934.48C90.0902 935.027 89.7069 935.137 89.7069 935.685C89.2688 935.794 89.2688 935.904 88.7213 935.904H1V938.094H88.338C93.4851 938.094 92.5543 931.906 89.1593 931.906H1.05476V933.494H1Z" fill="white"/>
<path fill-rule="evenodd" clip-rule="evenodd" d="M154.649 950.524H248.613C248.284 950.086 246.806 948.334 246.204 948.334H154.649V950.524Z" fill="white"/>
<path fill-rule="evenodd" clip-rule="evenodd" d="M154.649 946.362H244.397C244.068 945.924 242.59 944.172 241.987 944.172H154.649V946.362Z" fill="white"/>
<path fill-rule="evenodd" clip-rule="evenodd" d="M154.649 954.739H250.968V952.768H154.649V954.739Z" fill="white"/>
<path fill-rule="evenodd" clip-rule="evenodd" d="M154.649 942.147H240.18C239.852 941.709 238.373 939.957 237.771 939.957H154.649V942.147Z" fill="white"/>
<path fill-rule="evenodd" clip-rule="evenodd" d="M154.649 938.149H236.183C235.855 937.711 234.376 935.959 233.774 935.959H154.649V938.149Z" fill="white"/>
<path fill-rule="evenodd" clip-rule="evenodd" d="M154.649 934.097H231.967C231.802 933.439 231.474 933.33 231.036 932.837C230.707 932.509 230.324 931.906 229.776 931.906H154.649V934.097Z" fill="white"/>
<path fill-rule="evenodd" clip-rule="evenodd" d="M154.649 929.936H227.969C227.696 929.498 226.327 927.91 225.779 927.91H154.649V929.936Z" fill="white"/>
<path fill-rule="evenodd" clip-rule="evenodd" d="M154.649 921.72H219.537C219.373 921.062 219.044 920.953 218.606 920.46C218.277 920.132 217.894 919.529 217.347 919.529H154.649V921.72Z" fill="white"/>
<path fill-rule="evenodd" clip-rule="evenodd" d="M154.649 925.719H223.753C223.479 925.281 222.11 923.693 221.563 923.693H154.649V925.719Z" fill="white"/>
<path fill-rule="evenodd" clip-rule="evenodd" d="M154.649 917.286H215.321C214.992 916.848 213.514 915.096 212.911 915.096H154.649V917.286Z" fill="white"/>
<path fill-rule="evenodd" clip-rule="evenodd" d="M128.804 915.698V954.74H130.994V915.698C130.994 914.767 128.804 914.767 128.804 915.698Z" fill="white"/>
<path fill-rule="evenodd" clip-rule="evenodd" d="M116.374 915.698V954.74H118.564V915.698C118.564 914.767 116.374 914.767 116.374 915.698Z" fill="white"/>
<path fill-rule="evenodd" clip-rule="evenodd" d="M120.591 915.698V954.74H122.781V915.698C122.781 914.767 120.591 914.767 120.591 915.698Z" fill="white"/>
<path fill-rule="evenodd" clip-rule="evenodd" d="M124.807 915.698V954.74H126.997V915.698C126.997 914.767 124.807 914.767 124.807 915.698Z" fill="white"/>
<path fill-rule="evenodd" clip-rule="evenodd" d="M149.612 954.74H151.802V915.479H149.612V954.74Z" fill="white"/>
<path fill-rule="evenodd" clip-rule="evenodd" d="M133.02 954.74H134.992V915.096H133.02V954.74Z" fill="white"/>
<path fill-rule="evenodd" clip-rule="evenodd" d="M145.396 954.74H147.422V915.096H145.396V954.74Z" fill="white"/>
<path fill-rule="evenodd" clip-rule="evenodd" d="M137.017 954.74H138.988V915.096H137.017V954.74Z" fill="white"/>
<path fill-rule="evenodd" clip-rule="evenodd" d="M141.234 954.74H143.205V915.096H141.234V954.74Z" fill="white"/>
<path fill-rule="evenodd" clip-rule="evenodd" d="M112.158 954.74H114.184V915.479H112.158V954.74Z" fill="white"/>
</svg>
