<svg width="77" height="159" viewBox="0 0 77 159" fill="none" xmlns="http://www.w3.org/2000/svg">
<path d="M74.7647 72.0774C76.2481 72.0952 77.4701 73.332 77.4656 74.8094C77.4612 76.321 76.1694 77.5801 74.6712 77.5311C73.1804 77.4836 71.9777 76.2289 72.0119 74.7575C72.0445 73.2712 73.2903 72.0581 74.7647 72.0774Z" fill="#F05625"/>
<path d="M77.4284 84.2502C77.3735 85.7632 76.1322 86.9065 74.6191 86.8397C73.1061 86.7729 71.9747 85.5271 72.0519 84.0126C72.1276 82.5337 73.3362 81.4171 74.8166 81.4602C76.3267 81.5047 77.4833 82.7401 77.4284 84.2502Z" fill="#F05625"/>
<path d="M65.4298 77.3948C64.0266 77.4216 62.8002 76.2129 62.8016 74.8023C62.8016 73.4215 63.9657 72.2425 65.3526 72.2143C66.7557 72.1876 67.9822 73.3962 67.9807 74.8068C67.9792 76.1877 66.8166 77.3681 65.4298 77.3948Z" fill="#F05625"/>
<path d="M74.7677 63.0139C76.1857 63.0317 77.3646 64.2374 77.3468 65.6509C77.3275 67.0689 76.1233 68.2464 74.7098 68.2286C73.2903 68.2108 72.1128 67.0051 72.1306 65.5915C72.1484 64.1735 73.3541 62.9946 74.7677 63.0139Z" fill="#F05625"/>
<path d="M77.3023 93.4782C77.3171 94.8695 76.156 96.0484 74.7588 96.0633C73.369 96.0766 72.1885 94.9155 72.1737 93.5183C72.1603 92.1285 73.3215 90.9496 74.7187 90.9347C76.1085 90.9199 77.2889 92.0825 77.3023 93.4782Z" fill="#F05625"/>
<path d="M67.9554 84.1791C67.9361 85.5763 66.7542 86.7345 65.3644 86.7167C63.9672 86.6974 62.809 85.5155 62.8269 84.1257C62.8462 82.7285 64.0281 81.5688 65.4179 81.5881C66.8151 81.6059 67.9732 82.7893 67.9554 84.1791Z" fill="#F05625"/>
<path d="M65.5633 68.1009C64.1646 68.1039 63.0777 67.0244 63.0747 65.6287C63.0717 64.2315 64.1512 63.1446 65.5469 63.1416C66.9441 63.1372 68.031 64.2166 68.0355 65.6123C68.0385 67.011 66.959 68.0979 65.5633 68.1009Z" fill="#F05625"/>
<path d="M65.3257 95.7999C63.9433 95.7702 62.8772 94.6254 62.9262 93.2282C62.9752 91.8814 64.0933 90.8391 65.4564 90.8688C66.8373 90.8985 67.9048 92.0433 67.8543 93.4405C67.8068 94.7872 66.6888 95.8296 65.3257 95.7999Z" fill="#F05625"/>
<path d="M77.1775 56.282C77.1716 57.6064 76.0298 58.7319 74.7098 58.7126C73.3823 58.6933 72.2672 57.5426 72.2999 56.2256C72.3311 54.9278 73.4328 53.8439 74.7261 53.835C76.0491 53.8276 77.1835 54.959 77.1775 56.282Z" fill="#F05625"/>
<path d="M72.3549 102.642C72.3801 101.321 73.4863 100.259 74.7989 100.298C76.1218 100.337 77.1716 101.45 77.1211 102.763C77.0706 104.056 76.006 105.078 74.7187 105.066C73.3972 105.054 72.3296 103.958 72.3549 102.642Z" fill="#F05625"/>
<path d="M58.592 74.8367C58.5712 76.1582 57.4695 77.2228 56.1554 77.1887C54.8339 77.156 53.7782 76.0439 53.8243 74.7328C53.8688 73.4395 54.9319 72.4135 56.2193 72.4209C57.5393 72.4284 58.6113 73.5197 58.592 74.8367Z" fill="#F05625"/>
<path d="M58.5921 84.1208C58.6114 85.4378 57.5393 86.5291 56.2178 86.5351C54.9008 86.5425 53.8169 85.4586 53.8228 84.1416C53.8303 82.8527 54.8637 81.8 56.1555 81.7673C57.4695 81.7347 58.5713 82.7993 58.5921 84.1208Z" fill="#F05625"/>
<path d="M58.5298 65.6004C58.5387 66.9144 57.5379 67.9345 56.2283 67.9434C54.9142 67.9523 53.8942 66.9516 53.8853 65.6419C53.8763 64.3264 54.8771 63.3078 56.1867 63.2989C57.5008 63.2885 58.5208 64.2908 58.5298 65.6004Z" fill="#F05625"/>
<path d="M65.5781 53.9503C66.8877 53.9607 67.8885 54.9822 67.8781 56.2978C67.8677 57.6059 66.8461 58.6067 65.5306 58.5963C64.2224 58.5859 63.2217 57.5643 63.2321 56.2503C63.2425 54.9406 64.264 53.9399 65.5781 53.9503Z" fill="#F05625"/>
<path d="M67.697 102.679C67.6985 103.981 66.6606 105.005 65.3554 104.987C64.0874 104.973 63.0866 103.959 63.0851 102.688C63.0837 101.384 64.1215 100.361 65.4267 100.377C66.6947 100.393 67.694 101.408 67.697 102.679Z" fill="#F05625"/>
<path d="M56.1836 91.0294C57.4873 91.0175 58.5207 92.048 58.5133 93.3502C58.5059 94.6197 57.4992 95.6294 56.2311 95.6398C54.9275 95.6516 53.894 94.6212 53.9015 93.3175C53.9089 92.0495 54.9156 91.0398 56.1821 91.0294H56.1836Z" fill="#F05625"/>
<path d="M76.9593 47.0891C76.9607 48.3155 75.9451 49.3237 74.7202 49.3118C73.4907 49.2985 72.4929 48.2754 72.5182 47.0505C72.5419 45.8522 73.5189 44.8826 74.7172 44.8693C75.9422 44.8559 76.9593 45.8626 76.9593 47.0891Z" fill="#F05625"/>
<path d="M76.9192 112.019C76.9252 113.24 75.9867 114.196 74.7692 114.211C73.5145 114.226 72.542 113.253 72.5583 111.999C72.5717 110.783 73.5279 109.844 74.7484 109.849C75.9704 109.853 76.9148 110.797 76.9192 112.019Z" fill="#F05625"/>
<path d="M49.0402 74.845C49.0209 76.0611 48.0617 76.995 46.8397 76.9847C45.5895 76.9757 44.6392 75.9809 44.6793 74.7233C44.7179 73.5102 45.6964 72.5941 46.9214 72.6237C48.1345 72.652 49.0595 73.623 49.0402 74.845Z" fill="#F05625"/>
<path d="M58.3886 56.3102C58.3708 57.5277 57.4131 58.4617 56.1926 58.4542C54.9409 58.4468 53.9891 57.4565 54.0277 56.1973C54.0634 54.9842 55.0389 54.0666 56.2639 54.0933C57.477 54.1201 58.405 55.0882 58.3886 56.3102Z" fill="#F05625"/>
<path d="M49.0164 84.1506C49.0164 85.3786 48.0706 86.317 46.8397 86.3081C45.6162 86.2992 44.6867 85.3429 44.7045 84.112C44.7209 82.9227 45.6474 82.0051 46.8382 81.9962C48.0706 81.9872 49.015 82.9227 49.0164 84.1506Z" fill="#F05625"/>
<path d="M54.0515 102.614C54.0812 101.397 55.0582 100.488 56.2966 100.527C57.5112 100.565 58.4095 101.551 58.362 102.791C58.3159 103.971 57.3612 104.858 56.16 104.838C54.9395 104.818 54.0218 103.848 54.0515 102.614Z" fill="#F05625"/>
<path d="M67.7104 47.0965C67.7089 48.3229 66.7601 49.2584 65.5277 49.2465C64.3057 49.2346 63.3792 48.2754 63.3985 47.043C63.4193 45.8552 64.3473 44.9405 65.5411 44.9346C66.7705 44.9287 67.7134 45.8685 67.7104 47.0965Z" fill="#F05625"/>
<path d="M46.8442 67.7597C45.6594 67.7523 44.7239 66.8124 44.721 65.6261C44.718 64.4085 45.6935 63.4553 46.9155 63.482C48.0959 63.5087 49.015 64.4694 48.9987 65.6572C48.9824 66.8406 48.0321 67.7672 46.8442 67.7597Z" fill="#F05625"/>
<path d="M46.8413 91.2105C48.0098 91.1986 48.9853 92.1652 48.9853 93.3352C48.9838 94.5068 48.0083 95.4719 46.8383 95.4585C45.6994 95.4466 44.7581 94.5127 44.7358 93.3738C44.712 92.2053 45.6697 91.2209 46.8413 91.209V91.2105Z" fill="#F05625"/>
<path d="M65.3643 109.905C66.5328 109.888 67.5113 110.852 67.5158 112.022C67.5202 113.193 66.5477 114.161 65.3776 114.154C64.2388 114.147 63.293 113.216 63.2662 112.077C63.2395 110.908 64.1928 109.921 65.3643 109.905Z" fill="#F05625"/>
<path d="M58.2416 47.0939C58.2402 48.2254 57.3567 49.1148 56.2253 49.1252C55.0626 49.1341 54.1495 48.209 54.1732 47.0464C54.197 45.918 55.0998 45.0449 56.2312 45.0568C57.3611 45.0701 58.2431 45.9625 58.2416 47.0939Z" fill="#F05625"/>
<path d="M44.8263 56.2042C44.8634 55.0772 45.7781 54.2146 46.9095 54.2398C48.0691 54.2665 48.9496 55.2198 48.8902 56.3839C48.8323 57.5108 47.9028 58.3527 46.7699 58.3052C45.6429 58.2577 44.7892 57.3356 44.8263 56.2042Z" fill="#F05625"/>
<path d="M46.8769 100.681C48.0202 100.688 48.8785 101.57 48.8607 102.719C48.8443 103.86 47.9534 104.709 46.8012 104.682C45.6965 104.657 44.8606 103.797 44.8591 102.685C44.8576 101.537 45.7292 100.673 46.8769 100.681Z" fill="#F05625"/>
<path d="M76.7395 37.7408C76.741 38.8886 75.8694 39.7528 74.7202 39.7439C73.5783 39.7364 72.7201 38.853 72.7379 37.7052C72.7543 36.596 73.6051 35.7527 74.7157 35.7423C75.865 35.7319 76.738 36.596 76.7395 37.7408Z" fill="#F05625"/>
<path d="M56.1749 114.03C55.033 114.015 54.1822 113.127 54.206 111.976C54.2297 110.839 55.1295 109.996 56.2818 110.028C57.385 110.061 58.215 110.928 58.2091 112.042C58.2031 113.186 57.3226 114.046 56.1749 114.03Z" fill="#F05625"/>
<path d="M67.5203 37.7739C67.504 38.8549 66.5864 39.7369 65.5054 39.7086C64.426 39.6819 63.5514 38.7524 63.59 37.673C63.6286 36.6262 64.5151 35.7739 65.5634 35.7783C66.6458 35.7843 67.5367 36.6915 67.5203 37.7739Z" fill="#F05625"/>
<path d="M76.7039 121.203C76.7083 122.284 75.8085 123.184 74.7276 123.178C73.6452 123.172 72.7558 122.263 72.7736 121.181C72.7899 120.132 73.66 119.264 74.7083 119.247C75.7907 119.231 76.6979 120.122 76.7039 121.203Z" fill="#F05625"/>
<path d="M37.6858 76.7694C36.6049 76.7739 35.7051 75.8741 35.711 74.7931C35.717 73.7122 36.6257 72.8228 37.7081 72.8391C38.7564 72.8569 39.625 73.7255 39.6413 74.7738C39.6577 75.8547 38.7683 76.7635 37.6858 76.7694Z" fill="#F05625"/>
<path d="M37.7913 82.1889C38.8708 82.2528 39.7126 83.2105 39.6384 84.287C39.5627 85.3635 38.5946 86.1994 37.5211 86.1118C36.4758 86.0272 35.6621 85.1021 35.7126 84.0568C35.766 82.9774 36.7133 82.1251 37.7913 82.1889Z" fill="#F05625"/>
<path d="M37.6755 63.6768C38.7133 63.6753 39.6087 64.5602 39.622 65.5996C39.6354 66.6672 38.7015 67.5937 37.6368 67.567C36.596 67.5417 35.7185 66.636 35.7303 65.6026C35.7437 64.5617 36.6361 63.6768 37.6755 63.6768Z" fill="#F05625"/>
<path d="M65.4163 123.128C64.3799 123.146 63.4772 122.257 63.4742 121.217C63.4712 120.176 64.368 119.286 65.4059 119.296C66.4171 119.306 67.2783 120.153 67.308 121.167C67.3377 122.199 66.4587 123.112 65.4163 123.128Z" fill="#F05625"/>
<path d="M37.6488 95.2509C36.6079 95.2331 35.7274 94.3185 35.7601 93.288C35.7913 92.2412 36.7133 91.3741 37.7438 91.4186C38.7624 91.4632 39.5969 92.3318 39.5939 93.3415C39.588 94.3808 38.6852 95.2688 37.6488 95.2509Z" fill="#F05625"/>
<path d="M46.8427 45.2228C47.8939 45.2124 48.7195 46.0231 48.7284 47.0728C48.7373 48.1241 47.9266 48.9496 46.8768 48.9586C45.8271 48.9675 45 48.1568 44.9911 47.107C44.9822 46.0572 45.7929 45.2317 46.8427 45.2228Z" fill="#F05625"/>
<path d="M39.4884 56.2601C39.4958 57.2742 38.7044 58.079 37.6903 58.0864C36.6761 58.0938 35.8714 57.3024 35.8639 56.2883C35.8565 55.2742 36.6494 54.4694 37.6621 54.462C38.6762 54.4545 39.481 55.2474 39.4884 56.2601Z" fill="#F05625"/>
<path d="M56.2224 123.024C55.2068 123.031 54.402 122.238 54.3946 121.226C54.3886 120.212 55.18 119.407 56.1927 119.399C57.2083 119.392 58.0131 120.185 58.0205 121.198C58.0264 122.212 57.235 123.016 56.2224 123.024Z" fill="#F05625"/>
<path d="M37.6517 104.494C36.6406 104.482 35.8521 103.673 35.864 102.657C35.8759 101.646 36.6866 100.857 37.7007 100.869C38.7119 100.881 39.5003 101.692 39.4885 102.706C39.4766 103.717 38.6674 104.506 37.6517 104.494Z" fill="#F05625"/>
<path d="M56.2104 35.9092C57.2676 35.9107 58.0619 36.7258 58.0412 37.7875C58.0218 38.8075 57.229 39.5796 56.2044 39.5782C55.1472 39.5767 54.3529 38.7615 54.3722 37.6999C54.393 36.6813 55.1858 35.9077 56.2104 35.9092Z" fill="#F05625"/>
<path d="M46.8323 110.194C47.894 110.183 48.7002 110.983 48.6943 112.043C48.6883 113.066 47.9088 113.852 46.8873 113.863C45.8256 113.877 45.0194 113.075 45.0253 112.015C45.0312 110.992 45.8108 110.206 46.8323 110.194Z" fill="#F05625"/>
<path d="M76.5109 28.5624C76.5094 29.5053 75.6779 30.3353 74.7365 30.3338C73.7937 30.3323 72.9637 29.5008 72.9652 28.5595C72.9666 27.6166 73.7996 26.7866 74.741 26.7881C75.6824 26.7896 76.5124 27.6211 76.5109 28.5624Z" fill="#F05625"/>
<path d="M30.0613 74.8204C30.0509 75.7558 29.2684 76.5338 28.333 76.5368C27.3679 76.5398 26.5616 75.7098 26.5958 74.7476C26.6299 73.8107 27.4332 73.0505 28.3657 73.0727C29.3011 73.0935 30.0702 73.8864 30.0613 74.8204Z" fill="#F05625"/>
<path d="M67.2872 28.5357C67.3036 29.4681 66.5374 30.2655 65.602 30.2937C64.6383 30.3219 63.8128 29.5112 63.8232 28.5461C63.8321 27.6106 64.6146 26.8326 65.55 26.8281C66.4839 26.8252 67.2724 27.5988 67.2872 28.5357Z" fill="#F05625"/>
<path d="M76.4708 130.524C76.4916 131.457 75.7314 132.259 74.7944 132.291C73.8323 132.327 73.0023 131.519 73.0067 130.554C73.0097 129.62 73.7877 128.836 74.7232 128.827C75.6571 128.818 76.45 129.587 76.4708 130.524Z" fill="#F05625"/>
<path d="M28.3137 67.2755C27.3768 67.2681 26.667 66.545 26.6744 65.6066C26.6819 64.6697 27.405 63.9599 28.3434 63.9659C29.2803 63.9733 29.9915 64.6964 29.9841 65.6363C29.9767 66.5732 29.2536 67.2829 28.3137 67.2755Z" fill="#F05625"/>
<path d="M29.9842 93.3087C29.9961 94.2486 29.2908 94.9762 28.3554 94.9895C27.4155 95.0014 26.6864 94.2961 26.6746 93.3607C26.6612 92.4208 27.3665 91.6932 28.3019 91.6799C29.2433 91.6665 29.9709 92.3733 29.9842 93.3087Z" fill="#F05625"/>
<path d="M48.5146 121.177C48.531 122.117 47.8287 122.85 46.8962 122.867C45.9548 122.883 45.2213 122.181 45.205 121.247C45.1887 120.307 45.891 119.573 46.8249 119.557C47.7648 119.541 48.4983 120.243 48.5146 121.177Z" fill="#F05625"/>
<path d="M39.331 112.012C39.3399 112.952 38.6302 113.676 37.6933 113.684C36.7549 113.693 36.0303 112.983 36.0214 112.047C36.0125 111.108 36.7222 110.383 37.6591 110.374C38.5975 110.367 39.3221 111.075 39.331 112.012Z" fill="#F05625"/>
<path d="M65.3629 132.214C64.4275 132.201 63.7222 131.472 63.7355 130.53C63.7504 129.596 64.4794 128.891 65.4193 128.904C66.3548 128.918 67.06 129.648 67.0452 130.588C67.0318 131.524 66.3028 132.228 65.3629 132.214Z" fill="#F05625"/>
<path d="M30.0123 84.1474C30.0138 85.1229 29.2699 85.852 28.2914 85.8342C27.353 85.8164 26.6477 85.0977 26.6462 84.1548C26.6448 83.1793 27.3872 82.4503 28.3657 82.4681C29.3041 82.4859 30.0094 83.2046 30.0123 84.1474Z" fill="#F05625"/>
<path d="M45.1811 37.624C45.2376 36.6931 45.9904 36.0249 46.9392 36.062C47.9058 36.1006 48.5977 36.8816 48.5383 37.8646C48.4804 38.8267 47.6845 39.4994 46.6986 39.4192C45.7721 39.3435 45.1232 38.5758 45.1811 37.624Z" fill="#F05625"/>
<path d="M39.3592 47.0879C39.3607 48.0634 38.6168 48.7925 37.6383 48.7732C36.6999 48.7554 35.9947 48.0367 35.9932 47.0938C35.9917 46.1183 36.7356 45.3893 37.7141 45.4086C38.6525 45.4249 39.3578 46.145 39.3592 47.0879Z" fill="#F05625"/>
<path d="M56.2312 26.7854C57.1013 26.8003 57.8482 27.5798 57.82 28.4425C57.7903 29.3111 57.0004 30.0505 56.1422 30.009C55.3047 29.9689 54.5935 29.2265 54.595 28.3935C54.5979 27.5263 55.3686 26.7691 56.2312 26.7854Z" fill="#F05625"/>
<path d="M28.3122 57.8438C27.4614 57.8334 26.7606 57.1266 26.7591 56.2773C26.7561 55.3968 27.5104 54.6678 28.3865 54.7034C29.2387 54.739 29.9218 55.4651 29.8995 56.3115C29.8757 57.1623 29.1601 57.8542 28.3122 57.8438Z" fill="#F05625"/>
<path d="M56.1896 128.988C57.039 128.978 57.7546 129.668 57.7769 130.521C57.8007 131.398 57.0642 132.144 56.1852 132.129C55.3344 132.115 54.6365 131.406 54.638 130.556C54.6395 129.707 55.3403 129 56.1896 128.988Z" fill="#F05625"/>
<path d="M28.3568 101.111C29.2091 101.128 29.904 101.84 29.8995 102.689C29.8936 103.571 29.1348 104.293 28.2603 104.25C27.408 104.208 26.7294 103.477 26.7591 102.633C26.7888 101.78 27.5089 101.094 28.3568 101.111Z" fill="#F05625"/>
<path d="M39.1424 121.174C39.1647 121.956 38.5218 122.644 37.7348 122.678C36.9211 122.713 36.2084 122.027 36.2099 121.209C36.2114 120.424 36.8706 119.756 37.6576 119.745C38.4431 119.735 39.1201 120.387 39.1424 121.174Z" fill="#F05625"/>
<path d="M76.2258 19.2037C76.2303 20.0471 75.5725 20.7049 74.7291 20.7004C73.8872 20.696 73.2369 20.0278 73.2517 19.1844C73.2666 18.3767 73.9006 17.7427 74.7068 17.7278C75.5517 17.7115 76.2199 18.3619 76.2258 19.2037Z" fill="#F05625"/>
<path d="M48.3261 28.3938C48.3276 29.1793 47.6698 29.849 46.8829 29.8623C46.0662 29.8757 45.3713 29.1734 45.3936 28.3582C45.4159 27.5713 46.0929 26.9194 46.8784 26.9298C47.6654 26.9402 48.3246 27.6069 48.3261 28.3938Z" fill="#F05625"/>
<path d="M29.7956 47.0653C29.8104 47.8478 29.1616 48.5293 28.3746 48.556C27.5594 48.5843 26.8542 47.8923 26.8631 47.0757C26.872 46.2887 27.5372 45.628 28.3241 45.625C29.1096 45.6206 29.7792 46.2769 29.7956 47.0653Z" fill="#F05625"/>
<path d="M39.1632 37.7335C39.1692 38.5769 38.5099 39.2346 37.6665 39.2302C36.8247 39.2257 36.1743 38.5576 36.1892 37.7127C36.204 36.9065 36.838 36.271 37.6458 36.2561C38.4891 36.2413 39.1573 36.8916 39.1632 37.7335Z" fill="#F05625"/>
<path d="M29.7628 111.992C29.7866 112.764 29.1021 113.465 28.3255 113.463C27.5801 113.46 26.9179 112.813 26.8942 112.066C26.8704 111.294 27.5564 110.592 28.3329 110.595C29.0768 110.596 29.7405 111.245 29.7628 111.992Z" fill="#F05625"/>
<path d="M76.1723 139.746C76.1708 140.523 75.4655 141.206 74.6949 141.176C73.9466 141.149 73.3022 140.483 73.3037 139.739C73.3066 138.962 74.0119 138.279 74.7825 138.307C75.5309 138.336 76.1753 139.002 76.1723 139.746Z" fill="#F05625"/>
<path d="M19.1198 85.5867C18.3402 85.5689 17.6691 84.8532 17.7122 84.0856C17.7537 83.3372 18.4308 82.7017 19.1717 82.7181C19.9498 82.7344 20.6209 83.4501 20.5793 84.2192C20.5378 84.9676 19.8592 85.6031 19.1198 85.5867Z" fill="#F05625"/>
<path d="M48.2948 130.555C48.2978 131.331 47.5955 132.017 46.8234 131.994C46.0765 131.972 45.4276 131.308 45.4262 130.564C45.4232 129.788 46.124 129.102 46.8961 129.126C47.643 129.148 48.2919 129.81 48.2948 130.555Z" fill="#F05625"/>
<path d="M66.9888 19.2211C66.9844 19.9977 66.2776 20.6777 65.507 20.648C64.7586 20.6183 64.1157 19.9502 64.1201 19.2063C64.1246 18.4297 64.8329 17.7482 65.6035 17.7793C66.3518 17.809 66.9933 18.4772 66.9888 19.2211Z" fill="#F05625"/>
<path d="M20.5794 74.8343C20.5601 75.6138 19.8429 76.282 19.0752 76.2374C18.3254 76.1929 17.6929 75.5143 17.7107 74.7734C17.73 73.9954 18.4472 73.3257 19.2163 73.3703C19.9661 73.4148 20.5987 74.0934 20.5794 74.8343Z" fill="#F05625"/>
<path d="M19.1569 66.995C18.4011 67.001 17.7982 66.4249 17.7715 65.6735C17.7433 64.8851 18.3461 64.2541 19.1346 64.2481C19.9215 64.2407 20.5348 64.8628 20.5199 65.6513C20.5036 66.4056 19.9126 66.9891 19.1569 66.995Z" fill="#F05625"/>
<path d="M17.7715 93.2668C17.8057 92.517 18.4174 91.9468 19.1717 91.9602C19.9572 91.975 20.5556 92.6135 20.5199 93.4019C20.4843 94.1844 19.8265 94.7606 19.0366 94.7026C18.2868 94.6477 17.7374 94.0241 17.7715 93.2668Z" fill="#F05625"/>
<path d="M65.4268 141.117C64.6383 141.135 64.0132 140.523 64.0177 139.736C64.0206 138.98 64.6027 138.386 65.3555 138.369C66.1439 138.351 66.769 138.962 66.7646 139.748C66.7616 140.504 66.1796 141.099 65.4268 141.117Z" fill="#F05625"/>
<path d="M20.4531 56.3115C20.4308 57.0182 19.8339 57.5914 19.1272 57.581C18.3892 57.5706 17.7938 56.9306 17.8383 56.1956C17.8829 55.4904 18.5006 54.9335 19.2044 54.9662C19.9097 54.9989 20.4739 55.6062 20.4531 56.3115Z" fill="#F05625"/>
<path d="M56.1986 20.5454C55.4309 20.541 54.8607 19.9545 54.8756 19.1839C54.8904 18.4192 55.4858 17.8564 56.258 17.8817C56.9885 17.9054 57.5334 18.4667 57.5393 19.2017C57.5453 19.9708 56.9677 20.5499 56.1986 20.5454Z" fill="#F05625"/>
<path d="M20.419 102.702C20.4071 103.366 19.8087 103.955 19.1465 103.957C18.4516 103.957 17.8324 103.31 17.871 102.622C17.9082 101.955 18.5273 101.384 19.1866 101.409C19.8503 101.433 20.4323 102.042 20.419 102.702Z" fill="#F05625"/>
<path d="M29.6025 37.7358C29.6085 38.3981 29.022 39.0009 28.3582 39.0187C27.6648 39.0365 27.0338 38.404 27.0546 37.7121C27.0739 37.0469 27.6797 36.4633 28.3404 36.4708C29.0041 36.4782 29.5981 37.0721 29.6025 37.7358Z" fill="#F05625"/>
<path d="M37.6665 29.6712C37.0043 29.6653 36.4089 29.0714 36.403 28.4077C36.3955 27.7143 37.037 27.0906 37.7274 27.1233C38.3926 27.153 38.9687 27.7677 38.9509 28.427C38.9316 29.0907 38.3288 29.6772 37.6665 29.6712Z" fill="#F05625"/>
<path d="M56.1985 138.468C56.8607 138.463 57.4635 139.048 57.4814 139.714C57.4992 140.405 56.8666 141.037 56.1747 141.016C55.5095 140.996 54.926 140.392 54.9334 139.73C54.9408 139.068 55.5363 138.474 56.1985 138.468Z" fill="#F05625"/>
<path d="M27.1198 121.145C27.154 120.479 27.6856 119.989 28.3552 120.004C29.056 120.019 29.5728 120.577 29.5371 121.28C29.5015 121.976 28.9254 122.473 28.2216 122.414C27.5564 122.359 27.0857 121.817 27.1198 121.145Z" fill="#F05625"/>
<path d="M37.6384 131.767C36.9405 131.748 36.4283 131.185 36.4698 130.481C36.5084 129.816 37.043 129.332 37.7141 129.351C38.4135 129.37 38.9242 129.935 38.8827 130.637C38.844 131.302 38.311 131.786 37.6384 131.767Z" fill="#F05625"/>
<path d="M46.8293 18.0492C47.5049 18.0329 48.029 18.5466 48.0231 19.2222C48.0187 19.8666 47.5331 20.3611 46.8917 20.3774C46.2146 20.3937 45.6905 19.88 45.6964 19.2029C45.7009 18.56 46.1864 18.0655 46.8293 18.0492Z" fill="#F05625"/>
<path d="M20.2809 47.0653C20.2957 47.6785 19.7642 48.2219 19.1495 48.2249C18.5362 48.2279 17.9779 47.6874 18.0165 47.0756C18.0581 46.4134 18.4427 46.0229 19.1005 45.962C19.7077 45.9056 20.266 46.4505 20.2809 47.0653Z" fill="#F05625"/>
<path d="M74.7737 11.0009C74.1619 11.0217 73.6125 10.4961 73.6036 9.88139C73.5947 9.26667 74.1307 8.70541 74.744 8.73659C75.4077 8.77223 75.7982 9.15531 75.8665 9.8116C75.9303 10.4159 75.3869 10.9801 74.7737 11.0009Z" fill="#F05625"/>
<path d="M47.9949 139.781C47.9726 140.394 47.4099 140.912 46.8026 140.878C46.1879 140.844 45.6563 140.268 45.7335 139.665C45.8152 139.013 46.2131 138.634 46.8768 138.614C47.49 138.596 48.0171 139.169 47.9949 139.781Z" fill="#F05625"/>
<path d="M9.75941 73.7185C10.3489 73.6962 10.873 74.1951 10.8834 74.7876C10.8938 75.377 10.386 75.9145 9.79505 75.8848C9.164 75.8522 8.78537 75.4884 8.71707 74.8633C8.65471 74.2798 9.16697 73.7422 9.75941 73.7185Z" fill="#F05625"/>
<path d="M10.8836 84.1566C10.8806 84.749 10.3624 85.2539 9.77143 85.2375C9.17899 85.2227 8.66227 84.6911 8.71721 84.1061C8.77809 83.4795 9.15226 83.1113 9.78331 83.0712C10.3728 83.0341 10.8865 83.5656 10.8836 84.1566Z" fill="#F05625"/>
<path d="M74.7127 148.003C75.3022 147.988 75.8219 148.492 75.8249 149.084C75.8278 149.675 75.3126 150.207 74.7246 150.17C74.0936 150.13 73.7194 149.763 73.6585 149.135C73.6021 148.55 74.1203 148.02 74.7127 148.003Z" fill="#F05625"/>
<path d="M19.2058 110.942C19.7968 110.979 20.2764 111.526 20.2274 112.109C20.1784 112.706 19.6275 113.186 19.0455 113.103C18.4174 113.012 18.0729 112.617 18.0655 111.988C18.0581 111.397 18.6208 110.907 19.2058 110.942Z" fill="#F05625"/>
<path d="M65.5262 10.9513C64.9337 10.935 64.4393 10.4049 64.469 9.81693C64.4987 9.22449 65.0421 8.71817 65.6227 8.78647C66.2493 8.86071 66.6086 9.24231 66.6353 9.87335C66.6591 10.4643 66.1156 10.9691 65.5262 10.9513Z" fill="#F05625"/>
<path d="M9.73267 64.5957C10.4172 64.6506 10.8077 64.9714 10.8032 65.6262C10.7973 66.275 10.4201 66.6358 9.77276 66.6269C9.16547 66.618 8.81357 66.2646 8.7913 65.6573C8.76754 64.9981 9.1625 64.6863 9.73267 64.5957Z" fill="#F05625"/>
<path d="M10.7929 93.2728C10.7142 93.9172 10.4068 94.3078 9.79065 94.3003C9.18039 94.2929 8.82106 93.9172 8.83146 93.307C8.84185 92.7383 9.19672 92.3864 9.76392 92.3671C10.3875 92.3448 10.683 92.7428 10.7929 93.2728Z" fill="#F05625"/>
<path d="M28.3419 29.384C27.745 29.3127 27.3545 29.0054 27.3634 28.3892C27.3709 27.7789 27.7465 27.4181 28.3568 27.43C28.9255 27.4404 29.2788 27.7952 29.2967 28.3624C29.3145 28.9786 28.9359 29.2964 28.3419 29.384Z" fill="#F05625"/>
<path d="M66.3844 149.089C66.279 149.714 65.9538 150.094 65.3391 150.056C64.7333 150.017 64.3844 149.626 64.4259 149.018C64.4646 148.453 64.8313 148.112 65.403 148.122C66.0221 148.133 66.3072 148.537 66.3844 149.089Z" fill="#F05625"/>
<path d="M56.2476 8.87793C56.8371 8.98187 57.2157 9.31001 57.1727 9.92472C57.1311 10.529 56.7391 10.8765 56.1288 10.8305C55.5646 10.7889 55.2246 10.4207 55.2394 9.849C55.2558 9.2328 55.6463 8.93287 56.2476 8.87793Z" fill="#F05625"/>
<path d="M38.6064 19.2046C38.5411 19.7599 38.2397 20.1296 37.671 20.1252C37.1053 20.1192 36.7534 19.754 36.7638 19.1868C36.7727 18.6612 37.1172 18.3167 37.6428 18.3003C38.2115 18.284 38.5248 18.6389 38.6064 19.2046Z" fill="#F05625"/>
<path d="M19.1569 38.6729C18.6031 38.6105 18.2319 38.3106 18.2333 37.7419C18.2363 37.1747 18.6001 36.8228 19.1673 36.8302C19.6944 36.8376 20.0404 37.1791 20.0582 37.7047C20.0775 38.2734 19.7241 38.5897 19.1569 38.6729Z" fill="#F05625"/>
<path d="M10.7306 56.2809C10.6311 56.8704 10.3074 57.2253 9.74024 57.1852C9.18046 57.1451 8.84341 56.7679 8.88944 56.1963C8.93101 55.6721 9.28737 55.347 9.81596 55.3618C10.3876 55.3767 10.6697 55.7568 10.7306 56.2809Z" fill="#F05625"/>
<path d="M28.3361 131.492C27.7451 131.402 27.3873 131.082 27.4184 130.515C27.4481 129.954 27.8238 129.612 28.3925 129.648C28.9166 129.682 29.2477 130.034 29.2418 130.563C29.2359 131.137 28.8587 131.422 28.3361 131.492Z" fill="#F05625"/>
<path d="M10.6475 102.645C10.6192 103.19 10.3564 103.518 9.79368 103.518C9.27994 103.52 8.97703 103.233 8.96218 102.718C8.94585 102.165 9.2443 101.849 9.80111 101.845C10.3193 101.84 10.5881 102.14 10.6475 102.645Z" fill="#F05625"/>
<path d="M19.1761 122.062C18.6312 122.031 18.306 121.765 18.3075 121.204C18.3105 120.689 18.5985 120.389 19.1138 120.375C19.6676 120.362 19.9809 120.663 19.9824 121.22C19.9839 121.738 19.6824 122.006 19.1761 122.062Z" fill="#F05625"/>
<path d="M38.5263 139.71C38.4966 140.253 38.2323 140.581 37.6695 140.58C37.1558 140.58 36.8544 140.292 36.8395 139.778C36.8247 139.224 37.1261 138.909 37.6829 138.906C38.2011 138.902 38.4684 139.203 38.5263 139.71Z" fill="#F05625"/>
<path d="M56.1896 149.938C55.6863 149.893 55.3774 149.633 55.37 149.115C55.3626 148.561 55.6655 148.245 56.2223 148.254C56.7821 148.262 57.0686 148.596 57.0434 149.145C57.0211 149.662 56.6989 149.91 56.1896 149.938Z" fill="#F05625"/>
<path d="M10.5063 47.0729C10.4856 47.5154 10.2628 47.7886 9.80254 47.7901C9.34522 47.7916 9.09429 47.5303 9.09726 47.0744C9.10022 46.6602 9.33928 46.4092 9.75206 46.3899C10.2034 46.3691 10.4603 46.6097 10.5063 47.0729Z" fill="#F05625"/>
<path d="M46.8591 9.15625C47.3105 9.18892 47.5703 9.42649 47.5599 9.88381C47.5495 10.3426 47.2733 10.5817 46.822 10.5653C46.4062 10.5505 46.1671 10.3025 46.1582 9.88826C46.1508 9.43243 46.4047 9.19189 46.8591 9.15625Z" fill="#F05625"/>
<mask id="mask0_275_8067" style="mask-type:luminance" maskUnits="userSpaceOnUse" x="74" y="0" width="2" height="2">
<path d="M74.0892 0H75.6096V1.69121H74.0892V0Z" fill="white"/>
</mask>
<g mask="url(#mask0_275_8067)">
<path d="M75.3913 0.662605C75.3498 1.06351 75.1434 1.32632 74.7246 1.32186C74.352 1.31741 74.1099 1.08132 74.101 0.710119C74.0906 0.295856 74.3386 0.0449219 74.7529 0.0449219C75.1285 0.0464066 75.329 0.291401 75.3913 0.662605Z" fill="#F05625"/>
</g>
<path d="M28.3271 18.5596C28.7251 18.613 28.9834 18.8268 28.9671 19.2441C28.9522 19.6168 28.7117 19.8514 28.3375 19.8499C27.9233 19.8484 27.6783 19.5945 27.6916 19.1817C27.702 18.806 27.9529 18.6115 28.3271 18.5596Z" fill="#F05625"/>
<path d="M10.4574 112.012C10.3801 112.45 10.1559 112.702 9.74019 112.667C9.37344 112.634 9.14032 112.387 9.15962 112.012C9.18041 111.599 9.44322 111.361 9.856 111.391C10.2317 111.418 10.4039 111.69 10.4574 112.012Z" fill="#F05625"/>
<path d="M47.5183 149.106C47.4277 149.525 47.1991 149.775 46.7818 149.724C46.4166 149.68 46.1909 149.427 46.222 149.052C46.2562 148.643 46.5235 148.41 46.9377 148.455C47.3104 148.495 47.4812 148.763 47.5183 149.106Z" fill="#F05625"/>
<mask id="mask1_275_8067" style="mask-type:luminance" maskUnits="userSpaceOnUse" x="64" y="0" width="3" height="2">
<path d="M64.9665 0H66.1068V1.31109H64.9665V0Z" fill="white"/>
</mask>
<g mask="url(#mask1_275_8067)">
<path d="M66.092 0.666606C66.0801 1.00663 65.9049 1.21599 65.5441 1.2145C65.2263 1.21153 65.0348 1.03039 65.0244 0.712636C65.0125 0.354795 65.2055 0.14989 65.5663 0.151375C65.8841 0.15286 66.0578 0.336977 66.092 0.666606Z" fill="#F05625"/>
</g>
<path d="M19.1391 131.098C18.7768 131.065 18.5912 130.863 18.6149 130.51C18.6372 130.193 18.8377 130.02 19.1554 130.029C19.5177 130.039 19.6989 130.257 19.6751 130.609C19.6543 130.928 19.4509 131.083 19.1391 131.098Z" fill="#F05625"/>
<path d="M19.6824 28.3805C19.6691 28.7205 19.4953 28.9299 19.1345 28.9269C18.8168 28.9254 18.6252 28.7428 18.6148 28.425C18.603 28.0687 18.796 27.8638 19.1568 27.8652C19.4745 27.8667 19.6483 28.0508 19.6824 28.3805Z" fill="#F05625"/>
<path d="M28.8661 139.727C28.8527 140.067 28.679 140.277 28.3182 140.274C28.0004 140.272 27.8089 140.089 27.7985 139.772C27.7866 139.415 27.9796 139.21 28.3404 139.212C28.6582 139.213 28.8319 139.398 28.8661 139.727Z" fill="#F05625"/>
<path d="M1.15201 74.8085C1.12826 75.1515 0.94117 75.349 0.58333 75.3356C0.265579 75.3237 0.0844315 75.1307 0.0829468 74.8144C0.0829468 74.4536 0.287851 74.2621 0.645692 74.274C0.964928 74.2844 1.12677 74.4803 1.15201 74.8085Z" fill="#F05625"/>
<path d="M1.15202 84.1536C1.12975 84.4966 0.944148 84.6955 0.584823 84.6822C0.267072 84.6718 0.0844395 84.4802 0.0829548 84.1625C0.0814697 83.8031 0.286375 83.6101 0.644215 83.6205C0.963451 83.6309 1.12678 83.8254 1.15202 84.1536Z" fill="#F05625"/>
<mask id="mask2_275_8067" style="mask-type:luminance" maskUnits="userSpaceOnUse" x="74" y="157" width="2" height="2">
<path d="M74.0892 157.537H75.6096V159H74.0892V157.537Z" fill="white"/>
</mask>
<g mask="url(#mask2_275_8067)">
<path d="M74.7469 157.735C75.1092 157.768 75.2933 157.971 75.2681 158.325C75.2458 158.641 75.0439 158.815 74.7276 158.804C74.3653 158.793 74.1842 158.574 74.2079 158.222C74.2302 157.903 74.4351 157.75 74.7469 157.735Z" fill="#F05625"/>
</g>
<path d="M56.6662 0.692205C56.6068 0.962441 56.4554 1.15398 56.1762 1.12726C55.9075 1.10201 55.7293 0.910472 55.762 0.631327C55.7887 0.40415 55.9565 0.233396 56.2 0.236366C56.4791 0.239336 56.6246 0.423453 56.6662 0.692205Z" fill="#F05625"/>
<path d="M38.1343 9.86936C38.0809 10.1381 37.9324 10.3311 37.6518 10.3104C37.3815 10.2896 37.2034 10.101 37.2316 9.82036C37.2538 9.59022 37.4201 9.42095 37.6622 9.41798C37.9428 9.41649 38.0883 9.60061 38.1343 9.86936Z" fill="#F05625"/>
<path d="M9.81133 37.2861C10.0816 37.35 10.2731 37.5029 10.2419 37.7821C10.2122 38.0493 10.0192 38.2275 9.74006 38.1889C9.51437 38.1592 9.34213 37.9914 9.35104 37.7464C9.35995 37.4673 9.54258 37.3233 9.81133 37.2861Z" fill="#F05625"/>
<path d="M0.157166 65.6557C0.177953 65.3825 0.32198 65.1984 0.596671 65.1746C0.843151 65.1538 1.00945 65.3216 1.05399 65.5458C1.1119 65.8309 0.927785 66.0224 0.670912 66.0655C0.393252 66.1115 0.234376 65.9185 0.157166 65.6557Z" fill="#F05625"/>
<path d="M0.908483 93.3581C0.838697 93.6239 0.682791 93.8169 0.403646 93.7783C0.140833 93.7427 -0.0388297 93.5512 0.00719966 93.2691C0.04432 93.0448 0.212104 92.8741 0.457099 92.8875C0.73476 92.9038 0.878787 93.0879 0.908483 93.3581Z" fill="#F05625"/>
<mask id="mask3_275_8067" style="mask-type:luminance" maskUnits="userSpaceOnUse" x="64" y="157" width="3" height="2">
<path d="M64.5863 157.537H66.1068V159H64.5863V157.537Z" fill="white"/>
</mask>
<g mask="url(#mask3_275_8067)">
<path d="M65.8499 158.272C65.7994 158.54 65.6539 158.734 65.3732 158.718C65.1 158.702 64.9233 158.514 64.9456 158.234C64.9634 158.002 65.1312 157.833 65.3703 157.826C65.6524 157.817 65.7979 158.004 65.8499 158.272Z" fill="#F05625"/>
</g>
</svg>
