<svg width="99" height="205" viewBox="0 0 99 205" fill="none" xmlns="http://www.w3.org/2000/svg">
<path d="M-0.843036 47.9953C0.570737 48.3795 1.26598 49.0947 0.565747 49.4473C-0.611843 50.0361 -4.12299 49.0797 -3.90843 48.2331L-3.87184 48.1533C-3.44438 47.6011 -1.80939 47.7325 -0.843036 47.9953Z" fill="#F05625"/>
<path d="M1.53882 43.3969C2.85779 43.7163 3.53141 44.3433 2.92765 44.6793C1.91805 45.2315 -1.31034 44.4315 -1.18893 43.6597L-1.16897 43.5849C-0.826335 43.0809 0.61904 43.1707 1.53882 43.3969Z" fill="#F05625"/>
<path d="M3.41653 38.8286C4.65067 39.1014 5.32429 39.6586 4.80868 39.9696C4.03028 40.447 0.786914 39.8698 0.954903 39.0332C1.2177 38.5708 2.54831 38.634 3.41653 38.8286Z" fill="#F05625"/>
<path d="M4.76726 34.3225C5.84505 34.5437 6.49705 35.0211 6.07625 35.2889C5.45086 35.6947 2.59005 35.2423 2.65325 34.5437C2.83289 34.1329 4.02045 34.1695 4.76726 34.3225Z" fill="#F05625"/>
<path d="M5.61392 29.8593C6.59691 30.0389 7.19568 30.4381 6.85471 30.6842C6.34908 31.0418 3.80429 30.6842 3.79431 30.0755C3.91074 29.7229 4.95194 29.7378 5.61392 29.8593Z" fill="#F05625"/>
<path d="M5.95478 25.4639C6.67996 25.5837 7.3436 25.9047 7.06417 26.1309C6.67497 26.4419 4.52437 26.1791 4.45618 25.6635C4.52437 25.3741 5.39259 25.3741 5.95478 25.4639Z" fill="#F05625"/>
<path d="M5.79171 21.1427C6.47032 21.2375 6.93271 21.4903 6.7431 21.6583C6.4487 21.9161 4.71891 21.7431 4.60913 21.3223C4.63075 21.0861 5.31435 21.0745 5.79171 21.1427Z" fill="#F05625"/>
<path d="M5.1348 16.8896C5.67203 16.9578 6.03961 17.1574 5.85998 17.2838C5.60883 17.4634 4.37303 17.3271 4.27323 17.0426C4.26824 16.863 4.77221 16.8431 5.1348 16.8896Z" fill="#F05625"/>
<path d="M3.97888 12.721C4.35145 12.7626 4.61425 12.889 4.50946 12.9771C4.35145 13.1085 3.48988 13.0254 3.39507 12.8308C3.37345 12.7043 3.7427 12.6944 3.97888 12.721Z" fill="#F05625"/>
<path d="M2.60152 8.74031L2.37033 8.80352L2.04932 8.70871L2.29548 8.64551L2.60152 8.74031Z" fill="#F05625"/>
<path d="M0.209136 4.67142L0.193963 4.68154L0.140015 4.66637L0.177104 4.65625L0.209136 4.67142Z" fill="#F05625"/>
<path d="M-1.97877 71.5083C0.0986447 72.5645 0.645858 74.1263 -0.869374 74.6586C-3.28277 75.4985 -8.11288 73.1483 -7.41431 71.4717L-7.20474 71.1674C-5.98391 70.1844 -3.41916 70.7732 -1.97877 71.5083Z" fill="#F05625"/>
<path d="M2.71127 66.5441C4.76207 67.5221 5.41906 68.9891 4.03689 69.5097C1.77485 70.3563 -3.22991 67.9429 -2.34173 66.4343L-2.23528 66.2913C-1.28389 65.4397 1.07129 65.7607 2.71127 66.5441Z" fill="#F05625"/>
<path d="M6.84294 61.6028C8.82056 62.486 9.56237 63.8416 8.33156 64.3472C6.30737 65.1722 1.46561 62.99 2.15919 61.5662L2.24402 61.4398C3.14218 60.54 5.47075 60.9924 6.84294 61.6028Z" fill="#F05625"/>
<path d="M10.4239 56.6717C12.3167 57.4601 13.1051 58.7109 12.0273 59.1999C10.2293 60.0049 5.57214 58.0439 6.09773 56.7033L6.16094 56.5819C6.83289 55.8201 8.89867 56.0363 10.4239 56.6717Z" fill="#F05625"/>
<path d="M13.4477 51.7865C15.2291 52.4867 16.0657 53.6161 15.1243 54.0685C13.5791 54.8203 9.17313 53.0971 9.5141 51.8713L9.56732 51.7549C10.1079 51.0513 12.0007 51.2243 13.4477 51.7865Z" fill="#F05625"/>
<path d="M15.9344 46.9307C17.601 47.5345 18.4476 48.5491 17.6476 48.9815C16.312 49.7017 12.1855 48.1865 12.39 47.0505L12.4266 46.9457C12.8524 46.3053 14.5772 46.4367 15.9344 46.9307Z" fill="#F05625"/>
<path d="M17.8838 42.0986C19.4822 42.6392 20.3404 43.544 19.6402 43.9548C18.6106 44.5636 14.4308 43.3594 14.6936 42.1568C15.0196 41.5614 16.6064 41.6612 17.8838 42.0986Z" fill="#F05625"/>
<path d="M19.2824 37.3348C20.8077 37.8238 21.6276 38.6754 20.8858 39.0014C19.8513 39.4538 16.3967 38.4126 16.5065 37.4346C16.7327 36.8991 18.1215 36.9722 19.2824 37.3348Z" fill="#F05625"/>
<path d="M20.1558 32.6198C21.538 33.0289 22.343 33.7757 21.7226 34.0701C20.8544 34.4909 17.7274 33.6127 17.7274 32.7345C17.8738 32.2622 19.1046 32.3037 20.1558 32.6198Z" fill="#F05625"/>
<path d="M20.4868 27.9832C21.691 28.3142 22.4428 28.9396 21.9588 29.1974C21.2602 29.57 18.5308 28.8548 18.4476 28.103C18.5358 27.6572 19.6934 27.762 20.4868 27.9832Z" fill="#F05625"/>
<path d="M20.3022 23.3926C21.3551 23.667 22.0537 24.1976 21.6694 24.4288C21.1172 24.7548 18.7255 24.176 18.5791 23.529C18.6107 23.1414 19.6037 23.2196 20.3022 23.3926Z" fill="#F05625"/>
<path d="M19.5819 18.8988C20.4717 19.1134 21.0755 19.5292 20.7811 19.7288C20.372 20.0082 18.3893 19.5608 18.2097 19.0302C18.1898 18.7092 18.9998 18.7607 19.5819 18.8988Z" fill="#F05625"/>
<path d="M18.3361 14.4968C19.0363 14.6498 19.5453 14.9642 19.3457 15.1222C19.0563 15.3434 17.4895 15.0174 17.2899 14.6066C17.2583 14.387 17.8055 14.3804 18.3361 14.4968Z" fill="#F05625"/>
<path d="M16.5748 10.1817C17.127 10.2915 17.5212 10.5343 17.3332 10.6441C17.0954 10.7805 16.0026 10.5493 15.8346 10.2765C15.7814 10.0969 16.2338 10.1135 16.5748 10.1817Z" fill="#F05625"/>
<path d="M14.2828 5.96404C14.6038 6.02724 14.9198 6.1786 14.8034 6.25345C14.657 6.3416 13.9618 6.20521 13.8304 6.02724C13.7888 5.92745 14.03 5.91581 14.2828 5.96404Z" fill="#F05625"/>
<path d="M11.7746 1.96242L11.57 1.99901L11.244 1.88425L11.4553 1.84766L11.7746 1.96242Z" fill="#F05625"/>
<path d="M-0.743109 88.0436C1.82829 89.9363 1.83329 92.4179 -0.731466 92.8654C-4.31247 93.4907 -9.37045 89.7002 -7.95003 87.4548C-7.86187 87.3084 -7.69388 87.1504 -7.57247 87.034C-5.59984 85.71 -2.39307 86.8244 -0.743109 88.0436Z" fill="#F05625"/>
<path d="M5.32444 82.829C7.90083 84.6153 8.10042 86.9821 5.71364 87.4395C2.18586 88.1181 -3.04011 84.2062 -1.36853 82.1454L-1.17892 81.9508C0.577487 80.6567 3.68446 81.683 5.32444 82.829Z" fill="#F05625"/>
<path d="M10.7965 77.6226C13.3313 79.2792 13.7039 81.513 11.5234 81.977C8.27834 82.659 3.09062 79.0214 4.48776 77.0504L4.65076 76.8608C6.18096 75.615 9.16818 76.5565 10.7965 77.6226Z" fill="#F05625"/>
<path d="M15.6715 72.4181C18.1464 73.9433 18.662 76.0357 16.6811 76.498C13.7471 77.1767 8.66249 73.8318 9.7985 71.9657L9.9299 71.7877C11.2489 70.5985 14.0831 71.4401 15.6715 72.4181Z" fill="#F05625"/>
<path d="M19.9762 67.2282C22.3214 68.5954 22.9734 70.578 21.2287 71.0238C18.5891 71.6924 13.6425 68.632 14.5307 66.8706L14.6405 66.7076C15.6451 65.698 18.1949 66.192 19.9762 67.2282Z" fill="#F05625"/>
<path d="M23.6836 62.0757C25.9539 63.3281 26.6957 65.1145 25.129 65.5569C22.9584 66.1607 17.8206 63.4479 18.8102 61.6499C19.72 60.6153 22.2582 61.2923 23.6836 62.0757Z" fill="#F05625"/>
<path d="M26.8488 56.9289C29.0144 58.0649 29.8394 59.7099 28.4472 60.1357C26.5228 60.7295 21.6179 58.2745 22.3647 56.5979C23.0366 55.7098 25.2138 56.0823 26.8488 56.9289Z" fill="#F05625"/>
<path d="M29.4301 51.8302C31.4593 52.8332 32.3325 54.3268 31.1333 54.7376C29.4617 55.2998 24.8612 53.1226 25.3818 51.5724C25.9074 50.7574 27.8949 51.0735 29.4301 51.8302Z" fill="#F05625"/>
<path d="M31.4376 46.7773C33.3254 47.6655 34.2352 49.0011 33.204 49.3853C31.7752 49.9109 27.5006 47.9815 27.8266 46.5877C28.2208 45.8409 30.0088 46.1103 31.4376 46.7773Z" fill="#F05625"/>
<path d="M32.8847 41.7818C34.5979 42.5502 35.5077 43.7228 34.6461 44.0688C33.4519 44.5578 29.5831 42.9012 29.7395 41.6554C30.0455 40.9152 31.7637 41.2828 32.8847 41.7818Z" fill="#F05625"/>
<path d="M33.783 36.8355C35.3348 37.4925 36.228 38.5287 35.5228 38.848C34.5298 39.2955 31.012 37.87 31.0386 36.7507C31.2332 36.0887 32.7584 36.4047 33.783 36.8355Z" fill="#F05625"/>
<path d="M34.1256 31.9356C35.5394 32.5077 36.4225 33.4225 35.8387 33.7169C35.0237 34.1377 31.817 32.8969 31.7222 31.8923C31.817 31.3617 33.0411 31.4981 34.1256 31.9356Z" fill="#F05625"/>
<path d="M33.9043 27.145C35.1235 27.6124 35.9485 28.3808 35.4978 28.6386C34.8657 28.9962 32.0897 27.9816 31.9167 27.13C31.9484 26.6244 33.0943 26.8356 33.9043 27.145Z" fill="#F05625"/>
<path d="M33.1357 22.4186C34.2618 22.8294 35.0136 23.508 34.5512 23.691C33.9507 23.9288 31.712 23.0872 31.4908 22.4252C31.4642 21.9928 32.4372 22.1624 33.1357 22.4186Z" fill="#F05625"/>
<path d="M31.8169 17.793C32.7417 18.114 33.3887 18.6446 33.0477 18.8026C32.6103 19.0072 30.7707 18.3502 30.5179 17.803C30.4663 17.4986 31.1433 17.5618 31.8169 17.793Z" fill="#F05625"/>
<path d="M29.9458 13.2515C30.681 13.4927 31.2432 13.9135 30.997 14.0399C30.681 14.1979 29.204 13.6923 28.9562 13.2781C28.873 13.0037 29.4818 13.0985 29.9458 13.2515Z" fill="#F05625"/>
<path d="M27.5323 8.81327C28.0845 8.99124 28.5303 9.30227 28.3739 9.39708C28.1677 9.5185 27.0533 9.1609 26.8221 8.83989C26.7273 8.64029 27.1897 8.70849 27.5323 8.81327Z" fill="#F05625"/>
<path d="M24.5815 4.51162C24.9391 4.62306 25.2402 4.80103 25.1504 4.86423C25.0289 4.9424 24.3304 4.72784 24.1557 4.52825C24.0875 4.41182 24.3404 4.44841 24.4817 4.48501L24.5815 4.51162Z" fill="#F05625"/>
<path d="M21.3749 0.453984L21.2019 0.470617L20.8859 0.327576L21.0539 0.307617L21.3749 0.453984Z" fill="#F05625"/>
<path d="M3.89395 101.23C6.80632 104.016 6.07615 107.485 2.55336 107.628C-2.17363 107.818 -7.08857 102.297 -4.46561 99.7476L-4.16622 99.4998C-1.54658 97.8748 2.12756 99.5314 3.89395 101.23Z" fill="#F05625"/>
<path d="M10.7666 95.8228C13.6358 98.4208 13.19 101.696 9.94499 101.875C5.59224 102.117 0.672306 96.9638 2.92104 94.5304L3.18383 94.2876C5.50242 92.7224 9.01523 94.246 10.7666 95.8228Z" fill="#F05625"/>
<path d="M17.0005 90.4239C19.8131 92.8273 19.6351 95.8927 16.6745 96.0873C12.721 96.3385 7.85259 91.5749 9.72542 89.2829L9.94497 89.0567C11.9692 87.5698 15.2924 88.9569 17.0005 90.4239Z" fill="#F05625"/>
<path d="M22.6639 84.9985C25.3966 87.2123 25.4498 90.0931 22.7587 90.3093C19.1411 90.6037 14.3359 86.1861 15.9027 84.0105L16.0923 83.7943C17.6641 82.5169 20.7228 83.4267 22.6639 84.9985Z" fill="#F05625"/>
<path d="M27.7218 79.5836C30.3714 81.6245 30.6225 84.3106 28.1892 84.5418C25.019 84.8412 19.9078 80.7779 21.6276 78.5275C23.1212 77.1769 26.0918 78.3329 27.7218 79.5836Z" fill="#F05625"/>
<path d="M32.1695 74.1887C34.6926 76.0349 35.1134 78.5165 32.9412 78.7627C30.102 79.0837 25.2087 75.3829 26.6009 73.2689C27.7219 72.1379 30.3665 72.8648 32.1695 74.1887Z" fill="#F05625"/>
<path d="M36.0382 68.7955C38.4566 70.4788 39.0188 72.7757 37.0794 73.0285C34.5396 73.3595 29.8342 69.9781 30.9386 67.9972C31.9699 66.8129 34.5446 67.7493 36.0382 68.7955Z" fill="#F05625"/>
<path d="M39.3032 63.4428C41.5752 64.958 42.2472 67.0454 40.549 67.3015C38.3202 67.6392 33.8777 64.6004 34.7026 62.7708C35.5343 61.6714 37.8944 62.5014 39.3032 63.4428Z" fill="#F05625"/>
<path d="M41.9894 58.1124C44.13 59.4746 44.9017 61.3874 43.4148 61.6402C41.512 61.9612 37.264 59.1686 37.8312 57.5402C38.42 56.6254 40.4442 57.1244 41.9894 58.1124Z" fill="#F05625"/>
<path d="M44.0769 52.8399C46.0695 54.059 46.9061 55.7722 45.617 56.01C43.9355 56.3144 40.0135 53.8694 40.3811 52.3509C40.8169 51.5192 42.6415 51.9567 44.0769 52.8399Z" fill="#F05625"/>
<path d="M45.5805 47.6241C47.4001 48.6919 48.2733 50.2154 47.1838 50.4366C45.7551 50.731 42.1641 48.5804 42.3471 47.2199C42.6847 46.3999 44.476 46.9771 45.5805 47.6241Z" fill="#F05625"/>
<path d="M46.5117 42.4507C48.1783 43.3854 49.0665 44.7476 48.1567 44.9572C46.9791 45.2316 43.6359 43.3023 43.6775 42.113C43.8671 41.4411 45.3025 41.7671 46.5117 42.4507Z" fill="#F05625"/>
<path d="M46.8577 37.3564C48.3613 38.1764 49.2196 39.3323 48.4678 39.5319C47.5097 39.7897 44.5242 38.1348 44.4443 37.0819C44.5508 36.4366 45.9496 36.8674 46.8577 37.3564Z" fill="#F05625"/>
<path d="M46.6264 32.3299C47.967 33.0285 48.8036 34.0381 48.1932 34.2177C47.4148 34.4489 44.7502 33.0285 44.5773 32.1137C44.5972 31.5415 45.8114 31.9041 46.6264 32.3299Z" fill="#F05625"/>
<path d="M45.8183 27.3991C46.9576 27.9712 47.736 28.8129 47.2686 28.9759C46.6749 29.1804 44.3879 28.0095 44.145 27.2311C44.1084 26.8003 44.9817 26.9833 45.8183 27.3991Z" fill="#F05625"/>
<path d="M44.4293 22.557C45.4073 23.0294 46.1175 23.723 45.7649 23.861C45.3125 24.034 43.3565 23.066 43.0787 22.419C42.9939 22.0198 43.8355 22.2676 44.4293 22.557Z" fill="#F05625"/>
<path d="M42.4784 17.8259C43.2734 18.1985 43.8938 18.7457 43.636 18.8505C43.305 18.9869 41.7432 18.2467 41.4538 17.7311C41.3441 17.4101 41.9844 17.5897 42.4784 17.8259Z" fill="#F05625"/>
<path d="M39.9503 13.1878C40.5707 13.4722 41.0913 13.8863 40.9233 13.9712C40.7021 14.0759 39.4446 13.4971 39.1769 13.1079C39.0671 12.8834 39.5195 13.0198 39.6076 13.0514L39.9503 13.1878Z" fill="#F05625"/>
<path d="M36.8583 8.67705C37.3157 8.88163 37.695 9.17104 37.5469 9.21262C37.3906 9.26085 36.5756 8.88662 36.3594 8.62881C36.3377 8.60386 36.2862 8.51405 36.4858 8.55064C36.6172 8.57725 36.7386 8.62881 36.8583 8.67705Z" fill="#F05625"/>
<path d="M33.1939 4.29175C33.4417 4.39654 33.7195 4.5795 33.6413 4.60611C33.5565 4.63272 33.0625 4.41151 32.9161 4.26514L32.9477 4.21191L33.1939 4.29175Z" fill="#F05625"/>
<mask id="mask0_275_7854" style="mask-type:luminance" maskUnits="userSpaceOnUse" x="28" y="0" width="2" height="1">
<path d="M28.7732 0H29.199V0.542224H28.7732V0Z" fill="white"/>
</mask>
<g mask="url(#mask0_275_7854)">
<path d="M29.0932 0.117533L29.0452 0.122499L28.9045 0.0380859L28.9724 0.0546374L29.0932 0.117533Z" fill="#F05625"/>
</g>
<path d="M5.92813 116.281C8.58436 119.52 7.11736 123.211 3.31515 122.868C-1.26881 122.459 -4.82819 116.834 -2.05719 114.399L-1.7262 114.152C1.04978 112.569 4.42454 114.447 5.92813 116.281Z" fill="#F05625"/>
<path d="M13.8152 110.645C16.518 113.757 15.3604 117.355 11.7495 117.066C7.39005 116.713 3.6843 111.297 6.15425 108.911L6.44865 108.663C8.97847 107.098 12.2751 108.884 13.8152 110.645Z" fill="#F05625"/>
<path d="M21.0023 105.015C23.7051 107.949 22.8419 111.392 19.4671 111.156C15.5551 110.876 11.3121 105.682 14.0249 103.19C16.2803 101.665 19.4671 103.337 21.0023 105.015Z" fill="#F05625"/>
<path d="M27.5475 99.3678C30.2137 102.117 29.6349 105.387 26.5179 105.198C22.8954 104.973 18.6673 100.098 21.0076 97.7112C22.9902 96.2442 26.0289 97.796 27.5475 99.3678Z" fill="#F05625"/>
<path d="M33.4568 93.7264C35.9434 96.1664 35.8336 99.1004 33.2522 99.2318C29.934 99.4048 25.2503 94.6262 27.3576 92.2128C29.0774 90.814 31.9632 92.2594 33.4568 93.7264Z" fill="#F05625"/>
<path d="M38.731 88.0914C41.1327 90.3418 41.2225 93.0912 38.894 93.2376C35.9018 93.4322 31.3494 89.0162 33.0992 86.7392C34.5712 85.4103 37.279 86.7292 38.731 88.0914Z" fill="#F05625"/>
<path d="M43.3981 82.4496C45.7284 84.542 45.9961 87.1234 43.8938 87.2864C41.186 87.4976 36.7484 83.396 38.1888 81.2354C39.4346 79.968 41.9893 81.1822 43.3981 82.4496Z" fill="#F05625"/>
<path d="M47.4101 76.8561C49.6189 78.7588 50.0281 81.119 48.1785 81.287C45.7967 81.5132 41.5853 77.7858 42.7097 75.7833C43.7309 74.6107 46.0695 75.7051 47.4101 76.8561Z" fill="#F05625"/>
<path d="M50.823 71.2813C52.9154 73.0161 53.451 75.1883 51.821 75.3613C49.7286 75.5825 45.7168 72.1861 46.57 70.3349C47.39 69.2421 49.5456 70.2351 50.823 71.2813Z" fill="#F05625"/>
<path d="M53.6189 65.7419C55.5915 67.3087 56.2268 69.2946 54.8131 69.4692C52.9835 69.6954 49.1929 66.6134 49.8017 64.9052C50.4387 63.8956 52.4213 64.7888 53.6189 65.7419Z" fill="#F05625"/>
<path d="M55.811 60.2467C57.6405 61.6505 58.3508 63.4551 57.1416 63.6281C55.5648 63.8593 52.0104 61.0833 52.4096 59.5115C52.8886 58.5867 54.6866 59.3851 55.811 60.2467Z" fill="#F05625"/>
<path d="M57.378 54.8166C59.0712 56.0674 59.828 57.6774 58.8034 57.8354C57.4778 58.04 54.2245 55.585 54.4241 54.1962C54.7551 53.3612 56.3535 54.0598 57.378 54.8166Z" fill="#F05625"/>
<path d="M58.3509 49.444C59.891 50.5468 60.6794 51.9772 59.8278 52.1302C58.7184 52.3348 55.7279 50.1592 55.7861 48.9018C55.9907 48.155 57.4095 48.7704 58.3509 49.444Z" fill="#F05625"/>
<path d="M58.7135 44.149C60.0856 45.0954 60.8591 46.3362 60.1755 46.4726C59.2773 46.6506 56.6111 44.7744 56.5312 43.675C56.6377 43.0396 57.8935 43.5802 58.7135 44.149Z" fill="#F05625"/>
<path d="M58.4824 38.9175C59.6966 39.7392 60.46 40.817 59.9128 40.9368C59.1926 41.1047 56.8158 39.4864 56.6428 38.53C56.6644 37.9662 57.7522 38.4302 58.4824 38.9175Z" fill="#F05625"/>
<path d="M57.6473 33.7802C58.7035 34.4688 59.4287 35.3885 59.0078 35.5C58.4507 35.6414 56.3749 34.2692 56.1321 33.4492C56.0855 32.9702 57.0103 33.3594 57.6473 33.7802Z" fill="#F05625"/>
<path d="M56.212 28.7501C57.0785 29.3073 57.7355 30.0441 57.4361 30.1439C57.0469 30.2703 55.3022 29.1443 55.0344 28.4873C54.9545 28.1347 55.5799 28.3509 56.212 28.7501Z" fill="#F05625"/>
<path d="M54.1878 23.8235C54.8963 24.261 55.4752 24.8548 55.2656 24.9279C54.9961 25.0277 53.5624 24.1346 53.283 23.614C53.1782 23.3296 53.6506 23.5358 53.7986 23.604C53.93 23.6722 54.0614 23.7404 54.1878 23.8235Z" fill="#F05625"/>
<path d="M51.5697 19.0117C52.1103 19.3377 52.5726 19.7751 52.4412 19.8267C52.2832 19.8899 51.2221 19.2795 50.9377 18.8604C50.9227 18.8171 50.8595 18.6974 51.1123 18.7855C51.1805 18.8071 51.3269 18.8653 51.5697 19.0117Z" fill="#F05625"/>
<path d="M48.3564 14.3241C48.6941 14.5287 49.0567 14.8131 48.9768 14.8547C48.882 14.9013 48.1785 14.4755 47.9789 14.2293L48.0105 14.1611C48.0837 14.1761 48.2151 14.2393 48.3564 14.3241Z" fill="#F05625"/>
<path d="M44.9136 10.018L44.7339 9.96972L44.3713 9.71191L44.5293 9.74352L44.9136 10.018Z" fill="#F05625"/>
<path d="M40.2541 5.3959L40.2227 5.38597L40.1449 5.33301H40.1598L40.2541 5.3959Z" fill="#F05625"/>
<path d="M5.56048 132.962C7.6379 136.144 5.72847 139.466 2.26389 138.689C-1.37865 137.874 -3.85026 132.942 -0.784868 130.797C1.74994 129.466 4.45108 131.259 5.56048 132.962Z" fill="#F05625"/>
<path d="M14.4824 127.143C16.633 130.245 14.988 133.537 11.6432 132.812C8.11044 132.055 5.49745 127.228 8.31668 125.083C10.6602 123.747 13.3364 125.482 14.4824 127.143Z" fill="#F05625"/>
<path d="M22.7271 121.297C24.7929 124.109 23.6735 127.28 20.7295 126.949C17.2749 126.554 14.0615 121.56 16.7493 119.326C18.8983 117.995 21.5379 119.678 22.7271 121.297Z" fill="#F05625"/>
<path d="M30.2717 115.43C32.3524 118.131 31.4742 121.207 28.7049 120.912C25.4499 120.571 22.1583 115.776 24.545 113.589C26.496 112.27 29.0675 113.873 30.2717 115.43Z" fill="#F05625"/>
<path d="M37.1376 109.562C39.235 112.148 38.5996 115.129 35.9966 114.872C32.9412 114.566 29.603 109.966 31.7004 107.832C33.4418 106.544 35.9284 108.068 37.1376 109.562Z" fill="#F05625"/>
<path d="M43.3051 103.707C45.3709 106.14 44.965 108.964 42.5782 108.748C39.7707 108.485 36.4541 104.153 38.2471 102.113C39.7557 100.883 42.1109 102.308 43.3051 103.707Z" fill="#F05625"/>
<path d="M48.8305 97.8431C50.838 100.12 50.6334 102.791 48.4562 102.607C45.8965 102.39 42.6148 98.3371 44.1201 96.3878C45.4291 95.2035 47.6579 96.5291 48.8305 97.8431Z" fill="#F05625"/>
<path d="M53.6939 92.0083C55.6549 94.1273 55.6382 96.6388 53.6673 96.4874C51.332 96.3078 48.1253 92.5222 49.3611 90.6776C50.4655 89.5516 52.5579 90.7774 53.6939 92.0083Z" fill="#F05625"/>
<path d="M57.91 86.1931C59.7762 88.1374 59.9226 90.4776 58.1678 90.3562C56.0804 90.2148 52.9784 86.7236 53.9664 84.9839C54.8762 83.931 56.8156 85.0521 57.91 86.1931Z" fill="#F05625"/>
<path d="M61.4744 80.4103C63.1726 82.1185 63.5501 84.1693 62.1779 84.2641C60.3849 84.3838 57.115 81.019 57.91 79.3208C58.6402 78.3379 60.4332 79.3691 61.4744 80.4103Z" fill="#F05625"/>
<path d="M64.4019 74.6643C66.0119 76.2194 66.4843 78.1022 65.2917 78.202C63.7349 78.3235 60.6329 75.2531 61.2067 73.6863C61.7739 72.7715 63.4189 73.7062 64.4019 74.6643Z" fill="#F05625"/>
<path d="M66.6839 68.9799C68.1676 70.3721 68.7131 72.0603 67.7035 72.1501C66.3895 72.2698 63.5187 69.5205 63.888 68.1067C64.3021 67.2917 65.7741 68.1283 66.6839 68.9799Z" fill="#F05625"/>
<path d="M68.3455 63.3274C69.7226 64.5832 70.3231 66.1184 69.4715 66.2082C68.3554 66.318 65.6809 63.848 65.8855 62.564C66.1749 61.8122 67.4989 62.559 68.3455 63.3274Z" fill="#F05625"/>
<path d="M69.3717 57.7605C70.6108 58.8649 71.2378 60.2105 70.5426 60.2953C69.6345 60.4051 67.2094 58.2345 67.2676 57.0985C67.4473 56.4316 68.6032 57.0886 69.3717 57.7605Z" fill="#F05625"/>
<path d="M69.7659 52.2759C70.8687 53.2223 71.4957 54.3899 70.9435 54.4698C70.2167 54.5695 68.0561 52.6867 68.0045 51.6938C68.0877 51.1199 69.0873 51.6871 69.7659 52.2759Z" fill="#F05625"/>
<path d="M69.5397 46.8638C70.5011 47.6722 71.1115 48.6668 70.6857 48.74C70.1168 48.8298 68.2407 47.2314 68.0927 46.3798C68.1043 45.8858 68.9442 46.3632 69.5397 46.8638Z" fill="#F05625"/>
<path d="M68.6931 41.5243C69.528 42.2129 70.1119 43.0645 69.7908 43.1277C69.3767 43.2076 67.7034 41.8187 67.5105 41.1152C67.4623 40.6944 68.1725 41.0985 68.6931 41.5243Z" fill="#F05625"/>
<path d="M67.2261 36.3198C67.8981 36.862 68.4037 37.519 68.1875 37.5706C67.8981 37.6454 66.5691 36.561 66.3429 35.9938C66.2797 35.736 66.6207 35.9156 66.7737 36.0038C66.9317 36.0936 67.0831 36.2034 67.2261 36.3198Z" fill="#F05625"/>
<path d="M65.1436 31.2158C65.6642 31.6249 66.09 32.1306 65.9486 32.1672C65.754 32.2137 64.7345 31.3987 64.5016 30.9679C64.4866 30.9264 64.4401 30.8049 64.6397 30.8898C64.8077 30.963 65.0488 31.1409 65.1436 31.2158Z" fill="#F05625"/>
<path d="M62.4407 26.2255C62.815 26.51 63.151 26.8676 63.0678 26.8925C62.973 26.9191 62.2362 26.3786 62.0216 26.0476L62.0632 25.9844C62.1364 26.0043 62.2844 26.0991 62.4407 26.2255Z" fill="#F05625"/>
<path d="M59.1344 21.3621C59.3772 21.5467 59.5918 21.7613 59.5335 21.7613C59.4654 21.7613 59.0246 21.4203 58.8815 21.2407L58.8666 21.2041L59.1344 21.3621Z" fill="#F05625"/>
<path d="M55.328 16.7354L55.28 16.7155L55.1592 16.6162L55.2121 16.6427L55.328 16.7354Z" fill="#F05625"/>
<path d="M3.20546 150.891C4.58264 153.52 2.85784 156.153 0.229882 155.445C-2.59933 154.676 -4.19107 150.575 -1.60969 148.908C0.466065 147.905 2.45865 149.467 3.20546 150.891Z" fill="#F05625"/>
<path d="M13.1416 144.972C14.6037 147.599 12.9953 150.302 10.3607 149.63C7.5431 148.915 5.8183 144.799 8.29989 143.064C10.3191 142.006 12.3483 143.536 13.1416 144.972Z" fill="#F05625"/>
<path d="M22.416 138.967C23.9462 141.559 22.5324 144.257 19.971 143.621C17.2316 142.943 15.3771 138.878 17.679 137.123C19.5618 136.05 21.581 137.554 22.416 138.967Z" fill="#F05625"/>
<path d="M30.9387 132.953C32.5005 135.461 31.3063 138.101 28.8879 137.505C26.2749 136.865 24.3305 132.916 26.4013 131.186C28.1161 130.135 30.0871 131.586 30.9387 132.953Z" fill="#F05625"/>
<path d="M38.7725 126.911C40.3593 129.339 39.3829 131.911 37.0793 131.343C34.6244 130.738 32.6052 126.932 34.4447 125.249C35.9965 124.203 37.9093 125.592 38.7725 126.911Z" fill="#F05625"/>
<path d="M45.918 120.85C47.4416 123.067 46.8428 125.476 44.8286 125.208C42.4834 124.897 40.0966 121.007 41.8064 119.272C43.1886 118.247 45.0448 119.578 45.918 120.85Z" fill="#F05625"/>
<path d="M52.3582 114.789C53.8768 116.908 53.456 119.222 51.6015 118.984C49.4242 118.701 47.0208 114.984 48.4928 113.307C49.7137 112.312 51.49 113.575 52.3582 114.789Z" fill="#F05625"/>
<path d="M58.1199 108.737C59.5919 110.708 59.334 112.959 57.6525 112.743C55.6599 112.485 53.2615 108.959 54.5089 107.349C55.5701 106.387 57.2583 107.58 58.1199 108.737Z" fill="#F05625"/>
<path d="M63.1877 102.702C64.6596 104.595 64.5549 106.677 63.0047 106.482C61.2001 106.256 58.8399 102.938 59.8661 101.408C60.7643 100.5 62.346 101.619 63.1877 102.702Z" fill="#F05625"/>
<path d="M67.572 96.7008C68.9609 98.4256 68.9925 100.35 67.6352 100.192C66.0319 100.009 63.7665 96.9586 64.5865 95.5282C65.3167 94.6832 66.7737 95.7078 67.572 96.7008Z" fill="#F05625"/>
<path d="M71.3011 90.7233C72.625 92.3068 72.7664 94.0881 71.5689 93.9517C70.1601 93.7887 67.9879 90.9928 68.6133 89.6672C69.1971 88.8738 70.5376 89.8035 71.3011 90.7233Z" fill="#F05625"/>
<path d="M74.3598 84.7948C75.6006 86.2352 75.8485 87.8652 74.8123 87.7488C73.5814 87.6124 71.5207 85.0526 71.9731 83.8268C72.4255 83.0966 73.6397 83.9532 74.3598 84.7948Z" fill="#F05625"/>
<path d="M76.7631 78.9171C77.8991 80.1995 78.2185 81.6615 77.3403 81.5617C76.2941 81.4453 74.3913 79.1583 74.6857 78.0606C75.0167 77.4036 76.0945 78.1653 76.7631 78.9171Z" fill="#F05625"/>
<path d="M78.498 73.1016C79.5342 74.2326 79.9018 75.52 79.1766 75.4352C78.3084 75.3354 76.5686 73.3228 76.7316 72.3498C76.9462 71.766 77.8993 72.4396 78.498 73.1016Z" fill="#F05625"/>
<path d="M79.5906 67.3461C80.4538 68.2708 80.8796 69.3536 80.3856 69.3802C79.7436 69.4118 78.0504 67.5773 78.1036 66.6941C78.235 66.1934 79.065 66.7889 79.5906 67.3461Z" fill="#F05625"/>
<path d="M80.0332 61.6618C80.8116 62.4702 81.2324 63.3916 80.8482 63.4232C80.3375 63.4648 78.834 61.8764 78.7974 61.093C78.8556 60.6522 79.5591 61.1612 80.0332 61.6618Z" fill="#F05625"/>
<path d="M79.8286 56.0605C80.4806 56.7291 80.8948 57.5175 80.612 57.5491C80.2278 57.5857 78.9454 56.2551 78.839 55.5931C78.839 55.2255 79.4178 55.6463 79.8286 56.0605Z" fill="#F05625"/>
<path d="M78.9768 50.5776C79.4907 51.0932 79.86 51.7087 79.6704 51.7353C79.4176 51.7669 78.3764 50.709 78.245 50.2101C78.2134 49.9423 78.6076 50.2466 78.6824 50.3099L78.9768 50.5776Z" fill="#F05625"/>
<path d="M77.4934 45.2062C77.8876 45.5954 78.187 46.0362 78.0622 46.0479C77.9142 46.0628 77.1408 45.3277 76.9844 44.9268C76.9778 44.8952 76.9528 44.7954 77.1092 44.8852C77.204 44.9385 77.3404 45.0582 77.4934 45.2062Z" fill="#F05625"/>
<path d="M75.3645 39.9208C75.6322 40.1786 75.8535 40.4779 75.7902 40.4896C75.7121 40.5145 75.1698 39.9889 75.0385 39.7311L75.0651 39.6846C75.1166 39.7062 75.2331 39.7894 75.3645 39.9208Z" fill="#F05625"/>
<path d="M72.8246 35.0207L72.7099 34.9575L72.462 34.6797L72.5884 34.7529L72.8246 35.0207Z" fill="#F05625"/>
<path d="M69.2333 29.7754H69.2283L69.187 29.7324L69.2085 29.749L69.2333 29.7754Z" fill="#F05625"/>
<path d="M-0.769699 169.787C0.120146 171.863 -1.46328 173.809 -3.37603 172.994C-5.22225 172.199 -5.96407 169.291 -4.12284 168.189C-2.57767 167.5 -1.23209 168.703 -0.769699 169.787Z" fill="#F05625"/>
<path d="M9.9249 163.919C10.8763 166.011 9.37269 168.025 7.4483 167.225C5.58711 166.458 4.76213 163.515 6.54847 162.357C8.06371 161.632 9.4359 162.831 9.9249 163.919Z" fill="#F05625"/>
<path d="M20.1458 157.864C21.1554 159.962 19.735 162.032 17.8106 161.271C15.9394 160.529 15.0197 157.558 16.7495 156.344C18.2164 155.577 19.6202 156.77 20.1458 157.864Z" fill="#F05625"/>
<path d="M29.7146 151.707C30.7176 153.685 29.6298 155.702 27.8368 155.193C25.8974 154.636 24.6982 151.529 26.4014 150.23C27.7736 149.452 29.1674 150.624 29.7146 151.707Z" fill="#F05625"/>
<path d="M38.5363 145.523C39.5659 147.448 38.6361 149.429 36.9329 148.946C35.0867 148.421 33.8243 145.392 35.3661 144.103C36.6169 143.336 37.9725 144.472 38.5363 145.523Z" fill="#F05625"/>
<path d="M46.6381 139.319C47.6893 141.185 46.9109 143.131 45.2975 142.674C43.5461 142.178 42.2205 139.229 43.6093 137.962C44.7403 137.195 46.0593 138.294 46.6381 139.319Z" fill="#F05625"/>
<path d="M54.0198 133.1C55.0976 134.935 54.4871 136.784 52.952 136.343C51.317 135.881 49.9597 133.047 51.1739 131.821C52.1835 131.076 53.4459 132.122 54.0198 133.1Z" fill="#F05625"/>
<path d="M60.6746 126.885C61.7158 128.578 61.2434 130.35 59.8662 129.951C58.3776 129.515 57.0271 126.844 58.0516 125.676C58.9248 124.972 60.1124 125.96 60.6746 126.885Z" fill="#F05625"/>
<path d="M66.6473 120.657C67.6153 122.185 67.3791 123.81 66.2215 123.606C64.8227 123.358 63.3191 120.735 64.2339 119.562C64.9857 118.879 66.0951 119.793 66.6473 120.657Z" fill="#F05625"/>
<path d="M71.9147 114.452C72.8462 115.866 72.7198 117.391 71.6835 117.217C70.4694 117.007 68.9658 114.52 69.7076 113.421C70.338 112.781 71.3792 113.637 71.9147 114.452Z" fill="#F05625"/>
<path d="M76.4888 108.263C77.3936 109.594 77.3719 111.029 76.4472 110.861C75.3228 110.667 73.8824 108.368 74.4962 107.312C75.0118 106.713 75.9748 107.507 76.4888 108.263Z" fill="#F05625"/>
<path d="M80.3642 102.122C81.2108 103.321 81.2691 104.625 80.474 104.484C79.5276 104.321 78.1454 102.207 78.5929 101.26C79.0087 100.703 79.8752 101.428 80.3642 102.122Z" fill="#F05625"/>
<path d="M83.551 96.0258C84.3178 97.082 84.4492 98.2446 83.7822 98.1232C82.9988 97.9801 81.7364 96.1189 82.0524 95.284C82.3568 94.785 83.1086 95.4154 83.551 96.0258Z" fill="#F05625"/>
<path d="M86.0625 89.9673C86.7578 90.8987 86.9358 91.9283 86.3836 91.8335C85.7266 91.7237 84.559 90.0621 84.7702 89.2953C84.9914 88.8529 85.6584 89.4201 86.0625 89.9673Z" fill="#F05625"/>
<path d="M87.8921 83.9837C88.5125 84.7887 88.7237 85.6719 88.2763 85.5871C87.7507 85.4873 86.7095 84.0569 86.8259 83.4049C86.9723 83.0057 87.5611 83.548 87.8921 83.9837Z" fill="#F05625"/>
<path d="M89.0547 78.06C89.5853 78.732 89.8115 79.4788 89.4705 79.4106C89.0547 79.3258 88.1565 78.1232 88.1931 77.576C88.2663 77.2866 88.7021 77.6026 89.0547 78.06Z" fill="#F05625"/>
<path d="M89.5438 72.2346C89.938 72.7352 90.1593 73.2758 89.9646 73.2808C89.7019 73.2808 88.9334 72.3144 88.9185 71.862C88.9501 71.6208 89.3027 71.9352 89.5438 72.2346Z" fill="#F05625"/>
<path d="M89.3657 66.4717C89.6801 66.8509 89.8797 67.2817 89.7433 67.2817C89.5703 67.2701 88.9649 66.5299 88.9133 66.1989C88.9133 66.0243 89.1279 66.2189 89.1961 66.2821L89.3657 66.4717Z" fill="#F05625"/>
<path d="M88.5241 60.8294C88.7187 61.0556 88.8867 61.35 88.8019 61.3401C88.6971 61.3234 88.3129 60.861 88.2563 60.6465H88.3495L88.5241 60.8294Z" fill="#F05625"/>
<path d="M87.1619 55.4895L87.0671 55.4313L86.9158 55.2051L87.0156 55.2683L87.1619 55.4895Z" fill="#F05625"/>
<path d="M5.18304 183.767C5.66538 185.076 4.67741 186.285 3.54805 185.758C2.44863 185.249 2.06442 183.402 3.20043 182.719C4.20005 182.278 4.94519 183.125 5.18304 183.767Z" fill="#F05625"/>
<path d="M16.1389 177.789C16.6744 179.15 15.7397 180.391 14.5771 179.865C13.4577 179.354 13.0219 177.473 14.1363 176.748C15.0611 176.306 15.8661 177.089 16.1389 177.789Z" fill="#F05625"/>
<path d="M26.6058 171.616C27.153 172.94 26.2649 174.229 25.1338 173.729C24.0311 173.245 23.5521 171.369 24.6199 170.622C25.5081 170.154 26.3181 170.921 26.6058 171.616Z" fill="#F05625"/>
<path d="M36.4491 165.323C37.0379 166.668 36.2428 167.936 35.1235 167.437C34.0557 166.963 33.5251 165.102 34.513 164.355C35.3447 163.882 36.1497 164.634 36.4491 165.323Z" fill="#F05625"/>
<path d="M45.5288 159.003C46.086 160.229 45.5022 161.428 44.5026 161.112C43.4198 160.771 42.7478 158.872 43.6992 158.083C44.451 157.616 45.2178 158.341 45.5288 159.003Z" fill="#F05625"/>
<path d="M53.8617 152.662C54.4238 153.824 53.9298 155.002 53.0101 154.702C52.0055 154.376 51.3069 152.542 52.1418 151.778C52.8521 151.301 53.5772 152.068 53.8617 152.662Z" fill="#F05625"/>
<path d="M61.4696 146.302C62.0218 147.405 61.6326 148.499 60.786 148.227C59.8862 147.937 59.1759 146.186 59.8862 145.471C60.5016 145.013 61.1802 145.738 61.4696 146.302Z" fill="#F05625"/>
<path d="M68.3504 139.935C68.8976 140.976 68.6032 142.006 67.8415 141.743C67.0098 141.465 66.3113 139.845 66.915 139.157C67.4157 138.758 68.056 139.373 68.3504 139.935Z" fill="#F05625"/>
<path d="M74.5229 133.563C75.0435 134.525 74.829 135.488 74.1454 135.256C73.4035 135.004 72.715 133.505 73.2189 132.858C73.6663 132.454 74.2551 133.074 74.5229 133.563Z" fill="#F05625"/>
<path d="M79.9751 127.197C80.4424 128.027 80.3377 128.905 79.7904 128.79C79.1285 128.652 78.3667 127.17 78.7975 126.535C79.1501 126.177 79.6973 126.703 79.9751 127.197Z" fill="#F05625"/>
<path d="M84.697 120.871C85.0795 121.533 85.1011 122.36 84.6221 122.255C84.0599 122.134 83.393 120.876 83.724 120.319C83.9917 120.005 84.4541 120.456 84.697 120.871Z" fill="#F05625"/>
<path d="M88.7187 114.566C89.0963 115.198 89.0963 115.865 88.7287 115.775C88.288 115.67 87.6609 114.561 87.8871 114.082C88.0933 113.804 88.4975 114.198 88.7187 114.566Z" fill="#F05625"/>
<path d="M92.0403 108.306C92.3564 108.81 92.4462 109.441 92.1152 109.353C91.7942 109.273 91.1954 108.331 91.3634 107.896C91.5098 107.654 91.8524 107.99 92.0403 108.306Z" fill="#F05625"/>
<path d="M94.6599 102.107C94.9277 102.533 94.9859 102.981 94.7647 102.927C94.5019 102.869 94.0445 102.096 94.1393 101.771C94.2341 101.582 94.5019 101.855 94.6599 102.107Z" fill="#F05625"/>
<path d="M96.5775 95.9716C96.7671 96.261 96.8619 96.6236 96.6989 96.5753C96.5209 96.5288 96.1783 95.9716 96.2199 95.7304C96.2731 95.5923 96.4627 95.7936 96.5775 95.9716Z" fill="#F05625"/>
<path d="M97.9398 90.2341L97.7551 90.1193L97.6088 89.7617L97.7934 89.8765L97.9398 90.2341Z" fill="#F05625"/>
<mask id="mask1_275_7854" style="mask-type:luminance" maskUnits="userSpaceOnUse" x="98" y="83" width="1" height="2">
<path d="M98.1777 83.5723H98.354V84.4239H98.1777V83.5723Z" fill="white"/>
</mask>
<g mask="url(#mask1_275_7854)">
<path d="M98.4066 84.0374L98.3437 84.001L98.2709 83.8438L98.3437 83.9L98.4066 84.0374Z" fill="#F05625"/>
</g>
<path d="M10.6403 198.524C10.7717 198.95 10.4606 199.329 10.1147 199.156C9.77703 198.981 9.67224 198.377 10.0298 198.161C10.3242 198.03 10.5604 198.293 10.6403 198.524Z" fill="#F05625"/>
<path d="M21.8639 192.441C22.017 192.904 21.691 193.329 21.3234 193.14C20.9924 192.972 20.8128 192.315 21.2069 192.062C21.518 191.911 21.7758 192.193 21.8639 192.441Z" fill="#F05625"/>
<path d="M32.5519 186.175C32.705 186.595 32.4422 187.07 32.053 186.88C31.6954 186.705 31.554 186.055 31.9116 185.802C32.206 185.649 32.4638 185.922 32.5519 186.175Z" fill="#F05625"/>
<path d="M42.6414 179.761C42.7994 180.187 42.5732 180.655 42.189 180.472C41.848 180.297 41.685 179.65 42.016 179.399C42.2954 179.246 42.5466 179.519 42.6414 179.761Z" fill="#F05625"/>
<path d="M51.9524 173.321C52.1204 173.747 51.9008 174.131 51.5748 173.978C51.2854 173.842 51.0858 173.246 51.3952 172.99C51.6314 172.847 51.8642 173.1 51.9524 173.321Z" fill="#F05625"/>
<path d="M60.5232 166.849C60.6546 167.168 60.5232 167.562 60.2487 167.457C59.971 167.353 59.7814 166.781 60.0225 166.559C60.2288 166.423 60.4433 166.647 60.5232 166.849Z" fill="#F05625"/>
<path d="M68.3405 160.355C68.4818 160.676 68.3671 160.98 68.1359 160.902C67.8881 160.822 67.7101 160.307 67.9197 160.092C68.0877 159.966 68.2673 160.187 68.3405 160.355Z" fill="#F05625"/>
<path d="M75.4325 154.305L75.0849 154.135L75.0699 153.609L75.4226 153.816L75.4325 154.305Z" fill="#F05625"/>
<path d="M81.778 147.699L81.5269 147.579L81.5002 147.18L81.763 147.321L81.778 147.699Z" fill="#F05625"/>
<path d="M87.4098 141.113L87.2352 141.013L87.1936 140.724L87.3782 140.838L87.4098 141.113Z" fill="#F05625"/>
<path d="M92.2728 134.487L92.2099 134.461L92.1934 134.347L92.2563 134.393L92.2728 134.487Z" fill="#F05625"/>
</svg>
