<svg width="305" height="63" viewBox="0 0 305 63" fill="none" xmlns="http://www.w3.org/2000/svg">
<mask id="mask0_289_3866" style="mask-type:luminance" maskUnits="userSpaceOnUse" x="34" y="17" width="50" height="29">
<path d="M34.9525 17.5449H83.157V45.0904H34.9525V17.5449Z" fill="white"/>
</mask>
<g mask="url(#mask0_289_3866)">
<mask id="mask1_289_3866" style="mask-type:luminance" maskUnits="userSpaceOnUse" x="-21" y="-128" width="341" height="325">
<path d="M93.8008 -127.652L319.165 14.2542L204.64 196.135L-20.7253 54.2286L93.8008 -127.652Z" fill="white"/>
</mask>
<g mask="url(#mask1_289_3866)">
<mask id="mask2_289_3866" style="mask-type:luminance" maskUnits="userSpaceOnUse" x="-21" y="-128" width="341" height="325">
<path d="M93.8008 -127.652L319.165 14.2542L204.64 196.135L-20.7253 54.2286L93.8008 -127.652Z" fill="white"/>
</mask>
<g mask="url(#mask2_289_3866)">
<path d="M48.8426 38.9235C48.8597 42.2456 45.7846 44.954 41.977 44.9784C38.1683 45.0041 35.0625 42.3276 35.0454 39.0042C35.0405 38.8355 35.0931 38.6643 35.1017 38.5041C35.1004 38.4479 35.1115 38.399 35.1102 38.3427C35.1579 38.0028 35.2191 37.6714 35.3279 37.3511C35.3597 37.2423 35.3915 37.1322 35.4453 37.0185C35.8732 35.956 36.6178 35.0377 37.5948 34.3383C37.7097 34.2442 37.8369 34.1586 37.9738 34.0595C38.0044 34.0412 38.0423 34.0094 38.0717 33.991C41.7802 31.4233 48.7766 30.0942 58.957 30.0294C65.0803 30.0001 69.3806 29.4878 72.4326 28.7835C70.4469 27.7356 69.0982 25.8514 69.0945 23.6835C69.0774 20.3614 72.1513 17.6543 75.9601 17.6286C79.7689 17.6029 82.8746 20.2807 82.8917 23.6028C82.8954 23.7716 82.844 23.9427 82.8355 24.1029C82.8367 24.1604 82.8245 24.2081 82.8257 24.2643C82.778 24.6042 82.7181 24.9356 82.6093 25.2559C82.5762 25.366 82.5445 25.4748 82.4919 25.5897C82.0627 26.6511 81.3181 27.5705 80.3423 28.2687C80.2274 28.3629 80.0905 28.4619 79.9621 28.5475C79.9327 28.5658 79.8948 28.5976 79.8643 28.616C76.157 31.1837 69.1593 32.5128 58.9802 32.5776C52.8556 32.6069 48.5565 33.1192 45.5034 33.8235C47.4903 34.8714 48.8377 36.7556 48.8426 38.9235Z" fill="white" fill-opacity="0.5"/>
</g>
</g>
</g>
<mask id="mask3_289_3866" style="mask-type:luminance" maskUnits="userSpaceOnUse" x="0" y="19" width="166" height="44">
<path d="M0.52063 19.4224H165.48V62.6186H0.52063V19.4224Z" fill="white"/>
</mask>
<g mask="url(#mask3_289_3866)">
<mask id="mask4_289_3866" style="mask-type:luminance" maskUnits="userSpaceOnUse" x="-21" y="-128" width="341" height="325">
<path d="M93.8008 -127.652L319.165 14.2542L204.64 196.135L-20.7253 54.2286L93.8008 -127.652Z" fill="white"/>
</mask>
<g mask="url(#mask4_289_3866)">
<mask id="mask5_289_3866" style="mask-type:luminance" maskUnits="userSpaceOnUse" x="-21" y="-128" width="341" height="325">
<path d="M93.8008 -127.652L319.165 14.2542L204.64 196.135L-20.7253 54.2286L93.8008 -127.652Z" fill="white"/>
</mask>
<g mask="url(#mask5_289_3866)">
<path d="M25.3945 55.8877C48.274 62.9489 64.1217 39.2208 80.2482 37.8489C96.3746 36.477 103.627 57.2498 132.788 53.0412C161.949 48.8326 165.188 19.6255 165.188 19.6255C165.188 19.6255 164.292 47.9034 140.051 56.5798C116.035 65.1926 97.3112 47.594 89.163 58.744C89.2009 58.3601 89.2376 57.9773 89.2278 57.5824C89.1997 52.0141 84.6487 47.5206 79.0805 47.5475C73.5134 47.5757 69.0187 52.1278 69.0468 57.6949C69.0554 58.1815 69.1067 58.6584 69.1667 59.1206C68.3377 58.1742 64.4482 54.7445 54.4451 59.4348C42.9748 64.8111 1.03299 67.9291 0.798224 27.0792C0.794555 27.1147 2.51614 48.8265 25.3945 55.8877Z" fill="white" fill-opacity="0.5"/>
</g>
</g>
</g>
<mask id="mask6_289_3866" style="mask-type:luminance" maskUnits="userSpaceOnUse" x="34" y="7" width="217" height="6">
<path d="M34.6393 7.84033H250.308V12.5356H34.6393V7.84033Z" fill="white"/>
</mask>
<g mask="url(#mask6_289_3866)">
<mask id="mask7_289_3866" style="mask-type:luminance" maskUnits="userSpaceOnUse" x="-21" y="-128" width="341" height="325">
<path d="M93.8007 -127.652L319.165 14.2542L204.64 196.135L-20.7255 54.2286L93.8007 -127.652Z" fill="white"/>
</mask>
<g mask="url(#mask7_289_3866)">
<mask id="mask8_289_3866" style="mask-type:luminance" maskUnits="userSpaceOnUse" x="-21" y="-128" width="341" height="325">
<path d="M93.8007 -127.652L319.165 14.2542L204.64 196.135L-20.7255 54.2286L93.8007 -127.652Z" fill="white"/>
</mask>
<g mask="url(#mask8_289_3866)">
<path d="M196.384 9.48285C178.44 9.74573 160.499 9.82643 142.547 10.0123C134.082 10.0282 125.608 10.0587 117.143 10.0746L117.163 12.3073C115.191 12.3232 113.233 12.3489 111.261 12.3648L111.24 10.0771C103.74 10.0893 96.2179 10.1077 88.7201 10.0856L61.7995 9.97071C52.8272 9.85211 43.8536 9.82521 34.8788 9.65158C43.8548 9.38258 52.8247 9.23953 61.8019 9.028L88.7116 8.60004C106.648 8.35061 124.597 8.25646 142.549 8.0706C160.491 8.04615 178.436 7.92999 196.384 7.98379L223.304 8.09873C232.285 8.20388 241.251 8.24423 250.224 8.41908C241.25 8.68686 232.28 8.82991 223.303 9.04145L196.384 9.48285Z" fill="white" fill-opacity="0.5"/>
</g>
</g>
</g>
<mask id="mask9_289_3866" style="mask-type:luminance" maskUnits="userSpaceOnUse" x="34" y="3" width="217" height="5">
<path d="M34.6393 3.45898H250.308V7.84122H34.6393V3.45898Z" fill="white"/>
</mask>
<g mask="url(#mask9_289_3866)">
<mask id="mask10_289_3866" style="mask-type:luminance" maskUnits="userSpaceOnUse" x="-21" y="-128" width="341" height="325">
<path d="M93.8007 -127.652L319.165 14.2542L204.64 196.135L-20.7255 54.2286L93.8007 -127.652Z" fill="white"/>
</mask>
<g mask="url(#mask10_289_3866)">
<mask id="mask11_289_3866" style="mask-type:luminance" maskUnits="userSpaceOnUse" x="-21" y="-128" width="341" height="325">
<path d="M93.8007 -127.652L319.165 14.2542L204.64 196.135L-20.7255 54.2286L93.8007 -127.652Z" fill="white"/>
</mask>
<g mask="url(#mask11_289_3866)">
<path d="M196.356 5.06377C178.412 5.32787 160.471 5.40857 142.519 5.5932C134.054 5.61032 125.58 5.63967 117.115 5.65556L117.12 7.6755C115.148 7.69262 113.191 7.71707 111.218 7.73419L111.212 5.65801C103.703 5.68369 96.1886 5.68858 88.6921 5.66657L61.7715 5.55163C52.7906 5.44648 43.8244 5.40735 34.8508 5.2325C43.8268 4.9635 52.7967 4.82167 61.7727 4.60891L88.6836 4.18218C106.62 3.93153 124.569 3.83738 142.52 3.65152C160.463 3.62707 178.407 3.51213 196.356 3.56593L223.276 3.68087C232.257 3.78602 241.223 3.82515 250.196 4C241.222 4.269 232.252 4.41083 223.275 4.62359L196.356 5.06377Z" fill="white" fill-opacity="0.5"/>
</g>
</g>
</g>
<mask id="mask12_289_3866" style="mask-type:luminance" maskUnits="userSpaceOnUse" x="7" y="0" width="26" height="20">
<path d="M7.09399 0.328125H32.7614V19.1091H7.09399V0.328125Z" fill="white"/>
</mask>
<g mask="url(#mask12_289_3866)">
<mask id="mask13_289_3866" style="mask-type:luminance" maskUnits="userSpaceOnUse" x="-21" y="-128" width="341" height="325">
<path d="M93.8008 -127.652L319.165 14.2542L204.64 196.135L-20.7253 54.2286L93.8008 -127.652Z" fill="white"/>
</mask>
<g mask="url(#mask13_289_3866)">
<mask id="mask14_289_3866" style="mask-type:luminance" maskUnits="userSpaceOnUse" x="-21" y="-128" width="341" height="325">
<path d="M93.8008 -127.652L319.165 14.2542L204.64 196.135L-20.7253 54.2286L93.8008 -127.652Z" fill="white"/>
</mask>
<g mask="url(#mask14_289_3866)">
<path d="M7.24194 9.82467L32.6354 0.523438L32.7344 18.8459L7.24194 9.82467Z" fill="white" fill-opacity="0.5"/>
</g>
</g>
</g>
<mask id="mask15_289_3866" style="mask-type:luminance" maskUnits="userSpaceOnUse" x="111" y="0" width="7" height="4">
<path d="M111.015 0.0161133H117.276V3.4593H111.015V0.0161133Z" fill="white"/>
</mask>
<g mask="url(#mask15_289_3866)">
<mask id="mask16_289_3866" style="mask-type:luminance" maskUnits="userSpaceOnUse" x="-21" y="-128" width="341" height="325">
<path d="M93.8008 -127.652L319.165 14.2542L204.64 196.135L-20.7253 54.2286L93.8008 -127.652Z" fill="white"/>
</mask>
<g mask="url(#mask16_289_3866)">
<mask id="mask17_289_3866" style="mask-type:luminance" maskUnits="userSpaceOnUse" x="-21" y="-128" width="341" height="325">
<path d="M93.8008 -127.652L319.165 14.2542L204.64 196.135L-20.7253 54.2286L93.8008 -127.652Z" fill="white"/>
</mask>
<g mask="url(#mask17_289_3866)">
<path d="M111.206 3.07916C111.199 1.44682 112.519 0.114058 114.152 0.105499C115.785 0.098163 117.118 1.4187 117.125 3.05103L117.127 3.25523C115.156 3.27235 113.197 3.2968 111.226 3.31392L111.206 3.07916Z" fill="white" fill-opacity="0.5"/>
</g>
</g>
</g>
<mask id="mask18_289_3866" style="mask-type:luminance" maskUnits="userSpaceOnUse" x="34" y="12" width="217" height="8">
<path d="M34.6393 12.5361H250.308V19.1095H34.6393V12.5361Z" fill="white"/>
</mask>
<g mask="url(#mask18_289_3866)">
<mask id="mask19_289_3866" style="mask-type:luminance" maskUnits="userSpaceOnUse" x="-21" y="-128" width="341" height="325">
<path d="M93.8007 -127.652L319.165 14.2542L204.64 196.135L-20.7255 54.2286L93.8007 -127.652Z" fill="white"/>
</mask>
<g mask="url(#mask19_289_3866)">
<mask id="mask20_289_3866" style="mask-type:luminance" maskUnits="userSpaceOnUse" x="-21" y="-128" width="341" height="325">
<path d="M93.8007 -127.652L319.165 14.2542L204.64 196.135L-20.7255 54.2286L93.8007 -127.652Z" fill="white"/>
</mask>
<g mask="url(#mask20_289_3866)">
<path d="M196.405 14.1208C178.461 14.3849 160.52 14.4656 142.568 14.6502C134.103 14.6673 125.629 14.6967 117.164 14.7138L117.172 15.994C117.179 17.6275 115.86 18.9603 114.226 18.9689C112.594 18.9762 111.26 17.6557 111.252 16.0221L111.24 14.7199C103.739 14.7334 96.2167 14.7505 88.719 14.7285L61.7995 14.6135C52.8272 14.4962 43.8525 14.4693 34.8789 14.2944C43.8537 14.0254 52.8236 13.8836 61.8008 13.6708L88.7104 13.2441C106.648 12.9934 124.597 12.8993 142.548 12.7146C160.49 12.6902 178.435 12.574 196.383 12.6278L223.304 12.7428C232.285 12.8479 241.251 12.8871 250.224 13.0619C241.248 13.3309 232.279 13.4727 223.303 13.6855L196.405 14.1208Z" fill="white" fill-opacity="0.5"/>
</g>
</g>
</g>
<mask id="mask21_289_3866" style="mask-type:luminance" maskUnits="userSpaceOnUse" x="187" y="1" width="118" height="45">
<path d="M187.705 1.89355H304.147V45.4029H187.705V1.89355Z" fill="white"/>
</mask>
<g mask="url(#mask21_289_3866)">
<mask id="mask22_289_3866" style="mask-type:luminance" maskUnits="userSpaceOnUse" x="-21" y="-128" width="341" height="325">
<path d="M93.8008 -127.652L319.165 14.2542L204.64 196.135L-20.7253 54.2286L93.8008 -127.652Z" fill="white"/>
</mask>
<g mask="url(#mask22_289_3866)">
<mask id="mask23_289_3866" style="mask-type:luminance" maskUnits="userSpaceOnUse" x="-21" y="-128" width="341" height="325">
<path d="M93.8008 -127.652L319.165 14.2542L204.64 196.135L-20.7253 54.2286L93.8008 -127.652Z" fill="white"/>
</mask>
<g mask="url(#mask23_289_3866)">
<path d="M271.378 4.88325C277.74 -0.989479 299.253 1.7164 302.972 17.8771C306.69 34.0378 297.889 41.022 290.008 40.3153C282.129 39.6085 278.241 31.4432 280.235 26.6318C282.229 21.8192 288.934 20.3971 291.926 23.3732C294.926 26.3359 292.072 29.6629 291.414 26.5658C290.76 23.4906 283.847 24.6864 285.049 29.4771C286.251 34.2664 294.296 35.5038 297.929 29.411C301.563 23.317 293.208 14.5782 284.427 14.9511C280.041 15.1309 276.491 17.9456 274.057 20.7248C272.226 22.8096 269.926 24.3759 267.379 25.3064L267.431 35.274C267.428 35.7166 267.794 36.0773 268.238 36.0785C268.702 36.0749 269.08 36.4429 269.07 36.899C269.074 37.3636 268.706 37.7426 268.25 37.7329L268.207 37.7426C267.785 37.7365 267.455 38.0838 267.449 38.5056C267.443 38.9262 267.79 39.2564 268.212 39.2625L268.529 39.2588C269.423 39.249 270.142 39.9594 270.151 40.8545L270.154 41.6138C270.164 43.5078 268.64 45.046 266.747 45.0557C264.853 45.0667 263.315 43.5432 263.305 41.6492L263.303 40.8887C263.305 40.0035 264.017 39.2857 264.897 39.2662L265.215 39.2625C265.636 39.2686 265.966 38.9213 265.972 38.4995C265.978 38.0789 265.631 37.7488 265.21 37.7426L265.166 37.7524C264.702 37.7561 264.323 37.3881 264.332 36.932C264.33 36.4661 264.711 36.0969 265.154 36.0981C265.597 36.0993 265.956 35.7337 265.959 35.2911L265.906 25.7661C264.693 26.0767 263.43 26.2613 262.149 26.2686L256.502 26.3029L256.561 35.3486C256.558 35.7924 256.924 36.1519 257.368 36.1531C257.832 36.1494 258.211 36.5175 258.2 36.9736C258.191 37.4296 257.836 37.8172 257.38 37.8074L257.337 37.8172C256.915 37.8111 256.585 38.1584 256.579 38.5802C256.573 39.0008 256.92 39.331 257.342 39.3371L257.659 39.3334C258.554 39.3236 259.272 40.034 259.281 40.9291L259.284 41.6884C259.294 43.5824 257.77 45.1205 255.877 45.1303C253.983 45.1413 252.445 43.6178 252.435 41.7238L252.433 40.9633C252.435 40.078 253.147 39.3603 254.027 39.3407L254.345 39.3371C254.766 39.3432 255.096 38.9959 255.102 38.5753C255.108 38.1535 254.761 37.8233 254.34 37.8172L254.296 37.827C253.832 37.8307 253.454 37.4626 253.464 37.0066C253.46 36.5419 253.841 36.1714 254.284 36.1727C254.727 36.1739 255.086 35.8083 255.089 35.3657L255.031 26.3188L247.4 26.3616L247.367 19.7735L187.934 17.7597L247.354 17.4149C264.106 17.8991 265.015 10.7572 271.378 4.88325Z" fill="white" fill-opacity="0.5"/>
</g>
</g>
</g>
</svg>
