<svg width="374" height="828" viewBox="0 0 374 828" fill="none" xmlns="http://www.w3.org/2000/svg">
<rect x="0.5" y="0.5" width="373" height="827" stroke="white"/>
<rect x="44.5" y="44.5" width="285" height="739" stroke="#D9D9D9" stroke-width="3"/>
<rect x="50.5" y="50.5" width="273" height="727" stroke="#D9D9D9"/>
<rect x="16.6567" y="11.9995" width="8" height="8" transform="rotate(45 16.6567 11.9995)" fill="#D9D9D9"/>
<rect x="27.9705" y="11.9995" width="8" height="8" transform="rotate(45 27.9705 11.9995)" fill="#D9D9D9"/>
<rect x="16.6567" y="23.3132" width="8" height="8" transform="rotate(45 16.6567 23.3132)" fill="#D9D9D9"/>
<rect x="27.9705" y="23.3132" width="8" height="8" transform="rotate(45 27.9705 23.3132)" fill="#D9D9D9"/>
<rect x="16.6567" y="34.627" width="8" height="8" transform="rotate(45 16.6567 34.627)" fill="#D9D9D9"/>
<rect x="27.9705" y="34.627" width="8" height="8" transform="rotate(45 27.9705 34.627)" fill="#D9D9D9"/>
<rect x="16.6567" y="45.9407" width="8" height="8" transform="rotate(45 16.6567 45.9407)" fill="#D9D9D9"/>
<rect x="27.9705" y="45.9407" width="8" height="8" transform="rotate(45 27.9705 45.9407)" fill="#D9D9D9"/>
<rect x="16.6567" y="57.2544" width="8" height="8" transform="rotate(45 16.6567 57.2544)" fill="#D9D9D9"/>
<rect x="27.9705" y="57.2544" width="8" height="8" transform="rotate(45 27.9705 57.2544)" fill="#D9D9D9"/>
<rect x="16.6567" y="68.5681" width="8" height="8" transform="rotate(45 16.6567 68.5681)" fill="#D9D9D9"/>
<rect x="27.9705" y="68.5681" width="8" height="8" transform="rotate(45 27.9705 68.5681)" fill="#D9D9D9"/>
<rect x="16.6567" y="79.8818" width="8" height="8" transform="rotate(45 16.6567 79.8818)" fill="#D9D9D9"/>
<rect x="27.9705" y="79.8818" width="8" height="8" transform="rotate(45 27.9705 79.8818)" fill="#D9D9D9"/>
<rect x="16.6567" y="91.1953" width="8" height="8" transform="rotate(45 16.6567 91.1953)" fill="#D9D9D9"/>
<rect x="27.9705" y="91.1953" width="8" height="8" transform="rotate(45 27.9705 91.1953)" fill="#D9D9D9"/>
<rect x="16.6567" y="102.509" width="8" height="8" transform="rotate(45 16.6567 102.509)" fill="#D9D9D9"/>
<rect x="27.9705" y="102.509" width="8" height="8" transform="rotate(45 27.9705 102.509)" fill="#D9D9D9"/>
<rect x="16.6567" y="113.823" width="8" height="8" transform="rotate(45 16.6567 113.823)" fill="#D9D9D9"/>
<rect x="27.9705" y="113.823" width="8" height="8" transform="rotate(45 27.9705 113.823)" fill="#D9D9D9"/>
<rect x="16.6567" y="125.137" width="8" height="8" transform="rotate(45 16.6567 125.137)" fill="#D9D9D9"/>
<rect x="27.9705" y="125.137" width="8" height="8" transform="rotate(45 27.9705 125.137)" fill="#D9D9D9"/>
<rect x="16.6567" y="136.45" width="8" height="8" transform="rotate(45 16.6567 136.45)" fill="#D9D9D9"/>
<rect x="27.9705" y="136.45" width="8" height="8" transform="rotate(45 27.9705 136.45)" fill="#D9D9D9"/>
<rect x="16.6567" y="147.764" width="8" height="8" transform="rotate(45 16.6567 147.764)" fill="#D9D9D9"/>
<rect x="27.9705" y="147.764" width="8" height="8" transform="rotate(45 27.9705 147.764)" fill="#D9D9D9"/>
<rect x="16.6567" y="159.078" width="8" height="8" transform="rotate(45 16.6567 159.078)" fill="#D9D9D9"/>
<rect x="27.9705" y="159.078" width="8" height="8" transform="rotate(45 27.9705 159.078)" fill="#D9D9D9"/>
<rect x="16.6567" y="170.392" width="8" height="8" transform="rotate(45 16.6567 170.392)" fill="#D9D9D9"/>
<rect x="27.9705" y="170.392" width="8" height="8" transform="rotate(45 27.9705 170.392)" fill="#D9D9D9"/>
<rect x="16.6567" y="181.705" width="8" height="8" transform="rotate(45 16.6567 181.705)" fill="#D9D9D9"/>
<rect x="27.9705" y="181.705" width="8" height="8" transform="rotate(45 27.9705 181.705)" fill="#D9D9D9"/>
<rect x="16.6567" y="193.019" width="8" height="8" transform="rotate(45 16.6567 193.019)" fill="#D9D9D9"/>
<rect x="27.9705" y="193.019" width="8" height="8" transform="rotate(45 27.9705 193.019)" fill="#D9D9D9"/>
<rect x="16.6567" y="204.333" width="8" height="8" transform="rotate(45 16.6567 204.333)" fill="#D9D9D9"/>
<rect x="27.9705" y="204.333" width="8" height="8" transform="rotate(45 27.9705 204.333)" fill="#D9D9D9"/>
<rect x="16.6567" y="215.646" width="8" height="8" transform="rotate(45 16.6567 215.646)" fill="#D9D9D9"/>
<rect x="27.9705" y="215.646" width="8" height="8" transform="rotate(45 27.9705 215.646)" fill="#D9D9D9"/>
<rect x="16.6567" y="226.96" width="8" height="8" transform="rotate(45 16.6567 226.96)" fill="#D9D9D9"/>
<rect x="27.9705" y="226.96" width="8" height="8" transform="rotate(45 27.9705 226.96)" fill="#D9D9D9"/>
<rect x="16.6567" y="238.273" width="8" height="8" transform="rotate(45 16.6567 238.273)" fill="#D9D9D9"/>
<rect x="27.9705" y="238.273" width="8" height="8" transform="rotate(45 27.9705 238.273)" fill="#D9D9D9"/>
<rect x="16.6567" y="249.587" width="8" height="8" transform="rotate(45 16.6567 249.587)" fill="#D9D9D9"/>
<rect x="27.9705" y="249.587" width="8" height="8" transform="rotate(45 27.9705 249.587)" fill="#D9D9D9"/>
<rect x="16.6567" y="260.901" width="8" height="8" transform="rotate(45 16.6567 260.901)" fill="#D9D9D9"/>
<rect x="27.9705" y="260.901" width="8" height="8" transform="rotate(45 27.9705 260.901)" fill="#D9D9D9"/>
<rect x="16.6567" y="272.215" width="8" height="8" transform="rotate(45 16.6567 272.215)" fill="#D9D9D9"/>
<rect x="27.9705" y="272.215" width="8" height="8" transform="rotate(45 27.9705 272.215)" fill="#D9D9D9"/>
<rect x="16.6567" y="283.528" width="8" height="8" transform="rotate(45 16.6567 283.528)" fill="#D9D9D9"/>
<rect x="27.9705" y="283.528" width="8" height="8" transform="rotate(45 27.9705 283.528)" fill="#D9D9D9"/>
<rect x="16.6567" y="294.842" width="8" height="8" transform="rotate(45 16.6567 294.842)" fill="#D9D9D9"/>
<rect x="27.9705" y="294.842" width="8" height="8" transform="rotate(45 27.9705 294.842)" fill="#D9D9D9"/>
<rect x="16.6567" y="306.156" width="8" height="8" transform="rotate(45 16.6567 306.156)" fill="#D9D9D9"/>
<rect x="27.9705" y="306.156" width="8" height="8" transform="rotate(45 27.9705 306.156)" fill="#D9D9D9"/>
<rect x="16.6567" y="317.47" width="8" height="8" transform="rotate(45 16.6567 317.47)" fill="#D9D9D9"/>
<rect x="27.9705" y="317.47" width="8" height="8" transform="rotate(45 27.9705 317.47)" fill="#D9D9D9"/>
<rect x="16.6567" y="328.783" width="8" height="8" transform="rotate(45 16.6567 328.783)" fill="#D9D9D9"/>
<rect x="27.9705" y="328.783" width="8" height="8" transform="rotate(45 27.9705 328.783)" fill="#D9D9D9"/>
<rect x="16.6567" y="340.097" width="8" height="8" transform="rotate(45 16.6567 340.097)" fill="#D9D9D9"/>
<rect x="27.9705" y="340.097" width="8" height="8" transform="rotate(45 27.9705 340.097)" fill="#D9D9D9"/>
<rect x="16.6567" y="351.411" width="8" height="8" transform="rotate(45 16.6567 351.411)" fill="#D9D9D9"/>
<rect x="27.9705" y="351.411" width="8" height="8" transform="rotate(45 27.9705 351.411)" fill="#D9D9D9"/>
<rect x="16.6567" y="362.725" width="8" height="8" transform="rotate(45 16.6567 362.725)" fill="#D9D9D9"/>
<rect x="27.9705" y="362.725" width="8" height="8" transform="rotate(45 27.9705 362.725)" fill="#D9D9D9"/>
<rect x="16.6567" y="374.038" width="8" height="8" transform="rotate(45 16.6567 374.038)" fill="#D9D9D9"/>
<rect x="27.9705" y="374.038" width="8" height="8" transform="rotate(45 27.9705 374.038)" fill="#D9D9D9"/>
<rect x="16.6567" y="385.352" width="8" height="8" transform="rotate(45 16.6567 385.352)" fill="#D9D9D9"/>
<rect x="27.9705" y="385.352" width="8" height="8" transform="rotate(45 27.9705 385.352)" fill="#D9D9D9"/>
<rect x="16.6567" y="396.666" width="8" height="8" transform="rotate(45 16.6567 396.666)" fill="#D9D9D9"/>
<rect x="27.9705" y="396.666" width="8" height="8" transform="rotate(45 27.9705 396.666)" fill="#D9D9D9"/>
<rect x="16.6567" y="407.979" width="8" height="8" transform="rotate(45 16.6567 407.979)" fill="#D9D9D9"/>
<rect x="27.9705" y="407.979" width="8" height="8" transform="rotate(45 27.9705 407.979)" fill="#D9D9D9"/>
<rect x="16.6567" y="419.293" width="8" height="8" transform="rotate(45 16.6567 419.293)" fill="#D9D9D9"/>
<rect x="27.9705" y="419.293" width="8" height="8" transform="rotate(45 27.9705 419.293)" fill="#D9D9D9"/>
<rect x="16.6567" y="430.607" width="8" height="8" transform="rotate(45 16.6567 430.607)" fill="#D9D9D9"/>
<rect x="27.9705" y="430.607" width="8" height="8" transform="rotate(45 27.9705 430.607)" fill="#D9D9D9"/>
<rect x="16.6567" y="441.92" width="8" height="8" transform="rotate(45 16.6567 441.92)" fill="#D9D9D9"/>
<rect x="27.9705" y="441.92" width="8" height="8" transform="rotate(45 27.9705 441.92)" fill="#D9D9D9"/>
<rect x="16.6567" y="453.234" width="8" height="8" transform="rotate(45 16.6567 453.234)" fill="#D9D9D9"/>
<rect x="27.9705" y="453.234" width="8" height="8" transform="rotate(45 27.9705 453.234)" fill="#D9D9D9"/>
<rect x="16.6567" y="464.548" width="8" height="8" transform="rotate(45 16.6567 464.548)" fill="#D9D9D9"/>
<rect x="27.9705" y="464.548" width="8" height="8" transform="rotate(45 27.9705 464.548)" fill="#D9D9D9"/>
<rect x="16.6567" y="475.862" width="8" height="8" transform="rotate(45 16.6567 475.862)" fill="#D9D9D9"/>
<rect x="27.9705" y="475.862" width="8" height="8" transform="rotate(45 27.9705 475.862)" fill="#D9D9D9"/>
<rect x="16.6567" y="487.175" width="8" height="8" transform="rotate(45 16.6567 487.175)" fill="#D9D9D9"/>
<rect x="27.9705" y="487.175" width="8" height="8" transform="rotate(45 27.9705 487.175)" fill="#D9D9D9"/>
<rect x="16.6567" y="498.489" width="8" height="8" transform="rotate(45 16.6567 498.489)" fill="#D9D9D9"/>
<rect x="27.9705" y="498.489" width="8" height="8" transform="rotate(45 27.9705 498.489)" fill="#D9D9D9"/>
<rect x="16.6567" y="509.803" width="8" height="8" transform="rotate(45 16.6567 509.803)" fill="#D9D9D9"/>
<rect x="27.9705" y="509.803" width="8" height="8" transform="rotate(45 27.9705 509.803)" fill="#D9D9D9"/>
<rect x="16.6567" y="521.117" width="8" height="8" transform="rotate(45 16.6567 521.117)" fill="#D9D9D9"/>
<rect x="27.9705" y="521.117" width="8" height="8" transform="rotate(45 27.9705 521.117)" fill="#D9D9D9"/>
<rect x="16.6567" y="532.43" width="8" height="8" transform="rotate(45 16.6567 532.43)" fill="#D9D9D9"/>
<rect x="27.9705" y="532.43" width="8" height="8" transform="rotate(45 27.9705 532.43)" fill="#D9D9D9"/>
<rect x="16.6567" y="543.744" width="8" height="8" transform="rotate(45 16.6567 543.744)" fill="#D9D9D9"/>
<rect x="27.9705" y="543.744" width="8" height="8" transform="rotate(45 27.9705 543.744)" fill="#D9D9D9"/>
<rect x="16.6567" y="555.058" width="8" height="8" transform="rotate(45 16.6567 555.058)" fill="#D9D9D9"/>
<rect x="27.9705" y="555.058" width="8" height="8" transform="rotate(45 27.9705 555.058)" fill="#D9D9D9"/>
<rect x="16.6567" y="566.372" width="8" height="8" transform="rotate(45 16.6567 566.372)" fill="#D9D9D9"/>
<rect x="27.9705" y="566.372" width="8" height="8" transform="rotate(45 27.9705 566.372)" fill="#D9D9D9"/>
<rect x="16.6567" y="577.685" width="8" height="8" transform="rotate(45 16.6567 577.685)" fill="#D9D9D9"/>
<rect x="27.9705" y="577.685" width="8" height="8" transform="rotate(45 27.9705 577.685)" fill="#D9D9D9"/>
<rect x="16.6567" y="588.999" width="8" height="8" transform="rotate(45 16.6567 588.999)" fill="#D9D9D9"/>
<rect x="27.9705" y="588.999" width="8" height="8" transform="rotate(45 27.9705 588.999)" fill="#D9D9D9"/>
<rect x="16.6567" y="600.312" width="8" height="8" transform="rotate(45 16.6567 600.312)" fill="#D9D9D9"/>
<rect x="27.9705" y="600.312" width="8" height="8" transform="rotate(45 27.9705 600.312)" fill="#D9D9D9"/>
<rect x="16.6567" y="611.626" width="8" height="8" transform="rotate(45 16.6567 611.626)" fill="#D9D9D9"/>
<rect x="27.9705" y="611.626" width="8" height="8" transform="rotate(45 27.9705 611.626)" fill="#D9D9D9"/>
<rect x="16.6567" y="622.94" width="8" height="8" transform="rotate(45 16.6567 622.94)" fill="#D9D9D9"/>
<rect x="27.9705" y="622.94" width="8" height="8" transform="rotate(45 27.9705 622.94)" fill="#D9D9D9"/>
<rect x="16.6567" y="634.254" width="8" height="8" transform="rotate(45 16.6567 634.254)" fill="#D9D9D9"/>
<rect x="27.9705" y="634.254" width="8" height="8" transform="rotate(45 27.9705 634.254)" fill="#D9D9D9"/>
<rect x="16.6567" y="645.567" width="8" height="8" transform="rotate(45 16.6567 645.567)" fill="#D9D9D9"/>
<rect x="27.9705" y="645.567" width="8" height="8" transform="rotate(45 27.9705 645.567)" fill="#D9D9D9"/>
<rect x="16.6567" y="656.881" width="8" height="8" transform="rotate(45 16.6567 656.881)" fill="#D9D9D9"/>
<rect x="27.9705" y="656.881" width="8" height="8" transform="rotate(45 27.9705 656.881)" fill="#D9D9D9"/>
<rect x="16.6567" y="668.195" width="8" height="8" transform="rotate(45 16.6567 668.195)" fill="#D9D9D9"/>
<rect x="27.9705" y="668.195" width="8" height="8" transform="rotate(45 27.9705 668.195)" fill="#D9D9D9"/>
<rect x="16.6567" y="679.509" width="8" height="8" transform="rotate(45 16.6567 679.509)" fill="#D9D9D9"/>
<rect x="27.9705" y="679.509" width="8" height="8" transform="rotate(45 27.9705 679.509)" fill="#D9D9D9"/>
<rect x="16.6567" y="690.822" width="8" height="8" transform="rotate(45 16.6567 690.822)" fill="#D9D9D9"/>
<rect x="27.9705" y="690.822" width="8" height="8" transform="rotate(45 27.9705 690.822)" fill="#D9D9D9"/>
<rect x="16.6567" y="702.136" width="8" height="8" transform="rotate(45 16.6567 702.136)" fill="#D9D9D9"/>
<rect x="27.9705" y="702.136" width="8" height="8" transform="rotate(45 27.9705 702.136)" fill="#D9D9D9"/>
<rect x="16.6567" y="713.45" width="8" height="8" transform="rotate(45 16.6567 713.45)" fill="#D9D9D9"/>
<rect x="27.9705" y="713.45" width="8" height="8" transform="rotate(45 27.9705 713.45)" fill="#D9D9D9"/>
<rect x="16.6567" y="724.764" width="8" height="8" transform="rotate(45 16.6567 724.764)" fill="#D9D9D9"/>
<rect x="27.9705" y="724.764" width="8" height="8" transform="rotate(45 27.9705 724.764)" fill="#D9D9D9"/>
<rect x="16.6567" y="736.077" width="8" height="8" transform="rotate(45 16.6567 736.077)" fill="#D9D9D9"/>
<rect x="27.9705" y="736.077" width="8" height="8" transform="rotate(45 27.9705 736.077)" fill="#D9D9D9"/>
<rect x="16.6567" y="747.391" width="8" height="8" transform="rotate(45 16.6567 747.391)" fill="#D9D9D9"/>
<rect x="27.9705" y="747.391" width="8" height="8" transform="rotate(45 27.9705 747.391)" fill="#D9D9D9"/>
<rect x="16.6567" y="758.705" width="8" height="8" transform="rotate(45 16.6567 758.705)" fill="#D9D9D9"/>
<rect x="27.9705" y="758.705" width="8" height="8" transform="rotate(45 27.9705 758.705)" fill="#D9D9D9"/>
<rect x="16.6567" y="770.019" width="8" height="8" transform="rotate(45 16.6567 770.019)" fill="#D9D9D9"/>
<rect x="27.9705" y="770.019" width="8" height="8" transform="rotate(45 27.9705 770.019)" fill="#D9D9D9"/>
<rect x="16.6567" y="781.332" width="8" height="8" transform="rotate(45 16.6567 781.332)" fill="#D9D9D9"/>
<rect x="27.9705" y="781.332" width="8" height="8" transform="rotate(45 27.9705 781.332)" fill="#D9D9D9"/>
<rect x="39.2842" y="12.1858" width="8" height="8" transform="rotate(45 39.2842 12.1858)" fill="#D9D9D9"/>
<rect x="39.2842" y="23.4995" width="8" height="8" transform="rotate(45 39.2842 23.4995)" fill="#D9D9D9"/>
<rect x="50.5979" y="12.1858" width="8" height="8" transform="rotate(45 50.5979 12.1858)" fill="#D9D9D9"/>
<rect x="50.5979" y="23.4995" width="8" height="8" transform="rotate(45 50.5979 23.4995)" fill="#D9D9D9"/>
<rect x="61.9116" y="12.1858" width="8" height="8" transform="rotate(45 61.9116 12.1858)" fill="#D9D9D9"/>
<rect x="61.9116" y="23.4995" width="8" height="8" transform="rotate(45 61.9116 23.4995)" fill="#D9D9D9"/>
<rect x="73.2253" y="12.1858" width="8" height="8" transform="rotate(45 73.2253 12.1858)" fill="#D9D9D9"/>
<rect x="73.2253" y="23.4995" width="8" height="8" transform="rotate(45 73.2253 23.4995)" fill="#D9D9D9"/>
<rect x="84.5391" y="12.1858" width="8" height="8" transform="rotate(45 84.5391 12.1858)" fill="#D9D9D9"/>
<rect x="84.5391" y="23.4995" width="8" height="8" transform="rotate(45 84.5391 23.4995)" fill="#D9D9D9"/>
<rect x="95.8528" y="12.1858" width="8" height="8" transform="rotate(45 95.8528 12.1858)" fill="#D9D9D9"/>
<rect x="95.8528" y="23.4995" width="8" height="8" transform="rotate(45 95.8528 23.4995)" fill="#D9D9D9"/>
<rect x="107.167" y="12.1858" width="8" height="8" transform="rotate(45 107.167 12.1858)" fill="#D9D9D9"/>
<rect x="107.167" y="23.4995" width="8" height="8" transform="rotate(45 107.167 23.4995)" fill="#D9D9D9"/>
<rect x="118.48" y="12.1858" width="8" height="8" transform="rotate(45 118.48 12.1858)" fill="#D9D9D9"/>
<rect x="118.48" y="23.4995" width="8" height="8" transform="rotate(45 118.48 23.4995)" fill="#D9D9D9"/>
<rect x="129.794" y="12.1858" width="8" height="8" transform="rotate(45 129.794 12.1858)" fill="#D9D9D9"/>
<rect x="129.794" y="23.4995" width="8" height="8" transform="rotate(45 129.794 23.4995)" fill="#D9D9D9"/>
<rect x="141.107" y="12.1858" width="8" height="8" transform="rotate(45 141.107 12.1858)" fill="#D9D9D9"/>
<rect x="141.107" y="23.4995" width="8" height="8" transform="rotate(45 141.107 23.4995)" fill="#D9D9D9"/>
<rect x="152.421" y="12.1858" width="8" height="8" transform="rotate(45 152.421 12.1858)" fill="#D9D9D9"/>
<rect x="152.421" y="23.4995" width="8" height="8" transform="rotate(45 152.421 23.4995)" fill="#D9D9D9"/>
<rect x="163.735" y="12.1858" width="8" height="8" transform="rotate(45 163.735 12.1858)" fill="#D9D9D9"/>
<rect x="163.735" y="23.4995" width="8" height="8" transform="rotate(45 163.735 23.4995)" fill="#D9D9D9"/>
<rect x="175.049" y="12.1858" width="8" height="8" transform="rotate(45 175.049 12.1858)" fill="#D9D9D9"/>
<rect x="175.049" y="23.4995" width="8" height="8" transform="rotate(45 175.049 23.4995)" fill="#D9D9D9"/>
<rect x="186.362" y="12.1858" width="8" height="8" transform="rotate(45 186.362 12.1858)" fill="#D9D9D9"/>
<rect x="186.362" y="23.4995" width="8" height="8" transform="rotate(45 186.362 23.4995)" fill="#D9D9D9"/>
<rect x="197.676" y="12.1858" width="8" height="8" transform="rotate(45 197.676 12.1858)" fill="#D9D9D9"/>
<rect x="197.676" y="23.4995" width="8" height="8" transform="rotate(45 197.676 23.4995)" fill="#D9D9D9"/>
<rect x="208.99" y="12.1858" width="8" height="8" transform="rotate(45 208.99 12.1858)" fill="#D9D9D9"/>
<rect x="208.99" y="23.4995" width="8" height="8" transform="rotate(45 208.99 23.4995)" fill="#D9D9D9"/>
<rect x="220.303" y="12.1858" width="8" height="8" transform="rotate(45 220.303 12.1858)" fill="#D9D9D9"/>
<rect x="220.303" y="23.4995" width="8" height="8" transform="rotate(45 220.303 23.4995)" fill="#D9D9D9"/>
<rect x="231.617" y="12.1858" width="8" height="8" transform="rotate(45 231.617 12.1858)" fill="#D9D9D9"/>
<rect x="231.617" y="23.4995" width="8" height="8" transform="rotate(45 231.617 23.4995)" fill="#D9D9D9"/>
<rect x="242.931" y="12.1858" width="8" height="8" transform="rotate(45 242.931 12.1858)" fill="#D9D9D9"/>
<rect x="242.931" y="23.4995" width="8" height="8" transform="rotate(45 242.931 23.4995)" fill="#D9D9D9"/>
<rect x="254.245" y="12.1858" width="8" height="8" transform="rotate(45 254.245 12.1858)" fill="#D9D9D9"/>
<rect x="254.245" y="23.4995" width="8" height="8" transform="rotate(45 254.245 23.4995)" fill="#D9D9D9"/>
<rect x="265.558" y="12.1858" width="8" height="8" transform="rotate(45 265.558 12.1858)" fill="#D9D9D9"/>
<rect x="265.558" y="23.4995" width="8" height="8" transform="rotate(45 265.558 23.4995)" fill="#D9D9D9"/>
<rect x="276.872" y="12.1858" width="8" height="8" transform="rotate(45 276.872 12.1858)" fill="#D9D9D9"/>
<rect x="276.872" y="23.4995" width="8" height="8" transform="rotate(45 276.872 23.4995)" fill="#D9D9D9"/>
<rect x="288.186" y="12.1858" width="8" height="8" transform="rotate(45 288.186 12.1858)" fill="#D9D9D9"/>
<rect x="288.186" y="23.4995" width="8" height="8" transform="rotate(45 288.186 23.4995)" fill="#D9D9D9"/>
<rect x="299.5" y="12.1858" width="8" height="8" transform="rotate(45 299.5 12.1858)" fill="#D9D9D9"/>
<rect x="299.5" y="23.4995" width="8" height="8" transform="rotate(45 299.5 23.4995)" fill="#D9D9D9"/>
<rect x="310.813" y="12.1858" width="8" height="8" transform="rotate(45 310.813 12.1858)" fill="#D9D9D9"/>
<rect x="310.813" y="23.4995" width="8" height="8" transform="rotate(45 310.813 23.4995)" fill="#D9D9D9"/>
<rect x="322.127" y="12.1858" width="8" height="8" transform="rotate(45 322.127 12.1858)" fill="#D9D9D9"/>
<rect x="322.127" y="23.4995" width="8" height="8" transform="rotate(45 322.127 23.4995)" fill="#D9D9D9"/>
<rect x="333.441" y="12.1858" width="8" height="8" transform="rotate(45 333.441 12.1858)" fill="#D9D9D9"/>
<rect x="333.441" y="23.4995" width="8" height="8" transform="rotate(45 333.441 23.4995)" fill="#D9D9D9"/>
<rect x="344.754" y="11.9995" width="8" height="8" transform="rotate(45 344.754 11.9995)" fill="#D9D9D9"/>
<rect x="356.068" y="11.9995" width="8" height="8" transform="rotate(45 356.068 11.9995)" fill="#D9D9D9"/>
<rect x="344.754" y="23.3132" width="8" height="8" transform="rotate(45 344.754 23.3132)" fill="#D9D9D9"/>
<rect x="356.068" y="23.3132" width="8" height="8" transform="rotate(45 356.068 23.3132)" fill="#D9D9D9"/>
<rect x="344.754" y="34.627" width="8" height="8" transform="rotate(45 344.754 34.627)" fill="#D9D9D9"/>
<rect x="356.068" y="34.627" width="8" height="8" transform="rotate(45 356.068 34.627)" fill="#D9D9D9"/>
<rect x="344.754" y="45.9407" width="8" height="8" transform="rotate(45 344.754 45.9407)" fill="#D9D9D9"/>
<rect x="356.068" y="45.9407" width="8" height="8" transform="rotate(45 356.068 45.9407)" fill="#D9D9D9"/>
<rect x="344.754" y="57.2544" width="8" height="8" transform="rotate(45 344.754 57.2544)" fill="#D9D9D9"/>
<rect x="356.068" y="57.2544" width="8" height="8" transform="rotate(45 356.068 57.2544)" fill="#D9D9D9"/>
<rect x="344.754" y="68.5681" width="8" height="8" transform="rotate(45 344.754 68.5681)" fill="#D9D9D9"/>
<rect x="356.068" y="68.5681" width="8" height="8" transform="rotate(45 356.068 68.5681)" fill="#D9D9D9"/>
<rect x="344.754" y="79.8818" width="8" height="8" transform="rotate(45 344.754 79.8818)" fill="#D9D9D9"/>
<rect x="356.068" y="79.8818" width="8" height="8" transform="rotate(45 356.068 79.8818)" fill="#D9D9D9"/>
<rect x="344.754" y="91.1953" width="8" height="8" transform="rotate(45 344.754 91.1953)" fill="#D9D9D9"/>
<rect x="356.068" y="91.1953" width="8" height="8" transform="rotate(45 356.068 91.1953)" fill="#D9D9D9"/>
<rect x="344.754" y="102.509" width="8" height="8" transform="rotate(45 344.754 102.509)" fill="#D9D9D9"/>
<rect x="356.068" y="102.509" width="8" height="8" transform="rotate(45 356.068 102.509)" fill="#D9D9D9"/>
<rect x="344.754" y="113.823" width="8" height="8" transform="rotate(45 344.754 113.823)" fill="#D9D9D9"/>
<rect x="356.068" y="113.823" width="8" height="8" transform="rotate(45 356.068 113.823)" fill="#D9D9D9"/>
<rect x="344.754" y="125.137" width="8" height="8" transform="rotate(45 344.754 125.137)" fill="#D9D9D9"/>
<rect x="356.068" y="125.137" width="8" height="8" transform="rotate(45 356.068 125.137)" fill="#D9D9D9"/>
<rect x="344.754" y="136.45" width="8" height="8" transform="rotate(45 344.754 136.45)" fill="#D9D9D9"/>
<rect x="356.068" y="136.45" width="8" height="8" transform="rotate(45 356.068 136.45)" fill="#D9D9D9"/>
<rect x="344.754" y="147.764" width="8" height="8" transform="rotate(45 344.754 147.764)" fill="#D9D9D9"/>
<rect x="356.068" y="147.764" width="8" height="8" transform="rotate(45 356.068 147.764)" fill="#D9D9D9"/>
<rect x="344.754" y="159.078" width="8" height="8" transform="rotate(45 344.754 159.078)" fill="#D9D9D9"/>
<rect x="356.068" y="159.078" width="8" height="8" transform="rotate(45 356.068 159.078)" fill="#D9D9D9"/>
<rect x="344.754" y="170.392" width="8" height="8" transform="rotate(45 344.754 170.392)" fill="#D9D9D9"/>
<rect x="356.068" y="170.392" width="8" height="8" transform="rotate(45 356.068 170.392)" fill="#D9D9D9"/>
<rect x="344.754" y="181.705" width="8" height="8" transform="rotate(45 344.754 181.705)" fill="#D9D9D9"/>
<rect x="356.068" y="181.705" width="8" height="8" transform="rotate(45 356.068 181.705)" fill="#D9D9D9"/>
<rect x="344.754" y="193.019" width="8" height="8" transform="rotate(45 344.754 193.019)" fill="#D9D9D9"/>
<rect x="356.068" y="193.019" width="8" height="8" transform="rotate(45 356.068 193.019)" fill="#D9D9D9"/>
<rect x="344.754" y="204.333" width="8" height="8" transform="rotate(45 344.754 204.333)" fill="#D9D9D9"/>
<rect x="356.068" y="204.333" width="8" height="8" transform="rotate(45 356.068 204.333)" fill="#D9D9D9"/>
<rect x="344.754" y="215.646" width="8" height="8" transform="rotate(45 344.754 215.646)" fill="#D9D9D9"/>
<rect x="356.068" y="215.646" width="8" height="8" transform="rotate(45 356.068 215.646)" fill="#D9D9D9"/>
<rect x="344.754" y="226.96" width="8" height="8" transform="rotate(45 344.754 226.96)" fill="#D9D9D9"/>
<rect x="356.068" y="226.96" width="8" height="8" transform="rotate(45 356.068 226.96)" fill="#D9D9D9"/>
<rect x="344.754" y="238.273" width="8" height="8" transform="rotate(45 344.754 238.273)" fill="#D9D9D9"/>
<rect x="356.068" y="238.273" width="8" height="8" transform="rotate(45 356.068 238.273)" fill="#D9D9D9"/>
<rect x="344.754" y="249.587" width="8" height="8" transform="rotate(45 344.754 249.587)" fill="#D9D9D9"/>
<rect x="356.068" y="249.587" width="8" height="8" transform="rotate(45 356.068 249.587)" fill="#D9D9D9"/>
<rect x="344.754" y="260.901" width="8" height="8" transform="rotate(45 344.754 260.901)" fill="#D9D9D9"/>
<rect x="356.068" y="260.901" width="8" height="8" transform="rotate(45 356.068 260.901)" fill="#D9D9D9"/>
<rect x="344.754" y="272.215" width="8" height="8" transform="rotate(45 344.754 272.215)" fill="#D9D9D9"/>
<rect x="356.068" y="272.215" width="8" height="8" transform="rotate(45 356.068 272.215)" fill="#D9D9D9"/>
<rect x="344.754" y="283.528" width="8" height="8" transform="rotate(45 344.754 283.528)" fill="#D9D9D9"/>
<rect x="356.068" y="283.528" width="8" height="8" transform="rotate(45 356.068 283.528)" fill="#D9D9D9"/>
<rect x="344.754" y="294.842" width="8" height="8" transform="rotate(45 344.754 294.842)" fill="#D9D9D9"/>
<rect x="356.068" y="294.842" width="8" height="8" transform="rotate(45 356.068 294.842)" fill="#D9D9D9"/>
<rect x="344.754" y="306.156" width="8" height="8" transform="rotate(45 344.754 306.156)" fill="#D9D9D9"/>
<rect x="356.068" y="306.156" width="8" height="8" transform="rotate(45 356.068 306.156)" fill="#D9D9D9"/>
<rect x="344.754" y="317.47" width="8" height="8" transform="rotate(45 344.754 317.47)" fill="#D9D9D9"/>
<rect x="356.068" y="317.47" width="8" height="8" transform="rotate(45 356.068 317.47)" fill="#D9D9D9"/>
<rect x="344.754" y="328.783" width="8" height="8" transform="rotate(45 344.754 328.783)" fill="#D9D9D9"/>
<rect x="356.068" y="328.783" width="8" height="8" transform="rotate(45 356.068 328.783)" fill="#D9D9D9"/>
<rect x="344.754" y="340.097" width="8" height="8" transform="rotate(45 344.754 340.097)" fill="#D9D9D9"/>
<rect x="356.068" y="340.097" width="8" height="8" transform="rotate(45 356.068 340.097)" fill="#D9D9D9"/>
<rect x="344.754" y="351.411" width="8" height="8" transform="rotate(45 344.754 351.411)" fill="#D9D9D9"/>
<rect x="356.068" y="351.411" width="8" height="8" transform="rotate(45 356.068 351.411)" fill="#D9D9D9"/>
<rect x="344.754" y="362.725" width="8" height="8" transform="rotate(45 344.754 362.725)" fill="#D9D9D9"/>
<rect x="356.068" y="362.725" width="8" height="8" transform="rotate(45 356.068 362.725)" fill="#D9D9D9"/>
<rect x="344.754" y="374.038" width="8" height="8" transform="rotate(45 344.754 374.038)" fill="#D9D9D9"/>
<rect x="356.068" y="374.038" width="8" height="8" transform="rotate(45 356.068 374.038)" fill="#D9D9D9"/>
<rect x="344.754" y="385.352" width="8" height="8" transform="rotate(45 344.754 385.352)" fill="#D9D9D9"/>
<rect x="356.068" y="385.352" width="8" height="8" transform="rotate(45 356.068 385.352)" fill="#D9D9D9"/>
<rect x="344.754" y="396.666" width="8" height="8" transform="rotate(45 344.754 396.666)" fill="#D9D9D9"/>
<rect x="356.068" y="396.666" width="8" height="8" transform="rotate(45 356.068 396.666)" fill="#D9D9D9"/>
<rect x="344.754" y="407.979" width="8" height="8" transform="rotate(45 344.754 407.979)" fill="#D9D9D9"/>
<rect x="356.068" y="407.979" width="8" height="8" transform="rotate(45 356.068 407.979)" fill="#D9D9D9"/>
<rect x="344.754" y="419.293" width="8" height="8" transform="rotate(45 344.754 419.293)" fill="#D9D9D9"/>
<rect x="356.068" y="419.293" width="8" height="8" transform="rotate(45 356.068 419.293)" fill="#D9D9D9"/>
<rect x="344.754" y="430.607" width="8" height="8" transform="rotate(45 344.754 430.607)" fill="#D9D9D9"/>
<rect x="356.068" y="430.607" width="8" height="8" transform="rotate(45 356.068 430.607)" fill="#D9D9D9"/>
<rect x="344.754" y="441.92" width="8" height="8" transform="rotate(45 344.754 441.92)" fill="#D9D9D9"/>
<rect x="356.068" y="441.92" width="8" height="8" transform="rotate(45 356.068 441.92)" fill="#D9D9D9"/>
<rect x="344.754" y="453.234" width="8" height="8" transform="rotate(45 344.754 453.234)" fill="#D9D9D9"/>
<rect x="356.068" y="453.234" width="8" height="8" transform="rotate(45 356.068 453.234)" fill="#D9D9D9"/>
<rect x="344.754" y="464.548" width="8" height="8" transform="rotate(45 344.754 464.548)" fill="#D9D9D9"/>
<rect x="356.068" y="464.548" width="8" height="8" transform="rotate(45 356.068 464.548)" fill="#D9D9D9"/>
<rect x="344.754" y="475.862" width="8" height="8" transform="rotate(45 344.754 475.862)" fill="#D9D9D9"/>
<rect x="356.068" y="475.862" width="8" height="8" transform="rotate(45 356.068 475.862)" fill="#D9D9D9"/>
<rect x="344.754" y="487.175" width="8" height="8" transform="rotate(45 344.754 487.175)" fill="#D9D9D9"/>
<rect x="356.068" y="487.175" width="8" height="8" transform="rotate(45 356.068 487.175)" fill="#D9D9D9"/>
<rect x="344.754" y="498.489" width="8" height="8" transform="rotate(45 344.754 498.489)" fill="#D9D9D9"/>
<rect x="356.068" y="498.489" width="8" height="8" transform="rotate(45 356.068 498.489)" fill="#D9D9D9"/>
<rect x="344.754" y="509.803" width="8" height="8" transform="rotate(45 344.754 509.803)" fill="#D9D9D9"/>
<rect x="356.068" y="509.803" width="8" height="8" transform="rotate(45 356.068 509.803)" fill="#D9D9D9"/>
<rect x="344.754" y="521.117" width="8" height="8" transform="rotate(45 344.754 521.117)" fill="#D9D9D9"/>
<rect x="356.068" y="521.117" width="8" height="8" transform="rotate(45 356.068 521.117)" fill="#D9D9D9"/>
<rect x="344.754" y="532.43" width="8" height="8" transform="rotate(45 344.754 532.43)" fill="#D9D9D9"/>
<rect x="356.068" y="532.43" width="8" height="8" transform="rotate(45 356.068 532.43)" fill="#D9D9D9"/>
<rect x="344.754" y="543.744" width="8" height="8" transform="rotate(45 344.754 543.744)" fill="#D9D9D9"/>
<rect x="356.068" y="543.744" width="8" height="8" transform="rotate(45 356.068 543.744)" fill="#D9D9D9"/>
<rect x="344.754" y="555.058" width="8" height="8" transform="rotate(45 344.754 555.058)" fill="#D9D9D9"/>
<rect x="356.068" y="555.058" width="8" height="8" transform="rotate(45 356.068 555.058)" fill="#D9D9D9"/>
<rect x="344.754" y="566.372" width="8" height="8" transform="rotate(45 344.754 566.372)" fill="#D9D9D9"/>
<rect x="356.068" y="566.372" width="8" height="8" transform="rotate(45 356.068 566.372)" fill="#D9D9D9"/>
<rect x="344.754" y="577.685" width="8" height="8" transform="rotate(45 344.754 577.685)" fill="#D9D9D9"/>
<rect x="356.068" y="577.685" width="8" height="8" transform="rotate(45 356.068 577.685)" fill="#D9D9D9"/>
<rect x="344.754" y="588.999" width="8" height="8" transform="rotate(45 344.754 588.999)" fill="#D9D9D9"/>
<rect x="356.068" y="588.999" width="8" height="8" transform="rotate(45 356.068 588.999)" fill="#D9D9D9"/>
<rect x="344.754" y="600.312" width="8" height="8" transform="rotate(45 344.754 600.312)" fill="#D9D9D9"/>
<rect x="356.068" y="600.312" width="8" height="8" transform="rotate(45 356.068 600.312)" fill="#D9D9D9"/>
<rect x="344.754" y="611.626" width="8" height="8" transform="rotate(45 344.754 611.626)" fill="#D9D9D9"/>
<rect x="356.068" y="611.626" width="8" height="8" transform="rotate(45 356.068 611.626)" fill="#D9D9D9"/>
<rect x="344.754" y="622.94" width="8" height="8" transform="rotate(45 344.754 622.94)" fill="#D9D9D9"/>
<rect x="356.068" y="622.94" width="8" height="8" transform="rotate(45 356.068 622.94)" fill="#D9D9D9"/>
<rect x="344.754" y="634.254" width="8" height="8" transform="rotate(45 344.754 634.254)" fill="#D9D9D9"/>
<rect x="356.068" y="634.254" width="8" height="8" transform="rotate(45 356.068 634.254)" fill="#D9D9D9"/>
<rect x="344.754" y="645.567" width="8" height="8" transform="rotate(45 344.754 645.567)" fill="#D9D9D9"/>
<rect x="356.068" y="645.567" width="8" height="8" transform="rotate(45 356.068 645.567)" fill="#D9D9D9"/>
<rect x="344.754" y="656.881" width="8" height="8" transform="rotate(45 344.754 656.881)" fill="#D9D9D9"/>
<rect x="356.068" y="656.881" width="8" height="8" transform="rotate(45 356.068 656.881)" fill="#D9D9D9"/>
<rect x="344.754" y="668.195" width="8" height="8" transform="rotate(45 344.754 668.195)" fill="#D9D9D9"/>
<rect x="356.068" y="668.195" width="8" height="8" transform="rotate(45 356.068 668.195)" fill="#D9D9D9"/>
<rect x="344.754" y="679.509" width="8" height="8" transform="rotate(45 344.754 679.509)" fill="#D9D9D9"/>
<rect x="356.068" y="679.509" width="8" height="8" transform="rotate(45 356.068 679.509)" fill="#D9D9D9"/>
<rect x="344.754" y="690.822" width="8" height="8" transform="rotate(45 344.754 690.822)" fill="#D9D9D9"/>
<rect x="356.068" y="690.822" width="8" height="8" transform="rotate(45 356.068 690.822)" fill="#D9D9D9"/>
<rect x="344.754" y="702.136" width="8" height="8" transform="rotate(45 344.754 702.136)" fill="#D9D9D9"/>
<rect x="356.068" y="702.136" width="8" height="8" transform="rotate(45 356.068 702.136)" fill="#D9D9D9"/>
<rect x="344.754" y="713.45" width="8" height="8" transform="rotate(45 344.754 713.45)" fill="#D9D9D9"/>
<rect x="356.068" y="713.45" width="8" height="8" transform="rotate(45 356.068 713.45)" fill="#D9D9D9"/>
<rect x="344.754" y="724.764" width="8" height="8" transform="rotate(45 344.754 724.764)" fill="#D9D9D9"/>
<rect x="356.068" y="724.764" width="8" height="8" transform="rotate(45 356.068 724.764)" fill="#D9D9D9"/>
<rect x="344.754" y="736.077" width="8" height="8" transform="rotate(45 344.754 736.077)" fill="#D9D9D9"/>
<rect x="356.068" y="736.077" width="8" height="8" transform="rotate(45 356.068 736.077)" fill="#D9D9D9"/>
<rect x="344.754" y="747.391" width="8" height="8" transform="rotate(45 344.754 747.391)" fill="#D9D9D9"/>
<rect x="356.068" y="747.391" width="8" height="8" transform="rotate(45 356.068 747.391)" fill="#D9D9D9"/>
<rect x="344.754" y="758.705" width="8" height="8" transform="rotate(45 344.754 758.705)" fill="#D9D9D9"/>
<rect x="356.068" y="758.705" width="8" height="8" transform="rotate(45 356.068 758.705)" fill="#D9D9D9"/>
<rect x="344.754" y="770.019" width="8" height="8" transform="rotate(45 344.754 770.019)" fill="#D9D9D9"/>
<rect x="356.068" y="770.019" width="8" height="8" transform="rotate(45 356.068 770.019)" fill="#D9D9D9"/>
<rect x="344.754" y="781.332" width="8" height="8" transform="rotate(45 344.754 781.332)" fill="#D9D9D9"/>
<rect x="356.068" y="781.332" width="8" height="8" transform="rotate(45 356.068 781.332)" fill="#D9D9D9"/>
<rect x="16.843" y="792.832" width="8" height="8" transform="rotate(45 16.843 792.832)" fill="#D9D9D9"/>
<rect x="16.843" y="804.146" width="8" height="8" transform="rotate(45 16.843 804.146)" fill="#D9D9D9"/>
<rect x="28.1567" y="792.832" width="8" height="8" transform="rotate(45 28.1567 792.832)" fill="#D9D9D9"/>
<rect x="28.1567" y="804.146" width="8" height="8" transform="rotate(45 28.1567 804.146)" fill="#D9D9D9"/>
<rect x="39.4705" y="792.832" width="8" height="8" transform="rotate(45 39.4705 792.832)" fill="#D9D9D9"/>
<rect x="39.4705" y="804.146" width="8" height="8" transform="rotate(45 39.4705 804.146)" fill="#D9D9D9"/>
<rect x="50.7842" y="792.832" width="8" height="8" transform="rotate(45 50.7842 792.832)" fill="#D9D9D9"/>
<rect x="50.7842" y="804.146" width="8" height="8" transform="rotate(45 50.7842 804.146)" fill="#D9D9D9"/>
<rect x="62.0979" y="792.832" width="8" height="8" transform="rotate(45 62.0979 792.832)" fill="#D9D9D9"/>
<rect x="62.0979" y="804.146" width="8" height="8" transform="rotate(45 62.0979 804.146)" fill="#D9D9D9"/>
<rect x="73.4116" y="792.832" width="8" height="8" transform="rotate(45 73.4116 792.832)" fill="#D9D9D9"/>
<rect x="73.4116" y="804.146" width="8" height="8" transform="rotate(45 73.4116 804.146)" fill="#D9D9D9"/>
<rect x="84.7253" y="792.832" width="8" height="8" transform="rotate(45 84.7253 792.832)" fill="#D9D9D9"/>
<rect x="84.7253" y="804.146" width="8" height="8" transform="rotate(45 84.7253 804.146)" fill="#D9D9D9"/>
<rect x="96.0391" y="792.832" width="8" height="8" transform="rotate(45 96.0391 792.832)" fill="#D9D9D9"/>
<rect x="96.0391" y="804.146" width="8" height="8" transform="rotate(45 96.0391 804.146)" fill="#D9D9D9"/>
<rect x="107.353" y="792.832" width="8" height="8" transform="rotate(45 107.353 792.832)" fill="#D9D9D9"/>
<rect x="107.353" y="804.146" width="8" height="8" transform="rotate(45 107.353 804.146)" fill="#D9D9D9"/>
<rect x="118.667" y="792.832" width="8" height="8" transform="rotate(45 118.667 792.832)" fill="#D9D9D9"/>
<rect x="118.667" y="804.146" width="8" height="8" transform="rotate(45 118.667 804.146)" fill="#D9D9D9"/>
<rect x="129.98" y="792.832" width="8" height="8" transform="rotate(45 129.98 792.832)" fill="#D9D9D9"/>
<rect x="129.98" y="804.146" width="8" height="8" transform="rotate(45 129.98 804.146)" fill="#D9D9D9"/>
<rect x="141.294" y="792.832" width="8" height="8" transform="rotate(45 141.294 792.832)" fill="#D9D9D9"/>
<rect x="141.294" y="804.146" width="8" height="8" transform="rotate(45 141.294 804.146)" fill="#D9D9D9"/>
<rect x="152.607" y="792.832" width="8" height="8" transform="rotate(45 152.607 792.832)" fill="#D9D9D9"/>
<rect x="152.607" y="804.146" width="8" height="8" transform="rotate(45 152.607 804.146)" fill="#D9D9D9"/>
<rect x="163.921" y="792.832" width="8" height="8" transform="rotate(45 163.921 792.832)" fill="#D9D9D9"/>
<rect x="163.921" y="804.146" width="8" height="8" transform="rotate(45 163.921 804.146)" fill="#D9D9D9"/>
<rect x="175.235" y="792.832" width="8" height="8" transform="rotate(45 175.235 792.832)" fill="#D9D9D9"/>
<rect x="175.235" y="804.146" width="8" height="8" transform="rotate(45 175.235 804.146)" fill="#D9D9D9"/>
<rect x="186.549" y="792.832" width="8" height="8" transform="rotate(45 186.549 792.832)" fill="#D9D9D9"/>
<rect x="186.549" y="804.146" width="8" height="8" transform="rotate(45 186.549 804.146)" fill="#D9D9D9"/>
<rect x="197.862" y="792.832" width="8" height="8" transform="rotate(45 197.862 792.832)" fill="#D9D9D9"/>
<rect x="197.862" y="804.146" width="8" height="8" transform="rotate(45 197.862 804.146)" fill="#D9D9D9"/>
<rect x="209.176" y="792.832" width="8" height="8" transform="rotate(45 209.176 792.832)" fill="#D9D9D9"/>
<rect x="209.176" y="804.146" width="8" height="8" transform="rotate(45 209.176 804.146)" fill="#D9D9D9"/>
<rect x="220.49" y="792.832" width="8" height="8" transform="rotate(45 220.49 792.832)" fill="#D9D9D9"/>
<rect x="220.49" y="804.146" width="8" height="8" transform="rotate(45 220.49 804.146)" fill="#D9D9D9"/>
<rect x="231.803" y="792.832" width="8" height="8" transform="rotate(45 231.803 792.832)" fill="#D9D9D9"/>
<rect x="231.803" y="804.146" width="8" height="8" transform="rotate(45 231.803 804.146)" fill="#D9D9D9"/>
<rect x="243.117" y="792.832" width="8" height="8" transform="rotate(45 243.117 792.832)" fill="#D9D9D9"/>
<rect x="243.117" y="804.146" width="8" height="8" transform="rotate(45 243.117 804.146)" fill="#D9D9D9"/>
<rect x="254.431" y="792.832" width="8" height="8" transform="rotate(45 254.431 792.832)" fill="#D9D9D9"/>
<rect x="254.431" y="804.146" width="8" height="8" transform="rotate(45 254.431 804.146)" fill="#D9D9D9"/>
<rect x="265.745" y="792.832" width="8" height="8" transform="rotate(45 265.745 792.832)" fill="#D9D9D9"/>
<rect x="265.745" y="804.146" width="8" height="8" transform="rotate(45 265.745 804.146)" fill="#D9D9D9"/>
<rect x="277.058" y="792.832" width="8" height="8" transform="rotate(45 277.058 792.832)" fill="#D9D9D9"/>
<rect x="277.058" y="804.146" width="8" height="8" transform="rotate(45 277.058 804.146)" fill="#D9D9D9"/>
<rect x="288.372" y="792.832" width="8" height="8" transform="rotate(45 288.372 792.832)" fill="#D9D9D9"/>
<rect x="288.372" y="804.146" width="8" height="8" transform="rotate(45 288.372 804.146)" fill="#D9D9D9"/>
<rect x="299.686" y="792.832" width="8" height="8" transform="rotate(45 299.686 792.832)" fill="#D9D9D9"/>
<rect x="299.686" y="804.146" width="8" height="8" transform="rotate(45 299.686 804.146)" fill="#D9D9D9"/>
<rect x="311" y="792.832" width="8" height="8" transform="rotate(45 311 792.832)" fill="#D9D9D9"/>
<rect x="311" y="804.146" width="8" height="8" transform="rotate(45 311 804.146)" fill="#D9D9D9"/>
<rect x="322.313" y="792.832" width="8" height="8" transform="rotate(45 322.313 792.832)" fill="#D9D9D9"/>
<rect x="322.313" y="804.146" width="8" height="8" transform="rotate(45 322.313 804.146)" fill="#D9D9D9"/>
<rect x="333.627" y="792.832" width="8" height="8" transform="rotate(45 333.627 792.832)" fill="#D9D9D9"/>
<rect x="333.627" y="804.146" width="8" height="8" transform="rotate(45 333.627 804.146)" fill="#D9D9D9"/>
<rect x="344.941" y="792.832" width="8" height="8" transform="rotate(45 344.941 792.832)" fill="#D9D9D9"/>
<rect x="344.941" y="804.146" width="8" height="8" transform="rotate(45 344.941 804.146)" fill="#D9D9D9"/>
<rect x="356.254" y="792.832" width="8" height="8" transform="rotate(45 356.254 792.832)" fill="#D9D9D9"/>
<rect x="356.254" y="804.146" width="8" height="8" transform="rotate(45 356.254 804.146)" fill="#D9D9D9"/>
</svg>
