<svg width="68" height="134" viewBox="0 0 68 134" fill="none" xmlns="http://www.w3.org/2000/svg">
<mask id="mask0_145_1591" style="mask-type:luminance" maskUnits="userSpaceOnUse" x="0" y="0" width="68" height="134">
<path d="M0.187744 0.830078H67.883L67.883 133.662H0.187744L0.187744 0.830078Z" fill="white"/>
</mask>
<g mask="url(#mask0_145_1591)">
<path d="M67.7369 61.7682C67.1781 62.5125 66.3399 63.5361 63.8265 63.7228C61.313 63.9082 58.0554 63.8155 57.6833 62.9773C57.3112 62.1404 57.2185 60.6506 57.2185 60.6506C57.2185 60.6506 57.2185 65.1186 56.9391 65.5847C56.8861 65.6721 56.7246 65.7873 56.4809 65.9197C56.0863 74.2095 55.5221 84.1162 54.86 90.2514C53.4947 102.911 46.4193 130.837 46.4193 130.837C45.9121 131.72 45.2685 132.336 44.5587 132.823C40.8469 133.077 37.3628 132.36 34.0085 131.086C34.0085 131.086 32.7677 113.212 35.7459 99.684L36.3206 78.1041L26.0657 131.582C24.4806 132.707 22.3313 133.255 19.8709 133.484C19.8351 133.546 19.753 133.553 19.7133 133.497C19.3942 133.525 19.0711 133.55 18.7426 133.567C16.7775 132.507 15.2003 131.063 14.0257 129.224C14.0257 129.224 13.7781 86.0323 14.0257 74.3658C14.0853 71.5809 14.1661 68.8132 14.2535 66.2084C13.4602 66.0204 12.9133 65.8668 12.7226 65.7714C12.4075 65.6138 12.2843 64.4776 12.2552 63.0978C12.2049 60.6718 12.4432 57.4856 12.4432 57.4856C12.4432 57.4856 11.8023 60.8201 11.2726 63.2302C11.021 64.377 10.7945 65.3146 10.6754 65.5847C10.3019 66.4216 6.02065 66.1435 4.25146 65.6774C2.48359 65.2126 0.529013 64.5611 0.249598 63.6301C0.196628 63.4567 0.239004 62.5297 0.355537 61.077C0.865371 54.7312 2.80671 38.345 4.62489 30.7704C6.85889 21.4623 9.92981 13.4572 9.92981 13.4572C9.92981 13.4572 9.465 12.4336 10.2092 11.1305C10.9521 9.83011 21.995 4.61127 30.6423 3.1056C31.2448 2.34152 32.1532 1.25564 32.569 1.07686C33.2206 0.797449 40.2708 5.73158 40.2708 5.73158C40.2708 5.73158 44.4846 0.982843 45.1361 1.35496C45.438 1.52843 46.12 2.50175 46.7649 3.49493C46.7676 3.47639 46.7689 3.4658 46.7689 3.4658C53.7503 6.91015 60.8482 10.4777 61.1277 11.8747C61.4071 13.2705 61.1277 14.7603 61.1277 14.7603C61.1277 14.7603 64.1999 30.1188 64.8501 35.1457C65.3891 39.2972 67.3874 54.2465 67.7528 59.7422C67.8296 60.8995 67.8336 61.6385 67.7369 61.7682Z" fill="white"/>
</g>
<mask id="mask1_145_1591" style="mask-type:luminance" maskUnits="userSpaceOnUse" x="0" y="2" width="68" height="132">
<path d="M0.251709 2.86377H67.8834L67.8834 133.662H0.251709L0.251709 2.86377Z" fill="white"/>
</mask>
<g mask="url(#mask1_145_1591)">
<path d="M25.5353 69.5895C25.3989 71.9917 25.2255 74.3899 25.0123 76.7868C24.6322 81.0402 24.2601 85.295 23.888 89.5498C23.7013 91.6792 23.5053 93.8072 23.3186 95.9353C23.1345 98.0276 22.9597 100.112 22.5955 102.182C22.577 102.285 22.422 102.255 22.4207 102.159C22.3863 99.7478 22.6088 97.3536 22.8008 94.9527C23.1424 90.6953 23.5026 86.4378 23.9145 82.1857C24.3223 77.9693 24.7276 73.7556 25.3155 69.5604C25.3327 69.4332 25.542 69.465 25.5353 69.5895ZM20.7032 116.114C20.3695 117.502 20.2834 118.952 20.151 120.37C20.0159 121.808 19.9325 123.254 19.8477 124.697C19.6769 127.603 19.5405 130.531 19.6901 133.442C19.6915 133.466 19.7034 133.48 19.714 133.496C19.755 133.55 19.8358 133.545 19.8716 133.483C19.8782 133.47 19.8888 133.46 19.8914 133.442C20.1496 130.562 20.2344 127.665 20.392 124.777C20.4701 123.362 20.5761 121.949 20.6582 120.533C20.7429 119.072 20.9084 117.595 20.8396 116.131C20.8356 116.057 20.7217 116.035 20.7032 116.114ZM49.7756 103.803C49.2419 105.58 48.9824 107.451 48.6473 109.274C48.3163 111.083 48.0104 112.898 47.6965 114.709C47.0662 118.363 46.4517 122.019 45.8399 125.676C45.5023 127.695 45.1288 129.718 44.9792 131.76C44.9699 131.879 45.1527 131.899 45.1831 131.788C45.6704 129.991 45.971 128.144 46.2889 126.311C46.604 124.498 46.9179 122.686 47.233 120.873C47.866 117.221 48.5017 113.565 49.0777 109.903C49.3942 107.893 49.818 105.857 49.912 103.821C49.916 103.742 49.7981 103.73 49.7756 103.803ZM42.6697 57.1125C42.3916 59.5597 41.9798 61.9936 41.5931 64.4263C41.4395 65.3916 41.2793 66.357 41.0978 67.3184C41.0396 67.6283 40.9787 67.9395 40.9124 68.248C40.8939 68.3354 40.8052 68.5447 40.7827 68.6824C40.7602 68.685 40.7363 68.689 40.7085 68.6903C40.4622 68.7128 40.2066 68.6877 39.9603 68.6678C39.4439 68.6281 38.9314 68.5566 38.4149 68.5063C38.2785 68.4943 38.1209 68.6188 38.0931 68.7526C37.7912 70.1722 37.4919 71.5931 37.1913 73.014C36.8894 74.4402 36.5014 75.8611 36.3451 77.3111C36.3186 77.5641 36.6762 77.5681 36.7556 77.3668C37.2853 76.0094 37.529 74.5422 37.8428 73.1226C38.1302 71.8182 38.4043 70.5098 38.6798 69.2028C39.0731 69.2452 39.4664 69.2929 39.8597 69.326C40.2437 69.3577 40.7297 69.4332 41.0992 69.2902C41.5216 69.126 41.5269 68.4864 41.5957 68.1103C41.9851 65.9597 42.2605 63.7867 42.4936 61.6136C42.6538 60.1185 42.7465 58.6142 42.818 57.1125C42.822 57.0158 42.6803 57.0211 42.6697 57.1125ZM67.7535 59.7411C66.6716 60.2761 65.1964 60.7952 63.2683 61.0216C59.134 61.5076 57.2178 60.6495 57.2178 60.6495C57.2178 60.6495 57.2178 65.1175 56.9397 65.5823C56.8868 65.6697 56.7239 65.7863 56.4816 65.9187C55.7161 66.3398 54.1416 66.9357 52.6413 67.3873C52.7273 69.4385 52.5234 71.5189 52.4188 73.5662C52.2215 77.425 51.9685 81.2826 51.7169 85.1387C51.5911 87.0563 51.4653 88.9751 51.3369 90.8939C51.215 92.7306 51.0972 94.5766 50.8072 96.3948C50.7873 96.5153 50.6046 96.4796 50.6019 96.367C50.5463 94.2337 50.7158 92.095 50.8443 89.9669C51.0786 86.1094 51.3091 82.2519 51.558 78.3944C51.6812 76.4756 51.8017 74.5567 51.9473 72.6392C52.0798 70.9124 52.1539 69.1551 52.4466 67.4442C50.7635 67.9382 49.2234 68.2282 49.0963 67.8481C48.7467 66.8006 46.7378 61.7606 44.7633 55.628C42.7796 55.6479 40.7946 55.6492 38.8122 55.6214C38.7195 55.6201 38.6268 55.6187 38.5354 55.6174C35.8287 62.9153 33.7311 67.823 33.0862 68.4679C31.9698 69.5842 18.8784 67.3038 14.2554 66.2061C13.4609 66.018 12.9153 65.8644 12.7233 65.7691C12.4081 65.6115 12.2863 64.4766 12.2572 63.0954C12.2055 60.6707 12.4452 57.4846 12.4452 57.4846C12.4452 57.4846 11.8029 60.819 11.2746 63.2292C10.0775 63.3497 8.34271 63.3881 6.11533 63.0689C3.26821 62.6624 1.38381 61.7288 0.356201 61.0746C0.866034 54.7288 2.80737 38.3427 4.62556 30.7693C6.85955 21.4599 9.9318 13.4548 9.9318 13.4548C9.9318 13.4548 9.46566 12.4312 10.2112 11.1281C10.9528 9.82773 21.9956 4.60889 30.6429 3.10455C30.6655 3.10058 30.6893 3.09528 30.7118 3.09131C30.7118 3.09131 31.2746 4.47382 32.1764 6.778C32.3208 7.14614 32.473 7.53679 32.6346 7.94996C32.8836 8.58957 33.1497 9.27817 33.4331 10.0158L31.562 11.7611C31.3726 11.5731 31.0641 11.5095 30.8204 11.4314C30.3834 11.2897 29.9451 11.1573 29.5081 11.0169C28.7744 10.7812 27.8514 10.5799 27.2317 10.0979C27.1496 10.0343 27.0979 9.97075 27.1138 10.0092C27.09 9.95089 27.0847 9.87673 27.0741 9.81581C27.0278 9.56553 26.9933 9.31525 26.9443 9.06497C26.7987 8.3181 26.6808 7.56593 26.5325 6.81905C26.3709 6.00597 26.212 5.18891 26.1207 4.36391C26.1048 4.22751 25.8995 4.21956 25.9008 4.36391C25.9273 5.9424 26.0968 7.52223 26.3458 9.08086C26.4027 9.43708 26.4345 10.0303 26.6901 10.319C26.8834 10.5389 27.2622 10.6713 27.5217 10.7891C27.9177 10.9679 28.3255 11.1162 28.7347 11.2579C29.2445 11.434 29.7597 11.5943 30.2708 11.7651C30.5357 11.8525 30.8853 12.0366 31.2097 12.0895L31.1766 12.12H26.5696C26.5696 12.12 31.942 22.2279 35.4592 27.6189C37.3476 30.5151 39.8557 34.2282 41.7626 37.0303C41.6633 37.5508 41.564 38.0699 41.4633 38.5903C41.2422 39.1862 41.0435 39.802 41.0065 40.4323C40.9601 41.2229 41.1177 42.0492 41.2501 42.8252C41.3958 43.6701 41.462 44.5825 41.7666 45.3863C41.7931 45.4578 41.8672 45.4697 41.9189 45.4393C41.944 45.4234 41.9665 45.3995 41.9679 45.3585C42.0579 43.7336 41.3799 42.1313 41.3945 40.5104C41.4024 39.7053 41.7242 38.9412 41.9281 38.1732C42.0049 37.8845 42.087 37.5958 42.1652 37.3071C43.5755 34.2309 45.4202 30.1694 46.7934 27.0098C46.8848 26.7992 46.9788 26.5807 47.0728 26.3583C47.1417 26.3768 47.2225 26.3847 47.3152 26.3953C47.7296 26.439 48.1441 26.4695 48.5599 26.4973C50.4046 26.6244 52.2599 26.6999 54.1098 26.6946C54.3694 26.6946 54.9918 26.8072 55.0805 26.4774C55.1573 26.1861 55.1083 25.8034 55.111 25.5041C55.1136 25.328 55.1613 25.0698 54.9918 24.9559C54.9441 24.9241 54.8805 24.9069 54.8143 24.895C53.9734 23.6542 53.0941 22.1856 52.8505 22.1829C52.685 22.1803 52.4161 22.3948 52.1208 22.6967C51.5183 21.9485 51.0376 21.3923 50.8006 21.3765C50.3357 21.3447 48.5401 23.5019 47.9336 24.2487C50.3119 18.2486 52.9736 10.2462 52.9736 10.2462L48.4302 11.0156L48.3176 10.9414C48.5109 10.862 48.699 10.7547 48.8473 10.6898C49.2048 10.5336 49.5611 10.3746 49.9067 10.1932C50.1662 10.0555 50.4205 9.90586 50.6642 9.74033C50.8999 9.58142 51.1581 9.45165 51.3713 9.26096C51.7037 8.96433 51.4706 8.31942 51.3872 7.95525C51.1806 7.05874 50.8111 6.20063 50.4324 5.36371C50.3808 5.24982 50.1967 5.3306 50.2311 5.44846C50.4801 6.27479 50.6469 7.11568 50.8138 7.96187C50.8628 8.20951 50.9105 8.46244 50.9277 8.71537C50.9303 8.76304 50.925 8.81866 50.9277 8.87163C50.8959 8.90076 50.8575 8.95373 50.8429 8.96697C50.4576 9.34438 50.0259 9.60923 49.5438 9.85024C49.2287 10.0092 48.9069 10.1522 48.5798 10.2846C48.3587 10.3733 48.0249 10.4435 47.8064 10.6037L46.0558 9.44767C46.0889 9.18812 46.1207 8.93784 46.1511 8.69286C46.1935 8.35782 46.2319 8.03868 46.2703 7.73146C46.5736 5.25512 46.7418 3.719 46.7669 3.49388C46.7682 3.47534 46.7696 3.46475 46.7696 3.46475C53.751 6.9091 60.8489 10.4766 61.1283 11.8737C61.4077 13.2694 61.1283 14.7592 61.1283 14.7592C61.1283 14.7592 64.2006 30.1178 64.8508 35.1446C65.3897 39.2961 67.3893 54.2455 67.7535 59.7411ZM17.0218 28.9379C17.0403 28.7975 16.8337 28.7313 16.8033 28.877C16.7225 29.265 16.549 29.6424 16.4484 30.033C16.3372 30.47 16.2564 30.915 16.165 31.3559C15.9876 32.2074 15.8604 33.0695 15.7201 33.9263C15.4393 35.6359 15.1414 37.3428 14.8461 39.0498C14.2131 42.7007 13.5907 46.3636 13.1576 50.0437C12.8968 52.2697 12.6942 54.4984 12.616 56.7404C12.6121 56.8582 12.8107 56.8913 12.8279 56.7682C13.3854 52.9305 13.8516 49.0796 14.4249 45.2446C14.956 41.6983 15.5453 38.1573 16.2114 34.6348C16.3848 33.7131 16.5927 32.7928 16.7305 31.8645C16.7993 31.3917 16.8708 30.9203 16.9357 30.4462C16.9622 30.2436 16.9781 30.041 16.9966 29.837C17.0218 29.5338 16.9821 29.2332 17.0218 28.9379ZM16.8695 24.4633C16.5067 23.09 15.9823 21.7777 15.3705 20.4972C14.2568 18.1665 12.8809 15.951 11.0812 14.0878C11.0256 14.0309 10.921 14.1064 10.9674 14.1752C12.3538 16.2357 13.6436 18.4062 14.6832 20.664C15.2579 21.9114 15.7518 23.2079 16.161 24.5189C16.5464 25.7557 16.6841 27.0614 17.0973 28.2824C17.1264 28.3671 17.2654 28.383 17.2866 28.2824C17.5475 27.0323 17.19 25.6763 16.8695 24.4633ZM44.5793 55.0506C44.1899 53.8257 43.8033 52.5611 43.4338 51.2792C42.9147 49.4822 42.43 47.6547 42.0116 45.8538C41.364 47.7421 40.7284 49.5563 40.1139 51.2792C39.6398 52.6061 39.1777 53.8747 38.7314 55.0851C40.3218 55.0705 41.9122 55.0586 43.504 55.0493C43.8615 55.0467 44.2204 55.0493 44.5793 55.0506ZM44.7633 40.864C44.7633 39.8986 44.2747 39.116 43.6722 39.116C43.0696 39.116 42.581 39.8986 42.581 40.864C42.581 41.8294 43.0696 42.6133 43.6722 42.6133C44.2747 42.6133 44.7633 41.8294 44.7633 40.864ZM60.1974 15.8769C60.1987 15.7776 60.0517 15.759 60.0252 15.853C59.4783 17.7997 59.0135 19.7688 58.3448 21.6797C58.0402 22.5484 57.6919 23.3999 57.386 24.2686C57.0099 25.3359 56.7093 26.3702 56.5306 27.4905C56.5239 27.5342 56.5531 27.5699 56.5875 27.5832C56.5782 28.4717 56.5398 29.3563 56.5584 30.2489C56.5809 31.2593 56.5968 32.271 56.61 33.2827C56.6365 35.4267 56.7014 37.5706 56.7318 39.7146C56.7941 44.1892 56.8656 48.6638 56.9013 53.1397C56.9199 55.4916 56.9821 57.8355 57.1026 60.1847C57.1106 60.333 57.3264 60.333 57.3344 60.1847C57.5542 55.8889 57.5118 51.5917 57.4867 47.2919C57.4602 42.8729 57.3794 38.4565 57.2298 34.0402C57.1913 32.8934 57.1212 31.7466 57.055 30.6011C56.9927 29.5404 56.8616 28.5022 56.7451 27.4494C56.7438 27.4415 56.7385 27.4388 56.7358 27.4322C57.7038 25.6644 58.4083 23.7826 59.0479 21.873C59.7008 19.9198 60.1563 17.9427 60.1974 15.8769ZM54.7468 25.2578C54.7243 25.2512 54.7031 25.2446 54.6978 25.2432C54.523 25.2128 54.3482 25.1903 54.1721 25.1704C52.873 25.0194 51.566 24.944 50.2629 24.8301C49.4512 24.7586 48.6129 24.6156 47.7932 24.6023C47.5906 25.1095 47.392 25.5981 47.196 26.0669C47.3416 26.1027 47.5588 26.0908 47.6833 26.1027C48.5917 26.1874 49.5041 26.2338 50.4165 26.2709C51.8176 26.3278 53.2411 26.4099 54.6435 26.3397C54.662 26.3397 54.7018 26.3357 54.7375 26.3331C54.7388 26.3238 54.7388 26.3159 54.7388 26.3132C54.7084 25.9967 54.7561 25.6577 54.7521 25.3373C54.7508 25.3306 54.7481 25.2949 54.7468 25.2578Z" fill="#F3EDE2"/>
</g>
<mask id="mask2_145_1591" style="mask-type:luminance" maskUnits="userSpaceOnUse" x="0" y="0" width="68" height="67">
<path d="M0.187744 0.830078H67.883L67.883 66.2583H0.187744L0.187744 0.830078Z" fill="white"/>
</mask>
<g mask="url(#mask2_145_1591)">
<path d="M44.307 12.2932C43.5972 12.7342 41.2441 11.2484 41.2441 11.2484C40.3926 12.0297 38.6684 11.2682 38.6684 11.2682C38.6684 11.2682 36.9204 12.709 35.8571 12.607C35.2942 12.5528 34.7129 10.9584 34.4375 9.38252C33.8429 8.92168 33.2258 8.4529 32.6338 7.95234C32.8828 8.59195 33.149 9.28055 33.4324 10.0168C35.8835 16.3997 39.4961 26.1832 42.1459 34.9656C43.9892 24.9026 45.3095 15.3429 46.055 9.44873C46.0881 9.18918 46.1199 8.9389 46.1504 8.69391C45.9001 8.972 45.6445 9.24347 45.3836 9.51097C45.2128 10.7611 44.842 11.9621 44.307 12.2932ZM39.7874 15.0821C39.7609 14.4967 40.1052 14.0054 40.5555 13.9856C41.0057 13.9644 41.3924 14.4226 41.4189 15.0079C41.4454 15.5932 41.1024 16.0845 40.6521 16.1057C40.2006 16.1256 39.8139 15.6674 39.7874 15.0821ZM40.4601 21.9337C40.4336 21.3484 40.7779 20.8571 41.2282 20.8359C41.6784 20.816 42.0651 21.2729 42.0916 21.8595C42.1181 22.4448 41.7751 22.9361 41.3248 22.956C40.8746 22.9772 40.4866 22.519 40.4601 21.9337ZM41.7897 29.4263C41.3394 29.4461 40.9527 28.9879 40.9263 28.4026C40.8998 27.8173 41.2427 27.326 41.693 27.3048C42.1432 27.285 42.5312 27.7431 42.5577 28.3285C42.5842 28.9138 42.2399 29.4051 41.7897 29.4263ZM42.0121 45.8548C42.4293 47.6558 42.9139 49.4832 43.433 51.2802H40.1132C40.7289 49.5574 41.3646 47.7432 42.0121 45.8548ZM46.7648 3.49493C46.741 3.72006 46.5728 5.25618 46.2696 7.73251C46.0034 8.01855 45.7399 8.30591 45.471 8.59062C45.5386 7.37099 45.3956 6.30233 45.0023 6.19242C44.3415 6.00967 42.5008 6.95915 41.6003 7.45707C41.1792 6.93532 40.7567 6.41489 40.3423 5.88917C40.2853 5.81633 40.19 5.84944 40.1463 5.91433C40.1277 5.9236 40.1105 5.93816 40.096 5.96067C39.7596 6.51156 39.3888 7.04126 38.9995 7.55771C38.2632 7.17368 35.4955 5.79382 34.6493 6.31822C34.2799 6.54731 34.2097 7.48223 34.3223 8.56546C33.8429 8.17746 33.3688 7.78416 32.9013 7.38688C32.6603 7.18295 32.418 6.98167 32.177 6.78038C31.2738 4.4762 30.711 3.09236 30.711 3.09236C30.6885 3.09634 30.6647 3.10163 30.6422 3.10561C31.246 2.34152 32.1531 1.25432 32.569 1.07687C33.2205 0.797452 40.2707 5.73026 40.2707 5.73026C40.2707 5.73026 44.4845 0.982846 45.136 1.35496C45.4379 1.52843 46.1199 2.50175 46.7648 3.49493ZM41.0905 7.74708C41.0905 7.74708 40.3886 7.31405 39.4656 7.56036C39.7477 7.12336 40.0099 6.67312 40.2522 6.20831C40.57 6.70093 40.8958 7.1856 41.2308 7.66498C41.1421 7.71662 41.0905 7.74708 41.0905 7.74708ZM11.2738 63.2302C11.0222 64.3757 10.7958 65.3146 10.6753 65.5847C10.3032 66.4216 6.02055 66.1422 4.25269 65.6774C2.4835 65.2113 0.528922 64.5597 0.249507 63.6288C0.197861 63.4553 0.238913 62.5284 0.355446 61.0757C1.38306 61.7312 3.26745 62.6647 6.11457 63.0713C8.34195 63.3891 10.0767 63.3507 11.2738 63.2302ZM67.7369 61.7682C67.178 62.5125 66.3398 63.5361 63.8264 63.7228C61.313 63.9082 58.0553 63.8155 57.6832 62.9773C57.3111 62.1404 57.2184 60.6506 57.2184 60.6506C57.2184 60.6506 59.1346 61.51 63.2689 61.0227C65.1956 60.7962 66.6708 60.2771 67.7527 59.7421C67.8296 60.8995 67.8335 61.6385 67.7369 61.7682ZM54.8136 24.8973C54.7315 24.8828 54.6454 24.8775 54.5779 24.8682C54.3236 24.8325 54.068 24.8073 53.8111 24.7835C53.7873 24.7808 53.7648 24.7795 53.7409 24.7768C53.6615 24.6232 53.5436 24.4842 53.4417 24.3531C53.3635 24.2524 53.2854 24.1531 53.2073 24.0538C53.0762 23.8843 52.9451 23.7161 52.814 23.5466C52.6431 23.3255 52.4657 23.1123 52.2856 22.9004C52.2392 22.8461 52.1505 22.9163 52.1876 22.9745C52.5134 23.4764 52.8643 23.9598 53.2139 24.4445C53.2841 24.5424 53.3569 24.651 53.4377 24.7517C52.8153 24.6974 52.1929 24.651 51.5705 24.6087C51.2514 24.5861 50.9309 24.5716 50.6118 24.5557C50.0542 24.5279 49.4981 24.504 48.9406 24.4908C48.5539 24.4815 48.1513 24.4471 47.7607 24.463C47.7951 24.4219 47.8534 24.3478 47.9328 24.2511C48.5393 23.5042 50.335 21.3471 50.7985 21.3775C51.0368 21.3947 51.5175 21.9496 52.1201 22.6978C52.4154 22.3972 52.6829 22.1826 52.8497 22.184C53.0934 22.1866 53.9727 23.6552 54.8136 24.8973Z" fill="#E3D6BF"/>
</g>
<path d="M45.4715 8.59015C45.4556 8.89208 45.4265 9.20327 45.3841 9.5105C45.2133 10.7606 44.8425 11.9617 44.3075 12.2927C43.5977 12.7337 41.2445 11.2479 41.2445 11.2479C40.3931 12.0292 38.6689 11.2678 38.6689 11.2678C38.6689 11.2678 36.9209 12.7085 35.8575 12.6066C35.2947 12.5523 34.7134 10.9579 34.4379 9.38205C34.3889 9.1066 34.3505 8.83116 34.3227 8.56499C34.2102 7.48308 34.2804 6.54684 34.6485 6.31775C35.496 5.79335 38.2637 7.17321 38.9999 7.55724C39.1152 7.61683 39.1827 7.65391 39.1827 7.65391C39.2794 7.61418 39.3734 7.58505 39.4648 7.55989C40.3891 7.31358 41.0909 7.74661 41.0909 7.74661C41.0909 7.74661 41.1426 7.71615 41.2313 7.6645C41.32 7.61418 41.4458 7.54135 41.6008 7.4566C42.5012 6.95868 44.3419 6.0092 45.0027 6.19327C45.396 6.30186 45.5391 7.37052 45.4715 8.59015ZM41.4193 15.0074C41.3929 14.4221 41.0062 13.9639 40.5559 13.9851C40.1057 14.005 39.7614 14.4963 39.7879 15.0816C39.8144 15.6682 40.201 16.1251 40.6513 16.1052C41.1028 16.084 41.4458 15.5927 41.4193 15.0074ZM42.0921 21.8591C42.0656 21.2724 41.6789 20.8156 41.2286 20.8354C40.7784 20.8566 40.4341 21.3479 40.4606 21.9332C40.4871 22.5185 40.8738 22.9767 41.3253 22.9555C41.7756 22.9357 42.1185 22.4444 42.0921 21.8591ZM41.6935 27.3057C41.2432 27.3255 40.9002 27.8168 40.9267 28.4021C40.9532 28.9875 41.3399 29.4457 41.7901 29.4258C42.2404 29.4046 42.5847 28.9133 42.5582 28.328C42.5317 27.7427 42.1437 27.2845 41.6935 27.3057Z" fill="white"/>
</svg>
