<svg width="94" height="134" viewBox="0 0 94 134" fill="none" xmlns="http://www.w3.org/2000/svg">
<mask id="mask0_308_4124" style="mask-type:luminance" maskUnits="userSpaceOnUse" x="0" y="4" width="94" height="130">
<path d="M0.173218 4.48535H93.8267V133.33H0.173218V4.48535Z" fill="white"/>
</mask>
<g mask="url(#mask0_308_4124)">
<path d="M93.5522 114.255C93.1841 103.7 90.938 93.2682 89.9937 82.7508C88.2946 63.8563 90.1123 44.5811 87.4939 25.8113C87.0696 22.9142 85.9881 20.1003 83.7607 18.112C81.7974 16.3629 79.2851 15.4416 76.7727 14.8094C73.9983 14.1126 71.1512 13.7321 68.3976 12.9397C65.4381 12.089 62.7094 10.6166 60.4362 8.52434C59.2841 7.46367 58.2712 6.26989 57.406 4.96588C57.2043 4.66432 56.6781 4.75791 56.6885 5.1593C56.9443 13.7404 56.1998 22.3194 54.8251 30.7861C53.4524 39.2548 51.4704 47.6134 49.2784 55.9053C48.1428 60.2 46.9407 64.476 45.7386 68.752C43.2575 61.0132 41.1361 53.1601 39.3891 45.2216C37.5381 36.8277 36.101 28.3423 35.0903 19.8049C34.5537 15.2856 33.8736 10.471 35.5769 6.11183C35.6518 5.92049 35.5457 5.78115 35.3981 5.72915C35.4022 5.72291 35.4085 5.71667 35.4126 5.71043C35.7225 5.30488 35.0341 4.90973 34.7284 5.30904C30.2569 11.149 22.9258 13.5303 16.3995 16.2527C14.7294 16.9494 13.0698 17.6732 11.4538 18.4926C9.72763 19.3682 8.02639 20.3332 6.85964 21.9221C4.72789 24.8234 4.70917 28.7333 4.72789 32.1774C4.78613 41.8483 4.64054 51.5191 4.27035 61.1838C3.90223 70.8401 3.32822 80.4881 2.64606 90.1257C1.96598 99.7674 1.14863 109.395 0.412398 119.03C0.318809 120.23 0.231459 121.426 0.187784 122.628C0.177386 122.859 0.404079 122.921 0.557981 122.832C0.553822 122.955 0.603735 123.079 0.73476 123.165C4.38889 125.527 9.04755 124.672 12.8431 123.127C13.727 122.767 14.6982 122.451 14.9208 121.409C15.1766 120.22 15.187 118.934 15.3035 117.726C15.5593 115.06 15.8047 112.394 16.0064 109.725C16.4057 104.478 16.6199 99.2246 16.4848 93.9628C16.3517 88.7197 16.179 83.5016 16.4515 78.2586C16.6012 75.3615 16.855 72.4685 17.194 69.5881C17.4893 67.0716 17.8969 64.5759 18.3004 62.076C19.7458 70.1808 20.0183 78.4395 19.6002 86.6525C19.1697 95.1545 18.0321 103.605 16.7718 112.017C16.4182 114.382 16.0605 116.744 15.6861 119.105C15.2785 121.682 13.9371 124.912 15.3534 127.37C16.7094 129.726 19.4692 131.521 22.0003 132.326C25.4547 133.424 29.3813 132.908 32.4573 130.999C35.5083 129.107 37.4944 125.991 38.9399 122.782C40.6141 119.065 41.8869 115.141 43.1202 111.26C44.4346 107.132 45.6117 102.962 46.635 98.7525C46.7577 99.418 46.9157 100.081 47.0343 100.726C47.2506 101.895 47.4731 103.064 47.7081 104.231C48.1906 106.618 48.7231 108.995 49.3532 111.35C50.574 115.898 52.1651 120.378 54.4673 124.5C55.9294 127.116 57.2771 130.579 60.5839 131.338C63.4831 132.004 66.6568 131.631 69.5518 131.165C71.2551 130.891 72.9626 130.386 74.2562 129.192C75.4063 128.131 76.0448 126.64 76.2965 125.118C76.571 123.464 76.4836 121.777 76.2965 120.12C76.0594 118.015 75.7391 115.917 75.4542 113.818C74.225 104.751 73.0105 95.6661 72.4926 86.5235C72.2368 81.9876 72.1515 77.4412 72.3241 72.9011C72.4822 68.7582 72.8316 64.5571 74.2022 60.616C74.4164 59.9983 74.6576 59.391 74.9259 58.7962C77.4008 73.4439 76.9162 88.3766 76.7332 103.174C76.6854 107.015 76.6583 110.859 76.7103 114.7C76.7353 116.536 76.6791 118.41 76.8414 120.241C76.8934 120.823 77.0493 121.395 77.5339 121.769C78.1079 122.212 78.8982 122.235 79.5908 122.293C83.3156 122.618 87.08 122.451 90.7653 121.815C92.1879 121.569 93.3068 121.12 93.5127 119.546C93.7373 117.82 93.6125 115.99 93.5522 114.255Z" fill="white"/>
</g>
<mask id="mask1_308_4124" style="mask-type:luminance" maskUnits="userSpaceOnUse" x="34" y="0" width="41" height="69">
<path d="M34.196 0.5H74.1273V68.9073H34.196V0.5Z" fill="white"/>
</mask>
<g mask="url(#mask1_308_4124)">
<path d="M35.4792 5.42022C35.7413 4.21812 36.022 3.02226 36.3028 1.83472C36.4089 1.3855 36.5253 0.892594 36.9933 0.699177C37.4092 0.526557 37.9396 0.682539 38.3534 0.790686C39.3829 1.05897 40.3438 1.53524 41.2776 2.03022C43.2783 3.09506 45.3123 4.32627 47.6707 3.84793C49.8295 3.4091 51.7242 2.05518 53.9474 1.87008C54.8854 1.79313 56.1561 1.88464 56.6324 2.83717C56.9069 3.38206 56.8986 4.0871 56.961 4.67983C56.9652 4.71935 56.9693 4.75678 56.9735 4.7963C56.8154 4.82957 56.6823 4.95436 56.6886 5.15817C56.9444 13.7392 56.1998 22.3182 54.8251 30.7849C53.4525 39.2537 51.4705 47.6122 49.2784 55.9042C48.1428 60.1989 46.9407 64.4749 45.7387 68.7509C43.2575 61.0121 41.1361 53.1589 39.3892 45.2205C37.5382 36.8266 36.1011 28.3412 35.0903 19.8038C34.5537 15.2845 33.8736 10.4699 35.577 6.1107C35.6498 5.9256 35.552 5.79042 35.4106 5.73427C35.4147 5.72179 35.4168 5.71139 35.4189 5.69891C35.4896 5.60116 35.5042 5.50549 35.4792 5.42022ZM72.9564 38.5362C72.5363 38.2991 72.0247 38.0766 71.9665 38.2741C72.2431 37.3445 72.2431 35.8242 71.3883 35.1628C71.0846 34.9257 70.6832 34.855 70.3006 34.8592C69.8721 34.8613 69.4312 34.9548 69.0943 35.2169C68.7574 35.481 67.8714 36.1528 68.0004 36.5604C67.6863 35.9365 66.1889 34.9403 65.1553 36.7497C64.8308 37.3195 64.8391 37.9684 65.1137 38.5549C65.2239 38.7899 65.7584 39.6572 66.1203 39.5137C65.7001 39.68 65.4235 40.1043 65.3258 40.5452C65.0346 41.8305 66.0142 42.7373 67.2995 42.6437C67.6759 42.6146 68.0565 42.4295 68.2333 42.0967C68.0503 42.442 68.3872 43.1803 68.6243 43.4236C69.0111 43.8188 69.6122 43.9269 70.1363 43.8021C70.8413 43.6378 71.4153 43.0742 71.6233 42.3816C71.6441 42.3089 71.6566 42.2361 71.669 42.1633C72.8878 42.2631 74.0358 41.9283 74.0691 40.4558C74.0795 39.9047 73.8965 39.3015 73.5096 38.8981C73.4535 38.8398 73.2226 38.6838 72.9564 38.5362Z" fill="white"/>
</g>
<path d="M65.9663 19.8459C64.3691 23.8744 63.246 28.0692 62.281 32.2891C60.5631 39.7949 59.3444 47.465 56.701 54.7255C55.3845 58.3359 54.093 61.8673 52.4666 65.2345C51.0566 68.1503 49.399 70.9455 47.2548 73.5597C46.791 74.1275 45.4703 76.305 44.732 76.2426C43.9979 76.1802 42.5046 73.2894 42.0928 72.68C40.3583 70.1115 38.7673 67.4473 37.3031 64.7166C33.5076 57.635 30.5626 50.1313 28.0025 42.5256C26.7109 38.6843 25.5151 34.8118 24.3566 30.9289C23.7826 29.0072 23.219 27.0834 22.6554 25.1597C22.0252 23.0092 21.393 20.8546 21.081 18.6313C21.0519 18.4171 21.1705 18.1446 21.4367 18.1654C23.4998 18.3318 25.4984 18.8268 27.3952 19.6337C27.1602 16.4933 27.7154 13.2926 29.0007 10.4204C31.1637 9.04154 33.1291 7.39853 34.7284 5.30838C34.9572 5.00889 35.4022 5.15656 35.4792 5.42068C35.4584 5.51219 35.4397 5.60786 35.4189 5.70145C35.4168 5.70353 35.4147 5.70561 35.4126 5.70977C35.4085 5.71601 35.4022 5.72225 35.3981 5.72849C35.4022 5.73057 35.4064 5.73265 35.4105 5.73473C35.552 5.79088 35.6497 5.92607 35.5769 6.11116C33.8736 10.4703 34.5537 15.285 35.0903 19.8043C36.101 28.3417 37.5381 36.8271 39.387 45.221C41.1361 53.1594 43.2575 61.0126 45.7365 68.7513C46.9407 64.4754 48.1428 60.1994 49.2784 55.9047C51.4704 47.6127 53.4504 39.2542 54.8251 30.7854C56.1998 22.3187 56.9443 13.7397 56.6885 5.15864C56.6823 4.95482 56.8154 4.83003 56.9735 4.79676C57.1274 4.76348 57.3062 4.81548 57.404 4.96522C58.2712 6.26923 59.2841 7.46301 60.4363 8.52368C61.1974 9.22456 62.0127 9.85473 62.8675 10.4163C62.9611 10.8988 63.0235 11.3896 63.0567 11.8866C63.2522 14.8129 62.5368 17.7557 61.4637 20.4698C62.8176 20.1142 64.1694 19.7606 65.5233 19.4029C65.7646 19.3405 66.0703 19.5797 65.9663 19.8459ZM55.4157 8.18676C55.4199 9.42837 55.3013 10.6658 55.135 11.8929C54.9935 12.9369 54.8563 14.0018 54.563 15.0167C54.3197 15.859 53.9537 16.6846 53.3526 17.3377C53.0531 17.6663 52.6392 18.049 52.1713 18.0864C51.7096 18.1259 51.4039 17.8244 51.1002 17.5207C49.9335 16.356 48.7792 15.1643 47.6957 13.9144C47.0093 14.1889 46.2419 14.2222 45.5244 14.0267C45.1438 14.5737 44.7362 15.0957 44.2973 15.5803C43.3677 16.6056 42.1198 17.5935 40.7306 17.8743C39.1895 18.1841 38.3596 16.9841 37.979 15.6656C37.4799 13.931 37.1971 12.1175 37.0619 10.3185C36.9412 8.70254 36.7998 6.90147 37.561 5.41445C37.6296 5.28134 37.8293 5.19607 37.9707 5.24807C40.1794 6.05917 42.2841 7.1448 44.1954 8.50704C44.2516 8.45089 44.3265 8.41137 44.4242 8.40306C45.4287 8.33234 46.5331 8.37394 47.5251 8.59231C48.7875 7.49004 50.3474 6.72885 51.9155 6.16316C52.4583 5.96558 53.0074 5.7888 53.5564 5.60994C53.9495 5.48308 54.3654 5.31046 54.7648 5.51011C55.1433 5.70145 55.2743 6.1278 55.3284 6.5188C55.4012 7.06785 55.4136 7.63355 55.4157 8.18676ZM46.14 77.7983C44.8214 77.7546 43.7816 79.3539 44.4658 80.5124C44.5989 80.737 44.7923 80.8722 45.0024 80.9366C45.7802 81.6749 47.1425 81.4961 47.7289 80.554C48.4714 79.3581 47.4773 77.844 46.14 77.7983Z" fill="#313E3F"/>
<path d="M47.0426 38.8193C46.8492 38.1892 46.2107 37.9957 45.6471 38.2515C45.2083 38.4533 44.8942 38.8734 44.7715 39.333C44.6322 39.8467 44.732 40.5268 45.1459 40.8928C45.5161 41.2235 46.0402 41.2818 46.4437 40.9719C46.5872 40.8596 46.6828 40.7285 46.7432 40.5871C46.8846 40.4083 46.9948 40.2086 47.0614 39.9632C47.1591 39.5909 47.157 39.1874 47.0426 38.8193ZM46.714 39.7261C46.714 39.7261 46.712 39.7303 46.712 39.7323V39.7303L46.714 39.7261ZM46.7161 39.6928C46.7224 39.7136 46.7182 39.7261 46.7099 39.7261C46.7057 39.7157 46.7036 39.7053 46.6995 39.6949C46.7036 39.6907 46.7099 39.6907 46.7161 39.6928ZM46.6891 39.6699C46.687 39.6637 46.6828 39.6554 46.6808 39.6491C46.6787 39.6221 46.6828 39.6387 46.6891 39.6699ZM46.6953 39.7053C46.6932 39.6928 46.6912 39.6803 46.6891 39.6699C46.6932 39.6783 46.6953 39.6866 46.6995 39.6949C46.6974 39.697 46.6974 39.7011 46.6953 39.7053ZM46.6953 39.7053C46.6953 39.7074 46.6953 39.7095 46.6953 39.7115C46.6953 39.7095 46.6953 39.7095 46.6953 39.7074V39.7053ZM47.1425 28.1606C46.6537 28.3103 46.1359 28.1751 45.7636 27.834C45.4558 27.5533 45.2353 27.0978 45.306 26.6798C45.331 25.8978 46.0714 25.3342 46.8409 25.5006C46.8763 25.5089 46.9075 25.5193 46.9407 25.5297C46.9927 25.5505 47.0447 25.5734 47.0967 25.5962C47.2797 25.5796 47.4669 25.6129 47.6291 25.7085C48.6711 26.3117 48.1304 27.8548 47.1425 28.1606ZM47.677 17.8679C47.1861 18.3379 46.3501 18.394 45.9778 17.741C45.8343 17.4893 45.8135 17.1961 45.8821 16.9195C45.9549 16.6262 46.1567 16.4203 46.3938 16.2498C46.7806 15.9753 47.3088 16.1645 47.5792 16.5015C47.6728 16.5701 47.7539 16.6574 47.8184 16.7656C48.0222 17.1046 47.964 17.5912 47.677 17.8679ZM47.0406 55.5759C46.8055 56.1333 46.3251 56.4661 45.7199 56.5035C45.306 56.5305 44.8277 56.1728 44.7487 55.7652C44.6551 55.2868 44.7757 54.8251 45.1209 54.5069C45.1709 54.2906 45.2915 54.0931 45.4745 53.9537C45.7865 53.7125 46.2066 53.6854 46.5518 53.8768C47.1549 54.2137 47.2922 54.979 47.0406 55.5759ZM69.5394 40.7826C67.7653 40.7826 67.7695 38.0332 69.5394 38.0332C71.3113 38.0353 71.3072 40.7826 69.5394 40.7826ZM92.6974 118.15C92.6288 118.923 91.9446 119.493 91.1688 119.424C90.3952 119.354 89.8253 118.669 89.896 117.896C89.9647 117.122 90.6489 116.55 91.4226 116.621C92.1983 116.692 92.7682 117.376 92.6974 118.15ZM92.6974 113.772C92.6288 114.545 91.9446 115.115 91.1688 115.047C90.3952 114.976 89.8253 114.292 89.896 113.518C89.9647 112.744 90.6489 112.172 91.4226 112.243C92.1983 112.314 92.7682 112.998 92.6974 113.772ZM4.5137 119.714C4.44507 120.487 3.76083 121.057 2.98508 120.988C2.21141 120.918 1.64156 120.233 1.71019 119.46C1.7809 118.686 2.46514 118.114 3.23881 118.185C4.01248 118.254 4.58441 118.938 4.5137 119.714ZM4.5137 115.336C4.44507 116.109 3.76083 116.679 2.98508 116.611C2.21141 116.54 1.64156 115.856 1.71019 115.082C1.7809 114.308 2.46514 113.736 3.23881 113.807C4.01248 113.876 4.58441 114.56 4.5137 115.336Z" fill="#313E3F"/>
</svg>
