<svg width="62" height="133" viewBox="0 0 62 133" fill="none" xmlns="http://www.w3.org/2000/svg">
<mask id="mask0_145_1529" style="mask-type:luminance" maskUnits="userSpaceOnUse" x="10" y="0" width="52" height="28">
<path d="M10.2476 0L61.7596 0L61.7596 27.5452H10.2476L10.2476 0Z" fill="white"/>
</mask>
<g mask="url(#mask0_145_1529)">
<path d="M61.4311 23.8661C61.0065 23.1067 60.3675 22.5377 59.654 22.0584C58.923 21.4149 58.0542 20.9291 57.1744 20.5154C56.3734 20.1324 55.5439 19.8239 54.7013 19.5568C54.5131 19.4802 54.3249 19.4058 54.1367 19.3336C52.4033 18.6311 50.6197 18.0489 48.7966 17.6309C48.0218 17.4624 47.2427 17.3245 46.4592 17.1998C45.7829 17.0334 45.1045 16.8802 44.4239 16.738C41.8348 16.3068 39.1998 16.1427 36.5779 16.2565C36.3152 16.2718 36.0504 16.2893 35.7878 16.309C35.8075 16.018 35.8316 15.7269 35.8666 15.438C35.8666 15.438 35.8666 15.438 35.8666 15.4358C35.8688 15.4249 35.871 15.4139 35.871 15.403C36.1314 13.8951 36.3284 13.4989 37.2673 12.1858C37.8166 11.4482 40.0861 8.86575 40.3947 7.00547C40.9134 4.6287 40.1211 1.73981 37.8363 0.577683C37.1688 0.258153 36.4466 0.0677489 35.7068 0.0371094C35.0415 0.0414862 34.3674 0.137783 33.7371 0.356638C32.6538 0.765899 31.6886 1.5494 31.0824 2.54082C30.7322 3.14705 30.5265 3.82331 30.3908 4.50614C30.3471 4.81692 30.1917 5.13207 30.2508 5.44503C30.3624 6.44739 31.8003 6.53275 32.0673 5.56978C32.2008 4.98981 32.2949 4.39671 32.5115 3.83863C32.6056 3.63291 32.7173 3.43375 32.8464 3.24772C32.853 3.23897 32.8573 3.2324 32.8617 3.22584C32.8858 3.19739 32.9077 3.16893 32.9317 3.14267C33.1003 2.94351 33.2972 2.76843 33.4986 2.6021C33.6715 2.47297 33.8531 2.3526 34.0457 2.24974C34.4856 2.05496 34.2099 2.1425 34.9255 1.96742C35.0021 1.95429 35.0809 1.94115 35.1575 1.93021C35.2582 1.92146 35.4354 1.90395 35.5383 1.90395C36.1205 1.92802 35.9607 1.88206 36.823 2.16001C36.9674 2.2388 37.3526 2.35479 37.9041 2.99604L37.9063 3.00041C38.0464 3.19739 38.1733 3.4053 38.2762 3.62415C38.2959 3.66355 38.3134 3.70513 38.3309 3.74671C38.3528 3.8058 38.3769 3.86708 38.3966 3.92836C38.727 5.02483 38.7117 4.99857 38.6461 6.20446C38.6176 6.39268 38.5826 6.57871 38.5344 6.76254C38.4775 6.97483 38.4075 7.18275 38.3265 7.38628C37.9807 8.14134 37.4861 8.81541 37.0068 9.4873C36.521 10.2117 35.8578 10.8661 35.1094 12.0326C34.4834 13.0393 34.1223 14.1839 34.0085 15.3614C33.9669 15.6962 33.9363 16.0311 33.9144 16.3681C33.9122 16.4141 33.9078 16.4622 33.9056 16.5082C33.2469 16.6001 32.5925 16.7161 31.9469 16.8649C31.8265 16.8956 31.7061 16.9262 31.588 16.9547C30.3952 17.1472 29.2134 17.4077 28.0534 17.7513C24.3701 18.8302 20.7524 20.1281 17.2179 21.6207C17.0472 21.6075 16.8787 21.6601 16.7167 21.7104C15.8916 21.9664 15.1235 22.3604 14.3662 22.7696C14.3049 22.7762 14.2415 22.7959 14.178 22.8353C13.1319 23.3606 11.9938 23.8333 11.2016 24.7262C10.858 25.1311 10.4684 25.6235 10.5931 26.1904C10.6807 26.6325 11.0746 26.9717 11.5058 27.0658C12.182 27.1796 12.8189 26.9476 13.4208 26.6368C13.5455 26.6237 13.6659 26.5843 13.7731 26.5208C13.981 26.3873 14.1933 26.2648 14.4122 26.1532C15.0009 25.873 15.5787 25.5732 16.1608 25.2865C16.9815 24.8816 17.3427 24.7809 18.5464 24.3717C19.6384 24.0106 20.724 23.6232 21.8336 23.3212C23.2605 22.9404 24.7137 22.6734 26.1603 22.3823C28.5065 21.9074 29.6795 21.7542 31.8178 21.5112C33.9188 21.2661 36.0329 21.0954 38.1493 21.1917C42.1609 21.3252 45.0432 21.6294 48.7047 22.3363C52.5653 23.0016 55.673 24.1266 58.748 25.6914C59.3454 25.9518 59.9538 26.2538 60.617 26.2626C61.2648 26.2516 61.8338 25.7702 61.8207 25.0939C61.8032 24.6562 61.6128 24.2557 61.4311 23.8661Z" fill="#BBA065"/>
</g>
<mask id="mask1_145_1529" style="mask-type:luminance" maskUnits="userSpaceOnUse" x="0" y="16" width="53" height="117">
<path d="M0.162842 16.3398H52.268L52.268 132.83H0.162842L0.162842 16.3398Z" fill="white"/>
</mask>
<g mask="url(#mask1_145_1529)">
<path d="M51.423 74.853C52.0314 67.5498 52.445 59.5156 48.0701 53.635C46.5294 51.5646 45.643 48.7567 45.1199 46.2311C44.7479 44.4321 44.0278 43.5808 44.5487 41.819C45.8531 37.4134 47.1553 33.01 48.4575 28.6045C48.8251 27.9173 49.1425 27.2016 49.4095 26.4662C49.9282 25.164 50.3309 23.8137 50.5497 22.4284C50.8299 20.706 51.0728 18.8238 50.2696 17.2021C50.1295 16.8869 49.9194 16.574 49.5627 16.4886C48.9849 16.3157 48.3743 16.7906 48.3809 17.3881C48.3699 17.6923 48.5603 17.9352 48.6829 18.1979C48.7923 18.4714 48.8645 18.7581 48.9039 19.0492C49.0571 19.9597 48.8273 22.1023 48.3327 23.8465C48.1467 24.5447 47.895 25.2231 47.6368 25.8972C47.2691 26.8777 47.0918 27.2672 46.3827 28.471C46.3346 28.5585 46.3017 28.646 46.282 28.7292C41.7802 30.4144 38.4842 33.0954 35.5844 36.155C32.7896 33.7366 27.0512 30.8018 22.7069 29.11C22.6369 28.9809 22.5712 28.8518 22.5099 28.7183C22.1007 27.8275 21.35 25.895 20.6912 24.339C20.2054 23.2009 19.8093 22.0257 19.3125 20.892C19.1833 20.5922 19.0498 20.2945 18.9141 19.9991C18.8222 19.7999 18.7434 19.5723 18.5421 19.4541C17.7542 18.8194 16.6621 19.7824 17.1721 20.6578C17.763 21.9337 17.8811 22.2576 18.437 23.7174C18.8769 24.8226 19.3431 25.9169 19.7896 27.0199C19.969 27.427 20.1332 27.8428 20.2973 28.2587C20.2382 28.2412 20.1769 28.2215 20.12 28.204C21.6695 31.7538 22.917 35.3715 23.95 39.1905C24.8276 41.0245 25.7227 42.8717 26.2042 44.8501C26.7404 47.0562 26.782 49.4111 25.8913 51.5296C25.8913 51.5318 25.8913 51.534 25.8891 51.534C25.8803 51.5537 25.8738 51.5734 25.865 51.5931C25.8431 51.6434 25.8015 51.6762 25.7534 51.6937C25.7402 51.7769 25.7271 51.8579 25.7118 51.941C25.2631 52.8974 24.7554 53.983 24.4074 54.8781C23.1753 57.8698 22.1269 60.9404 21.3872 64.0919C20.7897 66.4052 20.3608 68.7535 20.1157 71.1303C19.7896 73.9798 19.6998 76.8512 19.6889 79.7182C19.6298 82.0928 19.5904 84.4717 19.7655 86.842C19.8114 87.5554 19.8793 88.2667 19.9581 88.978C20.2907 96.1805 21.6673 103.335 24.0682 110.133C24.6153 111.686 25.1734 113.558 24.1579 114.853C23.3285 115.91 21.8184 116.075 20.4768 116.155L6.00166 117.016C4.60536 117.099 3.1434 117.202 1.95502 117.939C1.30283 118.344 0.771006 119.007 0.532453 119.732C0.166965 120.071 0.184473 120.572 0.425214 120.922C0.460231 121.126 0.525888 121.325 0.622184 121.515C0.668144 121.415 0.727235 121.325 0.790703 121.24C0.974542 121.329 1.1934 121.358 1.43195 121.292C2.29424 121.189 2.03161 121.132 3.02741 121.165C3.04273 121.167 3.06242 121.172 3.0865 121.176C3.97943 121.388 3.67084 121.294 4.38212 121.636C5.73028 122.371 6.10452 122.787 7.11344 123.551C11.3768 127.216 16.7562 129.468 22.2495 130.738C28.2002 132.11 34.3369 132.408 40.4364 132.699C41.9968 132.773 43.8484 132.705 44.7063 131.403C44.7085 131.401 44.7085 131.399 44.7107 131.399C44.7522 131.403 44.7938 131.405 44.8354 131.405C45.3913 131.375 45.9581 131.204 46.3608 130.81C46.8795 130.285 46.9496 129.506 46.9277 128.803C46.8073 127.055 46.177 125.385 45.4788 123.789C45.4591 123.638 45.4373 123.487 45.4154 123.336C45.3585 123.028 45.295 122.653 45.2097 122.266C45.1878 121.583 45.1593 120.902 45.1068 120.22C45.0258 118.985 44.8726 117.755 44.7829 116.519C44.6844 115.199 44.6384 113.873 44.6144 112.549C45.2775 110.163 46.0763 107.791 46.7613 105.471C49.6896 95.5502 50.5629 85.1611 51.423 74.853Z" fill="white"/>
</g>
<path d="M31.514 126.897C31.1573 126.599 30.7174 126.433 30.295 126.253C29.6975 126.008 29.0956 125.781 28.4807 125.593C25.8303 124.816 23.1953 123.877 20.4311 123.61C19.5623 123.555 17.2271 122.872 16.4086 122.452C15.1523 121.804 14.3973 121.152 13.4715 120.474C12.1015 119.471 11.2852 119.294 9.60654 119.34C8.66108 119.351 7.70468 119.2 6.77017 119.414C6.46158 119.497 6.07421 119.524 5.89475 119.821C5.84441 119.9 5.81815 119.988 5.81377 120.077C5.37606 120.443 5.76125 121.194 6.33027 121.032C7.16411 120.837 8.21024 120.71 9.15132 120.708C9.19947 120.721 9.24762 120.734 9.30014 120.749C10.3288 121.012 11.4581 121.911 12.6661 122.651C12.8981 122.796 13.1367 122.931 13.3774 123.063C14.8175 124.507 15.3996 124.888 17.9975 125.157C19.0458 125.258 20.2801 125.518 21.5801 125.733C22.2389 126.002 22.7576 126.271 23.679 126.564C24.6485 126.851 25.6574 126.947 26.651 127.122C27.6074 127.3 28.5485 127.56 29.5137 127.691C29.7281 127.704 29.9623 127.805 30.1637 127.7C30.2337 127.676 30.295 127.637 30.3431 127.589C30.4022 127.617 30.4613 127.648 30.516 127.676C30.7764 127.792 31.0697 127.982 31.352 127.842C31.735 127.704 31.8029 127.166 31.514 126.897Z" fill="#E3D6BF"/>
<path d="M38.0378 118.276C37.738 118.293 37.4776 118.464 37.204 118.569C37.0552 118.635 36.9063 118.698 36.7553 118.764C35.3765 119.302 34.5799 119.681 33.3609 120.121C32.2754 120.471 31.575 120.423 30.2597 120.53C28.4301 120.694 26.561 120.322 24.7533 120.71C24.1952 120.922 24.3681 121.788 24.97 121.782C25.0903 121.762 25.2129 121.747 25.3354 121.732C25.3792 121.848 25.4602 121.95 25.5718 122.014C25.8651 122.161 26.2152 122.064 26.5304 122.115C27.2636 122.178 27.4649 122.22 28.3447 122.379C28.9225 122.487 29.5068 122.592 30.0977 122.603C30.5989 122.609 31.0979 122.535 31.5925 122.452C32.8269 122.246 34.024 121.883 35.1577 121.349C36.0988 120.95 37.0442 120.537 37.8277 119.863C38.1429 119.58 38.609 119.326 38.6397 118.862C38.6528 118.543 38.3574 118.256 38.0378 118.276Z" fill="#E3D6BF"/>
<path d="M47.8123 81.0556C47.924 80.2677 48.0487 79.4558 48.1932 78.5169C48.2041 78.0989 47.7007 77.799 47.3418 78.0266C47.0135 78.2346 47.0091 78.6832 46.8997 79.0224C46.8034 79.4229 46.7093 79.8234 46.6152 80.2261C45.4137 85.1219 44.9541 90.1512 44.3741 95.1499C44.3172 95.5964 44.083 97.0452 43.8686 97.9622C43.7591 98.4437 43.6453 98.9252 43.5534 99.411C43.5031 99.7087 43.4396 100.013 43.4921 100.317C43.5096 100.818 44.013 101.245 44.4989 100.985C44.9235 100.702 45.0723 100.155 45.2649 99.7065C45.5166 98.9799 45.6894 98.2314 45.8383 97.4785C46.2278 95.9465 46.543 94.3949 46.7334 92.8235C46.8187 92.0837 46.8844 91.3396 46.9369 90.5977C47.1164 89.1161 47.2696 87.6344 47.4337 86.1506C47.5825 84.8155 47.8474 83.3777 48.1538 81.7187C48.2369 81.3883 48.0531 81.1453 47.8123 81.0556Z" fill="#E3D6BF"/>
<path d="M32.0238 41.7139C30.8464 41.6045 30.1964 41.5542 29.2772 41.3725C28.1676 41.1558 27.6445 40.7466 26.5283 40.1141C25.8827 39.7595 25.3378 40.6919 25.9637 41.0814C26.8326 41.576 27.6817 42.1494 28.6687 42.3814C29.3844 42.5609 30.1198 42.6353 30.8507 42.7228C31.1922 42.7622 31.5358 42.7907 31.8794 42.8213C31.9997 42.8345 32.131 42.8498 32.2405 42.7863C32.8007 42.5718 32.6213 41.7074 32.0238 41.7139Z" fill="#E3D6BF"/>
<path d="M42.6515 40.9611C42.4895 40.9108 42.3341 40.9633 42.1831 41.0224C41.9708 41.0924 41.7563 41.1537 41.5397 41.2128C40.5351 41.4601 40.1018 41.5389 39.2855 41.5892C38.7887 41.6177 38.2897 41.6264 37.7929 41.6505C37.4361 41.7009 36.9853 41.5761 36.703 41.8431C36.3528 42.178 36.6132 42.8105 37.0991 42.7995C38.4866 42.7317 39.8895 42.7557 41.2486 42.434C41.636 42.3509 42.019 42.248 42.3954 42.1298C42.5442 42.0707 42.7193 42.0488 42.8419 41.9416C43.2139 41.6899 43.0804 41.0662 42.6515 40.9611Z" fill="#E3D6BF"/>
</svg>
