<svg width="70" height="133" viewBox="0 0 70 133" fill="none" xmlns="http://www.w3.org/2000/svg">
<mask id="mask0_145_1504" style="mask-type:luminance" maskUnits="userSpaceOnUse" x="7" y="0" width="46" height="24">
<path d="M7.65137 0L52.473 0L52.473 23.6233H7.65137L7.65137 0Z" fill="white"/>
</mask>
<g mask="url(#mask0_145_1504)">
<path d="M51.8884 21.5574C51.547 20.8855 51.0174 20.3712 50.4177 19.9291C49.8093 19.3469 49.0761 18.8961 48.3298 18.5065C47.6535 18.1476 46.9466 17.8478 46.2288 17.5873C46.069 17.5151 45.9093 17.4429 45.7473 17.375C44.2766 16.7053 42.7556 16.1363 41.1951 15.7073C40.532 15.5344 39.8623 15.3856 39.1904 15.2499C38.6126 15.0814 38.0305 14.9238 37.4483 14.7772C35.2269 14.3089 32.953 14.0725 30.6835 14.0769C30.4559 14.0791 30.2261 14.0834 29.9985 14.0922C30.0269 13.8405 30.0575 13.591 30.0991 13.3415C30.1013 13.3306 30.1035 13.3218 30.1057 13.3131C30.3836 12.0174 30.5697 11.6826 31.4276 10.5817C31.931 9.96457 33.9838 7.81322 34.3187 6.21776C34.8549 4.18459 34.2749 1.65681 32.3424 0.571286C31.7778 0.269265 31.1606 0.0788609 30.5215 0.0241472C29.9459 0.00445032 29.3594 0.0635415 28.8079 0.229872C27.8559 0.545024 26.9936 1.18627 26.4333 2.02011C26.1094 2.53223 25.9059 3.10782 25.7636 3.69436C25.7133 3.96136 25.571 4.22618 25.6082 4.50193C25.6695 5.37079 26.9082 5.49773 27.1752 4.67483C27.3109 4.17803 27.4138 3.66809 27.6217 3.19537C27.7092 3.02028 27.8143 2.85176 27.9325 2.69419C27.939 2.68762 27.9434 2.68324 27.9478 2.67668C27.9675 2.65479 27.9894 2.63072 28.0112 2.60664C28.1644 2.4425 28.3395 2.29806 28.519 2.16237C28.6744 2.05732 28.8363 1.95883 29.0049 1.87785C29.3922 1.72466 29.1515 1.79031 29.7752 1.66556C29.8431 1.65681 29.9109 1.64806 29.9766 1.64149C30.0641 1.63711 30.2195 1.62836 30.307 1.63274C30.8104 1.67432 30.6725 1.63055 31.4079 1.90193C31.5304 1.97415 31.8609 2.08796 32.3118 2.66136L32.3161 2.66573C32.4278 2.84301 32.5306 3.02466 32.6116 3.21944C32.6269 3.25446 32.64 3.29166 32.6554 3.32668C32.6729 3.3792 32.6904 3.43173 32.7035 3.48644C32.9508 4.44722 32.9377 4.42315 32.837 5.46271C32.8064 5.62466 32.7692 5.78443 32.721 5.942C32.6641 6.12365 32.5963 6.29874 32.5175 6.47382C32.1914 7.11069 31.7405 7.67753 31.3006 8.23999C30.8542 8.84841 30.2589 9.38898 29.5695 10.3716C28.9917 11.2186 28.6372 12.1947 28.4971 13.208C28.4468 13.4969 28.4096 13.7858 28.3767 14.0747C28.3745 14.1141 28.3702 14.1557 28.3658 14.1951C27.7924 14.252 27.2234 14.3286 26.6587 14.4336C26.5537 14.4533 26.4508 14.4752 26.3458 14.4971C25.3084 14.6196 24.2776 14.8013 23.2621 15.0573C19.0622 16.0969 14.9412 17.4626 10.9405 19.1105C10.3802 19.3535 9.74774 19.5986 9.23124 19.9641C9.17215 19.9903 9.11744 20.0188 9.06929 20.0604C8.96862 20.1282 8.89202 20.2092 8.8373 20.2989C8.67754 20.4587 8.54185 20.6403 8.4368 20.8483C8.32518 20.9971 8.23326 21.1612 8.17198 21.3407C7.97282 21.901 8.28798 22.3803 8.85262 22.505C9.44572 22.6035 9.98411 22.4306 10.4962 22.1614C10.5312 22.1483 10.5663 22.1351 10.6013 22.1154C10.7829 22.0082 10.9733 21.9097 11.1659 21.8222C11.6846 21.6011 12.1946 21.3626 12.7089 21.1372C13.4333 20.8176 13.7484 20.741 14.8033 20.4324C15.7619 20.1611 16.7139 19.8656 17.6834 19.6446C18.9309 19.3666 20.1959 19.1893 21.4565 18.9902C23.5028 18.6641 24.5205 18.5765 26.3786 18.443C28.2038 18.3073 30.0379 18.2373 31.8631 18.3971C35.3254 18.6597 37.805 19.0274 40.9456 19.7715C44.2569 20.4872 46.9029 21.5727 49.5029 23.0368C50.0084 23.2841 50.5227 23.5664 51.0983 23.5971C51.6564 23.6146 52.1685 23.2185 52.1795 22.6319C52.1795 22.2555 52.0307 21.8988 51.8884 21.5574Z" fill="#BBA065"/>
</g>
<mask id="mask1_145_1504" style="mask-type:luminance" maskUnits="userSpaceOnUse" x="0" y="107" width="69" height="26">
<path d="M0.391846 107.104H68.7208L68.7208 132.83H0.391846L0.391846 107.104Z" fill="white"/>
</mask>
<g mask="url(#mask1_145_1504)">
<path d="M2.06571 110.194C1.09618 110.316 0.511837 111.435 0.623454 112.406C0.737259 113.376 1.34349 114.21 1.94753 114.976C5.31791 119.259 9.24199 123.1 13.595 126.378C15.823 128.057 18.1844 129.597 20.7954 130.582C23.82 131.725 27.0765 132.079 30.3003 132.313C37.1964 132.812 44.2283 132.78 50.8946 130.943C57.5609 129.109 63.8815 125.31 67.6743 119.53C68.0791 118.911 68.4687 118.208 68.3659 117.477C68.2323 116.514 67.3197 115.882 66.4815 115.389C47.1741 104.042 23.9206 107.456 2.06571 110.194Z" fill="#E3D6BF"/>
</g>
<path d="M32.6899 30.8404C32.6792 30.8297 32.6685 30.8211 32.6577 30.8125C32.6813 30.834 32.6899 30.8404 32.6899 30.8404Z" fill="white"/>
<path d="M38.5667 25.7285C38.5667 25.7328 38.5667 25.7392 38.5688 25.7455C38.5688 25.7434 38.5688 25.7413 38.5688 25.7413C38.5688 25.737 38.5667 25.7328 38.5667 25.7285Z" fill="white"/>
<mask id="mask2_145_1504" style="mask-type:luminance" maskUnits="userSpaceOnUse" x="0" y="14" width="70" height="106">
<path d="M0.391846 14.6587H69.9507L69.9507 119.429H0.391846L0.391846 14.6587Z" fill="white"/>
</mask>
<g mask="url(#mask2_145_1504)">
<path d="M55.7161 92.8736C50.341 80.5455 46.9072 67.4885 43.7097 54.4097C43.7141 54.4097 43.7185 54.4097 43.7229 54.4097C43.7185 54.3922 43.7119 54.3725 43.7075 54.355C43.6703 54.2303 43.6419 54.1033 43.6134 53.9764C43.6112 53.9764 43.609 53.9764 43.6047 53.9764C43.237 52.4729 42.8737 50.9671 42.5104 49.4636C41.7072 46.1479 41.0506 46.4806 39.9323 40.9501C38.6454 34.5967 43.1494 29.1779 43.1079 23.9975C43.4449 23.3322 43.7841 22.6691 44.0796 21.9863C44.375 21.2925 44.5851 20.5681 44.8128 19.8524C45.071 18.9464 45.3949 18.0534 45.5394 17.1211C45.6094 16.6856 45.7079 16.2479 45.6904 15.8036C45.6991 15.4775 45.4934 15.1273 45.1301 15.309C44.8981 15.4468 44.7471 15.6854 44.6136 15.913C44.5611 16.0071 44.5107 16.1012 44.4626 16.1975C44.456 16.029 44.4341 15.8627 44.3925 15.6985C44.3225 15.4118 44.0577 15.158 43.7601 15.3309C43.5412 15.4644 43.3924 15.6876 43.2589 15.8999C43.1954 16.029 43.0685 16.1581 43.0925 16.3091C43.121 16.4448 43.283 16.5171 43.4033 16.4514C43.5062 16.3967 43.5281 16.2697 43.5915 16.18C43.725 15.9612 43.7929 15.8649 43.9001 15.7598C43.9133 15.7489 43.9264 15.7379 43.9417 15.727C43.9526 15.7467 43.9614 15.7664 43.9702 15.7883C43.9723 15.797 43.9745 15.8058 43.9789 15.8189C44.0643 16.145 44.0424 16.3814 44.0074 16.8081C43.9505 17.5501 43.7097 18.2985 43.4011 19.1127C43.0269 20.0625 42.6855 21.0255 42.3594 21.995C42.1799 22.5115 42.0005 22.9711 41.7991 23.3979C41.67 23.2797 41.5321 23.1703 41.3636 23.109C40.9718 22.9536 40.5319 23.1221 40.359 23.5095C40.1796 23.7831 40.3262 24.4156 40.3284 24.5053C40.3284 24.514 40.3284 24.5228 40.3284 24.5337C40.3065 24.5491 40.2868 24.5666 40.2649 24.5819C40.2299 24.5469 40.184 24.4922 40.0877 24.398C39.79 24.1179 39.372 23.9516 38.9627 24.0063C38.2208 24.096 38.2777 24.792 38.4659 25.3391C38.4988 25.4683 38.5491 25.5952 38.5666 25.7287C38.5666 25.7112 38.571 25.709 38.5688 25.7418C38.5688 25.7462 38.571 25.7506 38.571 25.755C38.571 25.7571 38.571 25.7571 38.571 25.7571C38.571 25.7528 38.5688 25.7484 38.5688 25.7462C38.5688 25.7506 38.5688 25.7528 38.5688 25.7571C38.5644 25.7746 38.5644 25.7834 38.5644 25.7878C38.5579 25.8097 38.5491 25.8316 38.5447 25.8469C38.5403 25.8534 38.536 25.8578 38.5316 25.8644C38.501 25.8885 38.4703 25.9103 38.4375 25.9322C38.4375 25.9322 38.4375 25.9322 38.4353 25.9322C38.2887 25.8425 38.1639 25.6827 37.9079 25.5492C37.3257 25.2385 36.737 25.4836 36.6626 26.1642C36.6144 26.4334 36.7895 27.009 36.7829 27.0703C36.7851 27.0856 36.7851 27.1119 36.7829 27.1403C36.7217 27.1863 36.6604 27.2322 36.5991 27.2782C36.2818 27.1403 35.5333 26.707 35.0846 27.1666C34.5637 27.659 34.8614 28.2039 34.9511 28.6417C34.903 28.6832 34.857 28.727 34.8111 28.7708C34.4171 28.6198 33.7562 28.3681 33.336 28.762C33.093 28.9984 32.9902 29.3661 33.0449 29.6965C33.0843 29.9438 33.2025 30.1715 33.2419 30.4188C33.1893 30.4844 33.1346 30.5479 33.0799 30.6157C33.0121 30.5523 32.9289 30.4757 32.8479 30.4188C32.6816 30.3028 32.4934 30.2043 32.2898 30.1868C31.7318 30.1627 31.3597 30.7405 31.4779 31.2592C31.526 31.5349 31.769 32.0361 31.7865 32.1171C31.8171 32.2003 31.8434 32.2834 31.8653 32.3622C31.723 32.5964 31.5851 32.8393 31.4516 33.091C31.3641 33.0604 31.2831 32.9969 31.2153 32.9159C31.1802 32.859 31.1474 32.8043 31.1102 32.7474C31.073 32.6598 31.0511 32.5657 31.0577 32.4738C31.0489 32.1718 31.2831 31.7472 31.2459 31.2964C31.2131 30.8784 30.76 30.5895 30.388 30.828C30.2107 30.9331 30.0422 31.1782 30.0115 31.2045C29.9875 31.2307 29.9634 31.2548 29.9393 31.2767C29.8912 31.2263 29.843 31.1782 29.7949 31.1279C29.7971 31.095 29.8014 31.0666 29.8058 31.0447C29.854 30.8609 29.9503 30.6901 29.9722 30.4976C29.9984 30.1408 29.7051 29.8103 29.3615 29.7469C29.1055 29.6812 28.8582 29.7841 28.6284 29.8891C28.5955 29.9023 28.5627 29.911 28.5321 29.9154C28.4402 29.8344 28.3504 29.7513 28.2585 29.6703C28.2607 29.6002 28.276 29.5127 28.3045 29.3836C28.357 29.1385 28.4292 28.8868 28.3833 28.6329C28.2432 27.9938 27.5363 28.1624 27.1489 28.4731C27.0964 28.5103 27.0614 28.5388 27.0329 28.5607C26.9104 28.4447 26.79 28.3309 26.674 28.2171C26.6631 28.0923 26.6849 28.0004 26.7046 27.9129C26.7681 27.6371 26.9191 27.3614 26.8556 27.0703C26.8009 26.7836 26.5077 26.545 26.21 26.5954C25.9868 26.6413 25.8095 26.7967 25.6476 26.9477C25.6147 26.9784 25.5819 27.0046 25.5491 27.0287C25.4068 26.8996 25.2339 26.7639 25.0348 26.6282C25.0632 26.4816 25.0917 26.313 25.1026 26.1358C25.1223 25.7287 24.7831 25.3172 24.3563 25.3676C24.0565 25.3785 23.8289 25.5908 23.5772 25.7221C23.5597 25.7287 23.5444 25.7331 23.5269 25.7374C23.3255 25.6324 23.1198 25.5252 22.9141 25.4223C22.9141 25.4026 22.9141 25.3851 22.9141 25.3632C22.9141 25.1071 22.9578 24.8467 22.8944 24.595C22.7959 24.1989 22.3932 24.0085 22.0146 24.1376C21.7082 24.2055 21.4827 24.5797 21.3383 24.6497C21.2179 24.5928 21.1041 24.5381 20.9969 24.4856C21.0013 24.444 21.0122 24.3959 21.0188 24.3258C21.0603 24.1157 21.1304 23.9034 21.0844 23.689C21.0341 23.4351 20.8262 23.1922 20.5548 23.1856C20.1521 23.2009 19.9004 23.5358 19.6816 23.8422C19.4671 23.7656 19.2898 23.7327 19.1147 23.7327C18.8346 22.3277 18.6332 20.9051 18.2984 19.511C17.946 18.1147 17.3289 16.3792 17.5324 15.2718C17.539 15.2499 17.5477 15.2302 17.5543 15.2083C17.5587 15.217 17.563 15.2236 17.5696 15.2324C17.7119 15.5081 17.7512 15.7204 17.8607 16.1056C17.8935 16.215 17.9263 16.3245 17.9504 16.4361C17.9548 16.4864 17.9679 16.5367 18.0051 16.5761C18.097 16.679 18.2721 16.6615 18.3465 16.5455C18.4231 16.4208 18.3465 16.2697 18.3181 16.1384C18.1846 15.716 18.1211 15.2477 17.8497 14.8866C17.6331 14.624 17.2654 14.7246 17.1603 15.0332C17.0925 15.2411 17.064 15.4797 17.0619 15.7401C16.9809 15.5891 16.8868 15.449 16.7839 15.3593C16.5322 15.1098 16.2039 15.2718 16.1689 15.6066C15.9151 17.2568 16.3834 18.9113 16.7511 20.509C17.0268 21.6842 17.4317 22.8245 17.8454 23.9581C17.7753 23.9713 17.7009 23.9844 17.6221 23.9975C18.4516 30.1583 19.8676 35.0804 20.6752 41.3068C17.6506 59.1107 14.4312 78.2365 7.90056 95.0753C5.62008 100.96 2.92159 106.683 0.395996 111.496C4.92193 116.63 12.6366 117.062 19.4802 117.116C22.9272 117.145 26.3742 117.173 29.8211 117.199C33.8131 117.232 37.5467 117.661 41.3264 117.528C42.3484 117.493 41.4664 116.162 41.3351 115.149C44.0511 116.924 47.3559 117.782 50.5927 117.556C52.035 117.455 53.4641 117.145 54.9108 117.167C57.5217 117.206 59.9816 118.311 62.5138 118.944C65.046 119.578 68.0049 119.644 69.968 117.922C64.385 110.084 59.5636 101.696 55.7161 92.8736ZM43.3158 20.5418C43.6769 19.5416 44.1365 18.5634 44.3378 17.515C44.3707 17.3268 44.4013 17.1364 44.4254 16.9438C44.4845 16.9504 44.5457 16.9351 44.5917 16.8891C44.7777 16.5805 45.0119 15.9721 45.257 15.7511C45.257 15.7554 45.257 15.7576 45.2592 15.762C45.2592 15.7817 45.2614 15.8014 45.2614 15.8211C45.2111 17.3509 44.6836 18.7472 44.2197 20.3011C43.9111 21.3231 43.5675 22.1548 43.1232 23.0127C42.9941 23.2797 42.8584 23.5423 42.7249 23.8049C42.5388 23.7415 42.3835 23.6167 42.2127 23.5248C42.6548 22.5618 42.9612 21.5398 43.3158 20.5418ZM40.8055 23.6036C40.9215 23.446 41.1338 23.4285 41.4161 23.6321C41.1863 23.8334 40.9565 24.0282 40.7223 24.2186C40.7158 24.1748 40.7092 24.1289 40.7048 24.0851C40.6829 23.9735 40.6829 23.7415 40.8055 23.6036ZM18.2656 23.8728C17.9942 23.1287 17.7294 22.3211 17.4667 21.5223C17.2501 20.8373 17.1144 20.1304 16.9371 19.4344C16.7795 18.7866 16.5935 17.6945 16.5563 17.2502C16.5169 16.7753 16.5038 16.1691 16.576 15.7751C16.6417 15.8671 16.7226 16.0049 16.7949 16.1647C16.9174 16.4339 16.9152 16.5149 17.064 16.8235C17.0903 16.8738 17.1341 16.911 17.1888 16.9285H17.191C17.3814 17.9199 17.7294 18.9748 17.9001 19.6883C18.1824 20.8591 18.3487 22.0563 18.5807 23.2381C18.6157 23.4198 18.6507 23.6014 18.6858 23.7831C18.561 23.8071 18.4231 23.8378 18.2656 23.8728ZM20.638 24.0654C20.6226 24.1376 20.6051 24.212 20.592 24.2842C20.4738 24.2251 20.3666 24.1704 20.2747 24.1201C20.209 24.0829 20.1455 24.0501 20.0864 24.0216C20.1346 23.9516 20.1827 23.8859 20.2265 23.829C20.2659 23.7918 20.3359 23.7218 20.36 23.7043C20.3841 23.6868 20.3885 23.6824 20.3841 23.6846C20.4103 23.6671 20.4629 23.643 20.4891 23.6321C20.5066 23.6255 20.5242 23.6211 20.5417 23.6189C20.546 23.6189 20.5504 23.6189 20.5548 23.6189C20.557 23.6211 20.5614 23.6211 20.5657 23.6233C20.5723 23.6277 20.5789 23.6299 20.5832 23.6342C20.5854 23.6364 20.5898 23.6386 20.5942 23.643C20.6051 23.6539 20.6139 23.6649 20.6226 23.678C20.627 23.6824 20.6292 23.6868 20.6314 23.6911C20.6839 23.8093 20.6817 23.8487 20.638 24.0654ZM22.4873 25.21C22.2422 25.0874 21.9992 24.9714 21.7694 24.8598C21.8351 24.8007 21.8964 24.7373 21.9467 24.6716C22.0846 24.5512 22.008 24.5972 22.1721 24.5425C22.194 24.5403 22.2203 24.5359 22.24 24.5315C22.437 24.525 22.5026 24.6366 22.4982 24.9518C22.496 25.0349 22.4895 25.1225 22.4873 25.21ZM24.6452 26.3721C24.4395 26.2452 24.2162 26.1161 23.9843 25.9869C24.0302 25.9563 24.0762 25.9257 24.1178 25.895C24.4876 25.6849 24.6693 25.8316 24.6715 26.1598C24.6737 26.2167 24.6605 26.2911 24.6452 26.3721ZM26.4398 27.2694C26.4048 27.4204 26.3326 27.6152 26.2866 27.8297C26.1312 27.6678 25.9824 27.5058 25.8423 27.3438C26.07 27.16 26.1597 27.0418 26.2954 27.0199C26.2998 27.0199 26.3041 27.0199 26.3063 27.0199C26.3151 27.0221 26.3238 27.0265 26.3326 27.0287C26.337 27.0309 26.3413 27.0331 26.3457 27.0374C26.3588 27.0462 26.372 27.055 26.3829 27.0637C26.3895 27.0725 26.396 27.079 26.4004 27.0834C26.4551 27.1775 26.4398 27.1644 26.4398 27.2694ZM27.9587 28.9437C27.9565 28.9918 27.9127 29.1494 27.8777 29.3267C27.7004 29.1691 27.5275 29.0115 27.3546 28.8561C27.6523 28.6307 27.8843 28.576 27.9455 28.6635C27.9477 28.6723 27.9631 28.7183 27.9674 28.7511C27.9674 28.7992 27.9652 28.9108 27.9587 28.9437ZM29.4403 30.7689C29.2609 30.5917 29.0748 30.4166 28.8888 30.2437C29.0333 30.1868 29.1339 30.1496 29.158 30.1561C29.4425 30.1496 29.5279 30.3509 29.5432 30.4253C29.5673 30.4757 29.4972 30.6092 29.4403 30.7689ZM30.8235 31.3905C30.8235 31.4343 30.8147 31.5087 30.8126 31.5393C30.7754 31.7363 30.7141 31.9332 30.6725 32.1302C30.5324 31.9486 30.3836 31.7713 30.2282 31.594C30.3595 31.4736 30.4536 31.3358 30.504 31.2898C30.644 31.1607 30.6375 31.176 30.7009 31.176C30.7097 31.1782 30.7184 31.1804 30.7272 31.1826C30.7338 31.1891 30.7447 31.1957 30.7557 31.2023C30.76 31.2066 30.7666 31.2132 30.7732 31.222C30.7819 31.2395 30.7994 31.2701 30.8082 31.292C30.8169 31.3161 30.8191 31.3445 30.8235 31.3708C30.8235 31.3292 30.8235 31.3511 30.8235 31.3708V31.373C30.8257 31.3905 30.8235 31.3927 30.8235 31.3905ZM32.1585 31.8917C32.1169 31.7866 32.0754 31.6838 32.036 31.5831C31.7536 30.9725 31.9309 30.7186 32.187 30.6179C32.2132 30.6135 32.2592 30.6157 32.2855 30.6179C32.3073 30.6245 32.327 30.6311 32.3489 30.6354C32.4299 30.6639 32.489 30.6901 32.6488 30.8061C32.675 30.8215 32.6925 30.839 32.6903 30.8412C32.7319 30.8762 32.7735 30.9156 32.8173 30.955C32.5919 31.2526 32.3708 31.5634 32.1585 31.8917ZM33.5833 30.0204C33.5504 29.9198 33.5154 29.8191 33.4892 29.7162C33.4126 29.4361 33.4957 29.2304 33.6292 29.0794C33.754 28.9415 34.0648 28.9546 34.4653 29.0991C34.1654 29.3901 33.87 29.6965 33.5833 30.0204ZM35.3166 28.3178C35.2882 28.2215 35.2597 28.123 35.2356 28.0289C35.1415 27.7006 35.3297 27.4555 35.5486 27.3876C35.669 27.3592 35.9425 27.4576 36.2183 27.5758C35.9141 27.8144 35.6121 28.0617 35.3166 28.3178ZM37.1813 26.8427C37.1484 26.6763 37.1047 26.5122 37.085 26.3415C37.085 26.2999 37.0893 26.2364 37.0915 26.2102C37.1703 25.8666 37.2294 25.8469 37.4877 25.8512C37.6321 25.8709 37.8422 25.9957 38.072 26.197C37.7744 26.4093 37.4767 26.6238 37.1813 26.8427ZM38.8161 24.989C38.6607 24.4243 38.9058 24.4134 39.2429 24.4331C39.5274 24.4856 39.6718 24.6081 39.7747 24.6935C39.8228 24.7416 39.871 24.7942 39.9213 24.8467C39.6084 25.0853 39.291 25.3172 38.9737 25.547C38.9343 25.3588 38.8533 25.175 38.8161 24.989Z" fill="white"/>
</g>
<path d="M34.2881 10.2008C33.997 10.1767 33.7125 10.2643 33.439 10.354C33.0472 10.4831 32.6795 10.667 32.3272 10.8793C31.4583 11.387 30.712 12.0677 30.0139 12.7855C29.8213 12.989 29.6374 13.1991 29.458 13.4136C29.4405 13.3983 29.4208 13.3852 29.3989 13.3742C29.3026 13.3151 29.2063 13.3064 29.1231 13.3305C28.4228 11.9845 27.0768 10.864 25.5667 10.6735C25.1793 10.6363 24.7591 10.656 24.4112 10.8508C24.0085 11.0697 23.7874 11.5621 23.8925 12.0086C24.0347 12.6017 24.525 13.0459 25.0086 13.3852C25.9125 13.9848 26.9937 14.2693 28.0595 14.3963C28.1864 14.4138 28.3155 14.4247 28.4425 14.4269C28.0661 14.8646 27.8844 15.438 27.7553 15.9961C27.578 16.6768 27.4051 17.7119 27.1863 18.1694C26.8733 18.6924 26.58 18.966 26.0745 19.3818C25.8315 19.6072 25.3916 19.7714 25.0086 20.0428C24.8423 20.1653 24.5272 20.3032 24.7176 20.5418C24.7963 20.6271 24.9386 20.6359 25.0218 20.5549C25.0546 20.5352 25.0721 20.5221 25.0743 20.5199C25.2187 20.417 25.3654 20.3141 25.5186 20.2266C26.0613 19.9618 26.5472 19.5985 26.963 19.163C27.2935 18.8106 27.6086 18.4232 27.7246 17.9439C28.0004 17.0729 28.0901 16.1493 28.414 15.2936C28.5344 15.0047 28.762 14.6283 29.1494 14.37C29.191 14.3416 29.191 14.3372 29.2304 14.3131C29.2479 14.3219 29.2654 14.3263 29.2829 14.3306C29.3551 14.8712 29.493 15.403 29.5302 15.9502C29.5915 16.4929 29.5652 17.6813 29.5346 18.4429C29.4974 19.8327 29.2654 21.2968 29.8322 22.6143C29.9263 22.8266 30.0336 23.0323 30.1649 23.2227C30.213 23.2884 30.2502 23.3694 30.3356 23.3913C30.5588 23.4591 30.7098 23.1812 30.5457 23.0192C29.8607 22.0037 29.8607 20.9926 29.9044 19.7123C29.9592 18.7734 29.9964 17.8345 30.0007 16.8934C30.0007 16.3419 29.957 15.7926 29.876 15.2476C29.8257 14.9062 29.7118 14.3897 29.69 14.1599C30.7624 14.0571 31.8632 13.9848 32.8765 13.5975C33.9007 13.1904 35.0913 12.3106 35.1066 11.1091C35.1045 10.6276 34.7674 10.2555 34.2881 10.2008ZM28.7226 13.9848C28.2827 14.0352 27.5539 13.9082 27.0309 13.7769C25.8884 13.4727 24.9189 13.0219 24.4002 12.1596C24.1989 11.8007 24.3149 11.4089 24.5972 11.2404C25.083 10.923 26.0964 11.1594 26.6063 11.422C27.5911 11.9385 28.2521 12.6214 28.7379 13.5077C28.8342 13.6806 28.878 13.8294 28.9305 13.9433C28.8605 13.9586 28.7927 13.9739 28.7226 13.9848ZM33.8176 12.5645C33.0691 13.1926 32.0624 13.4705 30.9265 13.5996C30.4713 13.6478 30.1211 13.7025 29.7578 13.731C30.6814 12.617 31.8698 11.503 33.2595 10.8793C33.5046 10.7655 34.194 10.5532 34.3385 10.6473C34.995 10.8377 34.6339 11.9495 33.8176 12.5645Z" fill="#E8C4B9"/>
<path d="M24.8576 69.1058C24.8642 68.9066 24.9298 68.6965 24.8445 68.5105C24.7372 68.1997 24.2842 68.1122 24.0588 68.3551C23.8793 68.5346 23.9209 68.7907 23.8946 69.0226C23.8618 69.4888 23.8246 69.9528 23.783 70.4189C23.6079 72.0166 23.5204 73.6252 23.492 75.2338C23.4854 75.2885 23.4788 75.341 23.4723 75.387C23.1812 77.453 22.8332 80.2456 22.3233 82.6814C22.2817 82.8675 22.2423 83.0535 22.2007 83.2395C21.9972 83.8545 21.798 84.4717 21.6295 85.0976C21.496 85.5878 21.3603 86.0803 21.2224 86.5683C21.1524 86.7324 21.078 86.89 21.0014 87.041C19.859 89.4134 18.6771 91.7836 17.8761 94.2983C17.213 96.4212 16.935 98.6535 16.1143 100.728C15.6985 101.744 14.8165 103.492 14.4839 104.97C14.3919 105.326 14.3131 105.688 14.2716 106.053C14.2365 106.333 14.2169 106.631 14.335 106.893C14.5079 107.307 14.8012 107.657 15.0726 108.01C15.2783 108.263 15.5103 108.498 15.7642 108.703C15.8977 108.804 16.018 108.935 16.1844 108.983C16.5039 109.097 16.8497 108.832 16.8453 108.498C16.8387 108.281 16.7315 108.086 16.6593 107.885C16.4951 107.484 16.3967 107.152 16.331 106.837C16.3332 106.828 16.3332 106.817 16.3354 106.806C16.4054 106.066 16.4711 105.326 16.5236 104.584C16.5936 102.86 17.0423 101.238 17.6704 99.3648C18.1628 97.8022 18.7581 96.4562 19.279 95.2175C19.8371 93.8277 20.3842 92.4314 20.8788 91.0154C21.2421 89.8862 21.6032 88.7569 21.9359 87.6188C22.0125 87.3496 22.0891 87.0782 22.1635 86.809C22.2313 86.6515 22.297 86.4939 22.3605 86.3341C22.5837 85.7213 22.7478 85.091 22.9054 84.4607C22.982 84.1499 23.0564 83.8348 23.1265 83.5218C23.5051 82.3772 23.9012 81.2348 24.1463 80.0552C24.4068 78.7989 24.4527 77.5142 24.4505 76.2339C24.4505 75.8925 24.4527 75.5533 24.4593 75.2119C24.5053 74.8705 24.5512 74.5312 24.5972 74.2008C24.8073 72.7301 24.9561 70.6925 25.1049 69.6617C25.1728 69.4035 25.0415 69.1999 24.8576 69.1058Z" fill="#E3D6BF"/>
<path d="M32.1761 112.577C31.896 111.369 31.8172 110.769 31.6969 109.658C31.4123 106.867 31.1628 104.066 31.1738 101.256C31.1979 99.4393 31.4277 97.6315 31.5349 95.8172C31.6027 94.6004 31.6596 93.377 31.5874 92.1601C31.5174 91.0812 31.327 90.0153 31.1891 88.9451C31.1016 88.3367 31.0578 87.8902 30.9243 87.0389C30.9068 86.9317 30.8893 86.831 30.8718 86.7347C30.8543 86.4699 30.9221 86.1832 30.8324 85.9315C30.8061 85.8658 30.7689 85.8111 30.7229 85.7673C30.6923 85.4741 30.6573 85.1808 30.6201 84.8875C30.6201 84.8744 30.6179 84.8613 30.6179 84.8482C30.6135 84.8 30.6091 84.7497 30.6091 84.7015L30.596 84.7125C30.5873 84.6468 30.5785 84.5811 30.5697 84.5133C30.4362 84.1544 29.8957 84.1106 29.7053 84.4564C29.6309 84.5768 29.6352 84.7212 29.6484 84.8591C29.6681 85.1042 29.6921 85.3493 29.725 85.5944C29.7315 85.6448 29.7403 85.6929 29.7469 85.7433C29.8125 86.3429 29.8628 86.9426 29.9022 87.5445C29.9044 90.2561 29.946 92.9677 29.8038 95.6749C29.609 99.1197 29.2019 102.551 29.0772 106.001C29.0159 107.57 29.0421 109.141 29.1603 110.708C29.1953 111.194 29.2347 111.678 29.3048 112.157C29.3551 112.571 29.458 113.021 29.8191 113.273C30.1911 113.551 30.6836 113.59 31.1256 113.687C32.0426 113.919 32.36 113.448 32.1761 112.577ZM30.5063 112.555C30.4931 112.551 30.4822 112.547 30.4713 112.544C30.4538 112.536 30.4341 112.527 30.4187 112.516C30.4144 112.514 30.4122 112.512 30.41 112.509C30.3969 112.498 30.3859 112.49 30.375 112.479C30.364 112.463 30.3553 112.45 30.3487 112.435C30.3421 112.415 30.3356 112.389 30.3268 112.356C30.3356 112.369 30.3443 112.382 30.3553 112.396C30.4472 112.531 30.6376 112.61 30.7995 112.577C30.9396 112.568 31.0578 112.481 31.1388 112.367C31.1672 112.496 31.1935 112.619 31.2154 112.719C31.1957 112.715 31.1716 112.711 31.1475 112.706C30.933 112.665 30.7164 112.619 30.5063 112.555Z" fill="#E3D6BF"/>
<path d="M52.0875 91.4599C51.884 90.8602 51.6301 90.2781 51.3741 89.6981C50.7635 88.3762 50.1638 87.05 49.597 85.7062C48.7828 83.7978 47.6492 80.8388 46.8131 78.4643C46.2791 76.8666 45.8677 75.2296 45.3162 73.6341C44.0643 69.8238 42.8321 66.0026 41.4402 62.2405C41.3045 61.9144 41.1667 61.5883 41.0178 61.2688C40.9456 61.1265 40.8887 60.9646 40.7683 60.8529C40.5232 60.5947 40.0417 60.7151 39.9586 61.0674C39.9082 61.1944 39.952 61.3322 39.9739 61.4592C40.0198 61.6649 40.0658 61.8706 40.1118 62.0764C40.521 63.9322 41.0244 65.7706 41.6547 67.5653C42.1274 68.8346 42.6877 70.0711 43.1911 71.3296C43.55 72.2444 43.8848 73.1723 44.2503 74.0872C44.5414 74.7809 44.8194 75.4813 45.0098 76.21C45.314 77.2474 45.4584 78.322 45.7189 79.3703C46.0559 80.6878 46.5002 81.9747 47.0035 83.2375C47.4434 84.3712 47.9424 85.4808 48.437 86.5926C48.8835 87.6431 49.3278 88.6958 49.8049 89.7353C49.8377 89.8097 49.8705 89.882 49.9056 89.9564C49.9581 90.1512 50.0106 90.3481 50.0631 90.5451C50.3104 91.3483 50.7569 92.7249 51.7221 92.8146C51.9803 92.8453 52.2473 92.6505 52.2998 92.3966C52.3699 92.0705 52.1685 91.7663 52.0875 91.4599Z" fill="#E3D6BF"/>
<path d="M40.2124 66.1273C39.6872 64.3327 39.3239 62.4965 38.7986 60.7019C38.6542 60.1788 38.5119 59.6536 38.3325 59.1414C38.2077 58.7935 38.0589 58.3076 37.6124 58.3185C36.7501 58.4192 37.1791 59.6076 37.3016 60.1526C37.5008 60.8923 37.7481 61.6189 37.9845 62.3477C38.2383 63.1662 38.4025 64.0088 38.5951 64.8426C38.6958 65.2891 38.7811 65.7377 38.8424 66.1908C38.9015 66.4337 38.8665 66.7532 39.0197 66.9524C39.105 67.0684 39.2166 67.1253 39.3348 67.1384C39.372 67.2303 39.4399 67.3091 39.5296 67.3617C39.871 67.563 40.2431 67.2785 40.3109 66.9283C40.3722 66.6569 40.2803 66.3878 40.2124 66.1273Z" fill="#E3D6BF"/>
<path d="M27.0946 38.5579C26.7925 38.5098 26.4861 38.4967 26.1819 38.4595C25.742 38.4069 25.1424 38.326 24.4048 38.1815C23.7132 38.0393 23.026 37.8664 22.3695 37.5994C22.3651 37.5972 22.3629 37.5972 22.3585 37.595C22.1419 37.4965 21.9274 37.3893 21.7173 37.2754C21.4809 37.1682 21.2686 36.9778 21.0126 36.9297C20.5004 36.8421 20.2531 37.5665 20.704 37.8248C21.6451 38.4069 22.6737 38.7768 23.7351 39.0263C23.5863 39.0723 23.4375 39.1204 23.2908 39.1707C23.1377 39.2386 22.956 39.2605 22.8247 39.3655C22.5467 39.5494 22.5861 40.009 22.875 40.1643C23.0632 40.2781 23.2668 40.2191 23.455 40.1403C23.6957 40.0527 23.9365 39.9718 24.1838 39.9061C24.6018 39.7967 25.0286 39.731 25.4553 39.6719C25.823 39.6238 26.1929 39.58 26.5627 39.5494C26.9085 39.5275 27.4097 39.5537 27.4557 39.0963C27.5082 38.8556 27.3222 38.6214 27.0946 38.5579Z" fill="#E3D6BF"/>
<path d="M38.9978 39.0415C38.8577 38.8905 38.6388 38.8992 38.4506 38.862C38.1902 38.8248 37.9319 38.7876 37.6693 38.7657C37.1397 38.7263 36.6057 38.7241 36.0738 38.7263C36.4503 38.5841 36.8245 38.4374 37.1966 38.2799C37.4373 38.1792 37.6781 38.0719 37.9144 37.9581C38.0282 37.899 38.1617 37.8575 38.2318 37.7437C38.49 37.4504 38.2361 36.9536 37.851 36.9645C37.6627 36.9645 37.5117 37.0937 37.3432 37.1615C36.7589 37.4285 36.7676 37.4198 36.2183 37.643C35.4654 37.9297 34.7016 38.1857 33.9509 38.4834C33.6861 38.6147 33.3228 38.63 33.1543 38.897C32.9486 39.2297 33.244 39.6586 33.6117 39.6258C33.6949 39.7221 33.8153 39.7856 33.9663 39.7834C34.5068 39.7002 35.054 39.7068 35.5989 39.6959C36.2511 39.698 36.9011 39.6849 37.5511 39.7265C38.0851 39.7703 37.9801 39.7659 38.4003 39.8294C38.5666 39.8644 38.7461 39.9016 38.8993 39.8031C39.1707 39.6521 39.2188 39.256 38.9978 39.0415Z" fill="#E3D6BF"/>
</svg>
