<svg width="174" height="97" viewBox="0 0 174 97" fill="none" xmlns="http://www.w3.org/2000/svg">
<g opacity="0.5">
<mask id="mask0_248_1346" style="mask-type:luminance" maskUnits="userSpaceOnUse" x="-54" y="0" width="228" height="97">
<path d="M-54 96.542L173.733 96.542L173.733 -4.57764e-05L-54 -4.57764e-05L-54 96.542Z" fill="white"/>
</mask>
<g mask="url(#mask0_248_1346)">
<mask id="mask1_248_1346" style="mask-type:luminance" maskUnits="userSpaceOnUse" x="-54" y="0" width="228" height="97">
<path d="M173.469 96.2778L-53.471 96.2778L-53.471 0.131516L173.469 0.131516L173.469 96.2778Z" fill="white"/>
</mask>
<g mask="url(#mask1_248_1346)">
<path fill-rule="evenodd" clip-rule="evenodd" d="M89.4771 95.9755C91.7098 95.432 92.8556 92.9647 92.5808 89.2979C92.4289 87.278 92.0632 85.5061 91.0414 81.8434C90.3388 79.3234 89.8997 77.5009 89.6817 76.2104C89.5112 75.202 89.3552 72.4837 89.4678 72.4837C89.4988 72.4837 89.8459 72.744 90.2386 73.0623C95.3467 77.194 102.884 74.1915 102.271 68.2672C101.694 62.6838 93.1201 61.8727 89.3448 67.0449L89.1124 67.3631L89.0462 67.1276C88.8944 66.581 88.9729 64.3586 89.1682 63.6787C89.7654 61.6103 91.1002 60.1266 93.3857 58.9942C94.2794 58.552 94.6162 58.4208 96.9316 57.6118C104.269 55.0484 106.557 51.828 107.284 43.0375C107.751 37.3932 108.783 34.8629 111.815 31.9368C114.185 29.6483 117.915 27.6532 120.786 27.1366L121.117 27.0777L120.473 27.7266C114.638 33.6251 117.678 43.2514 125.384 43.2731C126.981 43.2772 128.559 42.742 129.733 41.7977C130.006 41.5776 130.274 41.3637 130.328 41.3224C130.481 41.2036 131.703 45.0863 132.462 48.1074L132.674 48.9515L131.507 50.3846C126.492 56.5342 124.797 60.294 124.585 65.7327C124.289 73.3082 127.782 77.4213 131.972 74.4323C136.633 71.1054 137.849 62.3087 135.241 50.7906L134.914 49.3483L135.512 48.5713C140.699 41.8349 142.388 35.9963 140.618 30.9284C138.769 25.6354 132.766 22.7403 126.68 24.2054C125.815 24.4141 125.875 24.4596 125.634 23.4129C124.515 18.56 124.826 14.5708 126.484 12.5086C129.533 8.71468 140.046 8.64648 149.1 12.3619C151.002 13.143 154.041 14.8612 153.985 15.1257C153.976 15.1701 153.784 15.6164 153.559 16.1175C151.096 21.608 152.018 26.3813 155.596 26.6562C156.972 26.7616 158.347 25.8131 159.088 24.2467C160.449 21.3714 159.652 17.9504 156.95 15.0616C156.348 14.4179 156.313 14.6091 157.306 13.1357C161.104 7.50274 167.678 2.24065 172.49 0.981186C173.866 0.620598 173.473 0.128799 171.815 0.136032C167.711 0.153595 158.916 6.93861 155.317 12.864C154.968 13.4374 155.1 13.4323 154.32 12.9002C147.108 7.98007 133.61 5.98187 127.69 8.95851C123.25 11.1902 121.917 16.3583 123.798 24.0484L124.037 25.0216H123.306C118.459 25.0216 112.356 27.9952 109.028 31.9792C106.614 34.8701 105.691 37.5657 105.257 42.9962C104.595 51.2948 102.944 53.5885 95.8323 56.0889C92.3442 57.3153 90.9597 58.0499 89.5969 59.3961C87.0697 61.8934 86.2483 66.239 87.6731 69.5742C87.8219 69.9224 87.8229 69.9585 87.6845 70.4999C86.9706 73.3113 87.3053 76.1711 89.0617 82.2577C90.6994 87.9341 91.1023 90.514 90.6477 92.3965C90.0391 94.9123 87.9645 95.2791 85.9126 93.2334C84.7564 92.0814 83.8772 90.5719 82.4389 87.2739C80.1607 82.0469 78.9963 80.8939 76.1581 81.053C74.2333 81.1594 74.4234 81.1822 74.2477 80.8226C73.9357 80.1831 73.7632 78.6952 73.4016 73.5189C73.2517 71.3699 73.1536 65.555 73.2393 63.937L73.3003 62.8047L73.6857 63.0785C75.9794 64.7119 79.5419 65.1821 81.6341 64.1261C86.2845 61.7787 85.3453 54.0287 80.1669 52.0325C76.4505 50.5995 73.3261 52.8446 72.3239 57.6686C72.1256 58.6264 72.0946 58.6233 71.767 57.6046C71.2794 56.0878 70.9901 53.6619 71.0862 51.9003C71.1089 51.4901 71.1482 50.7452 71.174 50.243C71.1998 49.743 71.33 48.1591 71.4633 46.724C71.8363 42.6935 71.8766 42.0343 71.8755 39.8532C71.8735 34.431 70.738 30.5771 68.1353 27.1573C61.2677 18.1312 46.7636 19.586 39.8815 29.9913C37.6581 33.3533 36.3728 37.8126 36.7385 40.9009C36.8015 41.4257 36.7902 41.7832 36.691 42.4744C36.2891 45.2548 36.5412 48.8007 37.5837 55.0484C39.1293 64.3038 38.9041 67.0614 36.6052 67.0573C35.0637 67.0542 33.6224 65.6315 31.9496 62.4606C30.2965 59.3259 29.5041 58.6037 27.728 58.615C25.0355 58.6316 22.2872 60.8612 20.2301 64.6975C18.5893 67.7557 18.0903 68.3374 16.8877 68.5957C15.1137 68.977 12.5327 67.0563 10.8755 64.1241C9.80199 62.2261 9.06429 59.9231 8.13855 55.5857C6.83672 49.4795 5.91096 47.5268 3.84148 46.5173C0.236649 44.7568 -4.08522 46.9895 -9.6521 53.4883C-10.6119 54.6083 -10.7824 54.7695 -11.2205 54.9668C-11.8363 55.2427 -11.8197 55.2695 -11.6679 54.2477C-11.3176 51.8807 -11.2814 47.8471 -11.5842 44.6524C-12.0956 39.2477 -11.6968 36.5511 -9.94965 33.6065C-9.44235 32.752 -9.37416 32.2871 -9.69342 31.8397C-10.0478 31.3417 -10.1956 31.3293 -12.3208 31.6155C-15.499 32.0443 -19.9955 31.7498 -24.993 30.7838C-29.3697 29.9376 -30.6116 30.0781 -31.4516 31.5112C-32.3742 33.0847 -32.0539 35.1439 -29.879 41.6293C-27.9862 47.2757 -27.5202 49.3235 -27.5202 51.985C-27.5202 53.1019 -27.5708 53.1484 -27.9366 52.3725C-29.2457 49.587 -31.6747 48.2882 -34.3269 48.9567C-38.4267 49.9899 -40.4094 54.8542 -38.1208 58.2638C-37.9018 58.5902 -37.7313 58.8671 -37.7427 58.8795C-37.7541 58.8899 -38.3192 58.6543 -38.9991 58.3557C-41.5335 57.2399 -42.6927 56.9537 -44.6662 56.9537C-47.6263 56.9537 -50.5905 58.1604 -52.1176 59.9882C-53.874 62.0907 -53.5579 63.5331 -51.6847 61.9564C-49.5129 60.1297 -46.9392 59.0531 -44.7075 59.0407C-43.3127 59.0325 -42.3105 59.3001 -39.7481 60.3663C-33.8734 62.8098 -29.1796 62.2829 -27.6194 59.0046C-27.451 58.6502 -27.1462 58.1191 -26.9427 57.8226C-24.5818 54.3862 -24.8071 49.7657 -27.7713 40.8006C-29.3883 35.9074 -29.7674 34.3855 -29.6548 33.2201C-29.5629 32.2633 -29.0721 32.223 -25.49 32.8791C-20.8086 33.7367 -17.0694 33.9733 -13.1619 33.6633L-12.512 33.6117L-12.7569 34.0993C-13.9223 36.4302 -14.1982 39.3552 -13.7281 44.4034C-13.3509 48.4473 -13.3613 52.4975 -13.756 54.6021L-13.8118 54.9017L-14.5557 54.662C-19.5574 53.0585 -24.7533 56.3503 -24.0022 60.6484C-23.2965 64.6902 -18.0685 65.6553 -14.9255 62.3222C-13.7901 61.1195 -12.1958 57.9331 -12.1958 56.8669C-12.1958 56.81 -12.0181 56.7429 -11.7753 56.7109C-10.4621 56.5373 -9.8949 56.1199 -6.81287 53.0647C-2.42178 48.7118 -0.888504 47.7055 1.38763 47.6838C3.74126 47.6611 4.75792 49.2801 5.94611 54.942C7.63126 62.9762 9.31226 66.5738 12.4749 68.9119C15.9836 71.5042 19.0853 70.7975 21.2271 66.9178C23.3855 63.0061 24.4207 61.7632 26.3156 60.8065C28.2611 59.8249 28.7509 60.0915 30.3368 62.9999C32.3474 66.6843 33.8755 68.2042 36.008 68.636C38.9682 69.2363 40.5965 67.0273 40.5892 62.4193C40.5861 60.2217 40.4239 58.7814 39.6108 53.7487C39.0415 50.2234 38.6789 47.1806 38.6623 45.7869C38.6613 45.7497 38.8855 45.917 39.1593 46.1598C44.2437 50.6501 52.7903 45.3209 52.469 37.8602C52.1952 31.5256 45.126 29.2712 40.301 33.9815C39.7627 34.5064 39.7627 34.5085 40.4436 33.0971C45.3575 22.9212 58.4873 19.8722 65.5399 27.2719C69.4206 31.3438 70.4518 36.0097 69.6004 45.6463C68.8183 54.4946 69.2626 58.0303 71.5356 61.0524C71.7412 61.3251 71.7505 61.3778 71.6937 61.9223C71.3093 65.6429 71.7588 76.3788 72.4479 79.9134C72.9263 82.3683 73.4594 82.7247 76.2718 82.4716C78.178 82.3001 79.3249 83.6195 81.2332 88.18C83.6788 94.0196 86.5108 96.6977 89.4771 95.9755ZM128.87 73.8113C126.698 73.1873 125.566 67.826 126.578 62.9576C127.166 60.1328 128.471 57.4548 130.676 54.5463C131.483 53.4821 133.204 51.3744 133.239 51.4054C133.288 51.4498 133.584 52.8601 133.881 54.4678C135.153 61.3561 134.95 66.5231 133.264 70.1197C132.132 72.5374 130.172 74.1833 128.87 73.8113ZM94.1492 72.7296C92.6263 72.3411 91.2067 71.3513 90.2892 70.0381C89.7478 69.2632 92.087 66.6771 94.0666 65.8609C97.4947 64.4464 100.809 66.1429 100.501 69.1516C100.215 71.9412 97.3604 73.5499 94.1492 72.7296ZM77.0694 62.9204C75.9102 62.5825 74.8883 62.0091 73.9574 61.1712L73.5131 60.7713L73.5679 60.2289C74.1661 54.2673 77.4558 51.674 80.8406 54.4957C85.3185 58.2297 82.5102 64.5022 77.0694 62.9204ZM-20.2475 62.1248C-23.1312 61.1526 -22.7138 57.9383 -19.5109 56.4433C-18.0654 55.7686 -16.9 55.6942 -15.2438 56.1705C-14.0887 56.5022 -14.1465 56.4412 -14.3521 57.1055C-15.4917 60.7961 -17.958 62.8956 -20.2475 62.1248ZM-34.4365 58.7256C-38.3926 57.4021 -37.8429 51.892 -33.6471 50.8165C-31.31 50.2182 -29.0938 52.9325 -29.0938 56.3926C-29.0938 57.3246 -29.1207 57.3824 -29.7716 57.8856C-31.1261 58.9291 -32.8815 59.2453 -34.4365 58.7256ZM133.664 44.7361C133.381 43.7556 132.871 42.1366 132.534 41.1385L131.918 39.3221L132.244 38.6123C134.565 33.5745 133.112 28.2638 128.848 26.1974C127.876 25.7263 127.873 25.716 128.677 25.6302C136.586 24.7819 141.299 31.352 138.554 39.3955C137.722 41.8297 134.441 47.3976 134.238 46.7157C134.206 46.6062 133.948 45.7145 133.664 44.7361ZM42.4449 45.4397C40.4839 44.9293 38.7646 42.6325 39.0787 40.9422C39.8939 36.548 42.2 33.9268 45.654 33.467C48.8972 33.0351 51.1051 36.082 50.1804 39.7127C49.234 43.4281 45.4577 46.2249 42.4449 45.4397ZM124.26 41.216C121.209 40.6333 118.997 37.388 119.347 34.0105C119.648 31.103 121.391 28.7215 124.567 26.8773C124.594 26.8607 124.739 27.1728 124.888 27.5705C125.319 28.7257 125.812 29.9087 127.13 32.9463C128.368 35.7989 129.609 38.8376 129.609 39.0173C129.609 39.1909 129.078 39.7767 128.573 40.159C127.255 41.1561 125.804 41.5125 124.26 41.216ZM130.494 35.7411C130.288 35.2358 129.555 33.5435 128.864 31.9792C127.691 29.327 126.875 27.4104 126.875 27.306C126.875 27.2823 127.152 27.3887 127.489 27.5416C130.153 28.7567 131.539 31.071 131.405 34.088C131.356 35.2245 131.036 36.8425 130.893 36.6854C130.88 36.672 130.701 36.2463 130.494 35.7411ZM155.042 24.3914C153.802 23.3479 153.801 20.4322 155.04 17.2975C155.461 16.2322 155.404 16.2436 156.075 17.0908C157.434 18.808 157.994 20.9002 157.537 22.5492C157.1 24.1248 155.835 25.0588 155.042 24.3914Z" fill="white"/>
</g>
</g>
</g>
</svg>
