<svg width="175" height="97" viewBox="0 0 175 97" fill="none" xmlns="http://www.w3.org/2000/svg">
<g opacity="0.5">
<mask id="mask0_248_1335" style="mask-type:luminance" maskUnits="userSpaceOnUse" x="0" y="0" width="228" height="97">
<path d="M227.733 0H0V96.542H227.733V0Z" fill="white"/>
</mask>
<g mask="url(#mask0_248_1335)">
<mask id="mask1_248_1335" style="mask-type:luminance" maskUnits="userSpaceOnUse" x="0" y="0" width="228" height="97">
<path d="M0.264526 0.26416H227.204V96.4105H0.264526V0.26416Z" fill="white"/>
</mask>
<g mask="url(#mask1_248_1335)">
<path fill-rule="evenodd" clip-rule="evenodd" d="M84.2563 0.566505C82.0236 1.10997 80.8778 3.57724 81.1526 7.24406C81.3045 9.26397 81.6702 11.0359 82.692 14.6986C83.3946 17.2186 83.8337 19.0411 84.0517 20.3316C84.2222 21.34 84.3782 24.0583 84.2656 24.0583C84.2346 24.0583 83.8875 23.798 83.4948 23.4797C78.3867 19.348 70.8495 22.3505 71.4622 28.2748C72.0398 33.8582 80.6133 34.6693 84.3886 29.4971L84.621 29.1789L84.6872 29.4144C84.839 29.961 84.7605 32.1834 84.5652 32.8632C83.968 34.9317 82.6332 36.4154 80.3477 37.5478C79.454 37.99 79.1172 38.1212 76.8018 38.9302C69.464 41.4935 67.1765 44.714 66.4491 53.5045C65.9821 59.1488 64.95 61.6791 61.9186 64.6052C59.5484 66.8937 55.8186 68.8888 52.9473 69.4054L52.6167 69.4643L53.2604 68.8154C59.0959 62.9169 56.0552 53.2906 48.3496 53.2689C46.7522 53.2648 45.1746 53.8 44.0008 54.7443C43.727 54.9644 43.4594 55.1783 43.4057 55.2196C43.2528 55.3384 42.0305 51.4556 41.2711 48.4346L41.0593 47.5905L42.2268 46.1574C47.241 40.0078 48.9364 36.248 49.1482 30.8092C49.4448 23.2338 45.9515 19.1207 41.7619 22.1097C37.1001 25.4366 35.884 34.2333 38.4929 45.7514L38.8194 47.1937L38.2211 47.9707C33.0345 54.7071 31.3452 60.5457 33.1151 65.6136C34.9645 70.9066 40.9674 73.8017 47.0529 72.3366C47.9187 72.1279 47.8588 72.0824 48.0995 73.129C49.2185 77.982 48.9075 81.9711 47.2492 84.0334C44.2002 87.8273 33.6875 87.8955 24.6335 84.1801C22.7314 83.399 19.6928 81.6808 19.7486 81.4163C19.7579 81.3719 19.949 80.9256 20.1743 80.4245C22.6374 74.934 21.7158 70.1607 18.1378 69.8858C16.7616 69.7804 15.3864 70.7289 14.6456 72.2952C13.2849 75.1706 14.0815 78.5916 16.7833 81.4804C17.3856 82.1241 17.4208 81.9329 16.4279 83.4063C12.6298 89.0393 6.0556 94.3013 1.24296 95.5608C-0.132229 95.9214 0.260386 96.4132 1.91867 96.406C6.02253 96.3884 14.8171 89.6034 18.4168 83.678C18.765 83.1046 18.6338 83.1097 19.4138 83.6418C26.6255 88.5619 40.1232 90.5601 46.0435 87.5835C50.4831 85.3518 51.816 80.1837 49.9355 72.4936L49.6969 71.5203H50.4273C55.2741 71.5203 61.3772 68.5468 64.7051 64.5628C67.1197 61.6719 68.0423 58.9763 68.4763 53.5458C69.1386 45.2472 70.7896 42.9535 77.9011 40.4531C81.3892 39.2267 82.7737 38.4921 84.1365 37.1459C86.6637 34.6486 87.4851 30.303 86.0603 26.9678C85.9115 26.6196 85.9105 26.5835 86.0489 26.0421C86.7628 23.2307 86.4281 20.3708 84.6717 14.2843C83.034 8.60789 82.6311 6.02799 83.0857 4.1455C83.6943 1.62967 85.7689 1.26288 87.8208 3.30861C88.977 4.46063 89.8562 5.97013 91.2945 9.2681C93.5727 14.495 94.7371 15.6481 97.5753 15.489C99.5001 15.3826 99.31 15.3598 99.4857 15.7194C99.7977 16.3589 99.9702 17.8467 100.332 23.0231C100.482 25.1721 100.58 30.987 100.494 32.6049L100.433 33.7373L100.048 33.4635C97.754 31.83 94.1915 31.3599 92.0993 32.4159C87.4489 34.7633 88.3881 42.5133 93.5665 44.5095C97.2829 45.9425 100.407 43.6974 101.409 38.8734C101.608 37.9156 101.639 37.9187 101.966 38.9374C102.454 40.4542 102.743 42.8801 102.647 44.6417C102.625 45.0519 102.585 45.7968 102.559 46.299C102.534 46.799 102.403 48.3829 102.27 49.818C101.897 53.8485 101.857 54.5077 101.858 56.6888C101.86 62.111 102.995 65.9648 105.598 69.3847C112.466 78.4108 126.97 76.956 133.852 66.5507C136.075 63.1886 137.361 58.7294 136.995 55.6411C136.932 55.1163 136.943 54.7588 137.042 54.0676C137.444 51.2872 137.192 47.7413 136.15 41.4935C134.604 32.2382 134.829 29.4806 137.128 29.4847C138.67 29.4878 140.111 30.9105 141.784 34.0814C143.437 37.2161 144.229 37.9383 146.005 37.927C148.698 37.9104 151.446 35.6808 153.503 31.8445C155.144 28.7862 155.643 28.2046 156.846 27.9463C158.62 27.565 161.201 29.4857 162.858 32.4179C163.931 34.3159 164.669 36.6189 165.595 40.9563C166.897 47.0625 167.822 49.0152 169.892 50.0247C173.497 51.7852 177.819 49.5525 183.385 43.0537C184.345 41.9337 184.516 41.7725 184.954 41.5752C185.57 41.2993 185.553 41.2724 185.401 42.2943C185.051 44.6613 185.015 48.6949 185.318 51.8896C185.829 57.2942 185.43 59.9909 183.683 62.9355C183.176 63.79 183.108 64.2549 183.427 64.7023C183.781 65.2003 183.929 65.2127 186.054 64.9265C189.232 64.4977 193.729 64.7922 198.726 65.7582C203.103 66.6044 204.345 66.4639 205.185 65.0308C206.108 63.4573 205.787 61.3981 203.612 54.9127C201.72 49.2663 201.254 47.2185 201.254 44.557C201.254 43.4401 201.304 43.3936 201.67 44.1695C202.979 46.955 205.408 48.2538 208.06 47.5853C212.16 46.5521 214.143 41.6878 211.854 38.2782C211.635 37.9517 211.465 37.6749 211.476 37.6625C211.487 37.6521 212.053 37.8877 212.732 38.1863C215.267 39.3021 216.426 39.5883 218.4 39.5883C221.36 39.5883 224.324 38.3816 225.851 36.5538C227.607 34.4513 227.291 33.0089 225.418 34.5856C223.246 36.4123 220.673 37.4889 218.441 37.5013C217.046 37.5095 216.044 37.2419 213.482 36.1757C207.607 33.7322 202.913 34.2591 201.353 37.5374C201.184 37.8918 200.88 38.4229 200.676 38.7194C198.315 42.1558 198.54 46.7763 201.505 55.7414C203.122 60.6346 203.501 62.1565 203.388 63.3219C203.296 64.2787 202.805 64.319 199.223 63.6629C194.542 62.8053 190.803 62.5687 186.895 62.8787L186.245 62.9303L186.49 62.4427C187.656 60.1118 187.932 57.1868 187.461 52.1386C187.084 48.0947 187.095 44.0445 187.489 41.9399L187.545 41.6403L188.289 41.88C193.291 43.4835 198.487 40.1917 197.736 35.8936C197.03 31.8517 191.802 30.8867 188.659 34.2198C187.523 35.4225 185.929 38.6089 185.929 39.6751C185.929 39.7319 185.752 39.7991 185.509 39.8311C184.196 40.0047 183.628 40.4221 180.546 43.4773C176.155 47.8302 174.622 48.8365 172.346 48.8582C169.992 48.8809 168.975 47.2619 167.787 41.6C166.102 33.5658 164.421 29.9682 161.259 27.6301C157.75 25.0378 154.648 25.7445 152.506 29.6242C150.348 33.5359 149.313 34.7788 147.418 35.7355C145.472 36.7171 144.983 36.4505 143.397 33.5421C141.386 29.8577 139.858 28.3378 137.725 27.906C134.765 27.3057 133.137 29.5146 133.144 34.1227C133.147 36.3203 133.309 37.7606 134.123 42.7933C134.692 46.3186 135.055 49.3614 135.071 50.7551C135.072 50.7923 134.848 50.625 134.574 50.3822C129.49 45.8919 120.943 51.2211 121.264 58.6818C121.538 65.0164 128.607 67.2708 133.432 62.5605C133.971 62.0356 133.971 62.0335 133.29 63.4449C128.376 73.6208 115.246 76.6698 108.193 69.27C104.313 65.1982 103.282 60.5323 104.133 50.8957C104.915 42.0473 104.471 38.5117 102.198 35.4896C101.992 35.2169 101.983 35.1642 102.04 34.6197C102.424 30.8991 101.975 20.1632 101.285 16.6286C100.807 14.1737 100.274 13.8173 97.4616 14.0704C95.5554 14.2419 94.4085 12.9225 92.5002 8.36199C90.0546 2.52235 87.2226 -0.1557 84.2563 0.566505ZM44.8636 22.7307C47.0353 23.3547 48.1677 28.716 47.1552 33.5844C46.5673 36.4092 45.2624 39.0872 43.0575 41.9957C42.2506 43.0599 40.5293 45.1676 40.4942 45.1366C40.4456 45.0922 40.1491 43.6819 39.8525 42.0742C38.5807 35.1859 38.7832 30.0189 40.4694 26.4223C41.6018 24.0046 43.5617 22.3587 44.8636 22.7307ZM79.5842 23.8124C81.1071 24.2009 82.5267 25.1907 83.4442 26.5039C83.9856 27.2788 81.6464 29.8649 79.6668 30.6811C76.2387 32.0956 72.9242 30.3991 73.2321 27.3904C73.5183 24.6008 76.373 22.9921 79.5842 23.8124ZM96.664 33.6216C97.8232 33.9595 98.8451 34.5329 99.776 35.3708L100.22 35.7707L100.166 36.3131C99.5673 42.2746 96.2776 44.868 92.8928 42.0463C88.4149 38.3123 91.2232 32.0398 96.664 33.6216ZM193.981 34.4172C196.865 35.3894 196.447 38.6037 193.244 40.0987C191.799 40.7734 190.633 40.8478 188.977 40.3715C187.822 40.0398 187.88 40.1008 188.086 39.4365C189.225 35.7459 191.691 33.6464 193.981 34.4172ZM208.17 37.8164C212.126 39.1399 211.576 44.65 207.381 45.7255C205.043 46.3237 202.827 43.6095 202.827 40.1494C202.827 39.2174 202.854 39.1596 203.505 38.6564C204.859 37.6129 206.615 37.2967 208.17 37.8164ZM40.0695 51.8059C40.3526 52.7864 40.862 54.4054 41.1998 55.4035L41.8156 57.2199L41.4891 57.9297C39.1686 62.9675 40.6213 68.2782 44.8853 70.3446C45.8575 70.8157 45.8606 70.826 45.0568 70.9118C37.1476 71.76 32.4342 65.1899 35.1794 57.1465C36.0111 54.7123 39.2926 49.1444 39.4951 49.8263C39.5271 49.9358 39.7854 50.8275 40.0695 51.8059ZM131.289 51.1023C133.25 51.6127 134.969 53.9095 134.655 55.5998C133.84 59.994 131.533 62.6152 128.079 63.075C124.836 63.5069 122.628 60.46 123.553 56.8293C124.499 53.1139 128.276 50.3171 131.289 51.1023ZM49.4737 55.326C52.5247 55.9087 54.7368 59.154 54.3866 62.5315C54.0859 65.4389 52.3429 67.8205 49.1668 69.6647C49.1389 69.6813 48.9943 69.3692 48.8455 68.9715C48.4147 67.8163 47.9218 66.6333 46.6035 63.5957C45.3657 60.7431 44.1248 57.7044 44.1248 57.5247C44.1248 57.3511 44.6559 56.7652 45.1601 56.383C46.4785 55.3859 47.9291 55.0295 49.4737 55.326ZM43.2394 60.8009C43.445 61.3062 44.1786 62.9985 44.8698 64.5628C46.0424 67.215 46.8587 69.1316 46.8587 69.236C46.8587 69.2597 46.5818 69.1533 46.2439 69.0004C43.5803 67.7853 42.1948 65.471 42.3281 62.454C42.3777 61.3175 42.6969 59.6995 42.8406 59.8566C42.853 59.87 43.0327 60.2957 43.2394 60.8009ZM18.6916 72.1506C19.9314 73.1941 19.9325 76.1098 18.6937 79.2445C18.2721 80.3098 18.329 80.2984 17.6584 79.4512C16.2998 77.734 15.7398 75.6418 16.1964 73.9928C16.6335 72.4172 17.8981 71.4832 18.6916 72.1506Z" fill="white"/>
</g>
</g>
</g>
</svg>
