<svg width="284" height="99" viewBox="0 0 284 99" fill="none" xmlns="http://www.w3.org/2000/svg">
<mask id="mask0_251_2571" style="mask-type:luminance" maskUnits="userSpaceOnUse" x="0" y="0" width="284" height="99">
<path d="M0 0H283.8V99H0V0Z" fill="white"/>
</mask>
<g mask="url(#mask0_251_2571)">
<path d="M23.8858 63.2557C23.8858 62.8205 23.8045 62.4568 23.642 62.1646C23.4792 61.8729 23.2783 61.6552 23.0387 61.5117C22.7989 61.3685 22.5509 61.2777 22.2948 61.2391C22.0385 61.2004 21.7893 61.1811 21.5467 61.1811H20.2326V65.4708H21.5137C21.9435 65.4708 22.3002 65.4156 22.584 65.3055C22.8678 65.1954 23.106 65.0424 23.299 64.8466C23.4918 64.6513 23.6378 64.417 23.737 64.1441C23.8362 63.8715 23.8858 63.5753 23.8858 63.2557ZM25.3817 63.1399C25.3817 63.6745 25.2935 64.1567 25.1172 64.5863C24.941 65.0161 24.6888 65.3826 24.361 65.6857C24.0331 65.9887 23.6308 66.2229 23.1542 66.3882C22.6778 66.5535 22.1088 66.6362 21.4475 66.6362H20.2326V70.4877C20.2326 70.5317 20.2203 70.5703 20.1954 70.6034C20.1707 70.6362 20.132 70.6625 20.0796 70.6819C20.0272 70.7012 19.9558 70.7175 19.8647 70.7312C19.7739 70.7452 19.6596 70.752 19.5218 70.752C19.3842 70.752 19.2698 70.7452 19.1788 70.7312C19.088 70.7175 19.0149 70.7012 18.9599 70.6819C18.9048 70.6625 18.8661 70.6362 18.8442 70.6034C18.8221 70.5703 18.8112 70.5317 18.8112 70.4877V60.6193C18.8112 60.3988 18.8689 60.2419 18.9846 60.148C19.1003 60.0544 19.2298 60.0076 19.3732 60.0076H21.6624C21.8939 60.0076 22.1155 60.0172 22.3279 60.0365C22.54 60.0558 22.7907 60.0973 23.0799 60.1606C23.3693 60.2239 23.6639 60.3422 23.9642 60.5159C24.2646 60.6896 24.5193 60.9031 24.7288 61.1564C24.9382 61.41 25.0993 61.7034 25.2122 62.0365C25.3251 62.37 25.3817 62.7378 25.3817 63.1399Z" fill="white"/>
</g>
<mask id="mask1_251_2571" style="mask-type:luminance" maskUnits="userSpaceOnUse" x="0" y="0" width="284" height="99">
<path d="M0 0H283.8V99H0V0Z" fill="white"/>
</mask>
<g mask="url(#mask1_251_2571)">
<path d="M31.915 63.5448C31.915 63.6661 31.9122 63.7679 31.9068 63.8505C31.9012 63.9332 31.8903 63.9982 31.8738 64.0447C31.8572 64.0918 31.8365 64.1274 31.8118 64.1523C31.7869 64.177 31.7525 64.1895 31.7085 64.1895C31.6642 64.1895 31.6104 64.177 31.5471 64.1523C31.4838 64.1274 31.4121 64.1027 31.3324 64.078C31.2523 64.0531 31.1629 64.0298 31.0637 64.0077C30.9646 63.9858 30.8572 63.9746 30.7413 63.9746C30.6037 63.9746 30.4686 64.0021 30.3364 64.0573C30.2041 64.1125 30.0649 64.2033 29.9191 64.3299C29.7729 64.4568 29.6202 64.6249 29.4605 64.8343C29.3005 65.0436 29.1242 65.2999 28.9315 65.6028V70.4958C28.9315 70.5398 28.9203 70.5771 28.8982 70.6074C28.8763 70.6376 28.8404 70.6637 28.7908 70.6858C28.7412 70.7077 28.6723 70.7242 28.5843 70.7354C28.4961 70.7464 28.3831 70.752 28.2453 70.752C28.113 70.752 28.0029 70.7464 27.9147 70.7354C27.8264 70.7242 27.7563 70.7077 27.704 70.6858C27.6516 70.6637 27.6159 70.6376 27.5966 70.6074C27.5773 70.5771 27.5677 70.5398 27.5677 70.4958V63.0573C27.5677 63.013 27.5759 62.976 27.5924 62.9455C27.609 62.9153 27.642 62.8878 27.6916 62.8629C27.7412 62.8382 27.8045 62.8217 27.8816 62.8133C27.9589 62.8051 28.0607 62.8009 28.1876 62.8009C28.3086 62.8009 28.4092 62.8051 28.4893 62.8133C28.5689 62.8217 28.6311 62.8382 28.6751 62.8629C28.7191 62.8878 28.7508 62.9153 28.7703 62.9455C28.7894 62.976 28.7992 63.013 28.7992 63.0573V64.14C29.0029 63.8424 29.1943 63.6 29.3736 63.4126C29.5527 63.2254 29.7219 63.0778 29.8819 62.9704C30.0416 62.8629 30.1999 62.7886 30.3571 62.7471C30.514 62.7059 30.6726 62.6852 30.8323 62.6852C30.9038 62.6852 30.9853 62.6894 31.0761 62.6976C31.1671 62.7059 31.2621 62.7211 31.3613 62.7432C31.4605 62.7651 31.5499 62.79 31.6298 62.8175C31.7096 62.8452 31.7662 62.8726 31.7993 62.9001C31.8323 62.9278 31.8544 62.9539 31.8654 62.9786C31.8763 63.0035 31.8861 63.0354 31.8945 63.0738C31.9026 63.1125 31.908 63.1688 31.9108 63.2431C31.9136 63.3176 31.915 63.4182 31.915 63.5448Z" fill="white"/>
</g>
<mask id="mask2_251_2571" style="mask-type:luminance" maskUnits="userSpaceOnUse" x="0" y="0" width="284" height="99">
<path d="M0 0H283.8V99H0V0Z" fill="white"/>
</mask>
<g mask="url(#mask2_251_2571)">
<path d="M38.3905 66.0493C38.4071 65.3331 38.2476 64.771 37.9123 64.3631C37.5768 63.9554 37.0794 63.7514 36.4196 63.7514C36.0815 63.7514 35.7849 63.815 35.5299 63.9417C35.2748 64.0686 35.0615 64.2364 34.8894 64.4458C34.7176 64.6553 34.5846 64.8991 34.4903 65.1773C34.396 65.4555 34.3434 65.7464 34.3322 66.0493H38.3905ZM39.7626 66.4542C39.7626 66.6691 39.7086 66.822 39.6006 66.9129C39.4925 67.0039 39.3696 67.0493 39.2311 67.0493H34.3322C34.3322 67.4626 34.3739 67.8344 34.4568 68.165C34.5399 68.4957 34.6785 68.7795 34.8722 69.0163C35.0659 69.2533 35.3178 69.4351 35.628 69.5618C35.9379 69.6887 36.3174 69.752 36.7658 69.752C37.1202 69.752 37.4357 69.7229 37.7125 69.6652C37.9894 69.6072 38.2287 69.5425 38.4308 69.471C38.6331 69.3995 38.7991 69.3346 38.9293 69.2766C39.0595 69.2188 39.1577 69.19 39.2243 69.19C39.263 69.19 39.2974 69.1995 39.3279 69.2188C39.3584 69.2382 39.3819 69.267 39.3985 69.3057C39.415 69.3443 39.4276 69.3979 39.4359 69.4668C39.4441 69.5357 39.4483 69.6195 39.4483 69.719C39.4483 69.7904 39.4455 69.8526 39.4401 69.905C39.4346 69.9574 39.4278 70.0039 39.4194 70.0454C39.4113 70.0866 39.3973 70.1239 39.3782 70.1569C39.3589 70.19 39.334 70.2216 39.3037 70.2519C39.2734 70.2824 39.184 70.332 39.0352 70.4007C38.8862 70.4696 38.6934 70.5371 38.4567 70.6033C38.2196 70.6694 37.9454 70.7285 37.6343 70.7809C37.323 70.8333 36.9907 70.8594 36.6382 70.8594C36.0268 70.8594 35.4908 70.7739 35.0307 70.6033C34.5707 70.4326 34.1837 70.179 33.8696 69.8428C33.5555 69.5068 33.3185 69.0854 33.1588 68.5783C32.9988 68.0714 32.9189 67.4819 32.9189 66.8097C32.9189 66.1706 33.0016 65.5962 33.1669 65.0863C33.3322 64.5768 33.5706 64.1442 33.8819 63.7889C34.1932 63.4334 34.5693 63.1605 35.01 62.9705C35.451 62.7803 35.9441 62.6853 36.4894 62.6853C37.0734 62.6853 37.5707 62.7791 37.9814 62.9663C38.3917 63.1538 38.7293 63.4059 38.9938 63.7226C39.2583 64.0395 39.4525 64.4115 39.5766 64.8383C39.7004 65.2656 39.7626 65.7214 39.7626 66.2062V66.4542Z" fill="white"/>
</g>
<mask id="mask3_251_2571" style="mask-type:luminance" maskUnits="userSpaceOnUse" x="0" y="0" width="284" height="99">
<path d="M0 0H283.8V99H0V0Z" fill="white"/>
</mask>
<g mask="url(#mask3_251_2571)">
<path d="M45.9321 59.9992C45.9321 60.104 45.9267 60.1881 45.9155 60.2514C45.9044 60.3147 45.892 60.3657 45.8785 60.4041C45.8645 60.4428 45.8466 60.4691 45.8247 60.4828C45.8026 60.4966 45.7751 60.5036 45.7421 60.5036C45.7034 60.5036 45.6552 60.491 45.5975 60.4663C45.5395 60.4414 45.4692 60.4139 45.3865 60.3837C45.3039 60.3534 45.2061 60.3257 45.0932 60.301C44.9802 60.2761 44.8494 60.2637 44.7006 60.2637C44.4967 60.2637 44.3232 60.2968 44.18 60.3629C44.0366 60.4291 43.9209 60.5324 43.8328 60.6728C43.7446 60.8135 43.6813 60.9951 43.6426 61.2184C43.604 61.4414 43.5849 61.7129 43.5849 62.0323V62.8424H45.2461C45.2901 62.8424 45.3274 62.8522 45.3577 62.8712C45.3879 62.8906 45.4156 62.9239 45.4403 62.9704C45.4652 63.0175 45.4843 63.0766 45.4983 63.1481C45.5118 63.22 45.5188 63.308 45.5188 63.4128C45.5188 63.6112 45.4941 63.7544 45.4445 63.8424C45.3949 63.9306 45.3288 63.9746 45.2461 63.9746H43.5849V70.4958C43.5849 70.5398 43.5737 70.5771 43.5518 70.6074C43.5297 70.6376 43.4924 70.6639 43.4403 70.6858C43.3879 70.7079 43.3176 70.7242 43.2296 70.7354C43.1413 70.7464 43.0312 70.752 42.899 70.752C42.7667 70.752 42.6563 70.7464 42.5683 70.7354C42.4801 70.7242 42.4098 70.7079 42.3574 70.6858C42.305 70.6639 42.268 70.6376 42.2459 70.6074C42.224 70.5771 42.2128 70.5398 42.2128 70.4958V63.9746H41.1632C41.0749 63.9746 41.0088 63.9306 40.9648 63.8424C40.9208 63.7544 40.8987 63.6112 40.8987 63.4128C40.8987 63.308 40.9043 63.22 40.9152 63.1481C40.9262 63.0766 40.9427 63.0175 40.9648 62.9704C40.9869 62.9239 41.0144 62.8906 41.0475 62.8712C41.0805 62.8522 41.1192 62.8424 41.1632 62.8424H42.2128V62.0738C42.2128 61.556 42.261 61.1108 42.3574 60.739C42.454 60.3671 42.6014 60.0626 42.7998 59.8256C42.9979 59.5888 43.2473 59.4139 43.5476 59.3007C43.848 59.1881 44.2019 59.1315 44.6098 59.1315C44.8026 59.1315 44.99 59.1494 45.1716 59.185C45.3535 59.2211 45.4941 59.2595 45.5933 59.3007C45.6925 59.3422 45.7586 59.3794 45.7914 59.4125C45.8247 59.4456 45.8522 59.4882 45.8741 59.5406C45.8962 59.593 45.9116 59.6563 45.9197 59.7306C45.9279 59.8051 45.9321 59.8947 45.9321 59.9992Z" fill="white"/>
</g>
<mask id="mask4_251_2571" style="mask-type:luminance" maskUnits="userSpaceOnUse" x="0" y="0" width="284" height="99">
<path d="M0 0H283.8V99H0V0Z" fill="white"/>
</mask>
<g mask="url(#mask4_251_2571)">
<path d="M51.7464 66.0493C51.7629 65.3331 51.6034 64.771 51.2681 64.3631C50.9326 63.9554 50.4353 63.7514 49.7754 63.7514C49.4374 63.7514 49.1407 63.815 48.8858 63.9417C48.6306 64.0686 48.4173 64.2364 48.2452 64.4458C48.0734 64.6553 47.9405 64.8991 47.8462 65.1773C47.7519 65.4555 47.6993 65.7464 47.6881 66.0493H51.7464ZM53.1184 66.4542C53.1184 66.6691 53.0644 66.822 52.9564 66.9129C52.8484 67.0039 52.7254 67.0493 52.5869 67.0493H47.6881C47.6881 67.4626 47.7298 67.8344 47.8126 68.165C47.8958 68.4957 48.0343 68.7795 48.228 69.0163C48.4217 69.2533 48.6737 69.4351 48.9838 69.5618C49.2937 69.6887 49.6732 69.752 50.1217 69.752C50.476 69.752 50.7915 69.7229 51.0684 69.6652C51.3452 69.6072 51.5845 69.5425 51.7866 69.471C51.989 69.3995 52.155 69.3346 52.2851 69.2766C52.4153 69.2188 52.5135 69.19 52.5801 69.19C52.6188 69.19 52.6532 69.1995 52.6837 69.2188C52.7143 69.2382 52.7378 69.267 52.7543 69.3057C52.7708 69.3443 52.7834 69.3979 52.7918 69.4668C52.7999 69.5357 52.8041 69.6195 52.8041 69.719C52.8041 69.7904 52.8013 69.8526 52.796 69.905C52.7904 69.9574 52.7836 70.0039 52.7753 70.0454C52.7671 70.0866 52.7531 70.1239 52.734 70.1569C52.7147 70.19 52.6898 70.2216 52.6595 70.2519C52.6293 70.2824 52.5399 70.332 52.3911 70.4007C52.2421 70.4696 52.0493 70.5371 51.8125 70.6033C51.5755 70.6694 51.3012 70.7285 50.9901 70.7809C50.6788 70.8333 50.3466 70.8594 49.9941 70.8594C49.3826 70.8594 48.8467 70.7739 48.3866 70.6033C47.9265 70.4326 47.5395 70.179 47.2254 69.8428C46.9113 69.5068 46.6743 69.0854 46.5146 68.5783C46.3546 68.0714 46.2748 67.4819 46.2748 66.8097C46.2748 66.1706 46.3574 65.5962 46.5227 65.0863C46.6881 64.5768 46.9265 64.1442 47.2378 63.7889C47.5491 63.4334 47.9251 63.1605 48.3659 62.9705C48.8068 62.7803 49.3 62.6853 49.8453 62.6853C50.4292 62.6853 50.9266 62.7791 51.3373 62.9663C51.7475 63.1538 52.0851 63.4059 52.3496 63.7226C52.6141 64.0395 52.8083 64.4115 52.9324 64.8383C53.0563 65.2656 53.1184 65.7214 53.1184 66.2062V66.4542Z" fill="white"/>
</g>
<mask id="mask5_251_2571" style="mask-type:luminance" maskUnits="userSpaceOnUse" x="0" y="0" width="284" height="99">
<path d="M0 0H283.8V99H0V0Z" fill="white"/>
</mask>
<g mask="url(#mask5_251_2571)">
<path d="M59.7094 63.5448C59.7094 63.6661 59.7066 63.7679 59.7013 63.8505C59.6957 63.9332 59.6847 63.9982 59.6682 64.0447C59.6517 64.0918 59.6309 64.1274 59.6063 64.1523C59.5814 64.177 59.5469 64.1895 59.5029 64.1895C59.4587 64.1895 59.4049 64.177 59.3415 64.1523C59.2782 64.1274 59.2065 64.1027 59.1269 64.078C59.0468 64.0531 58.9574 64.0298 58.8582 64.0077C58.759 63.9858 58.6517 63.9746 58.5357 63.9746C58.3981 63.9746 58.2631 64.0021 58.1308 64.0573C57.9986 64.1125 57.8593 64.2033 57.7136 64.3299C57.5673 64.4568 57.4146 64.6249 57.2549 64.8343C57.0949 65.0436 56.9187 65.2999 56.7259 65.6028V70.4958C56.7259 70.5398 56.7147 70.5771 56.6926 70.6074C56.6707 70.6376 56.6348 70.6637 56.5853 70.6858C56.5357 70.7077 56.4667 70.7242 56.3787 70.7354C56.2905 70.7464 56.1776 70.752 56.0397 70.752C55.9075 70.752 55.7973 70.7464 55.7091 70.7354C55.6209 70.7242 55.5508 70.7077 55.4984 70.6858C55.446 70.6637 55.4104 70.6376 55.3911 70.6074C55.3717 70.5771 55.3622 70.5398 55.3622 70.4958V63.0573C55.3622 63.013 55.3703 62.976 55.3869 62.9455C55.4034 62.9153 55.4365 62.8878 55.486 62.8629C55.5356 62.8382 55.599 62.8217 55.676 62.8133C55.7533 62.8051 55.8551 62.8009 55.982 62.8009C56.1031 62.8009 56.2036 62.8051 56.2837 62.8133C56.3634 62.8217 56.4255 62.8382 56.4695 62.8629C56.5135 62.8878 56.5452 62.9153 56.5648 62.9455C56.5839 62.976 56.5936 63.013 56.5936 63.0573V64.14C56.7974 63.8424 56.9888 63.6 57.168 63.4126C57.3471 63.2254 57.5164 63.0778 57.6763 62.9704C57.836 62.8629 57.9944 62.7886 58.1515 62.7471C58.3085 62.7059 58.467 62.6852 58.6267 62.6852C58.6982 62.6852 58.7797 62.6894 58.8705 62.6976C58.9616 62.7059 59.0565 62.7211 59.1557 62.7432C59.2549 62.7651 59.3443 62.79 59.4242 62.8175C59.5041 62.8452 59.5606 62.8726 59.5937 62.9001C59.6268 62.9278 59.6489 62.9539 59.6598 62.9786C59.6708 63.0035 59.6805 63.0354 59.6889 63.0738C59.6971 63.1125 59.7024 63.1688 59.7052 63.2431C59.708 63.3176 59.7094 63.4182 59.7094 63.5448Z" fill="white"/>
</g>
<mask id="mask6_251_2571" style="mask-type:luminance" maskUnits="userSpaceOnUse" x="0" y="0" width="284" height="99">
<path d="M0 0H283.8V99H0V0Z" fill="white"/>
</mask>
<g mask="url(#mask6_251_2571)">
<path d="M65.7798 63.5448C65.7798 63.6661 65.7771 63.7679 65.7717 63.8505C65.7661 63.9332 65.7552 63.9982 65.7386 64.0447C65.7221 64.0918 65.7014 64.1274 65.6767 64.1523C65.6518 64.177 65.6173 64.1895 65.5733 64.1895C65.5291 64.1895 65.4753 64.177 65.412 64.1523C65.3486 64.1274 65.2769 64.1027 65.1973 64.078C65.1172 64.0531 65.0278 64.0298 64.9286 64.0077C64.8294 63.9858 64.7221 63.9746 64.6061 63.9746C64.4685 63.9746 64.3335 64.0021 64.2012 64.0573C64.069 64.1125 63.9298 64.2033 63.784 64.3299C63.6378 64.4568 63.485 64.6249 63.3253 64.8343C63.1654 65.0436 62.9891 65.2999 62.7963 65.6028V70.4958C62.7963 70.5398 62.7851 70.5771 62.763 70.6074C62.7411 70.6376 62.7053 70.6637 62.6557 70.6858C62.6061 70.7077 62.5372 70.7242 62.4492 70.7354C62.3609 70.7464 62.248 70.752 62.1102 70.752C61.9779 70.752 61.8678 70.7464 61.7795 70.7354C61.6913 70.7242 61.6212 70.7077 61.5688 70.6858C61.5164 70.6637 61.4808 70.6376 61.4615 70.6074C61.4422 70.5771 61.4326 70.5398 61.4326 70.4958V63.0573C61.4326 63.013 61.4408 62.976 61.4573 62.9455C61.4738 62.9153 61.5069 62.8878 61.5565 62.8629C61.6061 62.8382 61.6694 62.8217 61.7465 62.8133C61.8238 62.8051 61.9255 62.8009 62.0524 62.8009C62.1735 62.8009 62.2741 62.8051 62.3542 62.8133C62.4338 62.8217 62.496 62.8382 62.54 62.8629C62.584 62.8878 62.6156 62.9153 62.6352 62.9455C62.6543 62.976 62.6641 63.013 62.6641 63.0573V64.14C62.8678 63.8424 63.0592 63.6 63.2385 63.4126C63.4175 63.2254 63.5868 63.0778 63.7467 62.9704C63.9065 62.8629 64.0648 62.7886 64.222 62.7471C64.3789 62.7059 64.5374 62.6852 64.6972 62.6852C64.7687 62.6852 64.8501 62.6894 64.9409 62.6976C65.032 62.7059 65.127 62.7211 65.2262 62.7432C65.3254 62.7651 65.4148 62.79 65.4946 62.8175C65.5745 62.8452 65.6311 62.8726 65.6641 62.9001C65.6972 62.9278 65.7193 62.9539 65.7303 62.9786C65.7412 63.0035 65.751 63.0354 65.7594 63.0738C65.7675 63.1125 65.7729 63.1688 65.7757 63.2431C65.7785 63.3176 65.7798 63.4182 65.7798 63.5448Z" fill="white"/>
</g>
<mask id="mask7_251_2571" style="mask-type:luminance" maskUnits="userSpaceOnUse" x="0" y="0" width="284" height="99">
<path d="M0 0H283.8V99H0V0Z" fill="white"/>
</mask>
<g mask="url(#mask7_251_2571)">
<path d="M72.2555 66.0493C72.272 65.3331 72.1126 64.771 71.7773 64.3631C71.4418 63.9554 70.9444 63.7514 70.2846 63.7514C69.9465 63.7514 69.6499 63.815 69.3949 63.9417C69.1397 64.0686 68.9265 64.2364 68.7544 64.4458C68.5826 64.6553 68.4496 64.8991 68.3553 65.1773C68.261 65.4555 68.2084 65.7464 68.1972 66.0493H72.2555ZM73.6276 66.4542C73.6276 66.6691 73.5736 66.822 73.4656 66.9129C73.3575 67.0039 73.2346 67.0493 73.096 67.0493H68.1972C68.1972 67.4626 68.2389 67.8344 68.3218 68.165C68.4049 68.4957 68.5435 68.7795 68.7372 69.0163C68.9309 69.2533 69.1828 69.4351 69.493 69.5618C69.8029 69.6887 70.1824 69.752 70.6308 69.752C70.9852 69.752 71.3007 69.7229 71.5775 69.6652C71.8543 69.6072 72.0937 69.5425 72.2958 69.471C72.4981 69.3995 72.6641 69.3346 72.7943 69.2766C72.9244 69.2188 73.0227 69.19 73.0893 69.19C73.1279 69.19 73.1624 69.1995 73.1929 69.2188C73.2234 69.2382 73.2469 69.267 73.2635 69.3057C73.28 69.3443 73.2926 69.3979 73.3009 69.4668C73.3091 69.5357 73.3133 69.6195 73.3133 69.719C73.3133 69.7904 73.3105 69.8526 73.3051 69.905C73.2995 69.9574 73.2928 70.0039 73.2844 70.0454C73.2763 70.0866 73.2623 70.1239 73.2432 70.1569C73.2239 70.19 73.199 70.2216 73.1687 70.2519C73.1384 70.2824 73.049 70.332 72.9002 70.4007C72.7512 70.4696 72.5584 70.5371 72.3216 70.6033C72.0846 70.6694 71.8103 70.7285 71.4993 70.7809C71.188 70.8333 70.8557 70.8594 70.5032 70.8594C69.8918 70.8594 69.3558 70.7739 68.8957 70.6033C68.4357 70.4326 68.0487 70.179 67.7346 69.8428C67.4205 69.5068 67.1835 69.0854 67.0238 68.5783C66.8638 68.0714 66.7839 67.4819 66.7839 66.8097C66.7839 66.1706 66.8666 65.5962 67.0319 65.0863C67.1972 64.5768 67.4356 64.1442 67.7469 63.7889C68.0582 63.4334 68.4343 63.1605 68.875 62.9705C69.316 62.7803 69.8091 62.6853 70.3544 62.6853C70.9384 62.6853 71.4357 62.7791 71.8464 62.9663C72.2567 63.1538 72.5943 63.4059 72.8588 63.7226C73.1233 64.0395 73.3175 64.4115 73.4416 64.8383C73.5654 65.2656 73.6276 65.7214 73.6276 66.2062V66.4542Z" fill="white"/>
</g>
<mask id="mask8_251_2571" style="mask-type:luminance" maskUnits="userSpaceOnUse" x="0" y="0" width="284" height="99">
<path d="M0 0H283.8V99H0V0Z" fill="white"/>
</mask>
<g mask="url(#mask8_251_2571)">
<path d="M80.8715 65.2639C80.5022 64.8066 80.1455 64.4581 79.8011 64.2185C79.4568 63.9787 79.0971 63.8588 78.7227 63.8588C78.3755 63.8588 78.0805 63.9414 77.8381 64.1067C77.5958 64.2721 77.3988 64.49 77.2472 64.7598C77.0956 65.0299 76.9855 65.3356 76.9166 65.6772C76.8477 66.019 76.8134 66.3659 76.8134 66.7187C76.8134 67.0933 76.8423 67.4598 76.9 67.8179C76.958 68.176 77.0586 68.4943 77.2018 68.7725C77.345 69.0507 77.535 69.274 77.772 69.4419C78.009 69.61 78.3064 69.694 78.6647 69.694C78.8465 69.694 79.0214 69.6691 79.1895 69.6195C79.3576 69.5699 79.5297 69.4873 79.7062 69.3718C79.8824 69.2561 80.0668 69.1059 80.2598 68.9213C80.4526 68.7366 80.6566 68.5094 80.8715 68.2393V65.2639ZM82.2436 70.4957C82.2436 70.5399 82.2338 70.5783 82.2145 70.6114C82.1951 70.6445 82.1621 70.6708 82.1153 70.6899C82.0685 70.7092 82.0065 70.7243 81.9292 70.7355C81.8522 70.7462 81.7586 70.7518 81.6482 70.7518C81.5327 70.7518 81.4361 70.7462 81.359 70.7355C81.282 70.7243 81.2186 70.7092 81.169 70.6899C81.1195 70.6708 81.0836 70.6445 81.0615 70.6114C81.0394 70.5783 81.0284 70.5399 81.0284 70.4957V69.5122C80.6373 69.9364 80.231 70.267 79.8093 70.5038C79.3879 70.7409 78.9264 70.8594 78.4251 70.8594C77.8796 70.8594 77.4139 70.7532 77.0283 70.5411C76.6425 70.329 76.3298 70.0426 76.09 69.6817C75.8504 69.3208 75.6756 68.8964 75.5652 68.4088C75.4551 67.9213 75.3999 67.4074 75.3999 66.8674C75.3999 66.2283 75.4688 65.6511 75.6067 65.1359C75.7443 64.6206 75.9482 64.1813 76.2183 63.8176C76.4882 63.4539 76.823 63.1742 77.2225 62.9787C77.6218 62.7831 78.0833 62.6853 78.6067 62.6853C79.0421 62.6853 79.4403 62.7803 79.8011 62.9703C80.162 63.1605 80.5187 63.4401 80.8715 63.8092V59.4869C80.8715 59.4482 80.881 59.411 80.9004 59.3751C80.9197 59.3395 80.9567 59.312 81.0121 59.2925C81.0668 59.2734 81.1371 59.2568 81.2226 59.2429C81.308 59.2294 81.417 59.2221 81.5493 59.2221C81.6869 59.2221 81.7998 59.2294 81.888 59.2429C81.976 59.2568 82.0452 59.2734 82.0946 59.2925C82.1442 59.312 82.1814 59.3395 82.2061 59.3751C82.231 59.411 82.2436 59.4482 82.2436 59.4869V70.4957Z" fill="white"/>
</g>
<mask id="mask9_251_2571" style="mask-type:luminance" maskUnits="userSpaceOnUse" x="0" y="0" width="284" height="99">
<path d="M0 0H283.8V99H0V0Z" fill="white"/>
</mask>
<g mask="url(#mask9_251_2571)">
<path d="M90.5081 70.4875C90.5081 70.5315 90.4972 70.5701 90.4751 70.6032C90.4529 70.6362 90.4145 70.6623 90.3593 70.6816C90.3044 70.701 90.2313 70.7175 90.1402 70.7312C90.0494 70.745 89.9351 70.752 89.7973 70.752C89.665 70.752 89.5521 70.745 89.4585 70.7312C89.3647 70.7175 89.2904 70.701 89.2355 70.6816C89.1803 70.6623 89.1416 70.6362 89.1197 70.6032C89.0976 70.5701 89.0867 70.5315 89.0867 70.4875V60.2223C89.0867 60.1783 89.099 60.1396 89.1237 60.1066C89.1486 60.0735 89.1898 60.0474 89.2478 60.0281C89.3055 60.0088 89.38 59.9923 89.4708 59.9785C89.5619 59.9648 89.6706 59.9578 89.7973 59.9578C89.9351 59.9578 90.0494 59.9648 90.1402 59.9785C90.2313 59.9923 90.3044 60.0088 90.3593 60.0281C90.4145 60.0474 90.4529 60.0735 90.4751 60.1066C90.4972 60.1396 90.5081 60.1783 90.5081 60.2223V70.4875Z" fill="white"/>
</g>
<mask id="mask10_251_2571" style="mask-type:luminance" maskUnits="userSpaceOnUse" x="0" y="0" width="284" height="99">
<path d="M0 0H283.8V99H0V0Z" fill="white"/>
</mask>
<g mask="url(#mask10_251_2571)">
<path d="M99.7688 70.4958C99.7688 70.5398 99.7578 70.5771 99.7357 70.6074C99.7136 70.6376 99.678 70.6639 99.6284 70.6858C99.5788 70.7079 99.5099 70.7242 99.4216 70.7354C99.3334 70.7464 99.2232 70.752 99.091 70.752C98.9534 70.752 98.8402 70.7464 98.7522 70.7354C98.664 70.7242 98.5951 70.7079 98.5457 70.6858C98.4961 70.6639 98.46 70.6376 98.4381 70.6074C98.416 70.5771 98.4051 70.5398 98.4051 70.4958V66.14C98.4051 65.716 98.372 65.3742 98.3059 65.1153C98.2398 64.8564 98.1434 64.6331 98.0167 64.4459C97.8898 64.2585 97.7259 64.1153 97.525 64.0161C97.3238 63.9169 97.091 63.8673 96.8265 63.8673C96.4849 63.8673 96.1433 63.9886 95.8015 64.231C95.46 64.4734 95.1019 64.8289 94.7272 65.2971V70.4958C94.7272 70.5398 94.7161 70.5771 94.6942 70.6074C94.672 70.6376 94.6364 70.6639 94.5866 70.6858C94.537 70.7079 94.4681 70.7242 94.3801 70.7354C94.2918 70.7464 94.1789 70.752 94.0411 70.752C93.9091 70.752 93.7987 70.7464 93.7104 70.7354C93.6224 70.7242 93.5521 70.7079 93.4997 70.6858C93.4473 70.6639 93.4117 70.6376 93.3924 70.6074C93.3731 70.5771 93.3635 70.5398 93.3635 70.4958V63.0573C93.3635 63.0133 93.3717 62.976 93.3882 62.9458C93.4047 62.9155 93.4378 62.8878 93.4874 62.8631C93.537 62.8382 93.6003 62.8219 93.6774 62.8135C93.7547 62.8051 93.8564 62.8012 93.9833 62.8012C94.1044 62.8012 94.205 62.8051 94.2851 62.8135C94.3649 62.8219 94.4269 62.8382 94.4711 62.8631C94.5151 62.8878 94.5466 62.9155 94.5661 62.9458C94.5852 62.976 94.595 63.0133 94.595 63.0573V64.0408C95.0136 63.5725 95.4311 63.2296 95.8472 63.0119C96.263 62.7942 96.6833 62.6854 97.1075 62.6854C97.6034 62.6854 98.0209 62.7695 98.3597 62.9376C98.6984 63.1057 98.9725 63.3302 99.182 63.6112C99.3913 63.892 99.5415 64.2214 99.6326 64.5986C99.7234 64.9761 99.7688 65.4294 99.7688 65.9584V70.4958Z" fill="white"/>
</g>
<mask id="mask11_251_2571" style="mask-type:luminance" maskUnits="userSpaceOnUse" x="0" y="0" width="284" height="99">
<path d="M0 0H283.8V99H0V0Z" fill="white"/>
</mask>
<g mask="url(#mask11_251_2571)">
<path d="M108.244 63.0407C108.244 63.0629 108.243 63.0862 108.24 63.1111C108.237 63.1357 108.233 63.1621 108.228 63.1895C108.222 63.2172 108.215 63.2475 108.207 63.2806C108.199 63.3134 108.189 63.3495 108.178 63.3879L105.641 70.4544C105.619 70.5152 105.59 70.5648 105.554 70.6032C105.518 70.6418 105.465 70.6721 105.393 70.6942C105.321 70.7161 105.23 70.7312 105.12 70.7396C105.01 70.748 104.872 70.752 104.707 70.752C104.542 70.752 104.404 70.7464 104.294 70.7354C104.183 70.7242 104.094 70.7079 104.025 70.6858C103.956 70.6639 103.903 70.6337 103.864 70.595C103.825 70.5564 103.795 70.5096 103.773 70.4544L101.244 63.3879C101.222 63.3218 101.204 63.2638 101.19 63.2144C101.177 63.1648 101.168 63.1276 101.165 63.1029C101.163 63.078 101.161 63.0573 101.161 63.0407C101.161 62.9967 101.172 62.9581 101.194 62.925C101.216 62.892 101.254 62.8659 101.306 62.8466C101.358 62.8272 101.427 62.8149 101.512 62.8093C101.598 62.804 101.704 62.8012 101.831 62.8012C101.99 62.8012 102.119 62.8051 102.215 62.8135C102.311 62.8219 102.386 62.837 102.438 62.8589C102.491 62.881 102.529 62.9085 102.554 62.9416C102.579 62.9746 102.602 63.0161 102.624 63.0654L104.723 69.1983L104.757 69.2974L104.781 69.1983L106.856 63.0654C106.867 63.0161 106.886 62.9746 106.914 62.9416C106.941 62.9085 106.981 62.881 107.033 62.8589C107.086 62.837 107.158 62.8219 107.248 62.8135C107.339 62.8051 107.459 62.8012 107.608 62.8012C107.735 62.8012 107.839 62.804 107.922 62.8093C108.005 62.8149 108.069 62.8286 108.116 62.8508C108.163 62.8726 108.196 62.899 108.215 62.9292C108.235 62.9595 108.244 62.9967 108.244 63.0407Z" fill="white"/>
</g>
<mask id="mask12_251_2571" style="mask-type:luminance" maskUnits="userSpaceOnUse" x="0" y="0" width="284" height="99">
<path d="M0 0H283.8V99H0V0Z" fill="white"/>
</mask>
<g mask="url(#mask12_251_2571)">
<path d="M114.769 66.0493C114.786 65.3331 114.626 64.771 114.291 64.3631C113.956 63.9554 113.458 63.7514 112.798 63.7514C112.46 63.7514 112.164 63.815 111.909 63.9417C111.654 64.0686 111.44 64.2364 111.268 64.4458C111.096 64.6553 110.964 64.8991 110.869 65.1773C110.775 65.4555 110.722 65.7464 110.711 66.0493H114.769ZM116.142 66.4542C116.142 66.6691 116.088 66.822 115.979 66.9129C115.871 67.0039 115.748 67.0493 115.61 67.0493H110.711C110.711 67.4626 110.753 67.8344 110.836 68.165C110.919 68.4957 111.057 68.7795 111.251 69.0163C111.445 69.2533 111.697 69.4351 112.007 69.5618C112.317 69.6887 112.696 69.752 113.145 69.752C113.499 69.752 113.815 69.7229 114.091 69.6652C114.368 69.6072 114.608 69.5425 114.81 69.471C115.012 69.3995 115.178 69.3346 115.308 69.2766C115.438 69.2188 115.537 69.19 115.603 69.19C115.642 69.19 115.676 69.1995 115.707 69.2188C115.737 69.2382 115.761 69.267 115.777 69.3057C115.794 69.3443 115.806 69.3979 115.815 69.4668C115.823 69.5357 115.827 69.6195 115.827 69.719C115.827 69.7904 115.824 69.8526 115.819 69.905C115.813 69.9574 115.807 70.0039 115.798 70.0454C115.79 70.0866 115.776 70.1239 115.757 70.1569C115.738 70.19 115.713 70.2216 115.683 70.2519C115.652 70.2824 115.563 70.332 115.414 70.4007C115.265 70.4696 115.072 70.5371 114.836 70.6033C114.599 70.6694 114.324 70.7285 114.013 70.7809C113.702 70.8333 113.37 70.8594 113.017 70.8594C112.406 70.8594 111.87 70.7739 111.41 70.6033C110.95 70.4326 110.563 70.179 110.249 69.8428C109.934 69.5068 109.697 69.0854 109.538 68.5783C109.378 68.0714 109.298 67.4819 109.298 66.8097C109.298 66.1706 109.381 65.5962 109.546 65.0863C109.711 64.5768 109.95 64.1442 110.261 63.7889C110.572 63.4334 110.948 63.1605 111.389 62.9705C111.83 62.7803 112.323 62.6853 112.868 62.6853C113.452 62.6853 113.95 62.7791 114.36 62.9663C114.771 63.1538 115.108 63.4059 115.373 63.7226C115.637 64.0395 115.831 64.4115 115.955 64.8383C116.079 65.2656 116.142 65.7214 116.142 66.2062V66.4542Z" fill="white"/>
</g>
<mask id="mask13_251_2571" style="mask-type:luminance" maskUnits="userSpaceOnUse" x="0" y="0" width="284" height="99">
<path d="M0 0H283.8V99H0V0Z" fill="white"/>
</mask>
<g mask="url(#mask13_251_2571)">
<path d="M123.055 68.4707C123.055 68.851 122.985 69.1897 122.844 69.4873C122.704 69.7848 122.504 70.0356 122.245 70.2396C121.986 70.4433 121.677 70.5977 121.319 70.7022C120.961 70.807 120.567 70.8594 120.137 70.8594C119.873 70.8594 119.621 70.8387 119.381 70.7974C119.141 70.756 118.926 70.7036 118.737 70.6403C118.546 70.5769 118.385 70.5111 118.253 70.4419C118.121 70.3732 118.024 70.3111 117.963 70.2559C117.903 70.2009 117.859 70.1239 117.831 70.0247C117.804 69.9255 117.79 69.7904 117.79 69.6195C117.79 69.515 117.795 69.4268 117.807 69.355C117.818 69.2836 117.831 69.2258 117.848 69.1816C117.865 69.1376 117.888 69.1059 117.918 69.0866C117.948 69.0673 117.983 69.0577 118.021 69.0577C118.082 69.0577 118.171 69.0947 118.29 69.1692C118.408 69.2435 118.554 69.3248 118.728 69.413C118.902 69.5013 119.107 69.5823 119.344 69.6568C119.581 69.7313 119.853 69.7683 120.162 69.7683C120.394 69.7683 120.603 69.7436 120.79 69.694C120.978 69.6445 121.14 69.5716 121.278 69.4749C121.415 69.3786 121.522 69.2561 121.596 69.1071C121.67 68.9585 121.708 68.782 121.708 68.5781C121.708 68.369 121.654 68.1927 121.546 68.0493C121.439 67.9061 121.297 67.7795 121.121 67.6691C120.944 67.559 120.746 67.4612 120.526 67.3757C120.305 67.2903 120.078 67.2009 119.844 67.107C119.61 67.0134 119.381 66.9075 119.158 66.7888C118.935 66.6705 118.735 66.5257 118.559 66.355C118.382 66.1843 118.241 65.9804 118.133 65.7433C118.026 65.5065 117.972 65.2227 117.972 64.8921C117.972 64.5999 118.028 64.3205 118.141 64.0532C118.254 63.7859 118.424 63.5519 118.65 63.3505C118.876 63.1496 119.158 62.9884 119.497 62.8671C119.836 62.7461 120.231 62.6853 120.683 62.6853C120.881 62.6853 121.08 62.7018 121.278 62.7349C121.476 62.768 121.655 62.8094 121.815 62.8588C121.975 62.9084 122.111 62.9621 122.224 63.0201C122.337 63.0779 122.422 63.1288 122.48 63.1729C122.538 63.2171 122.577 63.2555 122.596 63.2886C122.615 63.3216 122.629 63.3589 122.637 63.4003C122.646 63.4415 122.654 63.4925 122.662 63.5531C122.67 63.6138 122.675 63.6881 122.675 63.7761C122.675 63.87 122.67 63.9512 122.662 64.0201C122.654 64.089 122.64 64.1454 122.621 64.1894C122.602 64.2336 122.578 64.2653 122.551 64.2846C122.523 64.304 122.493 64.3135 122.46 64.3135C122.41 64.3135 122.338 64.2832 122.245 64.2225C122.151 64.1619 122.03 64.0972 121.881 64.0283C121.732 63.9596 121.558 63.8949 121.356 63.8341C121.155 63.7736 120.925 63.7433 120.666 63.7433C120.435 63.7433 120.231 63.7694 120.055 63.8218C119.878 63.8741 119.733 63.9487 119.621 64.0448C119.508 64.1414 119.422 64.2555 119.364 64.3878C119.307 64.52 119.278 64.6634 119.278 64.8178C119.278 65.0325 119.333 65.2132 119.443 65.3589C119.553 65.5051 119.696 65.6332 119.873 65.7433C120.049 65.8537 120.25 65.9529 120.476 66.0409C120.702 66.1291 120.932 66.2199 121.166 66.3135C121.4 66.4074 121.632 66.5119 121.861 66.6276C122.089 66.7433 122.292 66.884 122.468 67.0493C122.644 67.2144 122.786 67.413 122.894 67.6442C123.001 67.8756 123.055 68.1513 123.055 68.4707Z" fill="white"/>
</g>
<mask id="mask14_251_2571" style="mask-type:luminance" maskUnits="userSpaceOnUse" x="0" y="0" width="284" height="99">
<path d="M0 0H283.8V99H0V0Z" fill="white"/>
</mask>
<g mask="url(#mask14_251_2571)">
<path d="M128.853 69.9501C128.853 70.11 128.841 70.2367 128.82 70.3303C128.797 70.4241 128.764 70.4931 128.72 70.5371C128.676 70.5811 128.61 70.6225 128.522 70.6609C128.434 70.6996 128.333 70.731 128.22 70.7559C128.107 70.7808 127.987 70.8013 127.861 70.8181C127.734 70.8344 127.607 70.8428 127.481 70.8428C127.095 70.8428 126.764 70.7918 126.489 70.6898C126.213 70.5881 125.987 70.4337 125.811 70.2269C125.635 70.0204 125.507 69.7587 125.427 69.4418C125.347 69.1252 125.307 68.7517 125.307 68.3219V63.9744H124.266C124.183 63.9744 124.117 63.9304 124.067 63.8424C124.018 63.7542 123.993 63.611 123.993 63.4126C123.993 63.3081 124 63.2198 124.013 63.1481C124.027 63.0766 124.045 63.0172 124.067 62.9702C124.089 62.9236 124.118 62.8906 124.154 62.8713C124.19 62.8519 124.23 62.8424 124.274 62.8424H125.307V61.0736C125.307 61.0349 125.316 60.9993 125.336 60.9662C125.355 60.9329 125.391 60.9041 125.443 60.8794C125.496 60.8545 125.566 60.8368 125.654 60.8256C125.742 60.8146 125.852 60.8091 125.985 60.8091C126.122 60.8091 126.235 60.8146 126.324 60.8256C126.412 60.8368 126.48 60.8545 126.53 60.8794C126.58 60.9041 126.616 60.9329 126.638 60.9662C126.66 60.9993 126.67 61.0349 126.67 61.0736V62.8424H128.58C128.624 62.8424 128.663 62.8519 128.696 62.8713C128.729 62.8906 128.758 62.9236 128.782 62.9702C128.807 63.0172 128.825 63.0766 128.836 63.1481C128.847 63.2198 128.853 63.3081 128.853 63.4126C128.853 63.611 128.828 63.7542 128.778 63.8424C128.729 63.9304 128.663 63.9744 128.58 63.9744H126.67V68.1235C126.67 68.636 126.746 69.0232 126.898 69.2849C127.049 69.5466 127.321 69.6774 127.712 69.6774C127.839 69.6774 127.952 69.6649 128.051 69.6402C128.15 69.6155 128.238 69.5894 128.315 69.5617C128.393 69.5343 128.459 69.5079 128.514 69.4833C128.569 69.4583 128.618 69.446 128.663 69.446C128.69 69.446 128.716 69.453 128.741 69.4667C128.766 69.4805 128.785 69.5068 128.799 69.5452C128.813 69.5838 128.825 69.636 128.836 69.7021C128.847 69.7682 128.853 69.8509 128.853 69.9501Z" fill="white"/>
</g>
<mask id="mask15_251_2571" style="mask-type:luminance" maskUnits="userSpaceOnUse" x="0" y="0" width="284" height="99">
<path d="M0 0H283.8V99H0V0Z" fill="white"/>
</mask>
<g mask="url(#mask15_251_2571)">
<path d="M141.857 70.4958C141.857 70.5398 141.846 70.5771 141.824 70.6074C141.802 70.6376 141.766 70.6639 141.717 70.6858C141.667 70.7079 141.598 70.7242 141.51 70.7354C141.422 70.7464 141.312 70.752 141.18 70.752C141.042 70.752 140.929 70.7464 140.841 70.7354C140.753 70.7242 140.682 70.7079 140.63 70.6858C140.577 70.6639 140.54 70.6376 140.518 70.6074C140.496 70.5771 140.485 70.5398 140.485 70.4958V65.9749C140.485 65.6608 140.458 65.3742 140.403 65.1153C140.348 64.8564 140.259 64.6331 140.138 64.4459C140.017 64.2585 139.863 64.1153 139.675 64.0161C139.488 63.9169 139.268 63.8673 139.014 63.8673C138.7 63.8673 138.385 63.9886 138.068 64.231C137.751 64.4734 137.403 64.8289 137.022 65.2971V70.4958C137.022 70.5398 137.011 70.5771 136.989 70.6074C136.967 70.6376 136.93 70.6639 136.878 70.6858C136.825 70.7079 136.755 70.7242 136.667 70.7354C136.579 70.7464 136.468 70.752 136.336 70.752C136.21 70.752 136.101 70.7464 136.01 70.7354C135.919 70.7242 135.847 70.7079 135.795 70.6858C135.742 70.6639 135.707 70.6376 135.687 70.6074C135.668 70.5771 135.659 70.5398 135.659 70.4958V65.9749C135.659 65.6608 135.628 65.3742 135.568 65.1153C135.507 64.8564 135.416 64.6331 135.295 64.4459C135.174 64.2585 135.021 64.1153 134.836 64.0161C134.652 63.9169 134.433 63.8673 134.179 63.8673C133.865 63.8673 133.548 63.9886 133.229 64.231C132.909 64.4734 132.562 64.8289 132.187 65.2971V70.4958C132.187 70.5398 132.176 70.5771 132.154 70.6074C132.132 70.6376 132.097 70.6639 132.047 70.6858C131.997 70.7079 131.928 70.7242 131.84 70.7354C131.752 70.7464 131.639 70.752 131.501 70.752C131.369 70.752 131.259 70.7464 131.171 70.7354C131.083 70.7242 131.012 70.7079 130.96 70.6858C130.907 70.6639 130.872 70.6376 130.852 70.6074C130.833 70.5771 130.824 70.5398 130.824 70.4958V63.0573C130.824 63.0133 130.832 62.976 130.848 62.9458C130.865 62.9155 130.898 62.8878 130.947 62.8631C130.997 62.8382 131.06 62.8219 131.137 62.8135C131.215 62.8051 131.317 62.8012 131.443 62.8012C131.564 62.8012 131.665 62.8051 131.745 62.8135C131.825 62.8219 131.887 62.8382 131.931 62.8631C131.975 62.8878 132.007 62.9155 132.026 62.9458C132.045 62.976 132.055 63.0133 132.055 63.0573V64.0408C132.474 63.5725 132.88 63.2296 133.274 63.0119C133.668 62.7942 134.066 62.6854 134.468 62.6854C134.777 62.6854 135.054 62.7213 135.299 62.7928C135.544 62.8645 135.76 62.9651 135.948 63.0945C136.135 63.224 136.295 63.3784 136.427 63.5574C136.559 63.7365 136.67 63.9362 136.758 64.1565C137.006 63.8866 137.241 63.658 137.464 63.4706C137.688 63.2834 137.902 63.1318 138.109 63.0161C138.316 62.9001 138.517 62.8163 138.712 62.7639C138.908 62.7115 139.105 62.6854 139.303 62.6854C139.783 62.6854 140.185 62.7695 140.51 62.9376C140.835 63.1057 141.098 63.3302 141.299 63.6112C141.5 63.892 141.644 64.2214 141.729 64.5986C141.815 64.9761 141.857 65.3742 141.857 65.7931V70.4958Z" fill="white"/>
</g>
<mask id="mask16_251_2571" style="mask-type:luminance" maskUnits="userSpaceOnUse" x="0" y="0" width="284" height="99">
<path d="M0 0H283.8V99H0V0Z" fill="white"/>
</mask>
<g mask="url(#mask16_251_2571)">
<path d="M149.49 66.0493C149.506 65.3331 149.347 64.771 149.012 64.3631C148.676 63.9554 148.179 63.7514 147.519 63.7514C147.181 63.7514 146.884 63.815 146.629 63.9417C146.374 64.0686 146.161 64.2364 145.989 64.4458C145.817 64.6553 145.684 64.8991 145.59 65.1773C145.495 65.4555 145.443 65.7464 145.432 66.0493H149.49ZM150.862 66.4542C150.862 66.6691 150.808 66.822 150.7 66.9129C150.592 67.0039 150.469 67.0493 150.33 67.0493H145.432C145.432 67.4626 145.473 67.8344 145.556 68.165C145.639 68.4957 145.778 68.7795 145.972 69.0163C146.165 69.2533 146.417 69.4351 146.727 69.5618C147.037 69.6887 147.417 69.752 147.865 69.752C148.22 69.752 148.535 69.7229 148.812 69.6652C149.089 69.6072 149.328 69.5425 149.53 69.471C149.733 69.3995 149.899 69.3346 150.029 69.2766C150.159 69.2188 150.257 69.19 150.324 69.19C150.362 69.19 150.397 69.1995 150.427 69.2188C150.458 69.2382 150.481 69.267 150.498 69.3057C150.514 69.3443 150.527 69.3979 150.535 69.4668C150.543 69.5357 150.548 69.6195 150.548 69.719C150.548 69.7904 150.545 69.8526 150.54 69.905C150.534 69.9574 150.527 70.0039 150.519 70.0454C150.511 70.0866 150.497 70.1239 150.478 70.1569C150.458 70.19 150.433 70.2216 150.403 70.2519C150.373 70.2824 150.283 70.332 150.135 70.4007C149.986 70.4696 149.793 70.5371 149.556 70.6033C149.319 70.6694 149.045 70.7285 148.734 70.7809C148.422 70.8333 148.09 70.8594 147.738 70.8594C147.126 70.8594 146.59 70.7739 146.13 70.6033C145.67 70.4326 145.283 70.179 144.969 69.8428C144.655 69.5068 144.418 69.0854 144.258 68.5783C144.098 68.0714 144.018 67.4819 144.018 66.8097C144.018 66.1706 144.101 65.5962 144.266 65.0863C144.432 64.5768 144.67 64.1442 144.981 63.7889C145.293 63.4334 145.669 63.1605 146.109 62.9705C146.55 62.7803 147.044 62.6853 147.589 62.6853C148.173 62.6853 148.67 62.7791 149.081 62.9663C149.491 63.1538 149.829 63.4059 150.093 63.7226C150.358 64.0395 150.552 64.4115 150.676 64.8383C150.8 65.2656 150.862 65.7214 150.862 66.2062V66.4542Z" fill="white"/>
</g>
<mask id="mask17_251_2571" style="mask-type:luminance" maskUnits="userSpaceOnUse" x="0" y="0" width="284" height="99">
<path d="M0 0H283.8V99H0V0Z" fill="white"/>
</mask>
<g mask="url(#mask17_251_2571)">
<path d="M159.511 70.4958C159.511 70.5398 159.5 70.5771 159.478 70.6074C159.456 70.6376 159.42 70.6639 159.371 70.6858C159.321 70.7079 159.252 70.7242 159.164 70.7354C159.076 70.7464 158.965 70.752 158.833 70.752C158.696 70.752 158.582 70.7464 158.494 70.7354C158.406 70.7242 158.337 70.7079 158.288 70.6858C158.238 70.6639 158.202 70.6376 158.18 70.6074C158.158 70.5771 158.147 70.5398 158.147 70.4958V66.14C158.147 65.716 158.114 65.3742 158.048 65.1153C157.982 64.8564 157.886 64.6331 157.759 64.4459C157.632 64.2585 157.468 64.1153 157.267 64.0161C157.066 63.9169 156.833 63.8673 156.569 63.8673C156.227 63.8673 155.886 63.9886 155.544 64.231C155.202 64.4734 154.844 64.8289 154.469 65.2971V70.4958C154.469 70.5398 154.458 70.5771 154.436 70.6074C154.414 70.6376 154.379 70.6639 154.329 70.6858C154.279 70.7079 154.21 70.7242 154.122 70.7354C154.034 70.7464 153.921 70.752 153.783 70.752C153.651 70.752 153.541 70.7464 153.453 70.7354C153.365 70.7242 153.294 70.7079 153.242 70.6858C153.19 70.6639 153.154 70.6376 153.135 70.6074C153.115 70.5771 153.106 70.5398 153.106 70.4958V63.0573C153.106 63.0133 153.114 62.976 153.13 62.9458C153.147 62.9155 153.18 62.8878 153.23 62.8631C153.279 62.8382 153.343 62.8219 153.42 62.8135C153.497 62.8051 153.599 62.8012 153.726 62.8012C153.847 62.8012 153.947 62.8051 154.027 62.8135C154.107 62.8219 154.169 62.8382 154.213 62.8631C154.257 62.8878 154.289 62.9155 154.308 62.9458C154.327 62.976 154.337 63.0133 154.337 63.0573V64.0408C154.756 63.5725 155.173 63.2296 155.589 63.0119C156.005 62.7942 156.425 62.6854 156.85 62.6854C157.346 62.6854 157.763 62.7695 158.102 62.9376C158.441 63.1057 158.715 63.3302 158.924 63.6112C159.134 63.892 159.284 64.2214 159.375 64.5986C159.466 64.9761 159.511 65.4294 159.511 65.9584V70.4958Z" fill="white"/>
</g>
<mask id="mask18_251_2571" style="mask-type:luminance" maskUnits="userSpaceOnUse" x="0" y="0" width="284" height="99">
<path d="M0 0H283.8V99H0V0Z" fill="white"/>
</mask>
<g mask="url(#mask18_251_2571)">
<path d="M165.879 69.9501C165.879 70.11 165.868 70.2367 165.846 70.3303C165.824 70.4241 165.791 70.4931 165.747 70.5371C165.703 70.5811 165.636 70.6225 165.548 70.6609C165.46 70.6996 165.36 70.731 165.247 70.7559C165.134 70.7808 165.014 70.8013 164.887 70.8181C164.761 70.8344 164.634 70.8428 164.507 70.8428C164.121 70.8428 163.791 70.7918 163.515 70.6898C163.24 70.5881 163.014 70.4337 162.838 70.2269C162.661 70.0204 162.533 69.7587 162.453 69.4418C162.373 69.1252 162.333 68.7517 162.333 68.3219V63.9744H161.292C161.209 63.9744 161.143 63.9304 161.094 63.8424C161.044 63.7542 161.019 63.611 161.019 63.4126C161.019 63.3081 161.026 63.2198 161.04 63.1481C161.054 63.0766 161.072 63.0172 161.094 62.9702C161.116 62.9236 161.145 62.8906 161.181 62.8713C161.216 62.8519 161.256 62.8424 161.3 62.8424H162.333V61.0736C162.333 61.0349 162.343 60.9993 162.362 60.9662C162.382 60.9329 162.417 60.9041 162.47 60.8794C162.522 60.8545 162.592 60.8368 162.681 60.8256C162.769 60.8146 162.879 60.8091 163.011 60.8091C163.149 60.8091 163.262 60.8146 163.35 60.8256C163.438 60.8368 163.507 60.8545 163.557 60.8794C163.606 60.9041 163.642 60.9329 163.664 60.9662C163.686 60.9993 163.697 61.0349 163.697 61.0736V62.8424H165.606C165.65 62.8424 165.689 62.8519 165.722 62.8713C165.755 62.8906 165.784 62.9236 165.809 62.9702C165.834 63.0172 165.851 63.0766 165.863 63.1481C165.874 63.2198 165.879 63.3081 165.879 63.4126C165.879 63.611 165.854 63.7542 165.805 63.8424C165.755 63.9304 165.689 63.9744 165.606 63.9744H163.697V68.1235C163.697 68.636 163.773 69.0232 163.924 69.2849C164.076 69.5466 164.347 69.6774 164.738 69.6774C164.865 69.6774 164.978 69.6649 165.077 69.6402C165.177 69.6155 165.265 69.5894 165.342 69.5617C165.419 69.5343 165.485 69.5079 165.54 69.4833C165.595 69.4583 165.645 69.446 165.689 69.446C165.717 69.446 165.743 69.453 165.768 69.4667C165.792 69.4805 165.812 69.5068 165.825 69.5452C165.839 69.5838 165.851 69.636 165.863 69.7021C165.874 69.7682 165.879 69.8509 165.879 69.9501Z" fill="white"/>
</g>
<mask id="mask19_251_2571" style="mask-type:luminance" maskUnits="userSpaceOnUse" x="0" y="0" width="284" height="99">
<path d="M0 0H283.8V99H0V0Z" fill="white"/>
</mask>
<g mask="url(#mask19_251_2571)">
<path d="M177.078 63.2557C177.078 62.8205 176.997 62.4568 176.834 62.1646C176.671 61.8729 176.471 61.6552 176.231 61.5117C175.991 61.3685 175.743 61.2777 175.487 61.2391C175.231 61.2004 174.981 61.1811 174.739 61.1811H173.425V65.4708H174.706C175.135 65.4708 175.492 65.4156 175.776 65.3055C176.06 65.1954 176.298 65.0424 176.491 64.8466C176.684 64.6513 176.83 64.417 176.929 64.1441C177.028 63.8715 177.078 63.5753 177.078 63.2557ZM178.574 63.1399C178.574 63.6745 178.485 64.1567 178.309 64.5863C178.133 65.0161 177.881 65.3826 177.553 65.6857C177.225 65.9887 176.823 66.2229 176.346 66.3882C175.87 66.5535 175.301 66.6362 174.64 66.6362H173.425V70.4877C173.425 70.5317 173.412 70.5703 173.388 70.6034C173.363 70.6362 173.324 70.6625 173.272 70.6819C173.219 70.7012 173.148 70.7175 173.057 70.7312C172.966 70.7452 172.852 70.752 172.714 70.752C172.576 70.752 172.462 70.7452 172.371 70.7312C172.28 70.7175 172.207 70.7012 172.152 70.6819C172.097 70.6625 172.058 70.6362 172.036 70.6034C172.014 70.5703 172.003 70.5317 172.003 70.4877V60.6193C172.003 60.3988 172.061 60.2419 172.177 60.148C172.292 60.0544 172.422 60.0076 172.565 60.0076H174.855C175.086 60.0076 175.308 60.0172 175.52 60.0365C175.732 60.0558 175.983 60.0973 176.272 60.1606C176.561 60.2239 176.856 60.3422 177.156 60.5159C177.456 60.6896 177.712 60.9031 177.921 61.1564C178.13 61.41 178.291 61.7034 178.404 62.0365C178.517 62.37 178.574 62.7378 178.574 63.1399Z" fill="white"/>
</g>
<mask id="mask20_251_2571" style="mask-type:luminance" maskUnits="userSpaceOnUse" x="0" y="0" width="284" height="99">
<path d="M0 0H283.8V99H0V0Z" fill="white"/>
</mask>
<g mask="url(#mask20_251_2571)">
<path d="M184.644 67.107H183.479C183.104 67.107 182.779 67.1387 182.504 67.202C182.228 67.2656 181.999 67.3592 181.817 67.4831C181.636 67.6069 181.502 67.7559 181.417 67.9294C181.331 68.1029 181.288 68.3029 181.288 68.5285C181.288 68.9143 181.411 69.2216 181.656 69.45C181.902 69.6789 182.244 69.7932 182.685 69.7932C183.043 69.7932 183.375 69.7022 183.681 69.5204C183.987 69.3385 184.308 69.0605 184.644 68.6856V67.107ZM185.999 70.5038C185.999 70.5702 185.978 70.6196 185.934 70.6529C185.889 70.6859 185.829 70.7106 185.752 70.7271C185.674 70.7437 185.561 70.7518 185.413 70.7518C185.269 70.7518 185.155 70.7437 185.07 70.7271C184.984 70.7106 184.922 70.6859 184.884 70.6529C184.845 70.6196 184.826 70.5702 184.826 70.5038V69.7602C184.501 70.1073 184.138 70.3772 183.739 70.5702C183.34 70.763 182.917 70.8594 182.47 70.8594C182.079 70.8594 181.725 70.8084 181.408 70.7064C181.091 70.6044 180.821 70.4573 180.598 70.2643C180.375 70.0715 180.202 69.8344 180.078 69.5534C179.954 69.2724 179.892 68.9529 179.892 68.5948C179.892 68.176 179.977 67.8123 180.148 67.5038C180.319 67.1953 180.564 66.9389 180.884 66.7352C181.203 66.5312 181.594 66.3785 182.057 66.2765C182.52 66.1745 183.041 66.1235 183.619 66.1235H184.644V65.545C184.644 65.2586 184.614 65.005 184.553 64.7845C184.493 64.5643 184.395 64.381 184.26 64.235C184.125 64.0891 183.95 63.9787 183.735 63.9044C183.52 63.8299 183.255 63.7929 182.942 63.7929C182.605 63.7929 182.304 63.8327 182.037 63.9126C181.769 63.9927 181.535 64.0807 181.334 64.1771C181.133 64.2737 180.965 64.3617 180.83 64.4416C180.695 64.5217 180.594 64.5615 180.528 64.5615C180.484 64.5615 180.446 64.5505 180.412 64.5284C180.38 64.5065 180.351 64.4732 180.325 64.4292C180.301 64.3852 180.283 64.3286 180.272 64.2597C180.261 64.191 180.255 64.1151 180.255 64.0325C180.255 63.8949 180.265 63.7859 180.284 63.706C180.303 63.6262 180.351 63.5505 180.425 63.4788C180.499 63.4071 180.627 63.3233 180.809 63.2266C180.991 63.1302 181.2 63.0422 181.437 62.9621C181.674 62.8823 181.933 62.8162 182.214 62.7638C182.495 62.7116 182.779 62.6853 183.065 62.6853C183.6 62.6853 184.055 62.7461 184.429 62.8671C184.804 62.9884 185.107 63.1661 185.338 63.4003C185.57 63.6343 185.738 63.9249 185.842 64.2721C185.947 64.6192 185.999 65.0243 185.999 65.487V70.5038Z" fill="white"/>
</g>
<mask id="mask21_251_2571" style="mask-type:luminance" maskUnits="userSpaceOnUse" x="0" y="0" width="284" height="99">
<path d="M0 0H283.8V99H0V0Z" fill="white"/>
</mask>
<g mask="url(#mask21_251_2571)">
<path d="M193.021 63.5448C193.021 63.6661 193.018 63.7679 193.013 63.8505C193.007 63.9332 192.996 63.9982 192.979 64.0447C192.963 64.0918 192.942 64.1274 192.918 64.1523C192.893 64.177 192.858 64.1895 192.814 64.1895C192.77 64.1895 192.716 64.177 192.653 64.1523C192.589 64.1274 192.518 64.1027 192.438 64.078C192.358 64.0531 192.269 64.0298 192.169 64.0077C192.07 63.9858 191.963 63.9746 191.847 63.9746C191.709 63.9746 191.574 64.0021 191.442 64.0573C191.31 64.1125 191.171 64.2033 191.025 64.3299C190.879 64.4568 190.726 64.6249 190.566 64.8343C190.406 65.0436 190.23 65.2999 190.037 65.6028V70.4958C190.037 70.5398 190.026 70.5771 190.004 70.6074C189.982 70.6376 189.946 70.6637 189.897 70.6858C189.847 70.7077 189.778 70.7242 189.69 70.7354C189.602 70.7464 189.489 70.752 189.351 70.752C189.219 70.752 189.108 70.7464 189.02 70.7354C188.932 70.7242 188.862 70.7077 188.81 70.6858C188.757 70.6637 188.721 70.6376 188.702 70.6074C188.683 70.5771 188.673 70.5398 188.673 70.4958V63.0573C188.673 63.013 188.682 62.976 188.698 62.9455C188.715 62.9153 188.748 62.8878 188.797 62.8629C188.847 62.8382 188.91 62.8217 188.988 62.8133C189.065 62.8051 189.166 62.8009 189.293 62.8009C189.414 62.8009 189.515 62.8051 189.595 62.8133C189.675 62.8217 189.737 62.8382 189.781 62.8629C189.825 62.8878 189.856 62.9153 189.876 62.9455C189.895 62.976 189.905 63.013 189.905 63.0573V64.14C190.109 63.8424 190.3 63.6 190.479 63.4126C190.658 63.2254 190.828 63.0778 190.988 62.9704C191.147 62.8629 191.306 62.7886 191.463 62.7471C191.62 62.7059 191.778 62.6852 191.938 62.6852C192.009 62.6852 192.091 62.6894 192.182 62.6976C192.273 62.7059 192.368 62.7211 192.467 62.7432C192.566 62.7651 192.656 62.79 192.735 62.8175C192.815 62.8452 192.872 62.8726 192.905 62.9001C192.938 62.9278 192.96 62.9539 192.971 62.9786C192.982 63.0035 192.992 63.0354 193 63.0738C193.008 63.1125 193.014 63.1688 193.016 63.2431C193.019 63.3176 193.021 63.4182 193.021 63.5448Z" fill="white"/>
</g>
<mask id="mask22_251_2571" style="mask-type:luminance" maskUnits="userSpaceOnUse" x="0" y="0" width="284" height="99">
<path d="M0 0H283.8V99H0V0Z" fill="white"/>
</mask>
<g mask="url(#mask22_251_2571)">
<path d="M198.612 69.9501C198.612 70.11 198.6 70.2367 198.579 70.3303C198.556 70.4241 198.523 70.4931 198.479 70.5371C198.435 70.5811 198.369 70.6225 198.281 70.6609C198.193 70.6996 198.092 70.731 197.979 70.7559C197.866 70.7808 197.746 70.8013 197.62 70.8181C197.493 70.8344 197.366 70.8428 197.24 70.8428C196.854 70.8428 196.523 70.7918 196.248 70.6898C195.972 70.5881 195.746 70.4337 195.57 70.2269C195.394 70.0204 195.266 69.7587 195.186 69.4418C195.106 69.1252 195.066 68.7517 195.066 68.3219V63.9744H194.025C193.942 63.9744 193.876 63.9304 193.826 63.8424C193.777 63.7542 193.752 63.611 193.752 63.4126C193.752 63.3081 193.759 63.2198 193.772 63.1481C193.786 63.0766 193.804 63.0172 193.826 62.9702C193.848 62.9236 193.877 62.8906 193.913 62.8713C193.949 62.8519 193.989 62.8424 194.033 62.8424H195.066V61.0736C195.066 61.0349 195.075 60.9993 195.095 60.9662C195.114 60.9329 195.15 60.9041 195.202 60.8794C195.255 60.8545 195.325 60.8368 195.413 60.8256C195.501 60.8146 195.611 60.8091 195.744 60.8091C195.881 60.8091 195.994 60.8146 196.083 60.8256C196.171 60.8368 196.24 60.8545 196.289 60.8794C196.339 60.9041 196.375 60.9329 196.396 60.9662C196.419 60.9993 196.43 61.0349 196.43 61.0736V62.8424H198.339C198.383 62.8424 198.422 62.8519 198.454 62.8713C198.488 62.8906 198.517 62.9236 198.541 62.9702C198.566 63.0172 198.584 63.0766 198.595 63.1481C198.606 63.2198 198.612 63.3081 198.612 63.4126C198.612 63.611 198.587 63.7542 198.537 63.8424C198.488 63.9304 198.422 63.9744 198.339 63.9744H196.43V68.1235C196.43 68.636 196.505 69.0232 196.657 69.2849C196.809 69.5466 197.08 69.6774 197.471 69.6774C197.598 69.6774 197.711 69.6649 197.81 69.6402C197.909 69.6155 197.997 69.5894 198.074 69.5617C198.151 69.5343 198.218 69.5079 198.273 69.4833C198.328 69.4583 198.377 69.446 198.422 69.446C198.449 69.446 198.475 69.453 198.5 69.4667C198.525 69.4805 198.544 69.5068 198.558 69.5452C198.572 69.5838 198.584 69.636 198.595 69.7021C198.606 69.7682 198.612 69.8509 198.612 69.9501Z" fill="white"/>
</g>
<mask id="mask23_251_2571" style="mask-type:luminance" maskUnits="userSpaceOnUse" x="0" y="0" width="284" height="99">
<path d="M0 0H283.8V99H0V0Z" fill="white"/>
</mask>
<g mask="url(#mask23_251_2571)">
<path d="M206.988 70.4958C206.988 70.5398 206.977 70.5771 206.955 70.6074C206.933 70.6376 206.897 70.6639 206.847 70.6858C206.798 70.7079 206.729 70.7242 206.641 70.7354C206.553 70.7464 206.443 70.752 206.311 70.752C206.173 70.752 206.06 70.7464 205.972 70.7354C205.883 70.7242 205.815 70.7079 205.765 70.6858C205.715 70.6639 205.68 70.6376 205.657 70.6074C205.635 70.5771 205.625 70.5398 205.625 70.4958V66.14C205.625 65.716 205.591 65.3742 205.525 65.1153C205.459 64.8564 205.363 64.6331 205.236 64.4459C205.109 64.2585 204.945 64.1153 204.744 64.0161C204.543 63.9169 204.31 63.8673 204.046 63.8673C203.704 63.8673 203.363 63.9886 203.021 64.231C202.679 64.4734 202.321 64.8289 201.947 65.2971V70.4958C201.947 70.5398 201.935 70.5771 201.914 70.6074C201.891 70.6376 201.856 70.6639 201.806 70.6858C201.756 70.7079 201.687 70.7242 201.599 70.7354C201.511 70.7464 201.398 70.752 201.26 70.752C201.128 70.752 201.018 70.7464 200.93 70.7354C200.842 70.7242 200.771 70.7079 200.719 70.6858C200.667 70.6639 200.631 70.6376 200.612 70.6074C200.592 70.5771 200.583 70.5398 200.583 70.4958V63.0573C200.583 63.0133 200.591 62.976 200.608 62.9458C200.624 62.9155 200.657 62.8878 200.707 62.8631C200.756 62.8382 200.82 62.8219 200.897 62.8135C200.974 62.8051 201.076 62.8012 201.203 62.8012C201.324 62.8012 201.424 62.8051 201.504 62.8135C201.584 62.8219 201.646 62.8382 201.69 62.8631C201.734 62.8878 201.766 62.9155 201.785 62.9458C201.805 62.976 201.814 63.0133 201.814 63.0573V64.0408C202.233 63.5725 202.65 63.2296 203.066 63.0119C203.482 62.7942 203.902 62.6854 204.327 62.6854C204.823 62.6854 205.24 62.7695 205.579 62.9376C205.918 63.1057 206.192 63.3302 206.401 63.6112C206.611 63.892 206.761 64.2214 206.852 64.5986C206.943 64.9761 206.988 65.4294 206.988 65.9584V70.4958Z" fill="white"/>
</g>
<mask id="mask24_251_2571" style="mask-type:luminance" maskUnits="userSpaceOnUse" x="0" y="0" width="284" height="99">
<path d="M0 0H283.8V99H0V0Z" fill="white"/>
</mask>
<g mask="url(#mask24_251_2571)">
<path d="M214.621 66.0493C214.637 65.3331 214.478 64.771 214.143 64.3631C213.807 63.9554 213.309 63.7514 212.65 63.7514C212.312 63.7514 212.015 63.815 211.76 63.9417C211.505 64.0686 211.291 64.2364 211.12 64.4458C210.948 64.6553 210.815 64.8991 210.721 65.1773C210.626 65.4555 210.574 65.7464 210.562 66.0493H214.621ZM215.993 66.4542C215.993 66.6691 215.939 66.822 215.831 66.9129C215.723 67.0039 215.6 67.0493 215.461 67.0493H210.562C210.562 67.4626 210.604 67.8344 210.687 68.165C210.77 68.4957 210.909 68.7795 211.102 69.0163C211.296 69.2533 211.548 69.4351 211.858 69.5618C212.168 69.6887 212.548 69.752 212.996 69.752C213.35 69.752 213.666 69.7229 213.943 69.6652C214.22 69.6072 214.459 69.5425 214.661 69.471C214.863 69.3995 215.029 69.3346 215.159 69.2766C215.29 69.2188 215.388 69.19 215.455 69.19C215.493 69.19 215.528 69.1995 215.558 69.2188C215.589 69.2382 215.612 69.267 215.629 69.3057C215.645 69.3443 215.658 69.3979 215.666 69.4668C215.674 69.5357 215.679 69.6195 215.679 69.719C215.679 69.7904 215.676 69.8526 215.67 69.905C215.665 69.9574 215.658 70.0039 215.65 70.0454C215.641 70.0866 215.628 70.1239 215.608 70.1569C215.589 70.19 215.564 70.2216 215.534 70.2519C215.504 70.2824 215.414 70.332 215.265 70.4007C215.117 70.4696 214.924 70.5371 214.687 70.6033C214.45 70.6694 214.176 70.7285 213.865 70.7809C213.553 70.8333 213.221 70.8594 212.869 70.8594C212.257 70.8594 211.721 70.7739 211.261 70.6033C210.801 70.4326 210.414 70.179 210.1 69.8428C209.786 69.5068 209.549 69.0854 209.389 68.5783C209.229 68.0714 209.149 67.4819 209.149 66.8097C209.149 66.1706 209.232 65.5962 209.397 65.0863C209.562 64.5768 209.801 64.1442 210.112 63.7889C210.423 63.4334 210.799 63.1605 211.24 62.9705C211.681 62.7803 212.174 62.6853 212.72 62.6853C213.304 62.6853 213.801 62.7791 214.211 62.9663C214.622 63.1538 214.96 63.4059 215.224 63.7226C215.489 64.0395 215.683 64.4115 215.807 64.8383C215.931 65.2656 215.993 65.7214 215.993 66.2062V66.4542Z" fill="white"/>
</g>
<mask id="mask25_251_2571" style="mask-type:luminance" maskUnits="userSpaceOnUse" x="0" y="0" width="284" height="99">
<path d="M0 0H283.8V99H0V0Z" fill="white"/>
</mask>
<g mask="url(#mask25_251_2571)">
<path d="M222.584 63.5448C222.584 63.6661 222.581 63.7679 222.576 63.8505C222.57 63.9332 222.559 63.9982 222.542 64.0447C222.526 64.0918 222.505 64.1274 222.481 64.1523C222.456 64.177 222.421 64.1895 222.377 64.1895C222.333 64.1895 222.279 64.177 222.216 64.1523C222.152 64.1274 222.081 64.1027 222.001 64.078C221.921 64.0531 221.832 64.0298 221.732 64.0077C221.633 63.9858 221.526 63.9746 221.41 63.9746C221.272 63.9746 221.137 64.0021 221.005 64.0573C220.873 64.1125 220.734 64.2033 220.588 64.3299C220.442 64.4568 220.289 64.6249 220.129 64.8343C219.969 65.0436 219.793 65.2999 219.6 65.6028V70.4958C219.6 70.5398 219.589 70.5771 219.567 70.6074C219.545 70.6376 219.509 70.6637 219.46 70.6858C219.41 70.7077 219.341 70.7242 219.253 70.7354C219.165 70.7464 219.052 70.752 218.914 70.752C218.782 70.752 218.671 70.7464 218.583 70.7354C218.495 70.7242 218.425 70.7077 218.373 70.6858C218.32 70.6637 218.284 70.6376 218.265 70.6074C218.246 70.5771 218.236 70.5398 218.236 70.4958V63.0573C218.236 63.013 218.245 62.976 218.261 62.9455C218.278 62.9153 218.311 62.8878 218.36 62.8629C218.41 62.8382 218.473 62.8217 218.551 62.8133C218.628 62.8051 218.729 62.8009 218.856 62.8009C218.977 62.8009 219.078 62.8051 219.158 62.8133C219.238 62.8217 219.3 62.8382 219.344 62.8629C219.388 62.8878 219.419 62.9153 219.439 62.9455C219.458 62.976 219.468 63.013 219.468 63.0573V64.14C219.672 63.8424 219.863 63.6 220.042 63.4126C220.221 63.2254 220.391 63.0778 220.551 62.9704C220.71 62.8629 220.869 62.7886 221.026 62.7471C221.183 62.7059 221.341 62.6852 221.501 62.6852C221.572 62.6852 221.654 62.6894 221.745 62.6976C221.836 62.7059 221.931 62.7211 222.03 62.7432C222.129 62.7651 222.219 62.79 222.298 62.8175C222.378 62.8452 222.435 62.8726 222.468 62.9001C222.501 62.9278 222.523 62.9539 222.534 62.9786C222.545 63.0035 222.555 63.0354 222.563 63.0738C222.571 63.1125 222.577 63.1688 222.579 63.2431C222.582 63.3176 222.584 63.4182 222.584 63.5448Z" fill="white"/>
</g>
<mask id="mask26_251_2571" style="mask-type:luminance" maskUnits="userSpaceOnUse" x="0" y="0" width="284" height="99">
<path d="M0 0H283.8V99H0V0Z" fill="white"/>
</mask>
<g mask="url(#mask26_251_2571)">
<path d="M238.53 52.3616L238.543 46.9228L241.235 45.4725L263.841 45.5253L266.54 46.988L266.527 52.4268L238.53 52.3616Z" fill="white"/>
</g>
<mask id="mask27_251_2571" style="mask-type:luminance" maskUnits="userSpaceOnUse" x="0" y="0" width="284" height="99">
<path d="M0 0H283.8V99H0V0Z" fill="white"/>
</mask>
<g mask="url(#mask27_251_2571)">
<path d="M244.366 35.14L249.274 28.2936L255.369 28.3076L260.248 35.1733L244.366 35.14Z" fill="white"/>
</g>
<mask id="mask28_251_2571" style="mask-type:luminance" maskUnits="userSpaceOnUse" x="0" y="0" width="284" height="99">
<path d="M0 0H283.8V99H0V0Z" fill="white"/>
</mask>
<g mask="url(#mask28_251_2571)">
<path d="M263.845 43.8125L241.231 43.7599L241.247 36.861L263.861 36.9137L263.845 43.8125Z" fill="white"/>
</g>
<mask id="mask29_251_2571" style="mask-type:luminance" maskUnits="userSpaceOnUse" x="0" y="0" width="284" height="99">
<path d="M0 0H283.8V99H0V0Z" fill="white"/>
</mask>
<g mask="url(#mask29_251_2571)">
<path d="M29.9046 29.055C30.5796 29.5461 31.5174 30.3063 31.5167 30.6858C31.5158 31.0122 31.2702 31.3428 30.9775 31.7712C30.6292 32.2043 30.0501 32.9596 29.5037 33.5047C29.2806 33.7245 28.9158 33.7212 28.9165 33.4502C28.9174 33.0684 28.9181 32.7457 28.8631 32.4178C28.526 31.2227 27.6403 29.8113 25.6722 29.8068C24.0549 29.8029 22.3853 31.1491 22.3801 33.3312C22.3736 36.0931 24.481 37.457 26.5465 38.17C30.4699 39.4811 32.1845 41.2233 32.1775 44.2635C32.1701 47.4123 30.7838 49.6361 28.9092 50.8813C27.6855 51.7455 25.6775 52.3921 23.9529 52.3882C21.348 52.3821 18.4148 51.0759 17.7321 49.4989C17.3386 48.6859 18.2168 47.8733 18.6113 47.2735C19.0581 46.5671 19.5994 46.1359 19.8935 45.7557C20.1861 45.3769 20.4825 45.49 20.4818 45.7571C20.4811 46.0847 20.6022 47.1767 20.7505 47.7296C21.1303 49.1583 21.9608 50.4289 24.5187 50.4349C26.5784 50.4396 28.2538 49.3048 28.2613 46.1559C28.2673 43.5496 26.7912 41.971 24.3883 41.1484C21.5384 40.1698 18.5454 38.5337 18.5531 35.219C18.5575 33.372 19.1035 31.4208 21.5655 29.5747C23.1422 28.3877 25.0531 28.0645 26.2843 28.0673C27.6566 28.0706 29.2701 28.5949 29.9046 29.055Z" fill="white"/>
</g>
<mask id="mask30_251_2571" style="mask-type:luminance" maskUnits="userSpaceOnUse" x="0" y="0" width="284" height="99">
<path d="M0 0H283.8V99H0V0Z" fill="white"/>
</mask>
<g mask="url(#mask30_251_2571)">
<path d="M46.5473 45.4381C46.5426 47.4463 46.5876 48.7555 46.8781 49.3486C47.1738 50.3272 47.812 50.7067 49.4342 51.2543C49.8726 51.4175 49.8714 51.9626 49.2828 51.9614C47.9538 51.9582 46.3852 51.7901 45.0092 51.787C43.391 51.7831 41.3358 51.9428 39.7099 51.9391C39.1721 51.9377 39.1253 51.3924 39.562 51.2315C40.4999 50.9099 41.7728 50.5309 42.2732 49.7716C42.5658 49.3386 42.7637 48.2533 42.7689 45.9709L42.7754 43.2064C42.7779 42.1161 42.6371 41.626 42.2939 40.8676C41.0687 38.1484 39.796 35.648 38.3269 33.1448C36.667 30.3184 36.4705 29.832 34.9485 29.2856C34.4555 29.1189 34.4085 28.5796 34.9501 28.581C36.331 28.5843 38.4745 28.7475 39.4065 28.7496C40.7381 28.7528 41.7202 28.5968 43.1891 28.6001C43.7801 28.6015 43.7787 29.1405 43.337 29.3051C41.5216 30.0034 41.1763 30.1112 42.0585 32.0111C42.8392 33.8107 43.9684 36.8003 45.3887 39.1351C45.6313 39.5165 45.7787 39.4092 46.0257 38.9721C47.0583 37.1819 49.0768 34.2614 49.8647 32.0293C50.5597 30.3 50.118 29.9182 48.5962 29.3175C48.2009 29.2052 48.2553 28.612 48.897 28.6134C50.2186 28.6166 51.1492 28.7771 52.4326 28.7799C53.3637 28.7822 54.3975 28.6262 55.4769 28.6287C55.9677 28.6299 56.0655 29.1691 55.574 29.3338C53.4135 30.1917 53.0624 30.683 51.5851 32.7997C49.8088 35.3474 47.9417 38.6033 47.1005 40.384C46.7068 41.2003 46.5554 41.9617 46.5538 42.6737L46.5473 45.4381Z" fill="white"/>
</g>
<mask id="mask31_251_2571" style="mask-type:luminance" maskUnits="userSpaceOnUse" x="0" y="0" width="284" height="99">
<path d="M0 0H283.8V99H0V0Z" fill="white"/>
</mask>
<g mask="url(#mask31_251_2571)">
<path d="M81.0373 37.9673C81.045 34.7109 81.0497 32.6485 80.8569 31.5057C80.5658 30.0945 79.4853 29.6542 78.5053 29.3863C78.1113 29.2752 78.1584 28.6808 78.753 28.6819C80.7114 28.6866 81.9831 28.8479 83.4558 28.8514C84.5424 28.8538 85.8113 28.6985 87.1923 28.7017C87.7797 28.7031 87.7783 29.2978 87.2822 29.4065C86.4509 29.621 85.3198 30.051 85.1264 31.3551C84.8723 32.6573 84.8674 34.7198 84.86 37.9762L84.8488 42.8151C84.8411 46.0678 84.8365 48.0287 85.1275 49.3845C85.3708 50.6314 86.4009 51.0703 87.5786 51.3436C88.0233 51.4537 88.0219 52.0507 87.4295 52.0493C85.81 52.0456 84.2404 51.8775 82.8669 51.8745C81.6935 51.8717 80.0699 52.0323 78.5465 52.0288C78.0051 52.0274 77.9558 51.4302 78.4543 51.3224C79.4352 51.1627 80.5689 50.6202 80.7666 49.6451C81.0138 48.0199 81.0185 46.059 81.0262 42.8063L81.0373 37.9673Z" fill="white"/>
</g>
<mask id="mask32_251_2571" style="mask-type:luminance" maskUnits="userSpaceOnUse" x="0" y="0" width="284" height="99">
<path d="M0 0H283.8V99H0V0Z" fill="white"/>
</mask>
<g mask="url(#mask32_251_2571)">
<path d="M95.2225 37.4586C95.229 34.6879 95.2323 33.2774 95.0879 32.0825C94.8961 30.5083 93.6688 29.8007 92.4853 29.4198C92.0467 29.3073 92.0481 28.7141 92.5848 28.7152C94.108 28.719 96.2081 28.8819 97.5432 28.885C98.7709 28.8878 99.8506 28.7322 101.321 28.7357C101.863 28.7369 101.862 29.2759 101.37 29.4405C99.7919 30.034 99.5458 30.6305 99.4021 31.2818C99.2512 31.8217 99.051 33.9402 99.0417 37.904L99.0284 43.658C99.0205 47.0266 99.1122 49.0881 99.5015 49.6898C99.8492 50.1764 100.686 50.2919 101.913 50.2949C103.678 50.2989 104.47 50.2442 105.157 50.08C106.038 49.8658 106.532 49.4874 106.974 48.9999C107.372 48.4567 107.88 47.0264 107.977 46.7065C108.13 46.2159 108.614 46.2716 108.613 46.8676C108.611 47.4052 108.152 50.1426 107.805 51.3347C107.605 52.0428 107.364 52.0954 106.032 52.0922C103.579 52.0866 99.3541 51.9133 96.8482 51.9075C95.9108 51.9054 93.8099 52.0637 92.4327 52.0605C91.8467 52.0591 91.8937 51.5152 92.2872 51.3545C93.4206 50.928 94.6493 50.4919 94.8938 49.0784C95.1017 47.887 95.2023 46.2043 95.21 42.8922L95.2225 37.4586Z" fill="white"/>
</g>
<mask id="mask33_251_2571" style="mask-type:luminance" maskUnits="userSpaceOnUse" x="0" y="0" width="284" height="99">
<path d="M0 0H283.8V99H0V0Z" fill="white"/>
</mask>
<g mask="url(#mask33_251_2571)">
<path d="M113.989 37.5022C113.997 34.242 113.999 33.2122 113.81 31.8555C113.615 30.4468 112.539 29.8445 111.306 29.5153C110.771 29.3509 110.818 28.7576 111.358 28.7588C112.981 28.7628 114.886 28.9253 116.409 28.9288L121.473 28.9406C124.074 28.9467 125.748 28.8997 126.19 28.7367C126.434 28.5728 126.632 28.5188 126.676 28.5188C126.779 28.519 126.924 28.6293 126.872 28.9025C126.628 30.2012 126.525 32.2075 126.62 33.574C126.662 34.2714 126.029 34.3799 125.936 33.7296C125.739 32.5384 125.005 31.3412 124.07 31.0608C123.092 30.7372 122.201 30.6832 120.431 30.679L119.161 30.676C118.12 30.6736 118.026 30.7798 117.925 31.6511C117.875 32.1356 117.824 33.6031 117.82 35.2819L117.813 38.2218C117.812 38.8673 117.812 38.8153 118.84 38.9241L119.871 38.9264C122.626 38.9329 123.758 38.7797 124.199 38.6151C124.786 38.399 125.184 37.9115 125.329 37.6435C125.479 37.3646 125.824 37.4751 125.772 37.8584C125.671 38.731 125.519 40.0808 125.511 43.2881C125.51 43.7195 124.976 43.7749 124.922 43.3398C124.87 43.0119 124.733 42.523 124.435 41.9253C123.948 41.0033 122.72 40.6738 120.164 40.668L118.692 40.6645C117.949 40.6629 117.807 40.7192 117.806 41.3658L117.8 43.9202C117.791 47.7221 117.884 49.0786 118.231 49.623C118.571 50.2197 119.653 50.3359 121.614 50.3406C122.793 50.3434 123.979 50.2894 124.715 50.1254C125.45 50.0235 126.04 49.6411 126.531 49.0986C126.928 48.558 127.223 47.744 127.42 47.0928C127.57 46.6593 128.06 46.7175 128.059 47.1473C128.057 47.6914 127.855 49.7557 127.559 51.3806C127.408 52.0887 127.116 52.1413 125.79 52.1381C124.264 52.1346 118.03 51.9567 115.617 51.9511C114.192 51.9478 112.142 52.1064 110.322 52.1022C109.78 52.1008 109.782 51.447 110.175 51.396C111.848 51.0205 113.372 50.6975 113.724 49.1739C113.816 48.636 113.966 47.4954 113.976 43.3141L113.989 37.5022Z" fill="white"/>
</g>
<mask id="mask34_251_2571" style="mask-type:luminance" maskUnits="userSpaceOnUse" x="0" y="0" width="284" height="99">
<path d="M0 0H283.8V99H0V0Z" fill="white"/>
</mask>
<g mask="url(#mask34_251_2571)">
<path d="M153.007 44.5453C152.998 48.6189 153.091 50.9521 153.144 51.3896C153.24 52.3072 152.554 52.4157 152.262 52.415C151.869 52.4141 151.277 52.0344 150.938 51.7086C150.342 51.1645 149.859 50.6206 149.76 50.4534C146.331 45.7227 140.801 38.2755 137.663 34.3579C137.514 34.193 137.415 34.4065 137.366 34.8429C137.316 35.3274 137.314 36.3104 137.308 38.6991L137.297 43.3157C137.282 49.7258 138.216 50.4266 139.243 50.8693L140.664 51.4672C141.065 51.6299 141.064 52.2274 140.416 52.1724C139.24 52.1165 137.964 52.0034 136.586 52.0001C135.213 51.9971 133.393 52.1561 132.367 52.1536C131.728 52.1522 131.729 51.6639 132.169 51.4474L133.155 51.0206C133.939 50.69 134.683 50.045 134.932 49.1717C135.173 48.1458 135.384 44.7206 135.393 40.7035L135.407 35.0559C135.412 32.7194 135.21 32.1762 134.875 31.4705C134.285 30.328 132.915 29.8342 131.882 29.5117C131.44 29.3992 131.441 28.806 131.978 28.8071C133.356 28.8104 134.919 29.029 136.051 29.0318C136.442 29.0328 136.836 29.0337 137.427 28.9766C138.164 28.9277 139.086 28.9806 139.137 29.2565C139.282 29.8491 139.631 30.4519 140.403 31.5974C141.816 33.6838 145.074 38.3771 150.708 45.0712C151.047 45.4468 151.146 45.3928 151.147 44.9055L151.157 40.3596C151.165 36.9894 151.027 35.2531 150.832 33.2475C150.592 30.695 150.053 30.2561 147.643 29.5483C147.157 29.4358 147.253 28.8428 147.749 28.8439C149.074 28.847 150.503 29.0071 151.976 29.0106C153.251 29.0137 154.819 28.8602 155.901 28.8628C156.487 28.8642 156.486 29.3499 155.998 29.5678C154.816 30.1077 153.878 30.6456 153.527 32.6033C153.282 34.1742 153.025 37.0529 153.016 40.6309L153.007 44.5453Z" fill="white"/>
</g>
<mask id="mask35_251_2571" style="mask-type:luminance" maskUnits="userSpaceOnUse" x="0" y="0" width="284" height="99">
<path d="M0 0H283.8V99H0V0Z" fill="white"/>
</mask>
<g mask="url(#mask35_251_2571)">
<path d="M165.918 43.87C165.91 47.1833 166.054 48.7574 166.195 49.2972C166.339 49.7931 166.736 50.1204 166.982 50.1705C167.371 50.2813 168.406 50.3926 169.29 50.3947C171.256 50.3994 173.078 49.9151 174.411 48.8317C176.231 47.2608 177.224 44.4959 177.233 40.687C177.247 34.6647 174.695 30.3143 168.108 30.2991C167.52 30.2977 167.028 30.3508 166.729 30.4554C166.488 30.5697 166.238 30.6742 166.142 31.4367C166.04 32.0349 165.942 33.4417 165.932 37.7861L165.918 43.87ZM162.103 37.3458C162.111 34.0324 162.017 32.7809 161.922 31.9166C161.778 30.9902 161.441 30.6086 159.128 30.1729C158.737 30.1177 158.738 29.5736 159.178 29.5191C160.603 29.3592 164.724 28.826 168.897 28.8358C173.275 28.846 176.559 29.724 178.419 31.4654C180.335 33.3169 181.352 35.9267 181.344 39.5058C181.332 44.7753 179.167 47.5383 176.312 49.6494C172.918 52.0844 168.402 52.2383 166.927 52.2348C165.947 52.2325 164.763 52.1768 163.928 52.1142C163.148 52.1123 162.456 52.06 162.114 52.11C161.67 52.1088 160.26 52.1056 159.714 52.165C159.273 52.2171 159.175 51.5619 159.617 51.455C160.704 51.2436 161.445 50.703 161.735 49.503C161.937 48.6936 162.08 47.119 162.091 42.6668L162.103 37.3458Z" fill="white"/>
</g>
<mask id="mask36_251_2571" style="mask-type:luminance" maskUnits="userSpaceOnUse" x="0" y="0" width="284" height="99">
<path d="M0 0H283.8V99H0V0Z" fill="white"/>
</mask>
<g mask="url(#mask36_251_2571)">
<path d="M190.741 39.8662C190.74 40.4634 190.795 40.6255 191.185 40.6821C191.823 40.7417 192.528 40.6297 193.557 40.632C194.904 40.635 197.184 38.4322 197.191 35.3353C197.199 32.0801 195.239 30.7489 191.796 30.7408C191.107 30.7392 191.008 30.8998 190.91 31.2828C190.816 31.6039 190.759 31.9289 190.754 34.4214L190.741 39.8662ZM187.318 36.2592C187.323 34.3097 187.178 33.006 187.132 32.0838C187.034 31.375 186.886 31.104 186.741 30.8849C186.39 30.5021 185.316 30.3387 184.386 30.2316C183.751 30.1755 183.8 29.6318 184.388 29.5231C185.078 29.4171 189.449 28.6646 192.593 28.8374C200.111 29.2507 201.067 33.4156 201.063 34.9907C201.058 37.2718 200.145 38.7596 199.259 39.5323L198.002 40.693C197.756 40.8544 197.659 41.0209 197.856 41.5075C199.515 45.3676 200.112 48.4028 201.83 49.9277C203.445 51.395 205.184 51.7787 205.382 51.8346C205.577 51.8869 205.624 52.2113 205.48 52.2716C205.287 52.3773 204.058 52.5931 203.029 52.5908C201.21 52.5864 199.341 51.9296 198.217 50.839C196.402 48.9367 196.086 46.3853 194.619 43.2272C194.178 42.1976 193.832 42.0865 193.292 42.1408C192.605 42.1939 191.82 42.3007 191.029 42.2989C190.791 42.2982 190.735 42.4106 190.733 43.4405L190.727 45.7166C190.723 47.4561 190.777 48.0496 190.87 48.7062C191.162 50.4464 191.505 50.9335 193.67 51.591C194.204 51.7531 194.203 52.2984 193.615 52.297C192.288 52.2939 190.862 52.1261 189.438 52.1228C187.964 52.1193 186.054 52.2793 184.678 52.2762C184.135 52.2748 184.037 51.7296 184.58 51.5698C186.453 51.029 186.893 50.5984 187.092 49.0252C187.142 48.2673 187.294 46.9078 187.299 44.7888L187.318 36.2592Z" fill="white"/>
</g>
<mask id="mask37_251_2571" style="mask-type:luminance" maskUnits="userSpaceOnUse" x="0" y="0" width="284" height="99">
<path d="M0 0H283.8V99H0V0Z" fill="white"/>
</mask>
<g mask="url(#mask37_251_2571)">
<path d="M61.229 43.2457L63.7047 46.2026L66.0175 43.2533L63.6863 40.3324L61.229 43.2457Z" fill="white"/>
</g>
<mask id="mask38_251_2571" style="mask-type:luminance" maskUnits="userSpaceOnUse" x="0" y="0" width="284" height="99">
<path d="M0 0H283.8V99H0V0Z" fill="white"/>
</mask>
<g mask="url(#mask38_251_2571)">
<path d="M60.132 43.5509C59.8696 44.1514 59.2424 46.0155 58.6556 47.8041C58.3308 48.7999 58.1332 49.8444 58.6892 50.4451C59.0359 50.8193 59.6361 51.0975 60.7169 51.4675C61.1083 51.6107 61.0592 52.0705 60.4992 52.0691C58.8154 52.0652 57.7795 51.9266 56.406 51.9234C55.2884 51.9208 54.6786 52.0556 53.175 52.0521C52.6125 52.0507 52.5715 51.6363 52.9566 51.4493C53.7349 51.1285 54.4255 50.8086 54.9853 50.3934C55.5487 49.9247 56.3296 48.6779 57.1474 46.8304C59.4042 41.7877 61.3092 36.6081 62.9146 32.5344C63.3065 31.5647 63.4792 31.0582 63.7342 30.4047C63.8674 30.0366 64.1677 29.5392 64.3885 29.3083C64.6909 29.031 64.8888 28.9029 65.1675 28.7008C65.6604 28.3395 66.5266 28.0277 66.7431 28.0282C67.0162 28.0286 66.9773 28.2377 66.9766 28.5616C66.9757 28.9793 67.0509 29.5965 67.49 31.1109C68.704 35.3282 70.5718 41.9127 72.7472 48.5319C73.394 50.498 74.1661 50.8544 75.9756 51.5029C76.3621 51.6461 76.3612 52.1061 75.8446 52.105C74.204 52.101 72.4831 51.9609 71.1406 51.9576C69.8943 51.9548 69.162 52.0894 67.5711 52.0857C67.006 52.0843 67.0071 51.6244 67.3524 51.4828C68.9941 50.9776 69.0814 50.6891 68.6067 49.0677C68.185 47.4928 67.9704 46.7382 67.3475 44.51C67.036 43.3954 66.3629 40.9828 66.2479 40.5287C66.0383 39.6654 65.5445 37.8321 64.9456 35.839C64.5407 34.4977 64.2553 33.3584 64.154 33.3482C64.0243 33.3405 63.9882 33.4343 63.8974 33.6581C63.5654 34.4571 62.9747 35.9356 62.8119 36.3198C62.5472 36.9669 60.3483 43.0433 60.132 43.5509Z" fill="white"/>
</g>
<mask id="mask39_251_2571" style="mask-type:luminance" maskUnits="userSpaceOnUse" x="0" y="0" width="284" height="99">
<path d="M0 0H283.8V99H0V0Z" fill="white"/>
</mask>
<g mask="url(#mask39_251_2571)">
<path d="M214.971 43.6036L217.444 46.5605L219.757 43.6112L217.426 40.6904L214.971 43.6036Z" fill="white"/>
</g>
<mask id="mask40_251_2571" style="mask-type:luminance" maskUnits="userSpaceOnUse" x="0" y="0" width="284" height="99">
<path d="M0 0H283.8V99H0V0Z" fill="white"/>
</mask>
<g mask="url(#mask40_251_2571)">
<path d="M213.872 43.9093C213.612 44.5098 212.985 46.3739 212.396 48.1625C212.073 49.1583 211.874 50.2028 212.429 50.8035C212.778 51.1777 213.378 51.4559 214.459 51.8259C214.848 51.9691 214.799 52.4289 214.239 52.4275C212.555 52.4236 211.519 52.285 210.146 52.2818C209.028 52.2792 208.418 52.414 206.915 52.4105C206.352 52.4091 206.311 51.9947 206.696 51.8077C207.477 51.4869 208.165 51.167 208.728 50.7518C209.289 50.2831 210.069 49.0363 210.889 47.1899C213.144 42.1461 215.049 36.9665 216.655 32.8928C217.046 31.9231 217.219 31.4166 217.474 30.7631C217.607 30.395 217.908 29.8976 218.128 29.6667C218.431 29.3894 218.629 29.2613 218.905 29.0592C219.4 28.6979 220.267 28.3861 220.483 28.3866C220.756 28.387 220.72 28.5961 220.719 28.92C220.718 29.3377 220.788 29.9549 221.23 31.4693C222.447 35.6866 224.311 42.2711 226.487 48.8903C227.134 50.8564 227.906 51.2128 229.715 51.8613C230.102 52.0045 230.101 52.4645 229.582 52.4634C227.946 52.4594 226.223 52.3193 224.883 52.316C223.637 52.3132 222.904 52.4478 221.311 52.4441C220.748 52.4427 220.749 51.9828 221.095 51.8412C222.734 51.336 222.821 51.0475 222.346 49.4272C221.925 47.8512 221.71 47.0966 221.087 44.8684C220.776 43.7538 220.103 41.3412 219.988 40.8871C219.779 40.0238 219.284 38.1905 218.686 36.1974C218.283 34.8563 217.995 33.7168 217.896 33.7066C217.764 33.6989 217.728 33.7927 217.637 34.0165C217.305 34.8155 216.714 36.294 216.551 36.6782C216.287 37.3255 214.088 43.4017 213.872 43.9093Z" fill="white"/>
</g>
</svg>
