<svg width="385" height="562" viewBox="0 0 385 562" fill="none" xmlns="http://www.w3.org/2000/svg">
<path d="M26.3215 176.644C25.7643 143.564 29.2897 129.137 50.0773 118.951C54.0133 89.8319 60.3622 77.8963 85.1455 70.8739C97.718 42.9941 111.164 31.2803 137.182 32.9776C156.413 7.52449 180.169 25.6246 192.047 3L192.612 559C172.25 535.244 146.798 549.95 136.616 530.154C110.483 530.08 100.123 519 84.5799 491.692C69.8359 488.722 59.9235 483.979 50.0773 444.746C50.0773 444.746 24.6246 437.392 25.7558 388.184C2.56562 363.862 35.9369 303.907 2 281.282C18.2691 273.05 18.5362 261.061 18.4028 241.124C14.9744 191.23 17.5432 180.286 26.3215 176.644Z" fill="white" stroke="url(#paint0_linear_139_1176)" stroke-width="2" stroke-linecap="round"/>
<path d="M358.338 385.356C358.895 418.436 355.369 432.863 334.582 443.049C330.646 472.168 324.297 484.104 299.514 491.126C286.941 519.006 273.495 530.72 247.477 529.022C228.246 554.476 204.49 536.375 192.612 559L192.047 3.00006C212.409 26.7563 237.862 12.0503 248.043 31.8464C274.177 31.9198 284.536 43.0001 300.079 70.3083C314.823 73.2776 324.736 78.0207 334.582 117.254C334.582 117.254 360.035 124.608 358.903 173.816C382.094 198.138 348.722 258.093 382.659 280.718C366.39 288.95 366.123 300.939 366.256 320.876C369.685 370.77 367.116 381.714 358.338 385.356Z" fill="white" stroke="url(#paint1_linear_139_1176)" stroke-width="2" stroke-linecap="round"/>
<defs>
<linearGradient id="paint0_linear_139_1176" x1="2.00001" y1="281" x2="193" y2="281" gradientUnits="userSpaceOnUse">
<stop stop-color="#D6B54E"/>
<stop offset="1" stop-color="white"/>
</linearGradient>
<linearGradient id="paint1_linear_139_1176" x1="383" y1="281" x2="192" y2="281" gradientUnits="userSpaceOnUse">
<stop stop-color="#D6B54E"/>
<stop offset="1" stop-color="white"/>
</linearGradient>
</defs>
</svg>
