<svg width="124" height="134" viewBox="0 0 124 134" fill="none" xmlns="http://www.w3.org/2000/svg">
<path fill-rule="evenodd" clip-rule="evenodd" d="M75.7067 131.656C75.7067 131.656 77.1403 132.224 79.154 132.25C80.8368 132.289 82.9156 131.96 84.9275 130.626C84.9275 130.626 85.0986 130.864 85.4407 131.194C86.3741 132.118 88.598 133.808 91.9654 133.451C93.5441 133.293 95.3849 132.659 97.4637 131.286C97.4637 131.286 97.5158 131.326 97.6087 131.418C98.254 131.986 101.225 134.111 107.224 131.564C108.131 131.18 109.119 130.68 110.171 130.059C110.171 130.059 110.355 130.191 110.736 130.39C112.157 131.154 116.301 132.858 123.127 131.524C123.127 131.524 119.55 117.445 118.023 93.1907C116.512 68.9365 111.104 47.1106 111.104 47.1106L109.751 29.4815C109.751 29.4815 91.3871 23.6615 87.6107 34.2714L88.2168 44.9072C88.2168 44.9072 82.1663 62.1533 79.9164 92.6627C77.6795 123.159 75.7067 131.656 75.7067 131.656Z" fill="white"/>
<path fill-rule="evenodd" clip-rule="evenodd" d="M87.2295 29.6534C87.2295 29.7054 87.2295 29.7463 87.2295 29.7984C87.2295 29.8374 87.2295 29.8914 87.2295 29.9434C87.2295 30.1294 87.2295 30.3395 87.2295 30.5515C87.2295 30.6035 87.2295 30.6556 87.2425 30.7095C87.2425 30.7616 87.2425 30.8155 87.2425 30.8676C87.2425 30.9475 87.2425 31.0386 87.2555 31.1316C87.2555 31.1706 87.2555 31.2246 87.2555 31.2636C87.2555 31.2896 87.2555 31.3287 87.2555 31.3566C87.2555 31.4217 87.2555 31.4737 87.2686 31.5277C87.2834 31.7657 87.2964 32.0148 87.3095 32.2528C87.3095 32.3049 87.3095 32.3588 87.3095 32.4109C87.3225 32.5299 87.3355 32.6489 87.3355 32.7809C87.3355 32.846 87.3485 32.8999 87.3485 32.965C87.3876 33.415 87.4266 33.8891 87.4675 34.3781C87.4805 34.4823 87.4935 34.5883 87.5066 34.6942C87.5326 34.9192 87.5456 35.1424 87.5716 35.3673C87.5847 35.4733 87.5977 35.5644 87.6107 35.6704C87.6107 35.6965 87.6237 35.7095 87.6237 35.7244C87.6386 35.8155 87.6386 35.9084 87.6516 36.0014C87.6776 36.1855 87.7037 36.3696 87.7297 36.5555V36.5685C87.7297 36.5815 87.7297 36.5946 87.7427 36.6076C87.7557 36.7396 87.7818 36.8716 87.7948 37.0036C87.8357 37.2286 87.8617 37.4648 87.9008 37.6898C87.9268 37.7957 87.9398 37.9148 87.9528 38.0319C88.0328 38.4819 88.1239 38.943 88.2169 39.3911C88.691 41.7805 89.3864 44.1419 90.3478 46.0813C90.4258 46.2282 90.4928 46.3863 90.5709 46.5183C90.6769 46.7154 90.794 46.9143 90.9 47.0984C90.939 47.1635 90.9651 47.2174 91.006 47.2825C91.032 47.3234 91.0711 47.3755 91.0971 47.4145C91.1101 47.4554 91.1361 47.4815 91.1622 47.5205C91.1901 47.5596 91.2291 47.6135 91.2551 47.6655C91.2942 47.7176 91.3332 47.7845 91.3741 47.8366C92.0305 48.7607 92.7687 49.5138 93.6222 50.014C94.1893 50.358 94.7936 50.5811 95.4649 50.6741C95.9111 50.741 96.3462 50.767 96.7925 50.7801C99.0945 50.8061 101.305 50.001 103.265 48.1676C103.291 48.1267 103.33 48.1006 103.356 48.0616C103.397 48.0356 103.436 47.9965 103.462 47.9556C103.527 47.8905 103.607 47.8236 103.672 47.7585C103.698 47.7176 103.739 47.6916 103.765 47.6525C103.869 47.5465 103.975 47.4275 104.067 47.3234C104.107 47.2825 104.133 47.2435 104.173 47.2044C104.318 47.0463 104.45 46.8734 104.593 46.6893C104.647 46.6224 104.699 46.5443 104.751 46.4774C104.777 46.4383 104.805 46.3993 104.844 46.3602C105.067 46.0553 105.29 45.7262 105.515 45.3692C105.567 45.278 105.632 45.1981 105.686 45.0921C105.896 44.75 106.106 44.393 106.303 44.0099C107.605 41.5555 108.685 38.3499 109.487 34.3112C109.5 34.2461 109.513 34.1792 109.526 34.1011C109.539 34.0341 109.554 33.9691 109.567 33.9021C109.593 33.7571 109.619 33.6121 109.645 33.48C109.738 32.965 109.829 32.4908 109.935 32.0427C109.948 31.9888 109.961 31.9367 109.961 31.8958C109.974 31.8438 109.987 31.8047 110 31.7508C110.093 31.3287 110.184 30.9196 110.29 30.5515C110.329 30.4194 110.368 30.2744 110.394 30.1424C110.407 30.1015 110.433 30.0494 110.433 29.9974C110.474 29.8653 110.513 29.7463 110.552 29.6273C110.604 29.4563 110.658 29.2964 110.71 29.1383C110.736 29.0193 110.775 28.9022 110.816 28.7832C110.829 28.7832 110.829 28.7701 110.829 28.7701C110.868 28.6511 110.907 28.5451 110.946 28.4392C110.959 28.4131 110.974 28.3871 110.974 28.3462C111 28.2811 111.026 28.2142 111.052 28.1491C111.065 28.11 111.091 28.084 111.091 28.0431C111.13 27.952 111.171 27.846 111.21 27.753C111.381 27.37 111.54 27.0279 111.711 26.7378C113.064 24.2425 114.368 24.5325 114.723 24.6645C114.368 24.4544 113.131 23.1751 113.131 15.903C113.131 13.4485 113.788 9.2258 107.265 3.71077C101.765 -0.934059 94.8587 3.34074 94.8587 3.34074C94.1763 3.89485 93.7021 6.15218 93.3991 8.36861C93.0569 10.823 92.9249 13.2384 92.9249 13.2384C92.9249 13.2384 94.1763 15.0067 94.4645 18.0934C94.4645 18.1194 94.4645 18.1473 94.4645 18.1733C94.6486 20.1796 92.3857 20.8379 90.768 21.0368C89.8736 21.1558 89.1633 21.1298 89.1633 21.1298C89.1633 21.1298 88.9792 21.3659 88.7301 21.868C88.691 21.9609 88.6371 22.0521 88.598 22.158C88.572 22.2101 88.559 22.251 88.533 22.2901C88.479 22.4091 88.427 22.5281 88.3879 22.6601C88.3749 22.6861 88.3619 22.7122 88.3489 22.7382C88.321 22.8181 88.2819 22.8962 88.2559 22.9762C88.2429 23.0152 88.2299 23.0431 88.2299 23.0692C88.1908 23.1603 88.1648 23.2532 88.1239 23.3592C88.1109 23.3853 88.1109 23.4113 88.0979 23.4373C88.0198 23.7014 87.9268 23.9784 87.8487 24.2834C87.8357 24.3224 87.8357 24.3615 87.8227 24.4024C87.7948 24.4674 87.7818 24.5604 87.7557 24.6385C87.7167 24.8375 87.6646 25.0476 87.6237 25.2596C87.5977 25.3916 87.5716 25.5236 87.5456 25.6556C87.5456 25.6686 87.5456 25.6816 87.5456 25.6947C87.5326 25.7746 87.5196 25.8527 87.5066 25.9327C87.4935 25.9977 87.4805 26.0517 87.4805 26.1037C87.4675 26.1428 87.4675 26.1967 87.4545 26.2358C87.4545 26.2878 87.4396 26.3417 87.4396 26.3938C87.4266 26.4328 87.4266 26.4868 87.4136 26.5388C87.4136 26.5928 87.4006 26.6448 87.4006 26.6969C87.3876 26.7638 87.3745 26.8289 87.3745 26.8958C87.3615 26.9609 87.3615 27.0279 87.3485 27.0929C87.3485 27.106 87.3485 27.106 87.3485 27.106C87.3355 27.1729 87.3355 27.251 87.3225 27.3309C87.3225 27.4109 87.3095 27.502 87.3095 27.595C87.2964 27.647 87.2964 27.714 87.2964 27.7661C87.2834 27.846 87.2834 27.9241 87.2686 28.0041C87.2686 28.0431 87.2686 28.084 87.2686 28.1361C87.2555 28.1881 87.2555 28.2551 87.2555 28.3202C87.2555 28.3871 87.2425 28.4522 87.2425 28.5321C87.2425 28.5972 87.2425 28.6641 87.2425 28.7292C87.2295 28.7832 87.2295 28.8352 87.2295 28.8873C87.2295 28.9022 87.2295 28.9152 87.2295 28.9282C87.2295 29.0602 87.2295 29.2052 87.2165 29.3373C87.2295 29.4563 87.2295 29.5474 87.2295 29.6534Z" fill="#FDF2E1"/>
<path fill-rule="evenodd" clip-rule="evenodd" d="M107.265 3.71077C101.765 -0.934058 94.8587 3.34074 94.8587 3.34074C94.1763 3.89485 93.7021 6.15218 93.399 8.36861C93.0569 10.823 92.9249 13.2384 92.9249 13.2384C92.9528 13.3704 94.0573 14.6497 94.4645 18.1733C94.6486 20.1796 92.3856 20.8379 90.768 21.0368C89.8736 21.1558 89.1633 21.1298 89.1633 21.1298C88.2429 22.357 87.5586 24.8505 87.3355 26.3678C86.9134 29.1922 87.1514 33.309 87.5195 36.0665L87.9007 39.4841C88.3879 41.8734 89.3864 44.1419 90.3477 46.0813L91.3741 47.8366C92.8598 49.9359 94.3734 50.741 96.7925 50.7801C101.344 50.8321 104.357 47.6916 106.303 44.0099C107.791 41.2003 108.895 37.6098 109.645 33.48C110.026 31.3826 110.671 28.6232 111.711 26.7378C113.064 24.2425 114.368 24.5325 114.723 24.6645C114.368 24.4544 113.131 23.1751 113.131 15.903C113.131 13.4485 113.788 9.2258 107.265 3.71077Z" fill="white"/>
<path fill-rule="evenodd" clip-rule="evenodd" d="M92.7017 17.7092C95.965 19.1744 98.0829 16.0599 98.0829 16.0599C98.0829 16.0599 98.0829 16.0599 98.0829 16.0469C98.0829 16.0208 98.0699 15.8758 98.042 15.6508C97.8579 13.5534 96.9505 4.09268 95.3198 3.72266C95.3198 3.72266 95.0706 4.26375 94.6876 5.13395C94.5574 5.4389 94.4124 5.78103 94.2673 6.16407C94.2153 6.28307 94.1614 6.40208 94.1093 6.5341C93.5831 7.82639 92.9918 9.43665 92.5176 11.019C91.6233 14.0554 91.216 17.0231 92.7017 17.7092Z" fill="#FFC09C"/>
<path fill-rule="evenodd" clip-rule="evenodd" d="M107.224 131.564C108.131 131.168 109.119 130.681 110.171 130.047C110.171 130.047 110.355 130.192 110.736 130.391L110.632 129.889C110.632 129.889 109.554 87.1742 108.908 74.7031C108.908 74.7031 108.802 122.71 107.224 131.564Z" fill="#E9E9E9" fill-opacity="0.639"/>
<path fill-rule="evenodd" clip-rule="evenodd" d="M91.9654 133.451C93.544 133.28 95.3849 132.659 97.4637 131.274C97.4637 131.274 97.5158 131.326 97.6087 131.406C97.6478 124.268 97.8058 106.914 98.3451 94.3516C98.3451 94.3516 95.0427 124.887 91.9654 133.451Z" fill="#E9E9E9" fill-opacity="0.639"/>
<path fill-rule="evenodd" clip-rule="evenodd" d="M79.154 132.25C80.8368 132.289 82.9156 131.947 84.9145 130.627C84.9145 130.627 85.0985 130.865 85.4407 131.194C86.0859 120.413 88.4399 82.5164 90.2956 68.792C90.0446 70.4673 83.691 113.182 79.154 132.25Z" fill="#E9E9E9" fill-opacity="0.639"/>
<path fill-rule="evenodd" clip-rule="evenodd" d="M105.093 46.003C105.093 46.003 101.95 45.0919 100.134 45.845C98.332 46.5962 101.831 46.8733 101.831 46.8733C101.831 46.8733 96.3592 48.6025 98.187 50.8729C100.03 53.1413 104.12 50.4638 105.922 48.8665C107.724 47.2823 105.093 46.003 105.093 46.003Z" fill="#FFC09C"/>
<path fill-rule="evenodd" clip-rule="evenodd" d="M89.7025 47.9561C89.7025 47.9561 93.479 48.8281 93.663 49.8173C93.8341 50.7935 92.1625 50.2004 92.1625 50.2004C92.1625 50.2004 94.8326 53.287 93.5831 54.6871C92.3336 56.0984 89.7694 55.8604 89.0591 53.1829C88.3618 50.5165 86.7032 49.4473 86.7032 49.4473L89.7025 47.9561Z" fill="#FFC09C"/>
<path fill-rule="evenodd" clip-rule="evenodd" d="M81.482 43.9707C82.1124 47.9815 87.1644 50.9119 87.1644 50.9119C87.1644 50.9119 89.1893 48.7085 91.2681 47.6654C90.939 47.1782 90.6378 46.6502 90.3477 46.0812C89.4924 44.8409 88.3619 43.1396 87.8877 42.2285C87.8877 42.2285 88.0197 41.0143 88.2168 39.391C87.4805 35.7503 87.2295 32.0556 87.2295 29.6532C87.2295 25.5104 88.1648 23.0151 88.743 21.8809C87.2685 21.9738 85.6508 22.712 84.7695 25.1534C82.8766 30.3524 80.8628 39.973 81.482 43.9707Z" fill="white"/>
<path fill-rule="evenodd" clip-rule="evenodd" d="M103.527 44.9728C103.856 45.5269 103.897 46.9271 104.067 47.8773C104.173 48.3644 104.409 50.4637 104.409 50.4637C104.409 50.4637 108.343 50.9118 111.869 50.4637C114.091 50.1718 116.156 49.5266 116.945 48.1803C118.998 44.6828 117.209 36.4623 116.275 30.1682C115.578 25.4173 114.92 24.8242 114.723 24.6792C114.407 24.5192 112.986 24.1381 111.67 26.3805C110.42 28.5319 109.987 31.7115 109.539 34.1138L109.5 34.324C109.409 38.8237 109.816 43.1264 109.816 43.1264C108.579 43.3366 107.382 43.6675 106.303 44.0227C104.107 44.5917 103.555 44.9468 103.527 44.9728Z" fill="white"/>
<path fill-rule="evenodd" clip-rule="evenodd" d="M109.671 43.2459C109.723 43.2459 109.777 43.205 109.777 43.1529L109.645 34.5364C109.645 34.4825 109.593 34.4304 109.539 34.4434C109.487 34.4434 109.448 34.4825 109.448 34.5364L109.58 43.1529C109.58 43.205 109.619 43.2459 109.671 43.2459Z" fill="#E9E9E9"/>
<path fill-rule="evenodd" clip-rule="evenodd" d="M104.383 49.8171C104.436 49.8041 104.476 49.7632 104.476 49.7111L103.897 44.9082C105.751 44.0101 107.776 43.3779 109.79 43.047C109.842 43.0339 109.881 42.9949 109.868 42.941C109.868 42.8889 109.816 42.8499 109.764 42.8629C107.711 43.192 105.632 43.8521 103.752 44.7632C103.711 44.7762 103.698 44.8153 103.698 44.8543L104.278 49.7241C104.291 49.778 104.331 49.8171 104.383 49.8171Z" fill="#E9E9E9"/>
<path fill-rule="evenodd" clip-rule="evenodd" d="M112.921 45.3956C112.947 45.3956 112.96 45.3826 112.973 45.3695C113.025 45.3435 113.025 45.2784 112.999 45.2375C112.183 44.1293 110.959 43.3112 109.632 42.982C109.58 42.969 109.526 43.0081 109.513 43.0471C109.5 43.101 109.539 43.1531 109.593 43.1661C110.868 43.4822 112.053 44.2874 112.841 45.3565C112.854 45.3826 112.893 45.3956 112.921 45.3956Z" fill="#E9E9E9"/>
<path fill-rule="evenodd" clip-rule="evenodd" d="M110.329 50.7278C110.868 50.7278 111.408 50.7278 111.947 50.6999C111.999 50.6999 112.04 50.6609 112.04 50.6088C112.025 50.5549 111.986 50.5029 111.934 50.5159C109.513 50.5958 107.081 50.4898 104.686 50.1719C104.634 50.1719 104.58 50.2128 104.567 50.2648C104.567 50.3188 104.608 50.3708 104.66 50.3708C106.527 50.6088 108.434 50.7278 110.329 50.7278Z" fill="#E9E9E9"/>
<path fill-rule="evenodd" clip-rule="evenodd" d="M84.4682 42.7431C84.4812 42.7431 84.4942 42.7301 84.5073 42.7301C85.5467 42.189 86.7423 42.005 87.9007 42.2151C87.9267 42.2281 87.9528 42.2151 87.9788 42.202C87.9937 42.176 88.0067 42.15 88.0067 42.1221C88.0588 41.2779 88.1368 40.3147 88.2168 39.3646L88.0327 39.3516C87.9528 40.2627 87.8617 41.1868 87.8226 42.005C86.6642 41.819 85.4667 42.018 84.4273 42.5591C84.3752 42.5851 84.3622 42.6372 84.3883 42.6911C84.4013 42.7171 84.4273 42.7431 84.4682 42.7431Z" fill="#E9E9E9"/>
<path fill-rule="evenodd" clip-rule="evenodd" d="M91.4652 47.6781C91.4912 47.6781 91.5043 47.6781 91.5173 47.6651C91.5712 47.6391 91.5842 47.5722 91.5582 47.5331L88.5199 42.9552C88.492 42.9013 88.4269 42.8883 88.3879 42.9143C88.3488 42.9552 88.3339 43.0073 88.3618 43.0593L91.3871 47.6391C91.4131 47.6651 91.4392 47.6781 91.4652 47.6781Z" fill="#E9E9E9"/>
<path fill-rule="evenodd" clip-rule="evenodd" d="M87.5455 50.8053C87.5716 50.8053 87.5976 50.7923 87.6106 50.7792C88.5589 49.6971 89.6374 48.7339 90.8218 47.9157C90.8609 47.8897 90.8739 47.8228 90.8479 47.7837C90.807 47.7447 90.7549 47.7317 90.7028 47.7577C89.5054 48.5758 88.4269 49.552 87.4674 50.6472C87.4265 50.6863 87.4396 50.7532 87.4805 50.7792C87.4935 50.8053 87.5195 50.8053 87.5455 50.8053Z" fill="#E9E9E9"/>
<path fill-rule="evenodd" clip-rule="evenodd" d="M92.2815 55.6364C92.9118 55.6215 93.5049 55.2273 93.7541 54.6583C93.9642 54.2102 93.9772 53.6691 93.7932 52.9569C93.544 51.8748 93.0048 50.8577 92.2684 50.0395C92.2294 50.0005 92.1624 49.9875 92.1234 50.0265C92.0844 50.0674 92.0844 50.1195 92.1234 50.1585C92.8467 50.9637 93.3599 51.9547 93.6091 53.009C93.7671 53.6691 93.7671 54.1711 93.583 54.5672C93.3599 55.0804 92.8207 55.4374 92.2815 55.4504C92.2145 55.4504 92.1755 55.4895 92.1755 55.5434C92.1755 55.5955 92.2294 55.6364 92.2815 55.6364Z" fill="#E9E9E9"/>
<path fill-rule="evenodd" clip-rule="evenodd" d="M98.5292 16.0886C98.7393 15.6925 98.8973 15.2834 99.0814 14.8874C99.3845 14.2012 99.6876 13.3961 99.9367 12.604C100.201 11.7338 100.398 10.8357 100.608 9.95248C100.779 9.22544 100.95 8.48725 101.082 7.74721C101.173 7.26004 101.212 6.77101 101.266 6.25781C101.279 6.758 101.305 7.27306 101.266 7.7751C101.199 8.65832 101.054 9.51551 100.898 10.3876C100.74 11.1927 100.556 12.0109 100.279 12.7881C99.9628 13.6862 99.5295 14.5434 99.0293 15.3485C98.8583 15.6256 98.6872 15.9026 98.4901 16.1536C98.5031 16.1276 98.5161 16.1016 98.5292 16.0886Z" fill="#E9E9E9"/>
<path fill-rule="evenodd" clip-rule="evenodd" d="M99.3194 16.0343C99.5816 15.7963 99.8456 15.5471 100.082 15.27C101.567 13.6189 102.871 11.6925 103.804 9.37012C103.239 11.8785 102.055 13.9759 100.017 15.5601C99.7657 15.7442 99.5165 15.9153 99.2655 16.0882C99.2785 16.0733 99.3064 16.0473 99.3194 16.0343Z" fill="#E9E9E9"/>
<path fill-rule="evenodd" clip-rule="evenodd" d="M91.7032 22.3032C92.5697 22.5412 93.0048 22.5932 93.9382 22.5932C95.0297 22.5672 96.0171 22.2902 97.1606 21.8941C97.7407 21.697 98.161 21.5241 98.5961 21.327C99.2655 20.9979 99.9107 20.6018 100.556 20.2058C101.147 19.8487 101.725 19.4787 102.306 19.1106C102.884 18.7405 103.384 18.4114 103.843 17.8964C103.856 17.8703 103.882 17.8424 103.897 17.8164C103.804 17.9893 103.698 18.1474 103.581 18.2924C102.988 19.0436 102.226 19.6107 101.476 20.1927C100.647 20.7989 99.7526 21.314 98.8452 21.7881C98.226 22.0801 97.5827 22.3032 96.9244 22.5152C95.978 22.8182 95.0037 23.0693 94.0182 23.0823C93.1889 23.0693 92.3726 22.8963 91.6102 22.5802C91.032 22.3162 90.4927 21.948 89.9535 21.6171C90.5578 21.8551 91.071 22.1191 91.7032 22.3032Z" fill="#E9E9E9"/>
<path fill-rule="evenodd" clip-rule="evenodd" d="M96.0431 19.9152C96.1752 19.9022 96.3072 19.8613 96.4504 19.8353C97.1606 19.6642 97.6869 19.5192 98.2261 19.2012C98.5162 19.0302 98.8062 18.8461 99.0163 18.582C98.7653 19.0971 98.28 19.4653 97.7798 19.6902C97.2536 19.9152 96.6753 19.9543 96.1082 19.9282C96.0692 19.9282 95.965 19.9152 96.0431 19.9152Z" fill="#E9E9E9"/>
<path fill-rule="evenodd" clip-rule="evenodd" d="M101.383 29.2046C101.871 28.8866 102.291 28.4515 102.713 28.0555C103.213 27.5553 103.726 27.0663 104.199 26.5382C107.198 23.1076 109.158 18.6208 109.816 13.8979C109.935 13.0128 110.026 12.4587 110.106 11.4825C110.132 10.5974 110.106 9.71418 110.052 8.8291C110.249 9.77926 110.407 10.7555 110.42 11.7335C110.42 12.5238 110.342 13.3159 110.236 14.108C110.355 14.227 110.342 14.452 110.171 14.5301C110.145 14.729 110.119 14.9131 110.078 15.0972C109.567 18.1188 108.486 21.0362 106.936 23.6747C106.527 24.3478 106.08 25.0209 105.606 25.655C105.199 26.1961 104.777 26.7093 104.292 27.1723C103.633 27.7654 102.923 28.2935 102.187 28.7825C101.91 28.9666 101.608 29.1246 101.292 29.2436C101.331 29.2306 101.357 29.2176 101.383 29.2046Z" fill="#E9E9E9"/>
<path fill-rule="evenodd" clip-rule="evenodd" d="M90.2957 33.6787C90.861 34.5359 91.6754 35.5511 92.3597 36.1052C92.6497 36.3302 92.7687 36.4102 93.1239 36.6333C93.308 36.7393 93.5051 36.8453 93.7152 36.9364C94.5166 37.2283 95.0837 37.3733 95.8591 37.3455C96.8055 37.3194 98.096 36.9643 98.9513 36.5422C100.344 35.8412 101.357 35.023 102.423 33.8367C103.278 32.8605 104.054 31.8174 104.922 30.8542C105.896 29.8111 106.988 28.8739 108.237 28.1748C106.698 29.389 105.461 30.9063 104.225 32.4106C103.646 33.1227 103.107 33.8628 102.475 34.5229C101.305 35.7761 99.8717 36.8044 98.267 37.3994C97.4117 37.6634 96.5173 37.8735 95.6229 37.8605C94.7416 37.8345 93.8732 37.5835 93.096 37.1744C92.5698 36.8843 92.0975 36.4752 91.6884 36.0141C91.032 35.261 90.5969 34.3648 90.1637 33.4797C90.2027 33.5467 90.2418 33.6117 90.2957 33.6787Z" fill="#E9E9E9"/>
<path fill-rule="evenodd" clip-rule="evenodd" d="M93.0308 39.9059C93.5701 40.5269 94.2153 41.2001 94.7936 41.5682C95.7809 42.1893 96.7404 42.5314 97.7668 42.5593C98.8192 42.5723 100.069 42.2543 100.989 41.8192C101.476 41.5961 101.91 41.3042 102.358 41.0141C102.726 40.7631 103.12 40.5269 103.501 40.302C103.159 40.592 102.817 40.8951 102.475 41.187C102.016 41.6091 101.528 42.0312 100.963 42.3213C99.9237 42.8494 98.7393 43.1134 97.5697 43.0725C96.2941 42.9944 95.0297 42.3343 94.2283 41.5162C93.7672 41.0141 93.399 40.486 93.0178 39.9059C93.0048 39.8799 92.9918 39.8538 92.9658 39.8408C92.9918 39.8669 93.0178 39.8929 93.0308 39.9059Z" fill="#E9E9E9"/>
<path fill-rule="evenodd" clip-rule="evenodd" d="M90.4667 26.4861C90.7289 27.2503 90.952 27.9104 91.2291 28.5184C91.4132 28.9405 91.9133 29.6917 92.0714 29.8907C92.4265 30.3518 92.7947 30.7479 93.267 31.0249C93.492 31.1569 93.7151 31.302 93.9513 31.3689C94.2544 31.447 94.5705 31.447 94.8587 31.3689C94.2674 31.659 93.6761 31.54 93.0959 31.2759C91.8464 30.6958 91.032 29.3496 90.7289 28.0294C90.5969 27.4623 90.4928 26.8691 90.3998 26.2871C90.4258 26.354 90.4518 26.4191 90.4667 26.4861Z" fill="#E9E9E9"/>
<path fill-rule="evenodd" clip-rule="evenodd" d="M94.1093 6.5341C94.5574 6.54711 95.0297 6.74421 95.3458 7.06031C95.952 7.66834 96.1751 8.53855 96.3592 9.36971C96.8464 11.482 97.3187 13.6055 98.042 15.6378C97.8709 13.5534 96.9505 4.09268 95.3198 3.72266C95.3198 3.72266 95.0706 4.26375 94.6876 5.13395C94.5165 5.53001 94.3194 6.00602 94.1093 6.5341Z" fill="#F49870"/>
<path fill-rule="evenodd" clip-rule="evenodd" d="M94.2543 6.16407C94.2804 6.16407 94.3064 6.16407 94.3324 6.16407C94.8865 6.21614 95.3458 6.61219 95.6359 7.0882C95.9241 7.54934 96.0561 8.10344 96.2011 8.63152C96.8055 11.099 97.4116 13.5534 98.029 16.0208L98.0829 16.0469C98.0829 16.0208 98.0699 15.8758 98.042 15.6508C97.8579 13.5534 96.9505 4.09268 95.3198 3.72266C95.3198 3.72266 95.0576 4.26375 94.6876 5.13395C94.5574 5.4389 94.4124 5.78103 94.2543 6.16407Z" fill="#F49870"/>
<path fill-rule="evenodd" clip-rule="evenodd" d="M87.8877 35.4469C87.8357 34.9839 87.7687 34.4967 87.7167 33.9817C87.4675 31.3692 87.3615 28.0966 87.7036 25.7463C87.8877 24.5061 88.3749 22.6336 89.0461 21.3265C89.0461 21.3004 89.0592 21.2874 89.0592 21.2744C88.9402 21.4585 88.8212 21.6556 88.704 21.8806C88.717 21.8806 88.717 21.8806 88.73 21.8806C88.73 21.8806 88.73 21.8806 88.7431 21.8806C88.1648 23.0148 87.2295 25.5102 87.2295 29.653C87.2295 29.705 87.2295 29.7459 87.2295 29.798C87.2295 31.5663 87.3745 34.0207 87.7427 36.6072C87.8747 37.5183 88.0328 38.4554 88.2168 39.3647C88.2168 39.3777 88.2168 39.3907 88.2168 39.4056C88.1908 39.7477 88.1499 40.1047 88.1239 40.4469C88.5199 41.9511 89.0982 43.4033 89.7155 44.7496L89.8215 44.9076L91.5582 47.5331C91.5842 47.5722 91.5712 47.6391 91.5173 47.6651C91.5043 47.6781 91.4913 47.6781 91.4652 47.6781C91.4392 47.6781 91.4132 47.6651 91.3871 47.6391L90.3087 46.0158C90.3217 46.0288 90.3347 46.0419 90.3477 46.0679C90.3477 46.0679 90.3477 46.0679 90.3477 46.0809L90.3608 46.0958L91.3741 47.8362C91.4262 47.9031 91.4783 47.9812 91.5322 48.0482C91.6884 48.2732 91.8594 48.4703 92.0305 48.6674C92.8468 48.9983 93.5831 49.3944 93.6631 49.8165C93.6761 49.8946 93.6761 49.9745 93.6631 50.0396C93.7542 50.0935 93.8602 50.1456 93.9513 50.1995C94.5575 50.4896 95.2138 50.6607 95.965 50.7276C96.2272 50.7536 96.4913 50.7666 96.7534 50.7797C96.7534 50.7797 96.7664 50.7797 96.7795 50.7797C96.7795 50.7797 96.7795 50.7797 96.7925 50.7797C96.8185 50.7797 96.8464 50.7797 96.8724 50.7797C97.2666 50.7797 97.6738 50.7536 98.0699 50.6997C97.9379 50.5156 97.8579 50.3185 97.8319 50.1326C97.6088 50.1456 97.3856 50.1586 97.1606 50.1456C94.7415 50.1196 93.228 49.3144 91.7423 47.217L90.7159 45.4487C89.7564 43.5093 88.7561 41.239 88.2819 38.8645L87.8877 35.4469Z" fill="#E9E9E9"/>
<path fill-rule="evenodd" clip-rule="evenodd" d="M109.526 32.8865C108.776 37.0163 107.659 40.618 106.184 43.4164C106.106 43.5615 106.041 43.6935 105.961 43.8385C106.132 43.7734 106.316 43.7195 106.487 43.6544C107.211 42.2283 107.843 40.592 108.382 38.8106C108.75 37.5704 109.093 36.2372 109.396 34.7869C109.409 34.6939 109.422 34.6139 109.448 34.5358C109.448 34.5228 109.448 34.5098 109.448 34.4968C109.461 34.4429 109.474 34.3778 109.487 34.3109L109.526 34.1007L109.567 33.9018L109.645 33.4797C109.684 33.2956 109.71 33.1097 109.751 32.9256C109.803 32.5965 109.868 32.2525 109.935 31.9234C110.303 29.9821 110.775 27.9238 111.67 26.3804C112.88 24.3221 114.171 24.4671 114.63 24.6382C114.656 24.6512 114.697 24.6512 114.723 24.6642C114.604 24.5991 114.407 24.4281 114.197 23.993C113.618 23.9651 112.618 24.2551 111.579 26.1424C110.816 27.5556 110.264 29.428 109.881 31.1573C109.738 31.7653 109.619 32.3455 109.526 32.8865Z" fill="#E9E9E9"/>
<path d="M15.3277 21.7561C15.3184 21.7561 15.3109 21.7543 15.3091 21.7506C15.3035 21.7338 15.3109 21.7357 15.3277 21.7561Z" fill="#F4BA80"/>
<path d="M32.2874 8.2453C32.2855 8.37174 32.2725 8.49632 32.2483 8.61904C32.2297 8.73247 32.2 8.84217 32.1628 8.95188C32.1163 9.09506 32.0512 9.23451 31.9731 9.36653C31.8114 9.63615 31.5622 10.0043 31.6719 10.3334C32.3655 12.4141 30.8408 14.863 30.8408 14.863C30.1472 15.7425 30.2848 16.7131 30.2848 16.7131C30.1472 17.9608 29.0836 17.7302 29.0836 17.7302C28.483 17.7302 27.1108 17.4531 27.1108 17.4531C27.1108 17.4847 26.9062 18.3977 26.8895 18.5C26.7705 19.1824 27.0568 19.7551 27.6091 20.153C28.1744 20.5602 28.9014 20.8057 29.5819 20.9358C29.634 20.9451 30.5637 21.04 30.5618 21.0269C31.0565 26.5122 25.6939 41.0566 25.6939 41.0566C23.2636 35.1269 15.7851 22.2988 15.3276 21.7558C15.4485 21.7521 16.1235 21.3728 16.1774 21.343C16.9342 20.9284 17.6556 20.4617 18.3864 20.008C18.6597 19.8369 18.9312 19.664 19.1989 19.4873C19.608 19.2196 19.8553 18.8198 20.1454 18.4405C20.3834 18.1281 20.6028 17.8008 20.785 17.4531C21.3224 16.4398 21.5474 15.2869 21.5288 14.149C21.5251 13.805 21.5009 13.4591 21.447 13.1207C21.4377 13.0575 21.4265 12.7823 21.3652 12.7377C19.0539 11.12 19.8386 9.13224 19.8386 9.13224C21.5028 6.86933 22.7969 10.3799 22.7969 10.3799C23.5835 7.97755 25.4317 6.63691 25.4317 6.63691C28.6206 3.448 30.7943 4.97273 30.7943 4.97273C31.2182 5.27023 31.6329 5.52497 31.8858 5.99913C32.2762 6.72244 32.3004 7.45133 32.2874 8.2453Z" fill="#FFC19C"/>
<path d="M31.274 4.86875C31.274 4.86875 31.2889 4.88176 31.3168 4.90408C31.3465 4.93011 31.3837 4.96544 31.4302 5.01192C31.5232 5.10675 31.6441 5.24621 31.7742 5.42285C31.8356 5.51396 31.9062 5.60879 31.9676 5.71664C31.9992 5.77242 32.0327 5.82635 32.0661 5.88399C32.0959 5.94163 32.1256 6.00113 32.1554 6.06063C32.2223 6.17964 32.2688 6.31165 32.3265 6.43995C32.3767 6.57383 32.425 6.70771 32.4696 6.84531C32.505 6.9829 32.5496 7.11864 32.5793 7.25624C32.6054 7.39384 32.637 7.52771 32.6574 7.65973C32.6742 7.79175 32.6909 7.91819 32.7076 8.03905C32.7169 8.15992 32.7225 8.2752 32.73 8.38119C32.7374 8.48717 32.743 8.58386 32.7393 8.6694C32.7393 8.75493 32.7374 8.83116 32.7374 8.89253C32.7374 9.01525 32.7355 9.08591 32.7355 9.08591C32.7355 9.08591 32.73 9.01525 32.7225 8.89253C32.7169 8.83116 32.7114 8.75679 32.7058 8.67126C32.7002 8.58758 32.6872 8.49089 32.6723 8.38676C32.6556 8.28264 32.6426 8.16921 32.6221 8.05207C32.5961 7.93493 32.57 7.81034 32.5422 7.68205C32.5124 7.5556 32.4696 7.42731 32.4343 7.29529C32.3953 7.16513 32.3395 7.03683 32.2949 6.90667C32.2428 6.77837 32.1851 6.65193 32.1275 6.52921C32.0606 6.41206 32.0066 6.28934 31.9341 6.1815C31.9007 6.12757 31.8672 6.07365 31.8356 6.02159C31.8002 5.97138 31.7649 5.92118 31.7314 5.87469C31.6664 5.77614 31.592 5.69433 31.5288 5.61623C31.3968 5.4619 31.2759 5.34662 31.1885 5.27038C31.1457 5.23505 31.1104 5.2053 31.0899 5.19043C31.0658 5.17183 31.0528 5.16253 31.0528 5.16253L31.0453 5.15882C30.9635 5.09745 30.9449 4.98217 31.0044 4.90036C31.0639 4.81668 31.1792 4.79809 31.2629 4.85945C31.2666 4.86317 31.2703 4.86503 31.274 4.86875Z" fill="#965017"/>
<path d="M19.3756 11.5831C19.3756 11.5831 19.701 11.7672 19.515 12.8308C19.515 12.8308 19.515 13.4314 20.2551 13.8014C20.2551 13.8014 20.0766 15.2257 21.5343 14.322C21.5455 13.3663 21.3633 12.7378 21.3633 12.7378C19.0539 11.1201 19.8386 9.13241 19.8386 9.13241C21.5027 6.86764 22.7969 10.3801 22.7969 10.3801C23.5834 7.97771 25.4317 6.63707 25.4317 6.63707C28.6206 3.44817 30.7924 4.97289 30.7924 4.97289C31.2479 5.20532 31.5715 5.52328 31.8021 5.87843C31.9508 4.70885 31.326 2.72114 26.3558 1.13691C26.3558 1.13691 23.5369 -0.943777 20.5786 3.67874C20.5786 3.67874 17.9438 7.00709 19.7474 10.4154C19.7474 10.4135 18.6839 10.3801 19.3756 11.5831Z" fill="#965017"/>
<path d="M48.9441 113.486C48.5517 112.822 48.548 111.426 48.3621 110.678C47.5198 107.305 46.155 104.101 44.8273 100.898C43.429 97.521 42.1721 94.0643 41.7035 90.4217C41.2015 86.5058 41.3409 82.5117 41.0899 78.5753C40.5823 70.6282 39.9203 62.4914 37.6184 54.825C37.094 53.079 36.4618 51.3367 35.6251 49.7153C35.322 49.1277 34.1989 46.8574 33.3584 46.4074L32.8415 41.9801V40.686C32.8415 40.686 34.753 42.5956 36.3558 40.1932C36.3558 40.1932 40.6697 27.0044 35.6771 22.5046C35.6771 22.5046 34.5224 21.2049 30.5619 21.0264C31.0546 26.5116 25.6939 41.056 25.6939 41.056C24.5225 36.2494 15.3091 21.7497 15.3091 21.7497C15.3704 21.7329 15.4448 21.7051 15.5303 21.6679C14.054 21.5024 10.2608 21.5098 8.25259 25.5262C8.25259 25.5262 4.0001 35.6935 11.2109 41.4874C11.2109 41.4874 12.8137 42.7202 16.1402 41.4874C16.1402 41.4874 16.3875 43.0289 17.003 43.583C17.003 43.583 15.5861 43.8916 17.003 45.6785C17.003 45.6785 16.2016 46.6213 16.3727 47.3948C16.3968 47.5045 16.4415 47.6123 16.5103 47.7109C16.5772 47.8076 16.6888 47.8764 16.8412 47.9228C14.5467 51.0857 10.5229 59.5145 13.2563 77.8018L14 85.0126L5.67915 114.224C5.67915 114.224 1.24258 116.998 0.872559 119.587C0.872559 119.587 0.907887 121.621 6.89893 120.511C6.89893 120.511 9.93164 119.879 10.8558 120.842C10.8558 120.842 13.7974 123.839 17.3191 121.621L15.2012 124.947C15.2012 124.947 12.5199 126.797 23.7062 126.612C23.7062 126.612 30.335 129.042 34.277 126.625C34.277 126.625 38.7749 126.005 41.7314 127.696C41.7314 127.696 50.6064 128.646 53.1947 120.697C53.1966 120.697 48.9441 113.486 48.9441 113.486Z" fill="white"/>
<path d="M23.814 126.72C21.9081 126.752 20.4039 126.724 19.2213 126.657C18.9498 128.71 18.9517 131.698 20.8501 133.193C20.8501 133.193 23.537 134.117 24.8311 131.343C24.8311 131.343 24.8311 129.411 24.0279 126.795C23.8921 126.748 23.814 126.72 23.814 126.72Z" fill="#FFC19C"/>
<path d="M33.2934 46.3768C34.1394 46.7394 35.3145 49.1138 35.6251 49.7163C35.9895 50.4247 36.3149 51.1573 36.6106 51.903C36.5232 50.2797 36.3056 48.106 36.2591 47.0238C36.2033 45.7353 36.181 44.4913 35.8872 43.2306C35.7924 42.8141 35.19 41.1667 35.5953 40.832C34.1691 42.0127 32.7355 40.5791 32.7355 40.5791V41.8733L32.9884 44.0506C33.1 44.6549 33.219 45.6218 33.2934 46.3768Z" fill="#FFC19C"/>
<path d="M15.309 66.0158C15.309 66.0158 13.9833 64.0448 13.9833 61.3319C13.9833 61.3319 13.6765 52.0274 13.9219 49.9318C14.1636 47.879 13.7657 45.8281 13.7862 43.7753C13.7936 43.1896 13.8029 42.6039 13.8159 42.02C12.0644 42.1427 11.2109 41.4882 11.2109 41.4882C10.4876 40.9081 9.8814 40.2815 9.37378 39.627C9.97809 44.2179 9.76798 48.911 10.2644 53.5205C10.4095 54.8742 10.575 56.2278 10.7795 57.5741C10.7795 57.5741 11.765 65.0303 12.0123 67.7432C12.0123 67.7432 11.9509 71.9957 13.5538 73.5967C13.5538 73.5967 14.0465 74.5208 15.5861 74.8908C15.5861 74.8908 16.4489 75.3854 17.2503 75.3222C17.2503 75.3222 17.743 75.0154 17.0048 74.4613C17.0048 74.4613 14.9688 73.7547 15.0004 71.3486C15.0097 70.7164 14.9018 70.2813 15.2402 70.2441C15.72 70.1902 16.0175 71.7 16.2034 71.9938C16.2034 71.9957 17.0178 73.2898 17.412 73.0425C17.412 73.0425 17.5589 72.3639 16.9435 71.0083C16.9416 71.0083 16.1402 66.7559 15.309 66.0158Z" fill="#FFC19C"/>
<path d="M31.0788 3.72511C31.0788 3.72511 31.1141 3.7623 31.1754 3.82738C31.2368 3.89246 31.3205 3.98729 31.4172 4.10443C31.512 4.22157 31.6217 4.35917 31.7277 4.51536C31.8355 4.66969 31.9397 4.84262 32.0364 5.0174C32.0847 5.10666 32.1237 5.19777 32.1684 5.28702C32.2056 5.37813 32.2427 5.46738 32.2744 5.55663C32.3004 5.64589 32.3301 5.73142 32.3506 5.81509C32.3673 5.89877 32.3841 5.97872 32.3971 6.05124C32.4027 6.12562 32.4082 6.19441 32.4138 6.25578C32.4212 6.31528 32.412 6.36734 32.412 6.41011C32.4064 6.4975 32.4045 6.54584 32.4045 6.54584C32.4045 6.54584 32.4008 6.4975 32.3952 6.41011C32.3896 6.3692 32.3934 6.31714 32.3803 6.25763C32.3673 6.19999 32.3543 6.13491 32.3394 6.06425C32.3208 5.9936 32.2929 5.91922 32.2688 5.84112C32.2409 5.76117 32.2018 5.68307 32.1665 5.60126C32.1256 5.51945 32.081 5.43763 32.0345 5.35582C31.9824 5.27586 31.9341 5.19219 31.8783 5.11409C31.7667 4.9579 31.6496 4.80543 31.5287 4.67155C31.4097 4.53581 31.2907 4.41681 31.1885 4.31454C31.0843 4.21599 30.9951 4.13604 30.9319 4.08398C30.8686 4.03191 30.8333 4.00216 30.8333 4.00216L30.8259 3.99658C30.7478 3.9315 30.7366 3.81622 30.8017 3.73626C30.8668 3.65631 30.9839 3.64515 31.062 3.71023C31.0676 3.71395 31.0732 3.71953 31.0788 3.72511Z" fill="#965017"/>
<path d="M22.6984 13.752C22.6984 13.752 22.6631 14.6222 23.2507 15.5556C23.2507 15.5556 24.7568 17.0171 26.7668 17.3146C26.7668 17.3146 24.4202 17.5266 22.9085 16.0223C22.9085 16.0223 22.2633 15.0331 22.6984 13.752Z" fill="#D79477"/>
<path d="M29.7605 9.28724C29.7605 9.28724 27.8508 8.76288 26.4023 9.28724C26.4023 9.28724 27.3265 8.11581 29.9148 8.87073L29.7605 9.28724Z" fill="#965017"/>
<path d="M32.2483 8.61914C32.2297 8.73256 32.2 8.84227 32.1628 8.95198C31.8244 8.95569 31.4413 9.07098 31.4097 9.08585V8.80136C31.6849 8.65819 32.0494 8.62472 32.2483 8.61914Z" fill="#965017"/>
</svg>
